<svg width="101" height="79" viewBox="0 0 101 79" fill="none" xmlns="http://www.w3.org/2000/svg">
<path fill-rule="evenodd" clip-rule="evenodd" d="M94.7128 69.019C92.3687 69.019 90.2003 69.4293 89.7901 68.14C88.1492 62.1038 79.3586 61.9866 77.6005 68.14C77.4833 68.6674 77.0145 69.019 76.487 69.019H53.6315C53.1041 69.019 52.6352 68.6674 52.4594 68.14C50.8185 62.1038 42.0279 61.9866 40.2698 68.14C40.1526 68.6674 39.6838 69.019 39.1563 69.019H31.9481C31.4206 69.019 30.9518 68.6674 30.8346 68.14C29.1351 62.1038 20.4031 61.9866 18.645 68.14C18.2934 69.3707 16.5352 69.019 14.6599 69.019C11.7297 69.019 9.38556 66.6163 9.38556 63.6861V55.0127C9.38556 54.3681 9.85439 53.8406 10.5576 53.8406H71.2713V31.3953C71.2713 30.7507 71.7987 30.2233 72.4433 30.2233H87.0357C94.1854 30.2233 100.046 36.0837 100.046 43.2333V63.6861C99.9872 66.6163 97.5844 69.019 94.7128 69.019ZM91.7826 66.6749C93.8338 66.6749 97.643 67.2023 97.643 63.6861V43.2333C97.643 37.3729 92.8375 32.5674 87.0357 32.5674H73.6154V55.0127C73.6154 55.6574 73.088 56.1848 72.4433 56.1848H11.6711V63.6861C11.6711 65.327 13.019 66.6749 14.6013 66.6749H16.6524C19.524 59.408 29.8383 59.408 32.7685 66.6749H38.3359C41.2075 59.408 51.5218 59.408 54.452 66.6749H75.6666C78.5382 59.408 88.8524 59.408 91.7826 66.6749Z" fill="black"/>
<path fill-rule="evenodd" clip-rule="evenodd" d="M98.8151 50.2658H84.4572C81.234 50.2658 78.5382 47.6286 78.5382 44.3468V31.4539C78.5382 30.7507 79.0656 30.2819 79.7103 30.2819H87.0357C94.1854 30.2819 99.9872 36.0836 99.9872 43.2333V49.1523C99.9872 49.7384 99.4598 50.2658 98.8151 50.2658ZM80.8823 32.5674V44.3468C80.8823 46.3393 82.4646 47.9216 84.4572 47.9216H97.643V43.2333C97.643 37.3729 92.8375 32.5674 87.0357 32.5674H80.8823ZM83.6953 78.5715C78.8898 78.5715 75.0219 74.7036 75.0219 69.8981C75.0219 65.0926 78.8898 61.2247 83.6953 61.2247C88.5008 61.2247 92.3687 65.0926 92.3687 69.8981C92.3687 74.7036 88.5008 78.5715 83.6953 78.5715ZM83.6953 63.5689C80.1791 63.5689 77.3661 66.3819 77.3661 69.8981C77.3661 73.4143 80.1791 76.2273 83.6953 76.2273C87.2116 76.2273 90.0245 73.4143 90.0245 69.8981C90.0245 66.3819 87.2116 63.5689 83.6953 63.5689Z" fill="black"/>
<path fill-rule="evenodd" clip-rule="evenodd" d="M83.6953 74.2348C78.0107 74.2348 78.0107 65.5614 83.6953 65.5614C89.4385 65.5614 89.4385 74.2348 83.6953 74.2348ZM83.6953 67.9056C81.0581 67.9056 81.0581 71.8907 83.6953 71.8907C86.3325 71.8907 86.3325 67.9056 83.6953 67.9056ZM72.4434 69.0191C71.7987 69.0191 71.2713 68.4916 71.2713 67.847V55.0127C71.2713 53.489 73.6154 53.489 73.6154 55.0127V67.847C73.6154 68.4916 73.088 69.0191 72.4434 69.0191ZM82.0544 55.0713C80.0033 55.0713 77.6591 55.5402 77.6591 53.8993C77.6591 52.317 80.0033 52.7272 82.0544 52.7272C83.5781 52.7272 83.5781 55.0713 82.0544 55.0713ZM98.8151 61.2834C92.6031 61.2834 92.8961 61.635 92.8961 55.423C92.8961 52.61 96.3537 53.196 98.8151 53.196C99.4598 53.196 99.9872 53.7235 99.9872 54.3681V60.1113C99.9872 60.7559 99.4598 61.2834 98.8151 61.2834ZM95.2403 58.9392H97.643V55.5402H95.2403V58.9392ZM19.231 56.1848L8.33069 53.0202C8.03767 52.9616 7.74465 52.7272 7.62745 52.4928L0.126149 38.6036C-0.166871 38.0176 0.0675447 37.3144 0.653584 37.0213L42.6726 14.4002L40.3284 10.0049C39.1563 7.83661 39.9768 5.19943 42.0865 4.02735L48.7674 0.452515C52.8697 -1.71583 56.1515 4.49618 52.0492 6.66453L49.2948 8.18823L62.0705 31.9814C62.3635 32.5674 62.1877 33.2707 61.6016 33.5637L19.7585 56.0676C19.5826 56.1262 19.4068 56.1848 19.231 56.1848ZM9.44417 50.9105L19.1138 53.7821L59.4919 32.04L46.6576 8.24683C45.3684 5.84407 52.7524 5.49245 51.4632 3.03109C51.1701 2.44505 50.4083 2.21063 49.8809 2.56226C40.1526 7.778 40.7973 5.84407 45.3098 14.3416C45.6028 14.9277 45.427 15.6309 44.8409 15.9239L2.76332 38.4864L9.44417 50.9105Z" fill="black"/>
<path fill-rule="evenodd" clip-rule="evenodd" d="M20.2273 49.3282C19.8171 49.3282 19.4068 49.0938 19.1724 48.7421L13.7223 38.4864C12.9604 37.1386 15.0115 36.0251 15.7734 37.373L21.2822 47.6287C21.6924 48.3905 21.1063 49.3282 20.2273 49.3282ZM30.1313 44.0538C29.7211 44.0538 29.3109 43.8194 29.0765 43.4092L23.5677 33.2121C22.8645 31.8642 24.9156 30.6921 25.6775 32.0986L31.1276 42.2957C31.5964 43.1162 31.0104 44.0538 30.1313 44.0538ZM39.9768 38.7209C39.5666 38.7209 39.1563 38.4864 38.9805 38.1348L33.4718 27.8791C32.7685 26.5313 34.8197 25.4178 35.5229 26.7657L41.0317 37.0214C41.4419 37.7832 40.8559 38.7209 39.9768 38.7209ZM49.8809 33.3879C49.4706 33.3879 49.0604 33.2121 48.826 32.8019L43.3758 22.5462C42.614 21.1983 44.6651 20.0848 45.427 21.4327L50.8771 31.6884C51.346 32.4502 50.7599 33.3879 49.8809 33.3879ZM60.1365 56.1848C57.7924 56.1848 60.0193 52.0826 58.0854 52.0826C51.639 52.0826 52.3422 51.4379 52.3422 55.0127C52.3422 56.5365 49.9981 56.5365 49.9981 55.0127V52.9616C49.9981 51.2035 51.4632 49.7384 53.2213 49.7384H58.0854C59.8435 49.7384 61.3086 51.2035 61.3086 52.9616C61.3086 54.3095 61.6602 56.1848 60.1365 56.1848Z" fill="black"/>
<path fill-rule="evenodd" clip-rule="evenodd" d="M57.6752 52.0826H53.6315C52.9868 52.0826 52.4594 51.5552 52.4594 50.9105V36.5526C52.4594 34.9703 54.8036 34.9703 54.8036 36.5526V49.7385H56.5031V34.3842C56.5031 32.8019 58.8472 32.8019 58.8472 34.3842V50.9105C58.8472 51.5552 58.3198 52.0826 57.6752 52.0826Z" fill="black"/>
<path fill-rule="evenodd" clip-rule="evenodd" d="M19.1138 53.782L59.4919 32.0399L46.6576 8.24676C45.3684 5.844 52.7525 5.49238 51.4632 3.03101C51.1701 2.44497 50.4083 2.21056 49.8809 2.56218C40.1526 7.77793 40.7973 5.844 45.3098 14.3416C45.6028 14.9276 45.427 15.6308 44.8409 15.9239L2.76334 38.4864L9.44418 50.9104L19.1138 53.782ZM41.0317 37.0213C41.7935 38.3692 39.6838 39.4826 38.9805 38.1347L33.4718 27.8791C32.7685 26.5312 34.8197 25.4177 35.5229 26.7656L41.0317 37.0213ZM49.8809 33.3878C49.4706 33.3878 49.0604 33.212 48.826 32.8018L43.3758 22.5461C42.614 21.1982 44.6651 20.0847 45.427 21.4326L50.8771 31.6883C51.346 32.4502 50.7599 33.3878 49.8809 33.3878ZM31.1276 42.2956C31.8895 43.6435 29.8383 44.757 29.0765 43.4091L23.5677 33.212C22.8645 31.8641 24.9156 30.6921 25.6775 32.0985L31.1276 42.2956ZM21.2822 47.6286C21.9854 48.9765 19.9343 50.0899 19.1724 48.7421L13.7223 38.4864C12.9604 37.1385 15.0115 36.025 15.7734 37.3729L21.2822 47.6286ZM54.8036 37.2557V49.7383H56.5031V36.318L54.8036 37.2557Z" fill="#85FF00"/>
<path fill-rule="evenodd" clip-rule="evenodd" d="M57.6752 52.0825H53.4557C52.3422 52.1997 52.2836 52.5513 52.3422 53.8406H58.9645C59.0231 52.1997 58.73 52.0825 57.6752 52.0825ZM73.6154 55.0127V66.6748H75.6666C78.5968 59.2908 88.9697 59.5252 91.7826 66.6748C93.8338 66.6748 97.643 67.2023 97.643 63.6861V61.2833C92.6617 61.2833 92.8961 61.2247 92.8961 55.4229C92.8961 53.0201 95.4161 53.0787 97.643 53.196V50.2658H84.4572C81.2339 50.2658 78.5382 47.6286 78.5382 44.3468V32.5674H73.6154V55.0127ZM82.0544 55.0713C80.0033 55.0713 77.6591 55.5401 77.6591 53.8992C77.6591 52.3169 80.0033 52.7271 82.0544 52.7271C83.5781 52.7271 83.5781 55.0713 82.0544 55.0713Z" fill="#85FF00"/>
<path fill-rule="evenodd" clip-rule="evenodd" d="M80.8823 44.3468C80.8823 46.3393 82.4646 47.9216 84.4572 47.9216H97.643V43.2333C97.643 37.3729 92.8375 32.5674 87.0357 32.5674H80.8823V44.3468Z" fill="#529EFD"/>
<path fill-rule="evenodd" clip-rule="evenodd" d="M95.2403 55.5402V58.9392H97.643V55.5402H95.2403Z" fill="#85FF00"/>
<path fill-rule="evenodd" clip-rule="evenodd" d="M90.0245 69.8981C90.0245 65.5028 85.6878 62.514 81.5856 63.9205C79.0656 64.7996 77.3661 67.2609 77.3661 69.8981C77.3661 73.4143 80.1791 76.2273 83.6953 76.2273C87.2115 76.2273 90.0245 73.4143 90.0245 69.8981ZM83.6953 65.5614C89.4385 65.5614 89.4385 74.2348 83.6953 74.2348C78.0107 74.2348 78.0107 65.5614 83.6953 65.5614Z" fill="#3F5C6C"/>
<path fill-rule="evenodd" clip-rule="evenodd" d="M83.6953 71.8906C86.3325 71.8906 86.3325 67.9055 83.6953 67.9055C81.0581 67.9055 81.0581 71.8906 83.6953 71.8906Z" fill="#526C7B"/>
<path fill-rule="evenodd" clip-rule="evenodd" d="M38.3359 66.6749C41.2075 59.408 51.5218 59.408 54.452 66.6749H71.2713V56.1848H11.6711V63.6861C11.6711 65.327 13.019 66.6749 14.6013 66.6749H16.6524C19.524 59.408 29.8383 59.408 32.7685 66.6749H38.3359Z" fill="#85FF00"/>
<path fill-rule="evenodd" clip-rule="evenodd" d="M46.3646 78.5715C41.5591 78.5715 37.6913 74.7036 37.6913 69.8981C37.6913 65.0926 41.5591 61.2247 46.3646 61.2247C51.1701 61.2247 55.038 65.0926 55.038 69.8981C55.038 74.7036 51.1701 78.5715 46.3646 78.5715ZM46.3646 63.5689C42.8484 63.5689 40.0354 66.3819 40.0354 69.8981C40.0354 73.4143 42.8484 76.2273 46.3646 76.2273C49.8809 76.2273 52.6939 73.4143 52.6939 69.8981C52.6939 66.3819 49.8809 63.5689 46.3646 63.5689ZM24.6812 78.5715C19.9343 78.5715 16.0078 74.7036 16.0078 69.8981C16.0078 65.0926 19.9343 61.2247 24.6812 61.2247C29.4867 61.2247 33.4132 65.0926 33.4132 69.8981C33.4132 74.7036 29.4867 78.5715 24.6812 78.5715ZM24.6812 63.5689C21.2236 63.5689 18.352 66.3819 18.352 69.8981C18.352 73.4143 21.2236 76.2273 24.6812 76.2273C28.1974 76.2273 31.069 73.4143 31.069 69.8981C31.069 66.3819 28.1974 63.5689 24.6812 63.5689Z" fill="black"/>
<path fill-rule="evenodd" clip-rule="evenodd" d="M24.6812 74.2348C18.9966 74.2348 18.9966 65.5614 24.6812 65.5614C30.4243 65.5614 30.4243 74.2348 24.6812 74.2348ZM24.6812 67.9056C22.1026 67.9056 22.1026 71.8906 24.6812 71.8906C27.3183 71.8906 27.3183 67.9056 24.6812 67.9056ZM46.3646 74.2348C40.68 74.2348 40.68 65.5614 46.3646 65.5614C52.1078 65.5614 52.1078 74.2348 46.3646 74.2348ZM46.3646 67.9056C43.7274 67.9056 43.7274 71.8906 46.3646 71.8906C49.0018 71.8906 49.0018 67.9056 46.3646 67.9056Z" fill="black"/>
<path fill-rule="evenodd" clip-rule="evenodd" d="M46.3646 71.8906C49.0018 71.8906 49.0018 67.9055 46.3646 67.9055C43.7274 67.9055 43.7274 71.8906 46.3646 71.8906Z" fill="#526C7B"/>
<path fill-rule="evenodd" clip-rule="evenodd" d="M46.3646 74.2348C40.6801 74.2348 40.6801 65.5614 46.3646 65.5614C52.1078 65.5614 52.1078 74.2348 46.3646 74.2348ZM46.3646 76.2273C53.4557 76.2273 55.1552 66.3233 48.4744 63.9205C44.3721 62.4554 40.0354 65.5614 40.0354 69.8981C40.0354 73.4144 42.8484 76.2273 46.3646 76.2273Z" fill="#3F5C6C"/>
<path fill-rule="evenodd" clip-rule="evenodd" d="M24.6812 71.8906C27.3184 71.8906 27.3184 67.9055 24.6812 67.9055C22.1026 67.9055 22.1026 71.8906 24.6812 71.8906Z" fill="#526C7B"/>
<path fill-rule="evenodd" clip-rule="evenodd" d="M24.6812 65.5615C30.4244 65.5615 30.4244 74.2349 24.6812 74.2349C18.9966 74.2349 18.9966 65.5615 24.6812 65.5615ZM24.6812 76.2274C31.9481 76.2274 33.4132 66.0303 26.6737 63.862C22.5128 62.5141 18.352 65.6787 18.352 69.8982C18.352 73.4144 21.2236 76.2274 24.6812 76.2274Z" fill="#3F5C6C"/>
</svg>
