<svg width="105" height="78" viewBox="0 0 105 78" fill="none" xmlns="http://www.w3.org/2000/svg">
<path d="M37 6.01514L43 26.0151" stroke="black" stroke-dasharray="2 2"/>
<path d="M36.5 5.51514L30 26.5151" stroke="black" stroke-dasharray="2 2"/>
<path d="M103 63.456H71.4374V25.5814H96.6872L103 44.5182V63.456Z" fill="#85FF00"/>
<path d="M96.6872 25.5814H90.5906L96.903 44.5182V63.456H103V44.5182L96.6872 25.5814Z" fill="#74DE00"/>
<path d="M98.7913 31.8938H77.7498V44.5186L103 50.831V44.5182L98.7913 31.8938Z" fill="#7CB9FC"/>
<path d="M98.7913 31.8938H92.6947L96.903 44.5182V49.3068L103 50.831V44.5182L98.7913 31.8938Z" fill="#4D99FF"/>
<path d="M2.00037 63.4559H103V69.7683H2.00037V63.4559Z" fill="#74DE00"/>
<path d="M71.4374 63.456H5.15662V57.1436L14.6252 50.8312H71.4374V63.456Z" fill="#74DE00"/>
<path d="M58.8124 13.0149L52.5 25.6399H17L10.5 15.0149H2.00037V25.6399V50.8306H65.125V19.3273H65.0622V13.0149H58.8124Z" fill="#85FF00"/>
<path d="M17.7817 50.8305H8.31287L11.7274 31.9523H21.196L17.7817 50.8305Z" fill="#74DE00"/>
<path d="M16.1155 31.9523L12.7012 50.8305H17.7817L21.1959 31.9523H16.1155Z" fill="#85FF00"/>
<path d="M36.5897 50.8305H27.1211L30.5354 31.9523H40.0042L36.5897 50.8305Z" fill="#74DE00"/>
<path d="M34.9238 31.9523L31.5093 50.8305H36.5898L40.0043 31.9523H34.9238Z" fill="#85FF00"/>
<path d="M55.3982 50.8305H45.9296L49.3439 31.9523H58.8125L55.3982 50.8305Z" fill="#74DE00"/>
<path d="M53.7319 31.9523L50.3176 50.8305H55.3981L58.8124 31.9523H53.7319Z" fill="#85FF00"/>
<path d="M78.2906 63.4566H71.438M71.438 63.4566V25.5806H80.7414M71.438 63.4566V50.8306H14.626L5.156 57.1426V63.4566H8.85256H2V69.7686H8.85256M71.438 63.4566H51.9594M87.3826 25.5806H96.688L103 44.5186V63.4566M103 63.4566H96.1474M103 63.4566V69.7686H96.1474M34.1026 63.4566H26.7094M61.8034 69.7686H51.9594M78.2906 69.7686H68.4466M34.1026 69.7686H26.7094" stroke="black" stroke-width="3" stroke-miterlimit="10" stroke-linecap="round" stroke-linejoin="round"/>
<path d="M17.7816 76.0807C23.0109 76.0807 27.2502 71.8415 27.2502 66.6121C27.2502 61.3828 23.0109 57.1436 17.7816 57.1436C12.5522 57.1436 8.31299 61.3828 8.31299 66.6121C8.31299 71.8415 12.5522 76.0807 17.7816 76.0807Z" fill="#466089"/>
<path d="M43.0313 76.0807C48.2607 76.0807 52.4999 71.8415 52.4999 66.6121C52.4999 61.3828 48.2607 57.1436 43.0313 57.1436C37.802 57.1436 33.5627 61.3828 33.5627 66.6121C33.5627 71.8415 37.802 76.0807 43.0313 76.0807Z" fill="#466089"/>
<path d="M87.2184 76.0807C92.4477 76.0807 96.687 71.8415 96.687 66.6121C96.687 61.3828 92.4477 57.1436 87.2184 57.1436C81.989 57.1436 77.7498 61.3828 77.7498 66.6121C77.7498 71.8415 81.989 76.0807 87.2184 76.0807Z" fill="#466089"/>
<path d="M17.7816 76.0807C23.0109 76.0807 27.2502 71.8415 27.2502 66.6121C27.2502 61.3828 23.0109 57.1436 17.7816 57.1436C12.5522 57.1436 8.31299 61.3828 8.31299 66.6121C8.31299 71.8415 12.5522 76.0807 17.7816 76.0807Z" stroke="black" stroke-width="3" stroke-miterlimit="10" stroke-linecap="round" stroke-linejoin="round"/>
<path d="M17.7816 69.7683C19.5247 69.7683 20.9378 68.3553 20.9378 66.6121C20.9378 64.869 19.5247 63.4559 17.7816 63.4559C16.0384 63.4559 14.6254 64.869 14.6254 66.6121C14.6254 68.3553 16.0384 69.7683 17.7816 69.7683Z" fill="#6E83B7"/>
<path d="M17.7816 69.7683C19.5247 69.7683 20.9378 68.3553 20.9378 66.6121C20.9378 64.869 19.5247 63.4559 17.7816 63.4559C16.0384 63.4559 14.6254 64.869 14.6254 66.6121C14.6254 68.3553 16.0384 69.7683 17.7816 69.7683Z" stroke="black" stroke-width="3" stroke-miterlimit="10" stroke-linecap="round" stroke-linejoin="round"/>
<path d="M43.0313 76.0807C48.2607 76.0807 52.4999 71.8415 52.4999 66.6121C52.4999 61.3828 48.2607 57.1436 43.0313 57.1436C37.802 57.1436 33.5627 61.3828 33.5627 66.6121C33.5627 71.8415 37.802 76.0807 43.0313 76.0807Z" stroke="black" stroke-width="3" stroke-miterlimit="10" stroke-linecap="round" stroke-linejoin="round"/>
<path d="M43.0314 69.7683C44.7746 69.7683 46.1876 68.3553 46.1876 66.6121C46.1876 64.869 44.7746 63.4559 43.0314 63.4559C41.2883 63.4559 39.8752 64.869 39.8752 66.6121C39.8752 68.3553 41.2883 69.7683 43.0314 69.7683Z" fill="#6E83B7"/>
<path d="M43.0314 69.7683C44.7746 69.7683 46.1876 68.3553 46.1876 66.6121C46.1876 64.869 44.7746 63.4559 43.0314 63.4559C41.2883 63.4559 39.8752 64.869 39.8752 66.6121C39.8752 68.3553 41.2883 69.7683 43.0314 69.7683Z" stroke="black" stroke-width="3" stroke-miterlimit="10" stroke-linecap="round" stroke-linejoin="round"/>
<path d="M87.2184 76.0807C92.4477 76.0807 96.687 71.8415 96.687 66.6121C96.687 61.3828 92.4477 57.1436 87.2184 57.1436C81.989 57.1436 77.7498 61.3828 77.7498 66.6121C77.7498 71.8415 81.989 76.0807 87.2184 76.0807Z" stroke="black" stroke-width="3" stroke-miterlimit="10" stroke-linecap="round" stroke-linejoin="round"/>
<path d="M87.2185 69.7683C88.9616 69.7683 90.3747 68.3553 90.3747 66.6121C90.3747 64.869 88.9616 63.4559 87.2185 63.4559C85.4753 63.4559 84.0623 64.869 84.0623 66.6121C84.0623 68.3553 85.4753 69.7683 87.2185 69.7683Z" fill="#6E83B7"/>
<path d="M87.2185 69.7683C88.9616 69.7683 90.3747 68.3553 90.3747 66.6121C90.3747 64.869 88.9616 63.4559 87.2185 63.4559C85.4753 63.4559 84.0623 64.869 84.0623 66.6121C84.0623 68.3553 85.4753 69.7683 87.2185 69.7683Z" stroke="black" stroke-width="3" stroke-miterlimit="10" stroke-linecap="round" stroke-linejoin="round"/>
<path d="M103 50.831L77.7498 44.5186V31.8938H98.7913M77.7498 51.9552H80.906M46.2752 50.8312L55.6562 57.1436M34.6899 25.6391H52.5L58.812 13.0151H65.062V19.3271H65.124V50.8302H2V25.6391V15.0149H10.5L16.5 25.6391H34.6899Z" stroke="black" stroke-width="3" stroke-miterlimit="10" stroke-linecap="round" stroke-linejoin="round"/>
<path d="M17.7817 50.8305H8.31287L11.7274 31.9523H21.196L17.7817 50.8305ZM36.5898 50.8305H27.1212L30.5355 31.9523H40.0043L36.5898 50.8305ZM55.3982 50.8305H45.9296L49.3439 31.9523H58.8125L55.3982 50.8305Z" stroke="black" stroke-width="3" stroke-miterlimit="10" stroke-linecap="round" stroke-linejoin="round"/>
<path d="M36 3.54765L17.9299 51.9602L6.99997 51.9602L36 3.54765Z" fill="black"/>
<path d="M39 4.01514C39 5.67199 37.6569 7.01514 36 7.01514C34.3431 7.01514 33 5.67199 33 4.01514C33 2.35828 34.3431 1.01514 36 1.01514C37.6569 1.01514 39 2.35828 39 4.01514Z" fill="black"/>
</svg>
