<svg width="101" height="58" viewBox="0 0 101 58" fill="none" xmlns="http://www.w3.org/2000/svg">
<path d="M68.8051 5.82479V44.1581H10.4718L27.4551 2.49146H65.4718C66.355 2.49409 67.2014 2.84613 67.8259 3.47068C68.4505 4.09523 68.8025 4.94154 68.8051 5.82479Z" fill="#85FF00"/>
<path d="M75.4718 49.1581L77.1384 47.4915V42.4915H12.1384V47.4915C12.1384 47.9335 12.314 48.3574 12.6266 48.67C12.9391 48.9825 13.3631 49.1581 13.8051 49.1581H75.4718Z" fill="#3C626B"/>
<path d="M27.1385 55.8248C30.8204 55.8248 33.8051 52.84 33.8051 49.1581C33.8051 45.4762 30.8204 42.4915 27.1385 42.4915C23.4566 42.4915 20.4718 45.4762 20.4718 49.1581C20.4718 52.84 23.4566 55.8248 27.1385 55.8248Z" fill="#315359"/>
<path d="M47.1385 55.8248C50.8204 55.8248 53.8051 52.84 53.8051 49.1581C53.8051 45.4762 50.8204 42.4915 47.1385 42.4915C43.4566 42.4915 40.4718 45.4762 40.4718 49.1581C40.4718 52.84 43.4566 55.8248 47.1385 55.8248Z" fill="#315359"/>
<path d="M98.7385 29.158C98.7772 29.3951 98.7995 29.6346 98.8051 29.8747V45.8247C98.8025 46.708 98.4505 47.5543 97.8259 48.1788C97.2014 48.8034 96.355 49.1554 95.4718 49.158H75.4718V12.4914C75.4718 12.0493 75.6474 11.6254 75.96 11.3129C76.2725 11.0003 76.6964 10.8247 77.1385 10.8247H82.1385L98.7385 29.158Z" fill="#D9EAFD"/>
<path d="M98.7384 29.1581H83.8051C83.3631 29.1581 82.9391 28.9825 82.6266 28.6699C82.314 28.3573 82.1384 27.9334 82.1384 27.4914V10.8247H88.3218C88.9615 10.823 89.5881 11.0061 90.1263 11.352C90.6644 11.6979 91.0911 12.192 91.3551 12.7747L98.5051 28.5081C98.5975 28.7192 98.6755 28.9363 98.7384 29.1581Z" fill="#467BBC"/>
<path d="M87.1385 55.8248C90.8204 55.8248 93.8051 52.84 93.8051 49.1581C93.8051 45.4762 90.8204 42.4915 87.1385 42.4915C83.4566 42.4915 80.4718 45.4762 80.4718 49.1581C80.4718 52.84 83.4566 55.8248 87.1385 55.8248Z" fill="#315359"/>
<path d="M30.4718 2.49146L13.4884 44.1581L12.1384 47.4915H5.47176C4.58852 47.4888 3.7422 47.1368 3.11765 46.5122C2.4931 45.8877 2.14107 45.0414 2.13843 44.1581V22.1081C2.14481 21.2828 2.4531 20.4884 3.00509 19.8748L17.8051 3.57479C18.1201 3.23483 18.5016 2.96324 18.9259 2.77688C19.3502 2.59052 19.8083 2.49337 20.2718 2.49146H30.4718Z" fill="#74DE00"/>
<path d="M92.8768 12.0897C92.4786 11.2164 91.838 10.4758 91.0311 9.95609C90.2242 9.43636 89.2849 9.15937 88.3251 9.15804H77.1385C76.2544 9.15804 75.4066 9.50923 74.7814 10.1344C74.1563 10.7595 73.8051 11.6073 73.8051 12.4914V40.8247H70.4718V5.82471C70.4718 4.49863 69.945 3.22685 69.0073 2.28917C68.0696 1.35149 66.7979 0.824707 65.4718 0.824707H20.2801C19.5835 0.824458 18.8946 0.96977 18.2574 1.25133C17.6202 1.53288 17.0489 1.94447 16.5801 2.45971L1.77347 18.7497C0.935037 19.6691 0.470737 20.8688 0.471804 22.113V25.8247C0.471804 26.2667 0.647398 26.6907 0.959959 27.0032C1.27252 27.3158 1.69644 27.4914 2.13847 27.4914C2.5805 27.4914 3.00442 27.3158 3.31698 27.0032C3.62954 26.6907 3.80514 26.2667 3.80514 25.8247V23.188L18.1535 28.308L15.0918 35.8247H3.80514V32.4914C3.80514 32.0493 3.62954 31.6254 3.31698 31.3129C3.00442 31.0003 2.5805 30.8247 2.13847 30.8247C1.69644 30.8247 1.27252 31.0003 0.959959 31.3129C0.647398 31.6254 0.471804 32.0493 0.471804 32.4914V44.158C0.471804 45.4841 0.998588 46.7559 1.93627 47.6936C2.87395 48.6313 4.14572 49.158 5.4718 49.158H10.9351C11.2254 49.6631 11.6433 50.083 12.1471 50.3755C12.6508 50.668 13.2226 50.823 13.8051 50.8247H18.9718C19.3543 52.7085 20.3764 54.4022 21.8647 55.6187C23.3531 56.8352 25.2162 57.4997 27.1385 57.4997C29.0607 57.4997 30.9239 56.8352 32.4122 55.6187C33.9006 54.4022 34.9226 52.7085 35.3051 50.8247H38.9718C39.3543 52.7085 40.3764 54.4022 41.8647 55.6187C43.3531 56.8352 45.2162 57.4997 47.1385 57.4997C49.0607 57.4997 50.9239 56.8352 52.4122 55.6187C53.9006 54.4022 54.9226 52.7085 55.3051 50.8247H78.9718C79.3543 52.7085 80.3764 54.4022 81.8647 55.6187C83.3531 56.8352 85.2162 57.4997 87.1385 57.4997C89.0607 57.4997 90.9239 56.8352 92.4122 55.6187C93.9006 54.4022 94.9226 52.7085 95.3051 50.8247H95.4718C96.7979 50.8247 98.0696 50.2979 99.0073 49.3602C99.945 48.4226 100.472 47.1508 100.472 45.8247V29.8797C100.471 29.1656 100.317 28.4598 100.022 27.8097L92.8768 12.0897ZM89.8435 13.4697L96.2168 27.4914H83.8051V12.4914H88.3251C88.6455 12.4913 88.959 12.5835 89.2283 12.757C89.4976 12.9305 89.7112 13.178 89.8435 13.4697ZM73.8051 47.4914H55.3051C55.048 46.2786 54.5211 45.1393 53.7635 44.158H73.8051V47.4914ZM67.1385 5.82471V40.8247H16.6535L31.5918 4.15804H65.4718C65.9138 4.15804 66.3378 4.33364 66.6503 4.6462C66.9629 4.95876 67.1385 5.38268 67.1385 5.82471ZM33.7618 44.158H40.5151C39.7575 45.1393 39.2306 46.2786 38.9735 47.4914H35.3051C35.0475 46.2785 34.52 45.1392 33.7618 44.158ZM15.2951 44.158H20.5151C19.7575 45.1393 19.2306 46.2786 18.9735 47.4914H13.9368L15.2951 44.158ZM19.0485 4.70304C19.2046 4.5315 19.3947 4.39443 19.6068 4.30059C19.8189 4.20674 20.0482 4.15819 20.2801 4.15804H27.9935L23.5885 14.9714L14.4518 9.75804L19.0485 4.70304ZM5.04847 20.0964L12.1551 12.2847L22.3218 18.0864L19.4151 25.2197L5.04847 20.0964ZM3.80514 44.158V39.158H13.7335L11.0168 45.8247H5.4718C5.02978 45.8247 4.60585 45.6491 4.29329 45.3366C3.98073 45.024 3.80514 44.6001 3.80514 44.158ZM27.1385 54.158C26.1496 54.158 25.1829 53.8648 24.3606 53.3154C23.5384 52.766 22.8975 51.9851 22.5191 51.0715C22.1406 50.1578 22.0416 49.1525 22.2345 48.1826C22.4275 47.2127 22.9037 46.3218 23.6029 45.6225C24.3022 44.9232 25.1931 44.447 26.163 44.2541C27.1329 44.0612 28.1383 44.1602 29.0519 44.5386C29.9655 44.9171 30.7464 45.5579 31.2958 46.3802C31.8452 47.2024 32.1385 48.1691 32.1385 49.158C32.1385 50.4841 31.6117 51.7559 30.674 52.6936C29.7363 53.6313 28.4646 54.158 27.1385 54.158ZM47.1385 54.158C46.1496 54.158 45.1829 53.8648 44.3606 53.3154C43.5384 52.766 42.8975 51.9851 42.5191 51.0715C42.1406 50.1578 42.0416 49.1525 42.2345 48.1826C42.4275 47.2127 42.9037 46.3218 43.6029 45.6225C44.3022 44.9232 45.1931 44.447 46.163 44.2541C47.1329 44.0612 48.1383 44.1602 49.0519 44.5386C49.9655 44.9171 50.7464 45.5579 51.2958 46.3802C51.8452 47.2024 52.1385 48.1691 52.1385 49.158C52.1385 50.4841 51.6117 51.7559 50.674 52.6936C49.7363 53.6313 48.4646 54.158 47.1385 54.158ZM87.1385 54.158C86.1496 54.158 85.1829 53.8648 84.3606 53.3154C83.5384 52.766 82.8975 51.9851 82.5191 51.0715C82.1406 50.1578 82.0416 49.1525 82.2345 48.1826C82.4275 47.2127 82.9037 46.3218 83.6029 45.6225C84.3022 44.9232 85.1931 44.447 86.163 44.2541C87.1329 44.0612 88.1382 44.1602 89.0519 44.5386C89.9655 44.9171 90.7464 45.5579 91.2958 46.3802C91.8452 47.2024 92.1385 48.1691 92.1385 49.158C92.1385 50.4841 91.6117 51.7559 90.674 52.6936C89.7363 53.6313 88.4645 54.158 87.1385 54.158ZM95.4718 47.4914H95.3051C94.9226 45.6076 93.9006 43.9139 92.4122 42.6974C90.9239 41.4809 89.0607 40.8164 87.1385 40.8164C85.2162 40.8164 83.3531 41.4809 81.8647 42.6974C80.3764 43.9139 79.3543 45.6076 78.9718 47.4914H77.1385V12.4914H80.4718V27.4914C80.4718 28.3754 80.823 29.2233 81.4481 29.8484C82.0732 30.4735 82.9211 30.8247 83.8051 30.8247H97.1385V45.8247C97.1385 46.2667 96.9629 46.6907 96.6503 47.0032C96.3378 47.3158 95.9138 47.4914 95.4718 47.4914Z" fill="#262626"/>
<path d="M35.7618 24.6847C35.8618 25.2114 36.1685 25.4747 36.6818 25.4747C37.0351 25.4747 37.2851 25.318 37.4318 25.0047C37.5785 24.6914 37.6518 24.1814 37.6518 23.4747C37.5051 23.6814 37.3051 23.8414 37.0518 23.9547C36.7985 24.068 36.5151 24.1247 36.2018 24.1247C35.7751 24.1247 35.3951 24.038 35.0618 23.8647C34.7285 23.6847 34.4651 23.4214 34.2718 23.0747C34.0851 22.7214 33.9918 22.2947 33.9918 21.7947C33.9918 21.3014 34.0918 20.8714 34.2918 20.5047C34.4985 20.138 34.7885 19.8547 35.1618 19.6547C35.5418 19.4547 35.9885 19.3547 36.5018 19.3547C37.4885 19.3547 38.1785 19.6614 38.5718 20.2747C38.9651 20.888 39.1618 21.7914 39.1618 22.9847C39.1618 23.8514 39.0818 24.568 38.9218 25.1347C38.7685 25.6947 38.5051 26.1214 38.1318 26.4147C37.7651 26.708 37.2618 26.8547 36.6218 26.8547C36.1151 26.8547 35.6818 26.7547 35.3218 26.5547C34.9685 26.3547 34.6951 26.0914 34.5018 25.7647C34.3151 25.438 34.2085 25.078 34.1818 24.6847H35.7618ZM36.5918 22.7747C36.8718 22.7747 37.0951 22.6914 37.2618 22.5247C37.4285 22.3514 37.5118 22.118 37.5118 21.8247C37.5118 21.5047 37.4251 21.258 37.2518 21.0847C37.0785 20.9114 36.8451 20.8247 36.5518 20.8247C36.2585 20.8247 36.0251 20.9147 35.8518 21.0947C35.6851 21.268 35.6018 21.508 35.6018 21.8147C35.6018 22.1014 35.6851 22.3347 35.8518 22.5147C36.0251 22.688 36.2718 22.7747 36.5918 22.7747ZM42.0733 23.3047C42.0733 22.6114 42.2233 21.9947 42.5233 21.4547C42.8233 20.908 43.24 20.4847 43.7733 20.1847C44.3133 19.878 44.9233 19.7247 45.6033 19.7247C46.4366 19.7247 47.15 19.9447 47.7433 20.3847C48.3366 20.8247 48.7333 21.4247 48.9333 22.1847H47.0533C46.9133 21.8914 46.7133 21.668 46.4533 21.5147C46.2 21.3614 45.91 21.2847 45.5833 21.2847C45.0566 21.2847 44.63 21.468 44.3033 21.8347C43.9766 22.2014 43.8133 22.6914 43.8133 23.3047C43.8133 23.918 43.9766 24.408 44.3033 24.7747C44.63 25.1414 45.0566 25.3247 45.5833 25.3247C45.91 25.3247 46.2 25.248 46.4533 25.0947C46.7133 24.9414 46.9133 24.718 47.0533 24.4247H48.9333C48.7333 25.1847 48.3366 25.7847 47.7433 26.2247C47.15 26.658 46.4366 26.8747 45.6033 26.8747C44.9233 26.8747 44.3133 26.7247 43.7733 26.4247C43.24 26.118 42.8233 25.6947 42.5233 25.1547C42.2233 24.6147 42.0733 23.998 42.0733 23.3047ZM57.9305 19.8047V26.8247H56.2205V22.6147L54.6505 26.8247H53.2705L51.6905 22.6047V26.8247H49.9805V19.8047H52.0005L53.9705 24.6647L55.9205 19.8047H57.9305Z" fill="#3F3F3F"/>
</svg>
