<svg width="98" height="89" viewBox="0 0 98 89" fill="none" xmlns="http://www.w3.org/2000/svg">
<path d="M35.3028 17.1182H12.4914C9.79599 17.1182 7.60324 19.3111 7.60324 22.0063V23.8945H4.34447C4.0222 23.8945 3.70717 23.99 3.4392 24.1691C3.17124 24.3481 2.96239 24.6026 2.83906 24.9003C2.71573 25.1981 2.68346 25.5257 2.74634 25.8418C2.80921 26.1578 2.96441 26.4482 3.19229 26.676L8.08045 31.5642C8.39859 31.8823 8.81571 32.0414 9.23263 32.0414C9.64955 32.0414 10.0667 31.8823 10.3848 31.5642L15.273 26.676C15.5009 26.4482 15.656 26.1578 15.7189 25.8418C15.7818 25.5257 15.7495 25.1981 15.6262 24.9003C15.5029 24.6026 15.294 24.3481 15.0261 24.1691C14.7581 23.99 14.4431 23.8945 14.1208 23.8945H10.862V22.0063C10.862 21.1079 11.593 20.3769 12.4914 20.3769H35.3028C35.7349 20.3769 36.1494 20.2053 36.455 19.8997C36.7605 19.5941 36.9322 19.1797 36.9322 18.7476C36.9322 18.3154 36.7605 17.901 36.455 17.5954C36.1494 17.2898 35.7349 17.1182 35.3028 17.1182Z" fill="#555A6E"/>
<path d="M84.1844 69.1467H77.6668C72.2674 69.1467 67.8905 73.5237 67.8905 78.923C67.8905 84.3224 72.2674 88.6994 77.6668 88.6994H84.1844C89.5837 88.6994 93.9607 84.3224 93.9607 78.923C93.9607 73.5237 89.5837 69.1467 84.1844 69.1467Z" fill="#463C4B"/>
<path d="M86.4431 78.923C86.4431 83.7701 82.5138 87.6994 77.6668 87.6994C72.8198 87.6994 68.8905 83.7701 68.8905 78.923C68.8905 74.076 72.8198 70.1467 77.6668 70.1467C82.5138 70.1467 86.4431 74.076 86.4431 78.923Z" fill="#555A6E" stroke="black" stroke-width="2"/>
<path d="M77.6668 82.1819C79.4666 82.1819 80.9256 80.7228 80.9256 78.9231C80.9256 77.1233 79.4666 75.6643 77.6668 75.6643C75.8671 75.6643 74.4081 77.1233 74.4081 78.9231C74.4081 80.7228 75.8671 82.1819 77.6668 82.1819Z" fill="#E6E6EB"/>
<path d="M25.5265 69.1467H19.0089C13.6096 69.1467 9.23261 73.5237 9.23261 78.923C9.23261 84.3224 13.6096 88.6994 19.0089 88.6994H25.5265C30.9258 88.6994 35.3028 84.3224 35.3028 78.923C35.3028 73.5237 30.9258 69.1467 25.5265 69.1467Z" fill="#463C4B"/>
<path d="M67.8905 77.9231H38.9139C39.3243 77.2684 39.5616 76.4941 39.5616 75.6643V33.3003C39.5616 32.4705 39.3243 31.6962 38.9139 31.0415H67.8905C69.1381 31.0415 70.1493 32.0527 70.1493 33.3003V75.6643C70.1493 76.9119 69.1381 77.9231 67.8905 77.9231Z" fill="#85FF00" stroke="black" stroke-width="2"/>
<path d="M18.4217 31.0415H18.4217H35.3028C36.5504 31.0415 37.5616 32.0527 37.5616 33.3003V75.6643C37.5616 76.9119 36.5504 77.9231 35.3028 77.9231H7.19365L16.2069 32.8573L16.2069 32.8572C16.3093 32.3452 16.5859 31.8845 16.9897 31.5534C17.3935 31.2224 17.8996 31.0415 18.4217 31.0415Z" fill="#74DE00" stroke="black" stroke-width="2"/>
<path d="M20.3668 67.5173C19.0171 67.5173 17.9227 66.423 17.9227 65.0732V39.003C17.9227 37.6533 19.0171 36.559 20.3668 36.559C21.7166 36.559 22.8109 37.6533 22.8109 39.003V65.0732C22.8109 66.423 21.7166 67.5173 20.3668 67.5173ZM31.2293 67.5173C29.8796 67.5173 28.7852 66.423 28.7852 65.0732V39.003C28.7852 37.6533 29.8796 36.559 31.2293 36.559C32.5791 36.559 33.6734 37.6533 33.6734 39.003V65.0732C33.6734 66.423 32.5791 67.5173 31.2293 67.5173Z" fill="#85FF00"/>
<path d="M58.1142 69.1467H51.5967C46.1973 69.1467 41.8203 73.5237 41.8203 78.923C41.8203 84.3224 46.1973 88.6994 51.5967 88.6994H58.1142C63.5136 88.6994 67.8905 84.3224 67.8905 78.923C67.8905 73.5237 63.5136 69.1467 58.1142 69.1467Z" fill="#463C4B"/>
<path d="M93.9607 77.923H41.8203C40.5728 77.923 39.5616 76.9118 39.5616 75.6642V60.3704H96.2195V75.6642C96.2195 76.9118 95.2083 77.923 93.9607 77.923Z" fill="#74DE00" stroke="black" stroke-width="2"/>
<path d="M83.5742 38.1884H43.4497C40.75 38.1884 38.5616 40.3768 38.5616 43.0765V59.3704H97.2195C97.2195 57.2321 96.683 55.128 95.6589 53.2508L89.2958 41.585C88.7351 40.5571 87.9079 39.6992 86.9011 39.1015C85.8943 38.5038 84.745 38.1883 83.5742 38.1884Z" fill="#463C4B"/>
<path d="M50.9864 38.1884H43.4497C40.75 38.1884 38.5616 40.3768 38.5616 43.0765V59.3704H64.6317C64.6318 57.2321 64.0952 55.128 63.0712 53.2508L56.708 41.585C56.1474 40.5571 55.3202 39.6992 54.3134 39.1015C53.3066 38.5038 52.1573 38.1883 50.9864 38.1884Z" fill="#555A6E"/>
<path d="M61.373 77.923H41.8203C40.5728 77.923 39.5616 76.9118 39.5616 75.6642V60.3704H63.6317V75.6642C63.6317 76.9118 62.6205 77.923 61.373 77.923Z" fill="#85FF00" stroke="black" stroke-width="2"/>
<path d="M74.408 74.0349C76.2078 74.0349 77.6668 72.5759 77.6668 70.7761C77.6668 68.9763 76.2078 67.5173 74.408 67.5173C72.6083 67.5173 71.1493 68.9763 71.1493 70.7761C71.1493 72.5759 72.6083 74.0349 74.408 74.0349Z" fill="#85FF00"/>
<path d="M87.4431 74.0349C89.2429 74.0349 90.7019 72.5759 90.7019 70.7761C90.7019 68.9763 89.2429 67.5173 87.4431 67.5173C85.6434 67.5173 84.1844 68.9763 84.1844 70.7761C84.1844 72.5759 85.6434 74.0349 87.4431 74.0349Z" fill="#85FF00"/>
<path d="M60.373 78.923C60.373 83.7701 56.4437 87.6994 51.5967 87.6994C46.7496 87.6994 42.8203 83.7701 42.8203 78.923C42.8203 74.076 46.7496 70.1467 51.5967 70.1467C56.4437 70.1467 60.373 74.076 60.373 78.923Z" fill="#555A6E" stroke="black" stroke-width="2"/>
<path d="M51.5966 82.1819C53.3964 82.1819 54.8554 80.7228 54.8554 78.9231C54.8554 77.1233 53.3964 75.6643 51.5966 75.6643C49.7969 75.6643 48.3379 77.1233 48.3379 78.9231C48.3379 80.7228 49.7969 82.1819 51.5966 82.1819Z" fill="#E6E6EB"/>
<path d="M27.7852 78.923C27.7852 83.7701 23.856 87.6994 19.0089 87.6994C14.1619 87.6994 10.2326 83.7701 10.2326 78.923C10.2326 74.076 14.1619 70.1467 19.0089 70.1467C23.856 70.1467 27.7852 74.076 27.7852 78.923Z" fill="#555A6E" stroke="black" stroke-width="2"/>
<path d="M19.0089 82.1819C20.8087 82.1819 22.2677 80.7228 22.2677 78.9231C22.2677 77.1233 20.8087 75.6643 19.0089 75.6643C17.2092 75.6643 15.7502 77.1233 15.7502 78.9231C15.7502 80.7228 17.2092 82.1819 19.0089 82.1819Z" fill="#E6E6EB"/>
<path d="M88.418 42.0638C88.4181 42.0639 88.4181 42.0639 88.4181 42.0639L88.425 42.0765H39.6914C40.1326 40.4137 41.648 39.1884 43.4497 39.1884H83.5741C84.5654 39.1884 85.5383 39.4554 86.3907 39.9614C87.243 40.4674 87.9434 41.1937 88.418 42.0638Z" fill="#74DE00" stroke="black" stroke-width="2"/>
<path d="M55.8304 42.0639L55.8372 42.0765H39.6914C40.1326 40.4137 41.648 39.1884 43.4497 39.1884H50.9864C50.9864 39.1884 50.9864 39.1884 50.9864 39.1884C51.9777 39.1884 52.9506 39.4554 53.803 39.9614C54.6553 40.4674 55.3556 41.1937 55.8303 42.0638C55.8303 42.0639 55.8303 42.0639 55.8304 42.0639Z" fill="#85FF00" stroke="black" stroke-width="2"/>
<path d="M14.4442 36.4728L5.97799 78.8034C5.97799 78.8034 5.97799 78.8035 5.97799 78.8035C5.87445 79.321 5.59483 79.7867 5.18668 80.1213C4.77852 80.4559 4.26704 80.6388 3.73926 80.6388H2.08568C1.91877 80.6388 1.75868 80.5725 1.64064 80.4544C1.52261 80.3364 1.4563 80.1763 1.4563 80.0094V42.4045L7.38806 36.4728H14.4442Z" fill="#85FF00" stroke="black" stroke-width="2"/>
<path d="M54.8554 28.5239H41.8203C38.2208 28.5239 35.3028 25.6059 35.3028 22.0064V18.7476C35.3028 11.5486 41.1388 5.7125 48.3379 5.7125C55.5369 5.7125 61.373 11.5486 61.373 18.7476V22.0064C61.373 25.6059 58.4549 28.5239 54.8554 28.5239ZM48.3379 5.7125C46.538 5.7125 45.0791 4.25359 45.0791 2.45373C45.0791 2.02159 45.2508 1.60715 45.5563 1.30158C45.8619 0.996008 46.2764 0.824341 46.7085 0.824341H49.9673C50.3994 0.824341 50.8139 0.996008 51.1194 1.30158C51.425 1.60715 51.5967 2.02159 51.5967 2.45373C51.5967 4.25359 50.1377 5.7125 48.3379 5.7125Z" fill="#463C4B"/>
<path d="M40.191 20.377C39.7588 20.377 39.3444 20.2053 39.0388 19.8998C38.7333 19.5942 38.5616 19.1798 38.5616 18.7476C38.5616 13.3568 42.9473 8.97131 48.3379 8.97131C48.77 8.97131 49.1845 9.14298 49.4901 9.44855C49.7956 9.75412 49.9673 10.1686 49.9673 10.6007C49.9673 11.0328 49.7956 11.4473 49.4901 11.7528C49.1845 12.0584 48.77 12.2301 48.3379 12.2301C44.7441 12.2301 41.8204 15.1538 41.8204 18.7476C41.8204 19.1798 41.6487 19.5942 41.3431 19.8998C41.0376 20.2053 40.6231 20.377 40.191 20.377Z" fill="#555A6E"/>
<path d="M50.5105 6.2557H46.1655C46.0214 6.2557 45.8833 6.19847 45.7814 6.09661C45.6795 5.99474 45.6223 5.85657 45.6223 5.71251C45.6223 5.56844 45.6795 5.43028 45.7814 5.32841C45.8833 5.22654 46.0214 5.16931 46.1655 5.16931H50.5105C50.6545 5.16931 50.7927 5.22654 50.8946 5.32841C50.9964 5.43028 51.0537 5.56844 51.0537 5.71251C51.0537 5.85657 50.9964 5.99474 50.8946 6.09661C50.7927 6.19847 50.6545 6.2557 50.5105 6.2557Z" fill="#74DE00"/>
</svg>
