<svg width="102" height="75" viewBox="0 0 102 75" fill="none" xmlns="http://www.w3.org/2000/svg">
<path fill-rule="evenodd" clip-rule="evenodd" d="M64.9026 10.7432L85.6066 10.8329L100.615 33.4239V54.799C100.615 57.8549 98.1138 60.356 95.0579 60.356H64.9026V51.4106H1.39332V39.4052H64.9026V10.7432Z" fill="#74E000"/>
<path d="M84.4102 72.1485C89.8381 71.1043 93.3917 65.8576 92.3474 60.4297C91.3032 55.0019 86.0565 51.4482 80.6286 52.4925C75.2008 53.5368 71.6472 58.7835 72.6914 64.2113C73.7357 69.6392 78.9824 73.1928 84.4102 72.1485Z" fill="#6D6D6D"/>
<path fill-rule="evenodd" clip-rule="evenodd" d="M70.3188 16.0471H83.0219L93.7033 31.8204V35.5801H70.3188V16.0471ZM95.1272 45.3966H100.615V53.5178H95.1272V45.3966ZM82.5241 58.2506C84.7661 58.2506 86.5817 60.0683 86.5817 62.3082C86.5817 64.5502 84.764 66.3658 82.5241 66.3658C80.2822 66.3658 78.4666 64.5481 78.4666 62.3082C78.4666 60.0683 80.2822 58.2506 82.5241 58.2506ZM38.5825 51.4085H53.0012C54.8087 51.4085 56.2877 52.8875 56.2877 54.6949V57.0654C56.2877 58.8728 54.8087 60.3518 53.0012 60.3518H38.5825C36.7751 60.3518 35.2961 58.8728 35.2961 57.0654V54.6949C35.2961 52.8875 36.7751 51.4085 38.5825 51.4085Z" fill="#6D6D6D"/>
<path d="M30.3371 64.6343C31.6087 59.2551 28.2789 53.8636 22.8997 52.5921C17.5206 51.3205 12.1291 54.6503 10.8575 60.0295C9.58594 65.4086 12.9158 70.8001 18.2949 72.0717C23.6741 73.3433 29.0656 70.0134 30.3371 64.6343Z" fill="#6D6D6D"/>
<path d="M20.6122 66.3659C22.8531 66.3659 24.6697 64.5492 24.6697 62.3083C24.6697 60.0674 22.8531 58.2507 20.6122 58.2507C18.3712 58.2507 16.5546 60.0674 16.5546 62.3083C16.5546 64.5492 18.3712 66.3659 20.6122 66.3659Z" fill="#6D6D6D"/>
<path fill-rule="evenodd" clip-rule="evenodd" d="M1.39332 1.71826H60.1412V39.4052H1.39332V1.71826Z" fill="#85FF00"/>
<path fill-rule="evenodd" clip-rule="evenodd" d="M26.2099 0.310547C26.977 0.310547 27.5992 0.932746 27.5992 1.69979C27.5992 2.46683 26.977 3.08903 26.2099 3.08903H2.77848V24.7967C2.77848 25.5637 2.15628 26.1859 1.38924 26.1859C0.6222 26.1859 0 25.5637 0 24.7967V1.69979C0 0.932746 0.6222 0.310547 1.38924 0.310547H26.2099ZM0 30.372V51.3901C0 52.1572 0.6222 52.7794 1.38924 52.7794H5.61C6.50964 53.7504 7.42152 54.6235 8.34156 55.3967C9.0474 55.9903 9.76752 56.5309 10.4999 57.0225C9.67776 58.5974 9.21264 60.3906 9.21264 62.2898C9.21264 64.8969 10.0898 67.3001 11.5668 69.2217C13.0764 71.1883 15.2143 72.6469 17.6807 73.3018C18.4212 73.4956 19.178 73.0549 19.3739 72.3144C19.4673 71.9589 19.4157 71.5809 19.2306 71.2635C19.0454 70.946 18.7419 70.715 18.3865 70.6212C16.526 70.1275 14.9124 69.0239 13.77 67.5387C12.6541 66.0863 11.9911 64.2666 11.9911 62.2878C11.9911 59.9071 12.956 57.7529 14.5146 56.1923C16.0732 54.6337 18.2294 53.6688 20.6101 53.6688C22.9908 53.6688 25.145 54.6337 26.7056 56.1923C28.2642 57.7529 29.2291 59.9071 29.2291 62.2878C29.2291 64.3298 28.5274 66.2005 27.3523 67.6693C26.1294 69.2007 24.4212 70.2699 22.5094 70.7008C22.3319 70.7404 22.1639 70.8147 22.0152 70.9193C21.8665 71.024 21.7398 71.157 21.6426 71.3107C21.5454 71.4644 21.4795 71.6358 21.4486 71.815C21.4178 71.9943 21.4226 72.1778 21.4628 72.3552C21.5025 72.5327 21.5767 72.7006 21.6814 72.8494C21.7861 72.9981 21.9191 73.1247 22.0728 73.2219C22.2265 73.3192 22.3979 73.3851 22.5771 73.4159C22.7564 73.4468 22.9399 73.4419 23.1173 73.4017C25.6836 72.8264 27.9235 71.3821 29.5127 69.3931C31.0753 67.4388 32.0076 64.9683 32.0076 62.2858C32.0076 60.4436 31.571 58.7035 30.7938 57.1633C31.5568 56.6615 32.3156 56.1005 33.0643 55.4762C33.3458 55.2416 33.6274 54.9989 33.9068 54.7479V57.045C33.9068 58.3322 34.4332 59.5011 35.2798 60.3498C36.1264 61.1964 37.2953 61.7227 38.5825 61.7227H53.0012C54.2885 61.7227 55.4574 61.1964 56.304 60.3498C57.1506 59.5032 57.6769 58.3343 57.6769 57.045V54.6745C57.6769 53.9993 57.5321 53.3567 57.273 52.7773H63.5134V60.3335C63.5134 61.1005 64.1356 61.7227 64.9026 61.7227C65.6696 61.7227 66.2918 61.1005 66.2918 60.3335V12.116L84.8599 12.1956L99.2256 33.8216V38.279C99.2256 39.0461 99.8478 39.6683 100.615 39.6683C101.382 39.6683 102.004 39.0461 102.004 38.279V33.4075H102.002C102.002 33.1443 101.929 32.8791 101.772 32.6425L86.7632 10.0515L86.7612 10.0536C86.6354 9.86382 86.4649 9.70796 86.2645 9.59979C86.0642 9.49163 85.8403 9.43449 85.6127 9.43343L65.0311 9.34571C64.8387 9.32786 64.6447 9.35035 64.4614 9.41174C64.2782 9.47313 64.1098 9.57207 63.9669 9.70223C63.8241 9.8324 63.71 9.99093 63.6319 10.1677C63.5538 10.3445 63.5134 10.5356 63.5134 10.7288V37.9995H61.5305V1.69979C61.5305 0.932746 60.9083 0.310547 60.1412 0.310547H30.9876C30.2206 0.310547 29.5984 0.932746 29.5984 1.69979C29.5984 2.46683 30.2206 3.08903 30.9876 3.08903H58.75V39.3867C58.75 40.1538 59.3722 40.776 60.1392 40.776H63.5113V50.0029H31.926C31.159 50.0029 30.5368 50.6251 30.5368 51.3921C30.5368 52.1592 31.159 52.7814 31.926 52.7814H31.9566C31.7363 52.9793 31.5139 53.171 31.2916 53.3546C30.6204 53.9115 29.9411 54.4154 29.2536 54.8642C29.0659 54.646 28.8701 54.4338 28.6661 54.2318C28.1243 53.6896 27.529 53.2036 26.8892 52.7814H27.1504C27.9174 52.7814 28.5396 52.1592 28.5396 51.3921C28.5396 50.6251 27.9174 50.0029 27.1504 50.0029H2.77848V40.776H54.5557C55.3228 40.776 55.945 40.1538 55.945 39.3867C55.945 38.6197 55.3228 37.9975 54.5557 37.9975H2.77848V30.372C2.77848 29.6049 2.15628 28.9827 1.38924 28.9827C0.6222 28.9827 0 29.6049 0 30.372ZM20.6081 56.8451C22.1116 56.8451 23.4743 57.455 24.4596 58.4403C25.4449 59.4257 26.0549 60.7884 26.0549 62.2919C26.0549 63.7953 25.4449 65.1581 24.4596 66.1434C23.4743 67.1287 22.1116 67.7387 20.6081 67.7387C19.1046 67.7387 17.7419 67.1287 16.7566 66.1434C15.7712 65.1581 15.1613 63.7953 15.1613 62.2919C15.1613 60.7884 15.7712 59.4257 16.7566 58.4403C17.7419 57.455 19.1026 56.8451 20.6081 56.8451ZM22.4951 60.4049C22.9786 60.8883 23.2764 61.5554 23.2764 62.2919C23.2764 63.0283 22.9786 63.6954 22.4951 64.1789C22.0116 64.6623 21.3445 64.9602 20.6081 64.9602C19.8716 64.9602 19.2046 64.6623 18.7211 64.1789C18.2376 63.6954 17.9398 63.0283 17.9398 62.2919C17.9398 61.5554 18.2376 60.8883 18.7211 60.4049C19.2046 59.9214 19.8716 59.6235 20.6081 59.6235C21.3445 59.6235 22.0116 59.9214 22.4951 60.4049ZM12.0686 54.7418C11.4179 54.3053 10.7671 53.8136 10.1204 53.271C9.93072 53.1119 9.74304 52.9487 9.55536 52.7814H14.3249C13.6856 53.2043 13.0904 53.6902 12.548 54.2318C12.3828 54.3971 12.2237 54.5684 12.0686 54.7418ZM38.5784 52.7814H52.9972C53.5174 52.7814 53.9927 52.9956 54.3374 53.3403C54.6822 53.6851 54.8964 54.1584 54.8964 54.6806V57.0511C54.8964 57.5713 54.6822 58.0466 54.3374 58.3914C53.9927 58.7361 53.5194 58.9503 52.9972 58.9503H38.5784C38.0582 58.9503 37.5829 58.7361 37.2382 58.3914C36.8934 58.0466 36.6792 57.5733 36.6792 57.0511V54.6806C36.6792 54.1604 36.8934 53.6851 37.2382 53.3403C37.5829 52.9956 38.0582 52.7814 38.5784 52.7814ZM82.52 56.8451C84.0235 56.8451 85.3862 57.455 86.3716 58.4403C87.3569 59.4257 87.9668 60.7884 87.9668 62.2919C87.9668 63.7953 87.3569 65.1581 86.3716 66.1434C85.3862 67.1287 84.0235 67.7387 82.52 67.7387C81.0166 67.7387 79.6538 67.1287 78.6685 66.1434C77.6832 65.1581 77.0732 63.7953 77.0732 62.2919C77.0732 60.7884 77.6832 59.4257 78.6685 58.4403C79.6538 57.455 81.0145 56.8451 82.52 56.8451ZM84.407 60.4049C84.8905 60.8883 85.1884 61.5554 85.1884 62.2919C85.1884 63.0283 84.8905 63.6954 84.407 64.1789C83.9236 64.6623 83.2565 64.9602 82.52 64.9602C81.7836 64.9602 81.1165 64.6623 80.633 64.1789C80.1496 63.6954 79.8517 63.0283 79.8517 62.2919C79.8517 61.5554 80.1496 60.8883 80.633 60.4049C81.1165 59.9214 81.7836 59.6235 82.52 59.6235C83.2565 59.6235 83.9236 59.9214 84.407 60.4049ZM99.2215 46.7695V52.1123H96.5124V46.7695H99.2215ZM95.1232 43.991H99.5663C99.7526 43.7787 99.9992 43.6283 100.273 43.5597C100.547 43.4911 100.836 43.5077 101.1 43.6072C101.364 43.7067 101.592 43.8844 101.753 44.1166C101.914 44.3488 102 44.6245 102 44.907V54.7806C102 56.6921 101.219 58.4281 99.96 59.6868C98.7013 60.9455 96.9653 61.7268 95.0538 61.7268H93.9012C93.9094 61.9145 93.9155 62.1021 93.9155 62.2919C93.9155 62.7917 93.8788 63.3017 93.8094 63.8219C93.7406 64.3265 93.6384 64.8261 93.5034 65.3172C93.4557 65.4926 93.3738 65.6569 93.2626 65.8006C93.1513 65.9444 93.0128 66.0648 92.855 66.1549C92.6972 66.2451 92.5231 66.3033 92.3428 66.3262C92.1625 66.3491 91.9794 66.3362 91.8041 66.2882C91.6287 66.2405 91.4644 66.1587 91.3207 66.0474C91.1769 65.9362 91.0565 65.7977 90.9663 65.6398C90.8761 65.482 90.8179 65.308 90.7951 65.1276C90.7722 64.9473 90.7851 64.7642 90.833 64.5889C90.933 64.2258 91.0105 63.8463 91.0636 63.4526C91.1125 63.0915 91.137 62.706 91.137 62.2919C91.137 59.9112 90.1721 57.7569 88.6135 56.1964C87.055 54.6378 84.8987 53.6729 82.518 53.6729C80.1373 53.6729 77.9831 54.6378 76.4225 56.1964C74.8619 57.7569 73.899 59.9112 73.899 62.2919C73.899 64.6725 74.8639 66.8268 76.4225 68.3874C77.981 69.948 80.1373 70.9109 82.518 70.9109C83.7196 70.9109 84.8599 70.6681 85.8901 70.2315C86.9672 69.7746 87.9301 69.1034 88.7298 68.2752C89.2602 67.7244 90.1374 67.706 90.6882 68.2364C91.239 68.7668 91.2574 69.644 90.727 70.1948C89.6634 71.3009 88.3874 72.1807 86.9754 72.7815C85.5661 73.3819 84.0498 73.6907 82.518 73.6893C79.3703 73.6893 76.5224 72.4143 74.46 70.3519C72.3976 68.2895 71.1226 65.4396 71.1226 62.2939C71.1226 62.1042 71.1266 61.9165 71.1368 61.7288H69.1968C68.4298 61.7288 67.8076 61.1066 67.8076 60.3396C67.8076 59.5725 68.4298 58.9503 69.1968 58.9503H71.6224C72.1752 57.147 73.1626 55.5354 74.462 54.2339C76.5245 52.1714 79.3744 50.8964 82.52 50.8964C85.6678 50.8964 88.5156 52.1714 90.578 54.2339C91.8957 55.5504 92.8707 57.1698 93.4177 58.9503H95.0538C96.1982 58.9503 97.2407 58.4811 97.9955 57.7243C98.7278 56.9919 99.1909 55.9923 99.2195 54.8928H95.1232C94.3561 54.8928 93.7339 54.2706 93.7339 53.5035V45.3823C93.7339 44.6132 94.3561 43.991 95.1232 43.991ZM70.3147 14.6395H83.0158C83.5421 14.6395 83.999 14.9312 84.2357 15.3617L94.8437 31.0268C94.9991 31.2555 95.0822 31.5256 95.0824 31.802H95.0885V35.5617C95.0885 36.3288 94.4663 36.951 93.6992 36.951H70.3147C69.5477 36.951 68.9255 36.3288 68.9255 35.5617V16.0287C68.9255 15.2617 69.5477 14.6395 70.3147 14.6395ZM82.2875 17.418L92.31 32.2182V34.1745H71.704V17.42H82.2875V17.418Z" fill="black"/>
</svg>
