<svg width="97" height="63" viewBox="0 0 97 63" fill="none" xmlns="http://www.w3.org/2000/svg">
<path d="M2.08948 38.895V33.045C2.08946 30.3073 2.85404 27.624 4.29706 25.2975L13.9092 9.79913C15.4319 7.34399 17.556 5.3181 20.0805 3.91323C22.6049 2.50836 25.4461 1.77102 28.3351 1.771H45.375C46.8686 1.771 48.3309 2.19926 49.5886 3.005L58.5094 8.72012V42.8169H6.01114C3.84529 42.8169 2.08948 41.0611 2.08948 38.895Z" fill="#85FF00"/>
<path d="M58.5092 42.8169V36.5832C35.9236 31.518 25.2827 15.9387 29.0696 1.77124H28.3349C25.4459 1.77123 22.6047 2.50854 20.0803 3.91337C17.5559 5.3182 15.4318 7.34407 13.9091 9.79919L4.29706 25.2975C2.85402 27.6241 2.08944 30.3075 2.08948 33.0453V38.8953C2.08948 41.0611 3.84529 42.8169 6.01114 42.8169H58.5092Z" fill="#75E000"/>
<path d="M40.7264 29.0544H30.517C26.8947 29.0544 23.9581 31.9909 23.9581 35.6132V42.8168H58.5094V8.72025L56.0679 7.15613L46.5494 25.5142C45.9962 26.5811 45.1606 27.4755 44.1337 28.0998C43.1068 28.7241 41.9282 29.0543 40.7264 29.0544Z" fill="#7E7E7E"/>
<path d="M27.9176 22.794H24.2841C23.2044 22.794 22.2375 22.2357 21.6976 21.3007C21.1577 20.3655 21.1579 19.2492 21.6976 18.3142L24.7051 13.1049C24.8917 12.7866 25.1967 12.555 25.5534 12.4607C25.9101 12.3664 26.2896 12.417 26.6091 12.6015C26.9286 12.786 27.1622 13.0894 27.2589 13.4454C27.3556 13.8015 27.3075 14.1813 27.1251 14.5021L24.1176 19.7114C24.0993 19.7401 24.0895 19.7734 24.0895 19.8074C24.0895 19.8415 24.0993 19.8748 24.1176 19.9035C24.1333 19.9337 24.1573 19.9588 24.1867 19.9758C24.2162 19.9928 24.2499 20.0011 24.2839 19.9996H27.9174C28.288 19.9996 28.6434 20.1468 28.9054 20.4088C29.1674 20.6708 29.3147 21.0262 29.3147 21.3967C29.3147 21.7673 29.1675 22.1227 28.9055 22.3847C28.6435 22.6468 28.2882 22.794 27.9176 22.794Z" fill="white"/>
<path d="M36.3147 22.7939H30.2994C29.9289 22.7939 29.5735 22.6467 29.3115 22.3847C29.0494 22.1227 28.9022 21.7673 28.9022 21.3967C28.9022 21.0262 29.0494 20.6708 29.3115 20.4088C29.5735 20.1468 29.9289 19.9995 30.2994 19.9995H36.3147C36.342 19.9995 36.4255 19.9995 36.481 19.9034C36.5365 19.8073 36.4948 19.735 36.481 19.7113L34.4784 16.2426C34.296 15.9218 34.2479 15.542 34.3446 15.1859C34.4412 14.8298 34.6748 14.5265 34.9944 14.342C35.3139 14.1575 35.6934 14.1069 36.0501 14.2012C36.4068 14.2955 36.7117 14.5271 36.8983 14.8454L38.901 18.3141C39.4408 19.2492 39.4408 20.3656 38.901 21.3006C38.3613 22.2358 37.3944 22.7939 36.3147 22.7939Z" fill="white"/>
<path d="M34.6847 15.2012C34.4392 15.2015 34.198 15.137 33.9854 15.0144C33.7727 14.8917 33.5961 14.7151 33.4735 14.5024L30.4658 9.29312C30.452 9.26927 30.4102 9.19699 30.2992 9.19699C30.1884 9.19699 30.1466 9.26927 30.1329 9.29312L28.1302 12.7619C27.9436 13.0802 27.6387 13.3118 27.282 13.4061C26.9253 13.5004 26.5458 13.4498 26.2262 13.2653C25.9067 13.0808 25.6731 12.7774 25.5765 12.4214C25.4798 12.0653 25.5279 11.6854 25.7102 11.3647L27.7129 7.89592C28.2528 6.96091 29.2196 6.40259 30.2992 6.40259C31.379 6.40259 32.3458 6.96072 32.8857 7.89592L35.8934 13.1052C36.016 13.3176 36.0806 13.5584 36.0807 13.8036C36.0808 14.0487 36.0164 14.2896 35.8939 14.502C35.7714 14.7144 35.5952 14.8908 35.383 15.0136C35.1707 15.1363 34.9299 15.201 34.6847 15.2012ZM32.7123 24.8736C32.4112 24.8737 32.1182 24.7762 31.8773 24.5956L29.6844 22.9578C29.4422 22.7759 29.2454 22.5403 29.1097 22.2694C28.9739 21.9986 28.9029 21.6999 28.9022 21.397C28.9022 20.7856 29.1947 20.2021 29.6846 19.8362L31.8773 18.1983C32.0243 18.0885 32.1915 18.0088 32.3693 17.9636C32.5472 17.9184 32.7322 17.9087 32.9138 17.935C33.0953 17.9613 33.27 18.0231 33.4277 18.1169C33.5854 18.2107 33.723 18.3347 33.8328 18.4817C33.9426 18.6287 34.0224 18.7959 34.0676 18.9737C34.1128 19.1515 34.1225 19.3365 34.0962 19.5181C34.0698 19.6997 34.008 19.8743 33.9142 20.032C33.8204 20.1897 33.6965 20.3274 33.5495 20.4372L32.2646 21.397L33.5495 22.3568C33.7848 22.5324 33.9587 22.7777 34.0467 23.0579C34.1346 23.338 34.1321 23.6388 34.0394 23.9174C33.9467 24.196 33.7686 24.4384 33.5304 24.61C33.2922 24.7817 33.0059 24.8739 32.7123 24.8736Z" fill="white"/>
<path d="M34.4068 15.2735C34.1456 15.2735 33.8839 15.2215 33.6393 15.1165L31.1243 14.0363C30.7888 13.8868 30.5258 13.6111 30.392 13.2691C30.2582 12.927 30.2645 12.5461 30.4094 12.2086C30.5544 11.8711 30.8263 11.6043 31.1665 11.4658C31.5067 11.3273 31.8877 11.3284 32.2271 11.4687L33.7009 12.1015L33.8896 10.5089C33.9112 10.3267 33.9684 10.1505 34.0581 9.9904C34.1477 9.83031 34.2681 9.68946 34.4122 9.57588C34.5563 9.46231 34.7214 9.37824 34.898 9.32847C35.0746 9.27871 35.2593 9.26423 35.4415 9.28586C35.8094 9.32948 36.145 9.51748 36.3743 9.8085C36.6037 10.0995 36.7081 10.4697 36.6645 10.8377L36.3424 13.5557C36.3061 13.8565 36.2004 14.1447 36.0337 14.3977C35.867 14.6506 35.6439 14.8614 35.3818 15.0135C35.0853 15.1843 34.749 15.274 34.4068 15.2735ZM26.5072 18.3312C26.1654 18.3307 25.8356 18.205 25.5802 17.9777C25.3249 17.7505 25.1617 17.4375 25.1215 17.0981L24.9328 15.5055L23.4591 16.1385C23.2905 16.2109 23.1093 16.2494 22.9258 16.2517C22.7423 16.2541 22.5602 16.2203 22.3898 16.1523C22.2193 16.0843 22.064 15.9834 21.9326 15.8553C21.8012 15.7273 21.6963 15.5746 21.6239 15.406C21.5515 15.2374 21.513 15.0562 21.5106 14.8727C21.5082 14.6892 21.542 14.5071 21.6101 14.3367C21.6781 14.1663 21.779 14.0109 21.907 13.8795C22.0351 13.7481 22.1878 13.6432 22.3564 13.5708L24.8713 12.4909C25.15 12.372 25.4524 12.3194 25.7549 12.3373C26.0573 12.3551 26.3514 12.443 26.6141 12.5939C26.8761 12.7459 27.0992 12.9568 27.2659 13.2097C27.4325 13.4627 27.5382 13.7509 27.5745 14.0516L27.8966 16.7696C27.9198 16.9658 27.9012 17.1646 27.8419 17.353C27.7827 17.5415 27.6842 17.7152 27.5529 17.8627C27.4216 18.0103 27.2605 18.1283 27.0803 18.2091C26.9 18.2898 26.7047 18.3314 26.5072 18.3312Z" fill="white"/>
<path d="M36.3147 22.794H30.2994C29.9289 22.794 29.5735 22.6468 29.3115 22.3848C29.0494 22.1227 28.9022 21.7674 28.9022 21.3968C28.9022 21.0262 29.0494 20.6708 29.3115 20.4088C29.5735 20.1468 29.9289 19.9996 30.2994 19.9996H36.3147C36.342 19.9996 36.4255 19.9996 36.481 19.9035C36.5365 19.8073 36.4948 19.7351 36.481 19.7114L34.6643 16.5647C34.4819 16.244 34.4338 15.8641 34.5305 15.5081C34.6272 15.152 34.8608 14.8486 35.1803 14.6641C35.4998 14.4796 35.8793 14.429 36.236 14.5233C36.5927 14.6176 36.8976 14.8492 37.0842 15.1675L38.901 18.3142C39.4408 19.2492 39.4408 20.3657 38.901 21.3007C38.3613 22.2359 37.3944 22.794 36.3147 22.794Z" fill="white"/>
<path d="M18.1614 39.8346C17.7908 39.8346 17.4354 39.6874 17.1734 39.4254C16.9114 39.1633 16.7642 38.808 16.7642 38.4374V29.9512C16.7642 29.5806 16.9114 29.2252 17.1734 28.9632C17.4354 28.7012 17.7908 28.554 18.1614 28.554C18.5319 28.554 18.8873 28.7012 19.1494 28.9632C19.4114 29.2252 19.5586 29.5806 19.5586 29.9512V38.4374C19.5586 38.808 19.4114 39.1633 19.1494 39.4254C18.8873 39.6874 18.5319 39.8346 18.1614 39.8346ZM12.3183 39.8346C11.9477 39.8346 11.5923 39.6874 11.3303 39.4254C11.0683 39.1633 10.9211 38.808 10.9211 38.4374V29.9512C10.9211 29.5806 11.0683 29.2252 11.3303 28.9632C11.5923 28.7012 11.9477 28.554 12.3183 28.554C12.6888 28.554 13.0442 28.7012 13.3063 28.9632C13.5683 29.2252 13.7155 29.5806 13.7155 29.9512V38.4374C13.7155 38.808 13.5683 39.1633 13.3063 39.4254C13.0442 39.6874 12.6888 39.8346 12.3183 39.8346Z" fill="#80D3AE"/>
<path d="M80.5602 1.77124H64.0888C61.0073 1.77124 58.5095 4.26925 58.5095 7.35055V35.5656H94.6775V22.3831C94.6775 19.1477 93.8665 15.964 92.3186 13.1229L88.801 6.6661C87.9941 5.1849 86.8029 3.94856 85.3527 3.08718C83.9025 2.22579 82.2469 1.7712 80.5602 1.77124Z" fill="#85FF00"/>
<path d="M69.4277 16.7288C69.0571 16.7288 68.7017 16.5816 68.4397 16.3196C68.1777 16.0575 68.0305 15.7022 68.0305 15.3316V8.4337C68.0305 8.06314 68.1777 7.70776 68.4397 7.44573C68.7017 7.1837 69.0571 7.0365 69.4277 7.0365C69.7982 7.0365 70.1536 7.1837 70.4156 7.44573C70.6777 7.70776 70.8249 8.06314 70.8249 8.4337V15.3316C70.8249 15.7022 70.6777 16.0575 70.4156 16.3196C70.1536 16.5816 69.7982 16.7288 69.4277 16.7288ZM64.6518 16.7288C64.2813 16.7288 63.9259 16.5816 63.6639 16.3196C63.4018 16.0575 63.2546 15.7022 63.2546 15.3316V8.4337C63.2546 8.06314 63.4018 7.70776 63.6639 7.44573C63.9259 7.1837 64.2813 7.0365 64.6518 7.0365C65.0224 7.0365 65.3778 7.1837 65.6398 7.44573C65.9018 7.70776 66.049 8.06314 66.049 8.4337V15.3316C66.049 15.7022 65.9018 16.0575 65.6398 16.3196C65.3778 16.5816 65.0224 16.7288 64.6518 16.7288Z" fill="#80D3AE"/>
<path d="M89.906 25.9778H94.6775V35.5658H86.8821V29.0015C86.8821 27.3316 88.2359 25.9778 89.906 25.9778Z" fill="#FADA6D"/>
<path d="M90.8421 49.2086H12.7911C10.6729 49.2086 8.95587 47.4915 8.95587 45.3733V39.401C8.95587 37.2828 10.6729 35.5657 12.7911 35.5657H55.133C56.197 35.5657 57.2494 35.3444 58.2233 34.9158C59.1971 34.4871 60.0712 33.8606 60.7898 33.0759L62.4503 31.2631C63.36 30.2698 64.5231 29.5432 65.8148 29.1613C67.1064 28.7794 68.4777 28.7566 69.7813 29.0954L94.6776 35.5656V45.373C94.6774 47.4915 92.9603 49.2086 90.8421 49.2086Z" fill="#C7C9CC"/>
<path d="M57.7657 35.0978C56.9223 35.4067 56.0312 35.5651 55.133 35.5657H12.7911C10.6729 35.5657 8.95587 37.2828 8.95587 39.401V45.3734C8.95587 47.4915 10.6729 49.2086 12.7911 49.2086H69.1764C62.8962 44.8279 59.3949 39.4351 57.7657 35.0978Z" fill="#B2B5B8"/>
<path d="M71.6534 60.792C77.8264 60.792 82.8305 55.7878 82.8305 49.6149C82.8305 43.442 77.8264 38.4379 71.6534 38.4379C65.4805 38.4379 60.4764 43.442 60.4764 49.6149C60.4764 55.7878 65.4805 60.792 71.6534 60.792Z" fill="#7E7E7E"/>
<path d="M71.6535 54.684C74.453 54.684 76.7225 52.4145 76.7225 49.6149C76.7225 46.8154 74.453 44.5459 71.6535 44.5459C68.8539 44.5459 66.5844 46.8154 66.5844 49.6149C66.5844 52.4145 68.8539 54.684 71.6535 54.684Z" fill="#C7C9CC"/>
<path d="M28.0718 60.792C34.2447 60.792 39.2489 55.7878 39.2489 49.6149C39.2489 43.442 34.2447 38.4379 28.0718 38.4379C21.8989 38.4379 16.8948 43.442 16.8948 49.6149C16.8948 55.7878 21.8989 60.792 28.0718 60.792Z" fill="#7E7E7E"/>
<path d="M28.0719 54.684C30.8714 54.684 33.1409 52.4145 33.1409 49.6149C33.1409 46.8154 30.8714 44.5459 28.0719 44.5459C25.2723 44.5459 23.0028 46.8154 23.0028 49.6149C23.0028 52.4145 25.2723 54.684 28.0719 54.684Z" fill="#C7C9CC"/>
<path d="M76.4209 16.5108L94.3893 19.0692C94.0284 16.9873 93.3289 14.9786 92.3187 13.1229L89.7638 8.43347H76.76C75.4317 8.43347 74.3547 9.51025 74.3547 10.8387V14.1296C74.3547 14.7088 74.5637 15.2685 74.9432 15.7059C75.3228 16.1434 75.8475 16.4292 76.4209 16.5108Z" fill="#E0F7FF"/>
<path d="M65.1864 49.6148C65.1864 53.1808 68.0875 56.0819 71.6535 56.0819C75.2196 56.0819 78.1207 53.1808 78.1207 49.6148C78.1207 46.0487 75.2196 43.1476 71.6535 43.1476C68.0875 43.1476 65.1864 46.0487 65.1864 49.6148ZM75.3265 49.6148C75.3265 51.64 73.6789 53.2875 71.6537 53.2875C69.6285 53.2875 67.9809 51.64 67.9809 49.6148C67.9809 47.5896 69.6285 45.942 71.6537 45.942C73.6789 45.942 75.3265 47.5896 75.3265 49.6148ZM95.7724 18.8784C95.7683 18.8499 95.7634 18.8215 95.7577 18.7932C95.3681 16.5806 94.6235 14.4332 93.5455 12.4544L90.9945 7.77211L90.9895 7.7628L90.0279 5.99767C89.1013 4.2955 87.7328 2.87474 86.0666 1.88503C84.4004 0.895332 82.498 0.373333 80.56 0.374025H64.0885C60.625 0.374025 57.7441 2.91153 57.204 6.22495L56.8344 5.98817L56.8335 5.98761L50.3419 1.82879C48.8597 0.878003 47.1355 0.373054 45.3746 0.374025H28.3347C24.302 0.374025 20.3209 1.72912 17.125 4.18987C16.8314 4.41594 16.6396 4.7494 16.5918 5.11688C16.544 5.48436 16.6442 5.85577 16.8703 6.1494C17.0963 6.44304 17.4298 6.63484 17.7973 6.68261C18.1648 6.73039 18.5362 6.63023 18.8298 6.40416C21.5398 4.31767 24.9155 3.16843 28.3347 3.16843H45.3746C46.6011 3.16779 47.802 3.51948 48.8344 4.18168L54.2401 7.64488L45.3085 24.8711C44.8747 25.7119 44.2174 26.4169 43.409 26.9084C42.6005 27.3999 41.6721 27.6589 40.726 27.6569H30.5164C26.6346 27.6569 23.38 30.4725 22.6958 34.1684H12.7905C9.90541 34.1684 7.5583 36.5157 7.5583 39.4007V41.4193H6.01057C4.61858 41.4193 3.48611 40.2869 3.48611 38.8949V33.0449C3.48554 30.5673 4.17744 28.1389 5.48373 26.0337L14.8165 10.9859C14.9132 10.8299 14.9783 10.6565 15.008 10.4754C15.0376 10.2944 15.0314 10.1092 14.9895 9.93057C14.9476 9.75192 14.871 9.58327 14.764 9.43424C14.6569 9.28522 14.5216 9.15873 14.3657 9.06201C14.2097 8.96529 14.0363 8.90023 13.8552 8.87054C13.6741 8.84085 13.489 8.84712 13.3104 8.88898C13.1317 8.93085 12.9631 9.00749 12.814 9.11453C12.665 9.22157 12.5385 9.35692 12.4418 9.51284L3.10905 24.5607C1.52874 27.1085 0.691681 30.0472 0.692261 33.0453V38.8952C0.692261 41.8281 3.07831 44.2141 6.01113 44.2141H7.55886V45.3732C7.55886 48.2584 9.90615 50.6055 12.7911 50.6055H15.5406C16.0481 57.0771 21.4726 62.189 28.0722 62.189C34.6718 62.189 40.0965 57.0771 40.6038 50.6055H59.1219C59.6294 57.0771 65.0539 62.189 71.6535 62.189C74.2331 62.189 76.7125 61.4133 78.8238 59.9455C79.1256 59.733 79.331 59.4097 79.3952 59.0462C79.4594 58.6828 79.3772 58.3087 79.1665 58.0056C78.9558 57.7025 78.6338 57.4952 78.2707 57.4287C77.9077 57.3623 77.5331 57.4423 77.2287 57.6511C75.5881 58.7918 73.6603 59.3946 71.6537 59.3946C66.2611 59.3946 61.8739 55.0074 61.8739 49.6148C61.8739 44.2221 66.2611 39.8347 71.6537 39.8347C77.0464 39.8347 81.4338 44.2219 81.4338 49.6148C81.4338 50.8141 81.2195 51.9848 80.797 53.0944C80.7312 53.2659 80.6998 53.4488 80.7048 53.6325C80.7097 53.8163 80.7509 53.9972 80.8259 54.165C80.9009 54.3328 81.0082 54.4841 81.1418 54.6103C81.2754 54.7366 81.4325 54.8352 81.6043 54.9006C81.776 54.966 81.959 54.9969 82.1427 54.9915C82.3264 54.986 82.5072 54.9444 82.6748 54.869C82.8424 54.7936 82.9935 54.6859 83.1194 54.552C83.2453 54.4181 83.3435 54.2607 83.4085 54.0888C83.8334 52.971 84.0955 51.798 84.187 50.6057H90.8421C93.7273 50.6057 96.0744 48.2584 96.0744 45.3734V22.3829C96.0734 21.2083 95.9724 20.0359 95.7724 18.8784ZM88.9339 9.83066L91.0916 13.7913C91.7149 14.9365 92.2116 16.1463 92.5728 17.3992L76.6177 15.1275C76.3778 15.0924 76.1585 14.9724 75.9996 14.7893C75.8407 14.6062 75.7528 14.3722 75.7518 14.1298V10.8387C75.7521 10.5714 75.8584 10.3152 76.0474 10.1262C76.2364 9.93725 76.4926 9.83096 76.7598 9.83066H88.9339ZM30.5169 30.4515H40.7266C43.7101 30.4515 46.4163 28.8061 47.7897 26.1576L56.6034 9.15888L57.1122 9.4849V33.8458C56.4741 34.0591 55.8058 34.1681 55.133 34.1688H25.5645C26.1927 32.0253 28.1795 30.4515 30.5169 30.4515ZM28.0722 59.3946C22.6796 59.3946 18.2922 55.0074 18.2922 49.6148C18.2922 44.2221 22.6794 39.8347 28.0722 39.8347C33.4648 39.8347 37.8521 44.2219 37.8521 49.6148C37.8522 55.0074 33.4648 59.3946 28.0722 59.3946ZM93.2802 45.3732C93.2802 46.7175 92.1864 47.8111 90.8423 47.8111H84.0968C83.2192 41.7291 77.9748 37.0403 71.6537 37.0403C65.3326 37.0403 60.0882 41.7293 59.2106 47.8111H40.5153C39.6377 41.7291 34.3933 37.0403 28.0722 37.0403C21.7511 37.0403 16.5067 41.7293 15.6291 47.8111H12.7911C11.4468 47.8111 10.3533 46.7173 10.3533 45.3732V39.4009C10.3533 38.0566 11.447 36.963 12.7911 36.963H55.133C56.4956 36.963 57.8281 36.6508 59.0364 36.0744C59.0852 36.0545 59.1327 36.0325 59.1786 36.0075C60.1735 35.5125 61.0689 34.8387 61.82 34.0198L63.4805 32.2071C64.2178 31.3999 65.1617 30.8094 66.2101 30.4993C67.2585 30.1893 68.3718 30.1715 69.4296 30.448L93.2802 36.6463V45.3732ZM93.2802 33.7591L88.2791 32.4594V29.0016C88.2791 28.1046 89.0088 27.3749 89.9058 27.3749H93.2802V33.7591ZM93.2802 24.5805H89.9058C87.468 24.5805 85.4847 26.5637 85.4847 29.0016V31.7332L70.1326 27.7433C68.5834 27.3385 66.9531 27.3644 65.4176 27.8185C63.8821 28.2725 62.4998 29.1373 61.4199 30.3196L59.9066 31.9717V7.35053C59.9066 5.04459 61.7828 3.16843 64.0887 3.16843H80.5602C81.9369 3.1685 83.29 3.52472 84.4883 4.20248C85.6865 4.88023 86.689 5.85645 87.3983 7.03625H76.76C74.6635 7.03625 72.9576 8.74196 72.9576 10.8387V14.1298C72.9576 16.0108 74.3619 17.6291 76.2241 17.8942L93.157 20.305C93.2377 20.9939 93.2804 21.6879 93.2804 22.3831L93.2802 24.5805ZM74.9256 21.4151H71.5233C71.1528 21.4151 70.7974 21.5623 70.5353 21.8244C70.2733 22.0864 70.1261 22.4418 70.1261 22.8123C70.1261 23.1829 70.2733 23.5383 70.5353 23.8003C70.7974 24.0623 71.1528 24.2095 71.5233 24.2095H74.9256C75.2962 24.2095 75.6515 24.0623 75.9136 23.8003C76.1756 23.5383 76.3228 23.1829 76.3228 22.8123C76.3228 22.4418 76.1756 22.0864 75.9136 21.8244C75.6515 21.5623 75.2962 21.4151 74.9256 21.4151ZM28.0722 43.1476C24.5062 43.1476 21.605 46.0487 21.605 49.6148C21.605 53.1808 24.5062 56.0819 28.0722 56.0819C31.6382 56.0819 34.5394 53.1808 34.5394 49.6148C34.5394 46.0487 31.6382 43.1476 28.0722 43.1476ZM28.0722 53.2875C26.047 53.2875 24.3994 51.64 24.3994 49.6148C24.3994 47.5896 26.047 45.942 28.0722 45.942C30.0974 45.942 31.745 47.5896 31.745 49.6148C31.745 51.64 30.0974 53.2875 28.0722 53.2875Z" fill="black"/>
</svg>
