<svg width="105" height="74" viewBox="0 0 105 74" fill="none" xmlns="http://www.w3.org/2000/svg">
<path d="M38.8318 8.48645V35.3252H72.3802L69.0253 8.48645" fill="#85FF00"/>
<path d="M72.3801 37.0026H38.8317C37.8253 37.0026 37.1543 36.3316 37.1543 35.3252V8.48647H40.5091V33.6478H70.5349L67.3478 8.65421L70.7027 8.31873L74.0575 35.1574C74.2253 35.9961 73.5543 36.8349 72.5478 37.0026H72.3801Z" fill="black"/>
<path d="M45.5414 42.0349H72.3801V68.8736H45.5414V42.0349Z" fill="#85FF00"/>
<path d="M72.3801 70.551H45.5414C44.535 70.551 43.864 69.88 43.864 68.8736V42.0348C43.864 41.0284 44.535 40.3574 45.5414 40.3574H72.3801C73.3866 40.3574 74.0576 41.0284 74.0576 42.0348V68.8736C74.0576 69.88 73.3866 70.551 72.3801 70.551ZM47.2189 67.1961H70.7027V43.7123H47.2189V67.1961Z" fill="black"/>
<path d="M90.8318 48.7445H102.574V35.3252H38.8318L45.5415 42.0349H80.7673L90.8318 48.7445Z" fill="#85FF00"/>
<path d="M102.574 50.422H90.8317C90.4962 50.422 90.1607 50.2543 89.8253 50.0865L80.264 43.7123H45.5414C45.0382 43.7123 44.7027 43.5446 44.3672 43.2091L37.6575 36.4994C36.9866 35.8285 36.9866 34.822 37.6575 34.1511C37.993 33.8156 38.3285 33.6478 38.8317 33.6478H102.574C103.58 33.6478 104.251 34.3188 104.251 35.3252V48.7446C104.251 49.7511 103.58 50.422 102.574 50.422ZM91.3349 47.0672H100.896V37.0027H42.8575L46.2124 40.3575H80.7672C81.1027 40.3575 81.4382 40.5252 81.7736 40.693L91.3349 47.0672Z" fill="black"/>
<path d="M80.7672 72.2285C89.1049 72.2285 95.864 65.4694 95.864 57.1317C95.864 48.794 89.1049 42.0349 80.7672 42.0349C72.4295 42.0349 65.6704 48.794 65.6704 57.1317C65.6704 65.4694 72.4295 72.2285 80.7672 72.2285Z" fill="#7D828C"/>
<path d="M80.7672 73.9058C71.5414 73.9058 63.993 66.3574 63.993 57.1316C63.993 47.9058 71.5414 40.3574 80.7672 40.3574C89.993 40.3574 97.5414 47.9058 97.5414 57.1316C97.5414 66.3574 89.993 73.9058 80.7672 73.9058ZM80.7672 43.7123C73.3866 43.7123 67.3479 49.751 67.3479 57.1316C67.3479 64.5123 73.3866 70.551 80.7672 70.551C88.1479 70.551 94.1866 64.5123 94.1866 57.1316C94.1866 49.751 88.1479 43.7123 80.7672 43.7123Z" fill="black"/>
<path d="M38.8318 1.77673H72.3802V8.48641H38.8318V1.77673Z" fill="#7D828C"/>
<path d="M72.3801 10.1639H38.8317C37.8253 10.1639 37.1543 9.49291 37.1543 8.48646V1.77678C37.1543 0.770333 37.8253 0.0993652 38.8317 0.0993652H72.3801C73.3866 0.0993652 74.0575 0.770333 74.0575 1.77678V8.48646C74.0575 9.49291 73.3866 10.1639 72.3801 10.1639ZM40.5091 6.80904H70.7027V3.4542H40.5091V6.80904Z" fill="black"/>
<path d="M52.2511 8.48645H58.9608V28.6155H52.2511V8.48645Z" fill="#A6A6A6"/>
<path d="M58.9608 30.293H52.2511C51.2447 30.293 50.5737 29.622 50.5737 28.6155V8.4865C50.5737 7.48005 51.2447 6.80908 52.2511 6.80908H58.9608C59.9673 6.80908 60.6382 7.48005 60.6382 8.4865V28.6155C60.6382 29.622 59.9673 30.293 58.9608 30.293ZM53.9286 26.9381H57.2834V10.1639H53.9286V26.9381Z" fill="black"/>
<path d="M80.7672 65.5187C85.3993 65.5187 89.1543 61.7637 89.1543 57.1316C89.1543 52.4995 85.3993 48.7445 80.7672 48.7445C76.1352 48.7445 72.3801 52.4995 72.3801 57.1316C72.3801 61.7637 76.1352 65.5187 80.7672 65.5187Z" fill="#A4A5A6"/>
<path d="M80.7673 67.1962C75.2318 67.1962 70.7028 62.6671 70.7028 57.1317C70.7028 51.5962 75.2318 47.0671 80.7673 47.0671C86.3028 47.0671 90.8318 51.5962 90.8318 57.1317C90.8318 62.6671 86.3028 67.1962 80.7673 67.1962ZM80.7673 50.422C77.077 50.422 74.0576 53.4413 74.0576 57.1317C74.0576 60.822 77.077 63.8413 80.7673 63.8413C84.4576 63.8413 87.477 60.822 87.477 57.1317C87.477 53.4413 84.4576 50.422 80.7673 50.422Z" fill="black"/>
<path d="M99.2189 35.3251V30.2929L90.8318 21.9058H70.7028V35.3251H99.2189Z" fill="#85FF00"/>
<path d="M99.2188 37.0026H70.7027C69.6962 37.0026 69.0253 36.3316 69.0253 35.3252V21.9058C69.0253 20.8994 69.6962 20.2284 70.7027 20.2284H90.8317C91.3349 20.2284 91.6704 20.3961 92.0059 20.7316L100.393 29.1187C100.728 29.4542 100.896 29.7897 100.896 30.2929V35.3252C100.896 36.3316 100.225 37.0026 99.2188 37.0026ZM72.3801 33.6477H97.5414V30.9639L90.1607 23.5832H72.3801V33.6477Z" fill="black"/>
<path d="M84.1221 21.9058H80.7672V6.80904C80.7672 3.11872 83.7866 0.0993652 87.4769 0.0993652H89.1543V3.4542H87.4769C85.6317 3.4542 84.1221 4.96388 84.1221 6.80904V21.9058Z" fill="black"/>
<path d="M23.735 72.2285C32.0727 72.2285 38.8317 65.4694 38.8317 57.1317C38.8317 48.794 32.0727 42.0349 23.735 42.0349C15.3972 42.0349 8.63818 48.794 8.63818 57.1317C8.63818 65.4694 15.3972 72.2285 23.735 72.2285Z" fill="#A4A5A6"/>
<path d="M23.735 73.9058C14.5092 73.9058 6.96082 66.3574 6.96082 57.1316C6.96082 47.9058 14.5092 40.3574 23.735 40.3574C32.9608 40.3574 40.5092 47.9058 40.5092 57.1316C40.5092 66.3574 32.9608 73.9058 23.735 73.9058ZM23.735 43.7123C16.3544 43.7123 10.3157 49.751 10.3157 57.1316C10.3157 64.5123 16.3544 70.551 23.735 70.551C31.1157 70.551 37.1544 64.5123 37.1544 57.1316C37.1544 49.751 31.1157 43.7123 23.735 43.7123ZM50.5737 47.0671H60.6382V50.4219H50.5737V47.0671ZM50.5737 53.7768H60.6382V57.1316H50.5737V53.7768ZM50.5737 60.4865H60.6382V63.8413H50.5737V60.4865Z" fill="black"/>
<path d="M8.63818 28.6155H38.8317V35.3252H8.63818V28.6155Z" fill="#7D828C"/>
<path d="M38.8318 37.0025H8.63823C7.63178 37.0025 6.96082 36.3315 6.96082 35.3251V28.6154C6.96082 27.609 7.63178 26.938 8.63823 26.938H38.8318C39.8382 26.938 40.5092 27.609 40.5092 28.6154V35.3251C40.5092 36.3315 39.8382 37.0025 38.8318 37.0025ZM10.3157 33.6477H37.1544V30.2928H10.3157V33.6477Z" fill="black"/>
<path d="M38.8318 26.938H72.3802V30.2928H38.8318V26.938Z" fill="black"/>
<path d="M1.92847 52.0994H45.5414V62.1639H1.92847V52.0994Z" fill="#85FF00"/>
<path d="M45.5414 63.8414H1.92852C0.922066 63.8414 0.251099 63.1704 0.251099 62.1639V52.0994C0.251099 51.093 0.922066 50.422 1.92852 50.422H45.5414C46.5479 50.422 47.2188 51.093 47.2188 52.0994V62.1639C47.2188 63.1704 46.5479 63.8414 45.5414 63.8414ZM3.60594 60.4865H43.864V53.7768H3.60594V60.4865Z" fill="black"/>
</svg>
