<svg width="83" height="83" viewBox="0 0 83 83" fill="none" xmlns="http://www.w3.org/2000/svg">
<path d="M38.292 17.0225L68.3767 4.7168L69.7463 8.81526L48.8922 21.9789C46.4993 23.3744 45.662 25.0024 45.1297 26.5942L43.7652 30.6979H30.0899L32.5242 23.8602C33.4906 21.152 35.3977 18.2836 38.292 17.0225ZM9.57687 59.413H49.2333V64.8811H9.57687V59.413Z" fill="#85FF00"/>
<path d="M25.9966 33.4321L23.2574 44.3682H4.11398C3.75388 44.3668 3.39707 44.4368 3.06412 44.5739C2.73116 44.7111 2.42865 44.9128 2.17402 45.1675C1.91939 45.4221 1.71768 45.7246 1.5805 46.0576C1.44333 46.3905 1.37341 46.7473 1.37478 47.1074V56.6791C1.37478 58.1934 2.59966 59.4132 4.11398 59.4132H50.6132C50.9741 59.4173 51.3322 59.3493 51.6664 59.2131C52.0006 59.0769 52.3042 58.8753 52.5594 58.6201C52.8146 58.3649 53.0162 58.0613 53.1524 57.7271C53.2886 57.3929 53.3566 57.0348 53.3524 56.674V47.1126L47.8689 33.4321C47.3055 32.0263 46.6492 30.6929 45.1297 30.6929H28.7358C27.2215 30.6929 26.1775 31.9281 25.9966 33.4321Z" fill="#85FF00"/>
<path d="M31.4646 36.166L29.2733 44.3681H36.9327V49.8414L39.6719 53.945H47.8689V48.4718L42.6902 36.166H31.4646Z" fill="#33B9EF"/>
<path d="M9.57686 64.8811H51.9673C56.5154 64.8811 60.1746 68.5403 60.1746 73.0884C60.1746 77.6365 56.5154 81.2905 51.9673 81.2905H9.57686C5.02875 81.2905 1.37476 77.6313 1.37476 73.0884C1.37476 68.5454 5.03392 64.8811 9.57686 64.8811Z" fill="#33658A"/>
<path d="M51.9673 73.0883C51.966 73.813 51.6775 74.5076 51.165 75.02C50.6526 75.5325 49.958 75.821 49.2333 75.8223C48.5077 75.821 47.8123 75.5317 47.2997 75.0182C46.7871 74.5046 46.4993 73.8087 46.4993 73.0831C46.502 72.3584 46.7918 71.6644 47.3052 71.1529C47.8186 70.6414 48.5138 70.3542 49.2385 70.3542C49.9623 70.357 50.6556 70.6461 51.1669 71.1584C51.6782 71.6706 51.966 72.3645 51.9673 73.0883ZM39.6616 73.0883C39.6602 73.8139 39.371 74.5093 38.8575 75.0219C38.3439 75.5344 37.648 75.8223 36.9224 75.8223C36.1977 75.8196 35.5036 75.5298 34.9922 75.0164C34.4807 74.503 34.1935 73.8078 34.1935 73.0831C34.1963 72.3593 34.4853 71.666 34.9976 71.1547C35.5099 70.6434 36.2038 70.3556 36.9276 70.3542C37.6531 70.3542 38.3491 70.6421 38.8626 71.1547C39.3762 71.6673 39.6654 72.3627 39.6668 73.0883H39.6616ZM27.3507 73.0883C27.3493 73.8121 27.0615 74.5059 26.5502 75.0182C26.0389 75.5305 25.3456 75.8196 24.6218 75.8223C23.8953 75.8223 23.1986 75.5337 22.6849 75.02C22.1712 74.5063 21.8826 73.8096 21.8826 73.0831C21.8853 72.3584 22.1751 71.6644 22.6886 71.1529C23.202 70.6414 23.8971 70.3542 24.6218 70.3542C25.3465 70.3556 26.0411 70.6441 26.5536 71.1565C27.066 71.669 27.3493 72.3636 27.3507 73.0883ZM15.0501 73.0883C15.0487 73.8139 14.7595 74.5093 14.246 75.0219C13.7324 75.5344 13.0365 75.8223 12.3109 75.8223C11.5853 75.821 10.8899 75.5317 10.3773 75.0182C9.86476 74.5046 9.57687 73.8087 9.57687 73.0831C9.57961 72.3584 9.86941 71.6644 10.3828 71.1529C10.8962 70.6414 11.5914 70.3542 12.3161 70.3542C13.0408 70.3556 13.7354 70.6441 14.2478 71.1565C14.7603 71.669 15.0487 72.3636 15.0501 73.0883Z" fill="#DBE9EE"/>
<path d="M80.6876 48.477C80.6876 53.02 77.0284 56.6792 72.4803 56.6792H64.2782L76.5788 40.2698H80.6876V48.477Z" fill="#33658A"/>
<path d="M76.584 40.2697L64.9036 7.99878C64.0043 5.50765 65.7305 2.8253 68.2889 2.13792C70.8523 1.45053 73.6639 2.91316 74.1497 5.52316L80.6876 40.2697H76.584Z" fill="#85FF00"/>
<path d="M54.7169 56.6531V47.1021C54.7148 46.9282 54.6797 46.7564 54.6135 46.5956L49.1454 32.9203C48.8571 32.1036 48.4382 31.3391 47.905 30.6565C47.6321 30.3053 47.2926 30.0114 46.9059 29.7914C46.5193 29.5715 46.0931 29.4299 45.6517 29.3748L46.4269 27.0284C46.9127 25.5813 47.4709 24.3926 49.6054 23.147L62.0352 15.2912C62.1898 15.197 62.3236 15.0725 62.4287 14.9251C62.5338 14.7778 62.6079 14.6106 62.6465 14.4338C62.6852 14.257 62.6876 14.0742 62.6536 13.8964C62.6196 13.7186 62.5499 13.5496 62.4487 13.3996C62.353 13.2495 62.2288 13.1197 62.083 13.0177C61.9371 12.9157 61.7727 12.8434 61.5989 12.805C61.4251 12.7666 61.2455 12.7629 61.0703 12.7939C60.8951 12.825 60.7277 12.8903 60.5777 12.9861L48.2048 20.7954C46.1161 21.9602 44.5519 23.8794 43.8324 26.1601L42.7781 29.3283H32.028L33.8111 24.3202C34.6897 21.8653 36.4366 19.3276 38.8398 18.2733L63.534 8.1744L63.6167 8.46383L75.0438 40.0422L63.1826 55.8572C63.0317 56.0604 62.94 56.3013 62.9178 56.5534C62.8955 56.8054 62.9435 57.0587 63.0565 57.2852C63.1694 57.5116 63.3429 57.7023 63.5577 57.8362C63.7724 57.97 64.02 58.0417 64.2731 58.0434H72.4803C77.7624 58.0434 82.0469 53.7537 82.0469 48.4769V45.7377C82.0469 43.9184 79.3128 43.9184 79.3128 45.7377V48.4769C79.3128 52.2859 76.2946 55.3094 72.4803 55.3094H67.0174L77.2662 41.6392H80.6876C81.5456 41.634 82.1864 40.8536 82.0314 40.0112L75.4986 5.26982C74.9301 2.25152 71.9532 0.163527 68.6248 0.670022C65.7667 1.10933 64.0457 3.15081 63.4978 5.23364L37.7597 15.7615C34.3589 17.25 32.2916 20.444 31.2373 23.4002L29.1286 29.3283H28.7306C26.2498 29.3283 25.1386 31.2819 24.658 33.189L22.1824 42.9985H4.1088C3.02302 43.0039 1.98317 43.4373 1.21491 44.2046C0.446647 44.9718 0.011958 46.0111 0.00516824 47.0969V56.679C0.00516824 58.9272 1.86576 60.7723 4.1088 60.7723H8.20727V63.62C3.57647 64.2919 0 68.2715 0 73.078C0 78.36 4.30003 82.6497 9.58204 82.6497H51.9673C54.4667 82.5916 56.8442 81.5579 58.5913 79.7697C60.3385 77.9815 61.3166 75.5807 61.3166 73.0806C61.3166 70.5805 60.3385 68.1797 58.5913 66.3915C56.8442 64.6032 54.4667 63.5696 51.9673 63.5115H50.6029V60.7723C51.1446 60.7743 51.6813 60.669 52.1821 60.4623C52.6828 60.2557 53.1376 59.9518 53.5202 59.5682C53.9027 59.1847 54.2055 58.7292 54.4109 58.2279C54.6163 57.7267 54.7203 57.1948 54.7169 56.6531ZM72.806 5.77114L79.0338 38.9H77.5401L66.1905 7.52837C65.5807 5.859 66.8107 3.77617 68.9866 3.40406C70.8472 3.07845 72.5114 4.23099 72.806 5.77114ZM69.7463 6.08124C69.5665 6.08124 69.3884 6.11667 69.2222 6.18549C69.056 6.25432 68.905 6.35521 68.7779 6.48239C68.6507 6.60957 68.5498 6.76055 68.481 6.92672C68.4121 7.09288 68.3767 7.27098 68.3767 7.45084C68.3767 7.6307 68.4121 7.8088 68.481 7.97496C68.5498 8.14113 68.6507 8.29212 68.7779 8.4193C68.905 8.54648 69.056 8.64736 69.2222 8.71619C69.3884 8.78502 69.5665 8.82044 69.7463 8.82044C70.1096 8.82044 70.4579 8.67615 70.7148 8.4193C70.9716 8.16245 71.1159 7.81408 71.1159 7.45084C71.1159 7.0876 70.9716 6.73924 70.7148 6.48239C70.4579 6.22554 70.1096 6.08124 69.7463 6.08124ZM50.6029 58.0434H4.1088C3.92848 58.0483 3.74903 58.0166 3.58132 57.9502C3.4136 57.8838 3.26111 57.784 3.13307 57.6569C3.00503 57.5298 2.90411 57.3781 2.83641 57.2109C2.76871 57.0437 2.73564 56.8645 2.7392 56.6841V47.1021C2.7392 46.3217 3.32839 45.7428 4.1088 45.7428H23.2677C23.5733 45.7427 23.87 45.6403 24.1107 45.4521C24.3514 45.2638 24.5222 45.0005 24.596 44.704L27.3403 33.6748C27.5988 32.6412 27.9605 32.0623 28.7358 32.0623H45.1503C45.5121 32.0623 45.5741 32.1243 45.817 32.4138C46.06 32.7084 46.3442 33.2717 46.613 33.9384L51.9828 47.3657V56.6996C51.9851 56.8794 51.9508 57.0576 51.8821 57.2237C51.8134 57.3898 51.7117 57.5402 51.5831 57.6658C51.4546 57.7915 51.3019 57.8897 51.1343 57.9546C50.9667 58.0195 50.7825 58.0497 50.6029 58.0434ZM31.4647 34.7964C30.8445 34.7964 30.3018 35.215 30.1416 35.8145L27.9554 44.0114C27.8998 44.2144 27.8917 44.4275 27.9318 44.6341C27.9719 44.8407 28.0591 45.0353 28.1865 45.2028C28.314 45.3702 28.4784 45.5061 28.6668 45.5997C28.8553 45.6934 29.0628 45.7424 29.2733 45.7428H35.5683V49.8361C35.5683 50.1101 35.651 50.3736 35.8009 50.5959L38.5401 54.7047C38.7933 55.082 39.2223 55.3094 39.6771 55.3094H47.8844C48.2449 55.308 48.5904 55.1645 48.8459 54.9101C49.1013 54.6556 49.2461 54.3107 49.2488 53.9501V48.4717C49.246 48.2885 49.2073 48.1077 49.1351 47.9394L43.9565 35.6388C43.8526 35.3898 43.6775 35.177 43.4532 35.0271C43.2288 34.8772 42.9652 34.797 42.6954 34.7964H31.4647ZM32.5138 37.5356H35.5631V42.9985H31.0512L32.5138 37.5356ZM38.3023 37.5356H41.7806L46.5096 48.7508V52.5753H40.4007L38.3023 49.4227V44.3681V37.5356ZM6.82733 48.4562C6.46499 48.4603 6.11903 48.6078 5.86524 48.8665C5.61144 49.1251 5.47048 49.4738 5.47324 49.8361V53.9501C5.43189 55.8107 8.24862 55.8107 8.21244 53.9501V49.8361C8.21455 49.6535 8.17995 49.4722 8.1107 49.3032C8.04145 49.1341 7.93895 48.9807 7.80929 48.852C7.67963 48.7233 7.52545 48.6219 7.35588 48.554C7.18631 48.486 7.00999 48.4527 6.82733 48.4562ZM12.2954 48.4562C11.934 48.4616 11.5893 48.6098 11.3366 48.8683C11.084 49.1268 10.9437 49.4747 10.9465 49.8361V53.9501C10.9051 55.8107 13.7219 55.8107 13.6805 53.9501V49.8361C13.6826 49.6539 13.6482 49.4731 13.5792 49.3044C13.5103 49.1357 13.4083 48.9825 13.2792 48.8539C13.1501 48.7252 12.9965 48.6238 12.8275 48.5555C12.6586 48.4872 12.4776 48.4534 12.2954 48.4562ZM17.7583 48.4562C17.3978 48.463 17.0545 48.6117 16.8029 48.87C16.5513 49.1284 16.4118 49.4755 16.4145 49.8361V53.9501C16.4559 55.7332 19.1124 55.7332 19.1538 53.9501V49.8361C19.1559 49.653 19.1211 49.4713 19.0515 49.3019C18.982 49.1325 18.879 48.9789 18.7488 48.8501C18.6186 48.7213 18.4638 48.6201 18.2936 48.5524C18.1234 48.4847 17.9414 48.452 17.7583 48.4562ZM10.9465 60.7774H47.8689V63.5166H41.026C39.2016 63.5166 39.2016 66.2558 41.026 66.2558H51.9673C55.7815 66.2558 58.7998 69.2741 58.7998 73.0883C58.7998 76.8974 55.7815 79.9208 51.9673 79.9208H9.58204C8.68239 79.9277 7.79033 79.7558 6.9577 79.4149C6.12506 79.0741 5.36844 78.5713 4.73179 77.9356C4.09514 77.2999 3.59114 76.544 3.24908 75.7119C2.90701 74.8798 2.7337 73.988 2.7392 73.0883C2.7392 69.2741 5.76783 66.2507 9.58204 66.2507H35.5631C37.3875 66.2507 37.3875 63.5115 35.5631 63.5115H10.9465V60.7774ZM12.3161 68.9847C10.0679 68.9847 8.20727 70.835 8.20727 73.0883C8.20727 75.3417 10.0679 77.192 12.3161 77.192C14.5695 77.192 16.4145 75.3314 16.4145 73.0883C16.4118 72.0017 15.9793 70.9603 15.2114 70.1915C14.4436 69.4226 13.4027 68.9888 12.3161 68.9847ZM24.6218 68.9847C22.3736 68.9847 20.513 70.835 20.513 73.0883C20.513 75.3417 22.3736 77.192 24.6218 77.192C26.87 77.192 28.7203 75.3314 28.7203 73.0883C28.7176 72.0017 28.2851 70.9603 27.5172 70.1915C26.7493 69.4226 25.7084 68.9888 24.6218 68.9847ZM36.9224 68.9847C34.6793 68.9847 32.8291 70.835 32.8291 73.0883C32.8291 75.3417 34.6793 77.192 36.9276 77.192C39.1758 77.192 41.026 75.3314 41.026 73.0883C41.0233 72.0017 40.5908 70.9603 39.8229 70.1915C39.055 69.4226 38.009 68.9888 36.9224 68.9847ZM49.2333 68.9847C48.1467 68.9888 47.1058 69.4226 46.3379 70.1915C45.5701 70.9603 45.1376 72.0017 45.1348 73.0883C45.1348 75.3366 46.9799 77.192 49.2333 77.192C51.4815 77.192 53.3421 75.3314 53.3421 73.0883C53.3421 70.8453 51.4815 68.9847 49.2333 68.9847ZM12.3161 71.7239C13.0913 71.7239 13.6805 72.3131 13.6805 73.0883C13.6805 73.8636 13.0913 74.458 12.3161 74.458C12.1356 74.46 11.9566 74.426 11.7895 74.3579C11.6224 74.2898 11.4706 74.189 11.343 74.0614C11.2154 73.9338 11.1146 73.782 11.0465 73.6149C10.9784 73.4478 10.9444 73.2688 10.9465 73.0883C10.9465 72.3131 11.546 71.7239 12.3161 71.7239ZM24.6218 71.7239C24.8018 71.7211 24.9804 71.7545 25.1472 71.8221C25.3141 71.8897 25.4656 71.9901 25.5928 72.1173C25.7201 72.2446 25.8205 72.3961 25.8881 72.5629C25.9557 72.7297 25.989 72.9084 25.9863 73.0883C25.9897 73.2687 25.9569 73.448 25.8896 73.6154C25.8223 73.7828 25.7221 73.9349 25.5947 74.0627C25.4674 74.1905 25.3156 74.2914 25.1485 74.3593C24.9813 74.4272 24.8022 74.4608 24.6218 74.458C24.4414 74.46 24.2624 74.426 24.0952 74.3579C23.9281 74.2898 23.7763 74.189 23.6487 74.0614C23.5211 73.9338 23.4203 73.782 23.3522 73.6149C23.2841 73.4478 23.2501 73.2688 23.2522 73.0883C23.2522 72.3131 23.8517 71.7239 24.6218 71.7239ZM36.9224 71.7239C37.6976 71.7239 38.2868 72.3131 38.2868 73.0883C38.2868 73.8636 37.6976 74.458 36.9276 74.458C36.1523 74.458 35.5631 73.8584 35.5631 73.0883C35.5631 72.3183 36.1523 71.7239 36.9224 71.7239ZM49.2333 71.7239C50.0034 71.7239 50.6029 72.3131 50.6029 73.0883C50.6029 73.8584 50.0034 74.458 49.2333 74.458C48.4581 74.458 47.8689 73.8584 47.8689 73.0883C47.8689 72.3183 48.4581 71.7239 49.2333 71.7239Z" fill="black"/>
</svg>
