<svg width="130" height="91" viewBox="0 0 130 91" fill="none" xmlns="http://www.w3.org/2000/svg">
<path d="M100.334 53.45L100.609 59.6302L105.939 57.9788L101.485 52.9746C101.084 52.4992 100.284 52.8245 100.334 53.45Z" fill="#EEF0EE"/>
<path d="M1.85066 79.2218C1.85066 84.5012 6.1543 88.8049 11.4338 88.8049H62.9773C68.2818 88.8049 72.5604 84.5262 72.5604 79.2218C72.5604 73.9173 68.2818 69.6387 62.9773 69.6387H11.4338C6.12927 69.6387 1.85066 73.9423 1.85066 79.2218Z" fill="#878787"/>
<path d="M61.0007 54.2006V61.0814H72.035C73.9366 61.0814 75.4629 59.5301 75.4629 57.6535C75.4629 55.7519 73.9116 54.2256 72.035 54.2256L61.0007 54.2006ZM61.0007 50.3223V54.2006H68.1567C69.2326 54.2006 70.0833 53.3248 70.0833 52.274C70.0833 51.1981 69.2076 50.3473 68.1567 50.3473L61.0007 50.3223ZM81.7932 13.3661V17.8949H88.8492V13.3661C88.8492 11.4145 87.2728 9.83813 85.3212 9.83813C83.3696 9.83813 81.7932 11.4145 81.7932 13.3661ZM88.8492 27.2779V22.749H81.7682V27.2779C81.7682 29.2295 83.3445 30.8058 85.2962 30.8058C87.2729 30.8058 88.8492 29.2295 88.8492 27.2779Z" fill="#EEF0EE"/>
<path d="M68.6571 50.3223L78.7907 28.4288C79.3161 27.3029 80.342 26.4772 81.543 26.202L126.056 16.4938L124.855 11.6897L79.9917 17.3195C76.764 17.7198 74.0617 19.9717 73.0609 23.0743L64.3285 50.3473H68.6571V50.3223Z" fill="#85FF00"/>
<path d="M118.024 18.3203L119.45 54.1005L124.529 52.274V25.051C124.529 23.2495 125.18 21.523 126.356 20.1719C127.582 18.7707 128.182 17.0192 128.182 15.2928C128.032 14.5421 129.333 7.86151 123.203 4.58374L118.624 15.0926C118.199 16.0935 117.974 17.2194 118.024 18.3203Z" fill="#85FF00"/>
<path d="M100.609 59.6301C103.061 62.3825 105.513 64.6594 108.015 66.2357C113.445 69.7136 120.876 68.0122 124.004 62.0822C126.431 57.4783 124.629 53.4749 124.529 52.2739L100.609 59.6301Z" fill="#85FF00"/>
<path d="M121.752 4.75872C121.752 6.56024 123.228 8.03649 125.03 8.03649C126.831 8.03649 128.307 6.58527 128.307 4.75872C128.307 2.93218 126.831 1.48096 125.03 1.48096C123.228 1.48096 121.752 2.9572 121.752 4.75872ZM58.9489 79.2216C58.9489 81.4485 60.7504 83.225 62.9523 83.225C65.1792 83.225 66.9557 81.4235 66.9557 79.2216C66.9557 76.9947 65.1542 75.2182 62.9523 75.2182C60.7504 75.1932 58.9489 76.9947 58.9489 79.2216ZM41.7594 79.2216C41.7594 81.4485 43.5609 83.225 45.7628 83.225C47.9897 83.225 49.7662 81.4235 49.7662 79.2216C49.7662 76.9947 47.9647 75.2182 45.7628 75.2182C43.5609 75.1932 41.7594 76.9947 41.7594 79.2216ZM24.5949 79.2216C24.5949 81.4485 26.3964 83.225 28.5983 83.225C30.8252 83.225 32.6017 81.4235 32.6017 79.2216C32.6017 76.9947 30.8002 75.2182 28.5983 75.2182C26.3964 75.1932 24.5949 76.9947 24.5949 79.2216ZM7.40541 79.2216C7.40541 81.4485 9.20693 83.225 11.4088 83.225C13.6357 83.225 15.4122 81.4235 15.4122 79.2216C15.4122 76.9947 13.6106 75.2182 11.4088 75.2182C9.20693 75.1932 7.40541 76.9947 7.40541 79.2216Z" fill="#EEF0EE"/>
<path d="M12.1594 60.1306V45.9437C12.1594 44.0671 13.6857 42.5408 15.5623 42.5408H33.5274V22.7241C33.5274 20.4471 35.354 18.6206 37.6309 18.6206H50.5919C52.3433 18.6206 53.8946 19.7215 54.4701 21.3729L61.7513 42.3907C62.0515 43.2664 62.2017 44.1672 62.2017 45.0679V60.1306H12.1594Z" fill="#85FF00"/>
<path d="M12.1594 45.9437V60.1306H15.1369V48.9212C15.1369 47.0446 16.6632 45.5183 18.5648 45.5183H36.53V25.7016C36.53 23.4247 38.3565 21.5981 40.6334 21.5981H53.5944C53.9447 21.5981 54.295 21.6482 54.6202 21.7232L54.4951 21.3729C53.9196 19.7215 52.3683 18.6206 50.6169 18.6206H37.6309C35.379 18.6206 33.5274 20.4471 33.5274 22.7241V42.5408H15.5623C13.6857 42.5408 12.1594 44.0671 12.1594 45.9437Z" fill="black" fill-opacity="0.0627451"/>
<path d="M52.5936 57.6785H57.0223C57.4727 57.6785 57.848 57.3032 57.848 56.8528C57.848 56.4024 57.4727 56.0271 57.0223 56.0271H52.5936C52.1432 56.0271 51.7679 56.4024 51.7679 56.8528C51.7679 57.3282 52.1432 57.6785 52.5936 57.6785ZM47.8896 57.6785H49.3158C49.7662 57.6785 50.1415 57.3032 50.1415 56.8528C50.1415 56.4024 49.7662 56.0271 49.3158 56.0271H47.8896C47.4392 56.0271 47.0639 56.4024 47.0639 56.8528C47.0639 57.3282 47.4392 57.6785 47.8896 57.6785Z" fill="white"/>
<path d="M40.5083 53.4C36.6551 53.4 33.5274 50.2723 33.5274 46.4191V22.674C33.5274 20.4221 35.354 18.5706 37.6309 18.5706H50.5919C52.3433 18.5706 53.8946 19.6715 54.4701 21.3229L61.7513 42.3406C62.0515 43.2164 62.2017 44.1171 62.2017 45.0179V53.4H40.5083Z" fill="#65C5EF"/>
<path d="M11.5589 64.4846H62.8272C64.0282 64.4846 65.004 63.5088 65.004 62.3078C65.004 61.1068 64.0282 60.1309 62.8272 60.1309H11.5589C10.3579 60.1309 9.38207 61.1068 9.38207 62.3078C9.38207 63.5088 10.3579 64.4846 11.5589 64.4846ZM15.5873 39.4385V42.5411H33.5525V37.0615H17.9893C16.6632 37.0364 15.5873 38.1124 15.5873 39.4385Z" fill="#EEF0EE"/>
<path d="M19.2904 32.0572V37.0614H23.1937V32.0572C23.1937 30.9812 22.318 30.1055 21.2421 30.1055C20.1662 30.0805 19.2904 30.9562 19.2904 32.0572Z" fill="#878787"/>
<path d="M11.4338 68.8129H27.7976V65.31H11.5589C9.90751 65.31 8.55637 63.9588 8.55637 62.3074C8.55637 60.7311 9.7824 59.43 11.3587 59.3299V45.9436C11.3587 43.8919 12.835 42.1654 14.7616 41.7901V39.4381C14.7616 37.6616 16.2128 36.2354 17.9643 36.2354H18.4898V32.0569C18.4898 30.8059 19.3155 29.78 20.4414 29.4297V26.3771L18.0894 23.7499C17.7892 23.4246 17.8142 22.8992 18.1395 22.5989C18.4647 22.2987 18.9902 22.3237 19.2904 22.649L21.8676 25.5014C21.9927 25.6515 22.0678 25.8517 22.0678 26.0518V29.4047C23.1937 29.755 24.0194 30.8059 24.0194 32.0319V36.2104H32.7018V22.699C32.7018 21.2228 33.3523 19.8966 34.4032 18.9959C35.2789 18.2452 36.3799 17.7949 37.6309 17.7949H50.5919C52.6936 17.7949 54.5702 19.196 55.2458 21.0977L58.2733 29.805L62.5269 42.1154C62.8522 43.0662 63.0274 44.1671 63.0274 45.0679V49.5217H63.728L72.2852 22.8241C73.3611 19.4212 76.3636 16.9442 79.8916 16.5188L80.9675 16.3937V13.3912C80.9675 10.9891 82.9192 9.03747 85.3212 9.03747C86.8975 9.03747 88.2737 9.88819 89.0493 11.1392L120.951 4.75886C120.951 2.50696 122.803 0.68042 125.055 0.68042C127.307 0.68042 129.133 2.50696 129.133 4.75886C129.133 6.00992 128.558 7.13587 127.682 7.8865C129.108 10.5638 129.033 13.3912 128.983 14.6172C128.908 16.744 128.833 18.5455 126.956 20.6973C124.104 23.925 125.83 25.5514 125.33 52.2239C125.455 53.3249 127.257 57.6285 124.704 62.4576C123.128 65.4601 120.476 67.5869 117.198 68.4376C110.317 70.2642 105.113 65.9105 100.009 60.1807C99.8585 60.0305 99.7834 59.8053 99.7834 59.6552L99.5082 53.475C99.4831 52.8495 99.8334 52.274 100.434 52.0238C101.034 51.7736 101.685 51.9237 102.11 52.3991L106.214 57.028L118.599 53.2248L117.248 19.2211L89.6749 25.2512V27.2278C89.6749 29.6299 87.7232 31.5815 85.3212 31.5815C85.146 31.5815 84.9709 31.5565 84.7957 31.5565L74.462 54.1255C75.5629 54.9012 76.2635 56.1773 76.2635 57.6035C76.2635 59.9555 74.3619 61.8571 72.0099 61.8571H65.7797C65.8047 62.0072 65.8297 62.1323 65.8297 62.2824C65.8297 63.9338 64.4786 65.285 62.8272 65.285H46.5885V68.7879H62.9523C68.6821 68.7879 73.3611 73.4669 73.3611 79.1967C73.3611 84.9265 68.7072 89.5805 62.9523 89.5805H11.4088C5.67894 89.5805 0.999994 84.9265 0.999994 79.1967C1.02502 73.4919 5.70396 68.8129 11.4338 68.8129ZM12.9851 45.9436V59.3299H61.401V54.2256H40.5083C36.2047 54.2256 32.7268 50.7227 32.7268 46.4441V43.3414H15.5873C14.1361 43.3414 12.9851 44.5174 12.9851 45.9436ZM61.0007 42.6408L57.0223 31.1061L53.7445 21.6231C53.2941 20.297 51.993 19.4212 50.6419 19.4212H42.1848V52.5992H61.451V45.0679C61.401 44.3423 61.2759 43.4415 61.0007 42.6408ZM34.3532 22.724V46.4441C34.3532 49.8469 37.1055 52.5992 40.5083 52.5992V19.4212H37.6309C36.8052 19.4212 36.0546 19.7465 35.4791 20.2219C34.8035 20.8474 34.3532 21.7232 34.3532 22.724ZM22.393 32.0569C22.393 31.4314 21.8926 30.9059 21.2421 30.9059C20.6165 30.9059 20.0911 31.4064 20.0911 32.0569V36.2354H22.368V32.0569H22.393ZM17.9643 37.8618C17.0886 37.8618 16.388 38.5624 16.388 39.4381V41.7151H32.7268V37.8618H17.9643ZM63.0274 53.3999H68.1317C68.7572 53.3999 69.2576 52.8995 69.2576 52.274C69.2576 51.6484 68.7572 51.148 68.1317 51.148H63.0274V53.3999ZM73.8365 23.2995L65.4544 49.4966H68.1567L78.0651 28.0786C78.6906 26.7274 79.9416 25.7266 81.3929 25.4013L117.223 17.5947C117.273 16.6189 117.498 15.6431 117.874 14.7673L118.499 13.2911L80.0918 18.1201C77.1893 18.4704 74.7372 20.5222 73.8365 23.2995ZM85.3212 10.6388C83.8199 10.6388 82.5939 11.8649 82.5939 13.3661V16.1435L88.0485 15.4679V13.3661C88.0485 11.8649 86.8225 10.6388 85.3212 10.6388ZM89.6749 13.3661V15.2677L119.275 11.5646L121.402 6.66047L121.252 6.36021L89.5998 12.6906C89.6498 12.8907 89.6749 13.1409 89.6749 13.3661ZM125.03 2.30679C123.679 2.30679 122.553 3.40772 122.553 4.78388C122.553 6.13502 123.654 7.26097 125.03 7.26097C126.406 7.26097 127.507 6.16004 127.507 4.78388C127.507 3.40772 126.406 2.30679 125.03 2.30679ZM116.798 66.8613C119.6 66.1107 121.902 64.2841 123.278 61.6819C125.105 58.204 124.329 55.0513 123.929 53.3749V53.3249C119.125 54.8762 106.989 58.5293 102.085 60.0055C106.414 64.7095 110.868 68.4376 116.798 66.8613ZM104.512 57.5785L101.16 53.8253L101.385 58.5543C101.435 58.5293 104.713 57.5284 104.512 57.5785ZM123.704 51.6735V25.051C123.704 23.0493 124.429 21.1227 125.73 19.6464C127.357 17.7698 127.307 16.0684 127.357 14.5671C127.407 13.3912 127.482 10.9391 126.256 8.68718C125.88 8.81229 125.455 8.88735 125.03 8.88735C124.104 8.88735 123.253 8.5871 122.578 8.06165L119.375 15.4179C118.975 16.3186 118.799 17.3195 118.824 18.2953L120.176 52.7494L123.704 51.6735ZM88.0485 27.2779V25.6515L82.5939 26.8525V27.2779C82.5939 28.7791 83.8199 30.0052 85.3212 30.0052C86.8225 29.9802 88.0485 28.7791 88.0485 27.2779ZM83.2444 31.0811C81.8933 30.3555 80.9925 28.9293 80.9675 27.3029C80.342 27.6282 79.8416 28.1536 79.5413 28.7791L69.708 49.9971C70.4336 50.4975 70.884 51.3232 70.884 52.249C70.884 52.6493 70.7839 53.0246 70.6338 53.3749H72.0099C72.3352 53.3749 72.6605 53.4249 72.9607 53.475L83.2444 31.0811ZM72.035 60.2557C73.4862 60.2557 74.6622 59.0797 74.6622 57.6285C74.6622 56.1773 73.4862 55.0013 72.035 55.0013H63.0524V59.3299C63.828 59.38 64.5286 59.7303 65.029 60.2557H72.035ZM64.2034 62.3074C64.2034 61.5568 63.6028 60.9313 62.8272 60.9313H11.5589C10.8083 60.9313 10.1827 61.5318 10.1827 62.3074C10.1827 63.0831 10.7833 63.6836 11.5589 63.6836H62.8272C63.5778 63.6836 64.2034 63.0581 64.2034 62.3074ZM44.9621 65.31H29.424V68.8129H44.9621V65.31ZM11.4338 87.9791H62.9773C67.8064 87.9791 71.7347 84.0508 71.7347 79.2217C71.7347 74.3927 67.8064 70.4393 62.9773 70.4393H11.4338C6.60472 70.4393 2.65138 74.3676 2.65138 79.2217C2.65138 84.0508 6.5797 87.9791 11.4338 87.9791Z" fill="black" stroke="black"/>
<path d="M62.9523 74.3927C65.6045 74.3927 67.7814 76.5696 67.7814 79.2218C67.7814 81.8741 65.6045 84.0509 62.9523 84.0509C60.3001 84.0509 58.1232 81.8741 58.1232 79.2218C58.1232 76.5446 60.3001 74.3927 62.9523 74.3927ZM62.9523 82.4245C64.7038 82.4245 66.155 80.9983 66.155 79.2218C66.155 77.4703 64.7288 76.0191 62.9523 76.0191C61.1758 76.0191 59.7496 77.4453 59.7496 79.2218C59.7746 80.9733 61.2008 82.4245 62.9523 82.4245ZM45.7878 74.3927C48.44 74.3927 50.6169 76.5696 50.6169 79.2218C50.6169 81.8741 48.44 84.0509 45.7878 84.0509C43.1356 84.0509 40.9587 81.8741 40.9587 79.2218C40.9587 76.5446 43.1105 74.3927 45.7878 74.3927ZM45.7878 82.4245C47.5393 82.4245 48.9905 80.9983 48.9905 79.2218C48.9905 77.4703 47.5643 76.0191 45.7878 76.0191C44.0363 76.0191 42.5851 77.4453 42.5851 79.2218C42.5851 80.9733 44.0113 82.4245 45.7878 82.4245ZM28.5983 74.3927C31.2505 74.3927 33.4274 76.5696 33.4274 79.2218C33.4274 81.8741 31.2505 84.0509 28.5983 84.0509C25.9461 84.0509 23.7692 81.8741 23.7692 79.2218C23.7692 76.5446 25.9461 74.3927 28.5983 74.3927ZM28.5983 82.4245C30.3498 82.4245 31.801 80.9983 31.801 79.2218C31.801 77.4703 30.3748 76.0191 28.5983 76.0191C26.8468 76.0191 25.3956 77.4453 25.3956 79.2218C25.3956 80.9733 26.8468 82.4245 28.5983 82.4245ZM11.4338 74.3927C14.086 74.3927 16.2629 76.5696 16.2629 79.2218C16.2629 81.8741 14.086 84.0509 11.4338 84.0509C8.78156 84.0509 6.60471 81.8741 6.60471 79.2218C6.60471 76.5446 8.75653 74.3927 11.4338 74.3927ZM11.4338 82.4245C13.1853 82.4245 14.6365 80.9983 14.6365 79.2218C14.6365 77.4703 13.2103 76.0191 11.4338 76.0191C9.68232 76.0191 8.23109 77.4453 8.23109 79.2218C8.23109 80.9733 9.6573 82.4245 11.4338 82.4245ZM6.95501 49.4467C6.50463 49.4467 6.12931 49.0714 6.12931 48.621V46.1439C6.12931 45.6935 6.50463 45.3182 6.95501 45.3182C7.4054 45.3182 7.78071 45.6935 7.78071 46.1439V48.621C7.75569 49.0964 7.4054 49.4467 6.95501 49.4467ZM6.95501 57.5535C6.50463 57.5535 6.12931 57.1782 6.12931 56.7278V51.6485C6.12931 51.1982 6.50463 50.8229 6.95501 50.8229C7.4054 50.8229 7.78071 51.1982 7.78071 51.6485V56.7529C7.75569 57.2032 7.4054 57.5535 6.95501 57.5535ZM59.6995 20.4222C59.2742 20.5723 58.7988 20.3471 58.6737 19.9218C57.4727 16.4939 54.2449 14.1919 50.6419 14.1919C50.1915 14.1919 49.8162 13.8166 49.8162 13.3662C49.8162 12.9158 50.1915 12.5405 50.6419 12.5405C54.9455 12.5405 58.7988 15.2678 60.225 19.3463C60.3251 19.8217 60.0999 20.2721 59.6995 20.4222ZM47.0889 14.2169H45.1122C44.6619 14.2169 44.2865 13.8416 44.2865 13.3912C44.2865 12.9409 44.6619 12.5655 45.1122 12.5655H47.0889C47.5393 12.5655 47.9146 12.9409 47.9146 13.3912C47.8896 13.8416 47.5393 14.2169 47.0889 14.2169ZM18.0143 48.0455H26.4715C26.9219 48.0455 27.2972 48.4208 27.2972 48.8712C27.2972 49.3216 26.9219 49.6969 26.4715 49.6969H18.0143C17.564 49.6969 17.1887 49.3216 17.1887 48.8712C17.1887 48.4208 17.564 48.0455 18.0143 48.0455ZM18.0143 52.9997H26.4715C26.9219 52.9997 27.2972 53.375 27.2972 53.8254C27.2972 54.2758 26.9219 54.6511 26.4715 54.6511H18.0143C17.564 54.6511 17.1887 54.2758 17.1887 53.8254C17.1887 53.35 17.564 52.9997 18.0143 52.9997Z" fill="black"/>
</svg>
