<svg width="101" height="58" viewBox="0 0 101 58" fill="none" xmlns="http://www.w3.org/2000/svg">
<path d="M68.6872 5.3741V43.7074H10.3539L27.3372 2.04077H65.3539C66.2371 2.04341 67.0834 2.39545 67.708 3.02C68.3325 3.64455 68.6846 4.49086 68.6872 5.3741Z" fill="#85FF00"/>
<path d="M75.3539 48.7074L77.0206 47.0408V42.0408H12.0206V47.0408C12.0206 47.4828 12.1962 47.9067 12.5087 48.2193C12.8213 48.5318 13.2452 48.7074 13.6872 48.7074H75.3539Z" fill="#3C626B"/>
<path d="M27.0205 55.3741C30.7024 55.3741 33.6872 52.3893 33.6872 48.7074C33.6872 45.0255 30.7024 42.0408 27.0205 42.0408C23.3387 42.0408 20.3539 45.0255 20.3539 48.7074C20.3539 52.3893 23.3387 55.3741 27.0205 55.3741Z" fill="#315359"/>
<path d="M47.0205 55.3741C50.7024 55.3741 53.6872 52.3893 53.6872 48.7074C53.6872 45.0255 50.7024 42.0408 47.0205 42.0408C43.3387 42.0408 40.3539 45.0255 40.3539 48.7074C40.3539 52.3893 43.3387 55.3741 47.0205 55.3741Z" fill="#315359"/>
<path d="M98.6205 28.7074C98.6593 28.9444 98.6815 29.1839 98.6872 29.424V45.374C98.6846 46.2573 98.3325 47.1036 97.708 47.7281C97.0834 48.3527 96.2371 48.7047 95.3539 48.7074H75.3539V12.0407C75.3539 11.5987 75.5295 11.1747 75.842 10.8622C76.1546 10.5496 76.5785 10.374 77.0205 10.374H82.0205L98.6205 28.7074Z" fill="#D9EAFD"/>
<path d="M98.6206 28.7074H83.6872C83.2452 28.7074 82.8213 28.5318 82.5087 28.2192C82.1962 27.9067 82.0206 27.4827 82.0206 27.0407V10.374H88.2039C88.8436 10.3723 89.4703 10.5554 90.0084 10.9013C90.5465 11.2473 90.9732 11.7413 91.2372 12.324L98.3872 28.0574C98.4797 28.2685 98.5576 28.4857 98.6206 28.7074Z" fill="#467BBC"/>
<path d="M87.0205 55.3741C90.7024 55.3741 93.6872 52.3893 93.6872 48.7074C93.6872 45.0255 90.7024 42.0408 87.0205 42.0408C83.3387 42.0408 80.3539 45.0255 80.3539 48.7074C80.3539 52.3893 83.3387 55.3741 87.0205 55.3741Z" fill="#315359"/>
<path d="M30.3539 2.04077L13.3706 43.7074L12.0206 47.0408H5.3539C4.47066 47.0381 3.62434 46.6861 2.99979 46.0615C2.37524 45.437 2.02321 44.5907 2.02057 43.7074V21.6574C2.02695 20.8321 2.33524 20.0377 2.88724 19.4241L17.6872 3.1241C18.0022 2.78414 18.3837 2.51255 18.808 2.3262C19.2324 2.13984 19.6905 2.04268 20.1539 2.04077H30.3539Z" fill="#74DE00"/>
<path d="M92.7589 11.639C92.3607 10.7657 91.7201 10.0251 90.9132 9.5054C90.1062 8.98568 89.167 8.70868 88.2072 8.70736H77.0205C76.1365 8.70736 75.2886 9.05855 74.6635 9.68367C74.0384 10.3088 73.6872 11.1566 73.6872 12.0407V40.374H70.3539V5.37402C70.3539 4.04794 69.8271 2.77617 68.8894 1.83849C67.9517 0.900807 66.68 0.374024 65.3539 0.374024H20.1622C19.4656 0.373775 18.7767 0.519087 18.1395 0.800644C17.5023 1.0822 16.931 1.49379 16.4622 2.00902L1.65555 18.299C0.817117 19.2184 0.352817 20.4181 0.353884 21.6624V25.374C0.353884 25.8161 0.529478 26.24 0.842039 26.5525C1.1546 26.8651 1.57852 27.0407 2.02055 27.0407C2.46258 27.0407 2.8865 26.8651 3.19906 26.5525C3.51162 26.24 3.68722 25.8161 3.68722 25.374V22.7374L18.0356 27.8574L14.9739 35.374H3.68722V32.0407C3.68722 31.5987 3.51162 31.1747 3.19906 30.8622C2.8865 30.5496 2.46258 30.374 2.02055 30.374C1.57852 30.374 1.1546 30.5496 0.842039 30.8622C0.529478 31.1747 0.353884 31.5987 0.353884 32.0407V43.7074C0.353884 45.0334 0.880668 46.3052 1.81835 47.2429C2.75603 48.1806 4.0278 48.7074 5.35388 48.7074H10.8172C11.1075 49.2124 11.5254 49.6323 12.0291 49.9248C12.5329 50.2174 13.1047 50.3723 13.6872 50.374H18.8539C19.2364 52.2578 20.2584 53.9515 21.7468 55.168C23.2351 56.3845 25.0983 57.049 27.0206 57.049C28.9428 57.049 30.806 56.3845 32.2943 55.168C33.7827 53.9515 34.8047 52.2578 35.1872 50.374H38.8539C39.2364 52.2578 40.2584 53.9515 41.7468 55.168C43.2351 56.3845 45.0983 57.049 47.0206 57.049C48.9428 57.049 50.806 56.3845 52.2943 55.168C53.7827 53.9515 54.8047 52.2578 55.1872 50.374H78.8539C79.2364 52.2578 80.2584 53.9515 81.7468 55.168C83.2351 56.3845 85.0983 57.049 87.0205 57.049C88.9428 57.049 90.806 56.3845 92.2943 55.168C93.7827 53.9515 94.8047 52.2578 95.1872 50.374H95.3539C96.68 50.374 97.9517 49.8472 98.8894 48.9096C99.8271 47.9719 100.354 46.7001 100.354 45.374V29.429C100.353 28.7149 100.199 28.0092 99.9039 27.359L92.7589 11.639ZM89.7255 13.019L96.0989 27.0407H83.6872V12.0407H88.2072C88.5276 12.0406 88.8411 12.1328 89.1104 12.3063C89.3797 12.4799 89.5932 12.7273 89.7255 13.019ZM73.6872 47.0407H55.1872C54.9301 45.8279 54.4032 44.6886 53.6456 43.7074H73.6872V47.0407ZM67.0205 5.37402V40.374H16.5355L31.4739 3.70736H65.3539C65.7959 3.70736 66.2198 3.88295 66.5324 4.19551C66.845 4.50807 67.0205 4.932 67.0205 5.37402ZM33.6439 43.7074H40.3972C39.6396 44.6886 39.1127 45.8279 38.8556 47.0407H35.1872C34.9296 45.8278 34.4021 44.6885 33.6439 43.7074ZM15.1772 43.7074H20.3972C19.6396 44.6886 19.1127 45.8279 18.8555 47.0407H13.8189L15.1772 43.7074ZM18.9305 4.25236C19.0866 4.08082 19.2768 3.94375 19.4889 3.8499C19.701 3.75606 19.9303 3.70751 20.1622 3.70736H27.8756L23.4705 14.5207L14.3339 9.30736L18.9305 4.25236ZM4.93055 19.6457L12.0372 11.834L22.2039 17.6357L19.2972 24.769L4.93055 19.6457ZM3.68722 43.7074V38.7074H13.6155L10.8989 45.374H5.35388C4.91186 45.374 4.48793 45.1984 4.17537 44.8859C3.86281 44.5733 3.68722 44.1494 3.68722 43.7074ZM27.0206 53.7074C26.0316 53.7074 25.0649 53.4141 24.2427 52.8647C23.4205 52.3153 22.7796 51.5344 22.4012 50.6208C22.0227 49.7071 21.9237 48.7018 22.1166 47.7319C22.3095 46.762 22.7858 45.8711 23.485 45.1718C24.1843 44.4726 25.0752 43.9964 26.0451 43.8034C27.015 43.6105 28.0203 43.7095 28.934 44.088C29.8476 44.4664 30.6285 45.1073 31.1779 45.9295C31.7273 46.7518 32.0206 47.7185 32.0206 48.7074C32.0206 50.0334 31.4938 51.3052 30.5561 52.2429C29.6184 53.1806 28.3466 53.7074 27.0206 53.7074ZM47.0206 53.7074C46.0316 53.7074 45.0649 53.4141 44.2427 52.8647C43.4205 52.3153 42.7796 51.5344 42.4012 50.6208C42.0227 49.7071 41.9237 48.7018 42.1166 47.7319C42.3095 46.762 42.7858 45.8711 43.485 45.1718C44.1843 44.4726 45.0752 43.9964 46.0451 43.8034C47.015 43.6105 48.0203 43.7095 48.934 44.088C49.8476 44.4664 50.6285 45.1073 51.1779 45.9295C51.7273 46.7518 52.0206 47.7185 52.0206 48.7074C52.0206 50.0334 51.4938 51.3052 50.5561 52.2429C49.6184 53.1806 48.3466 53.7074 47.0206 53.7074ZM87.0205 53.7074C86.0316 53.7074 85.0649 53.4141 84.2427 52.8647C83.4205 52.3153 82.7796 51.5344 82.4012 50.6208C82.0227 49.7071 81.9237 48.7018 82.1166 47.7319C82.3095 46.762 82.7858 45.8711 83.485 45.1718C84.1843 44.4726 85.0752 43.9964 86.0451 43.8034C87.015 43.6105 88.0203 43.7095 88.934 44.088C89.8476 44.4664 90.6285 45.1073 91.1779 45.9295C91.7273 46.7518 92.0205 47.7185 92.0205 48.7074C92.0205 50.0334 91.4938 51.3052 90.5561 52.2429C89.6184 53.1806 88.3466 53.7074 87.0205 53.7074ZM95.3539 47.0407H95.1872C94.8047 45.1569 93.7827 43.4632 92.2943 42.2467C90.806 41.0302 88.9428 40.3657 87.0205 40.3657C85.0983 40.3657 83.2351 41.0302 81.7468 42.2467C80.2584 43.4632 79.2364 45.1569 78.8539 47.0407H77.0205V12.0407H80.3539V27.0407C80.3539 27.9247 80.7051 28.7726 81.3302 29.3977C81.9553 30.0228 82.8032 30.374 83.6872 30.374H97.0205V45.374C97.0205 45.8161 96.845 46.24 96.5324 46.5525C96.2198 46.8651 95.7959 47.0407 95.3539 47.0407Z" fill="#262626"/>
<path d="M32.6139 26.374V20.664H31.6239V19.074H34.3939V26.374H32.6139ZM35.6236 21.134C35.6836 19.694 36.6236 18.904 38.1136 18.904C39.6536 18.904 40.4836 19.784 40.4836 20.884C40.4836 21.844 39.8836 22.354 39.3836 22.524V22.564C40.1136 22.804 40.6136 23.364 40.6136 24.324C40.6136 25.554 39.7336 26.434 38.2036 26.434C36.6836 26.434 35.5836 25.714 35.5336 24.064H37.1936C37.2036 24.634 37.5136 25.014 38.1436 25.014C38.6736 25.014 38.9636 24.674 38.9636 24.194C38.9636 23.544 38.5736 23.284 37.6836 23.284H37.3636V21.894H37.6836C38.2636 21.894 38.8236 21.754 38.8236 21.094C38.8236 20.604 38.5336 20.334 38.0736 20.334C37.5236 20.334 37.3236 20.734 37.2936 21.134H35.6236ZM43.6175 22.854C43.6175 20.754 45.0775 19.274 47.1475 19.274C48.8175 19.274 50.0775 20.214 50.4775 21.734H48.5975C48.3075 21.134 47.7775 20.834 47.1275 20.834C46.0775 20.834 45.3575 21.614 45.3575 22.854C45.3575 24.094 46.0775 24.874 47.1275 24.874C47.7775 24.874 48.3075 24.574 48.5975 23.974H50.4775C50.0775 25.494 48.8175 26.424 47.1475 26.424C45.0775 26.424 43.6175 24.954 43.6175 22.854ZM51.5247 26.374V19.354H53.5447L55.5147 24.214L57.4647 19.354H59.4747V26.374H57.7647V22.164L56.1947 26.374H54.8147L53.2347 22.154V26.374H51.5247Z" fill="#3F3F3F"/>
</svg>
