<svg width="101" height="58" viewBox="0 0 101 58" fill="none" xmlns="http://www.w3.org/2000/svg">
<path d="M68.5692 5.54952V43.8829H10.2359L27.2192 2.21619H65.2359C66.1191 2.21882 66.9655 2.57086 67.59 3.19541C68.2146 3.81996 68.5666 4.66628 68.5692 5.54952Z" fill="#85FF00"/>
<path d="M75.2359 48.8829L76.9026 47.2162V42.2162H11.9026V47.2162C11.9026 47.6582 12.0782 48.0821 12.3907 48.3947C12.7033 48.7073 13.1272 48.8829 13.5692 48.8829H75.2359Z" fill="#3C626B"/>
<path d="M26.9026 55.5495C30.5845 55.5495 33.5692 52.5648 33.5692 48.8829C33.5692 45.201 30.5845 42.2162 26.9026 42.2162C23.2207 42.2162 20.2359 45.201 20.2359 48.8829C20.2359 52.5648 23.2207 55.5495 26.9026 55.5495Z" fill="#315359"/>
<path d="M46.9026 55.5495C50.5845 55.5495 53.5692 52.5648 53.5692 48.8829C53.5692 45.201 50.5845 42.2162 46.9026 42.2162C43.2207 42.2162 40.2359 45.201 40.2359 48.8829C40.2359 52.5648 43.2207 55.5495 46.9026 55.5495Z" fill="#315359"/>
<path d="M98.5026 28.8829C98.5413 29.12 98.5636 29.3594 98.5692 29.5996V45.5496C98.5666 46.4328 98.2146 47.2791 97.59 47.9037C96.9655 48.5282 96.1191 48.8803 95.2359 48.8829H75.2359V12.2162C75.2359 11.7742 75.4115 11.3503 75.7241 11.0377C76.0366 10.7252 76.4605 10.5496 76.9026 10.5496H81.9026L98.5026 28.8829Z" fill="#D9EAFD"/>
<path d="M98.5026 28.8829H83.5693C83.1272 28.8829 82.7033 28.7073 82.3907 28.3948C82.0782 28.0822 81.9026 27.6583 81.9026 27.2162V10.5496H88.0859C88.7257 10.5478 89.3523 10.7309 89.8904 11.0768C90.4285 11.4228 90.8553 11.9168 91.1193 12.4996L98.2693 28.2329C98.3617 28.444 98.4397 28.6612 98.5026 28.8829Z" fill="#467BBC"/>
<path d="M86.9026 55.5495C90.5845 55.5495 93.5692 52.5648 93.5692 48.8829C93.5692 45.201 90.5845 42.2162 86.9026 42.2162C83.2207 42.2162 80.2359 45.201 80.2359 48.8829C80.2359 52.5648 83.2207 55.5495 86.9026 55.5495Z" fill="#315359"/>
<path d="M30.2359 2.21619L13.2526 43.8829L11.9026 47.2162H5.23589C4.35265 47.2135 3.50633 46.8615 2.88178 46.237C2.25723 45.6124 1.9052 44.7661 1.90256 43.8829V21.8329C1.90894 21.0075 2.21723 20.2131 2.76922 19.5995L17.5692 3.29952C17.8842 2.95956 18.2657 2.68797 18.69 2.50161C19.1143 2.31525 19.5725 2.2181 20.0359 2.21619H30.2359Z" fill="#74DE00"/>
<path d="M92.6409 11.8146C92.2427 10.9412 91.6021 10.2007 90.7952 9.68094C89.9883 9.16122 89.049 8.88422 88.0892 8.88289H76.9026C76.0185 8.88289 75.1707 9.23408 74.5455 9.85921C73.9204 10.4843 73.5692 11.3322 73.5692 12.2162V40.5496H70.2359V5.54956C70.2359 4.22348 69.7091 2.95171 68.7714 2.01403C67.8337 1.07634 66.562 0.549561 65.2359 0.549561H20.0442C19.3476 0.549312 18.6587 0.694624 18.0215 0.976181C17.3843 1.25774 16.813 1.66933 16.3442 2.18456L1.53757 18.4746C0.699136 19.3939 0.234836 20.5936 0.235903 21.8379V25.5496C0.235903 25.9916 0.411497 26.4155 0.724058 26.7281C1.03662 27.0406 1.46054 27.2162 1.90257 27.2162C2.3446 27.2162 2.76852 27.0406 3.08108 26.7281C3.39364 26.4155 3.56924 25.9916 3.56924 25.5496V22.9129L17.9176 28.0329L14.8559 35.5496H3.56924V32.2162C3.56924 31.7742 3.39364 31.3503 3.08108 31.0377C2.76852 30.7252 2.3446 30.5496 1.90257 30.5496C1.46054 30.5496 1.03662 30.7252 0.724058 31.0377C0.411497 31.3503 0.235903 31.7742 0.235903 32.2162V43.8829C0.235903 45.209 0.762687 46.4807 1.70037 47.4184C2.63805 48.3561 3.90982 48.8829 5.2359 48.8829H10.6992C10.9895 49.388 11.4074 49.8078 11.9112 50.1004C12.4149 50.3929 12.9867 50.5478 13.5692 50.5496H18.7359C19.1184 52.4334 20.1405 54.127 21.6288 55.3435C23.1172 56.56 24.9803 57.2246 26.9026 57.2246C28.8248 57.2246 30.688 56.56 32.1763 55.3435C33.6647 54.127 34.6867 52.4334 35.0692 50.5496H38.7359C39.1184 52.4334 40.1405 54.127 41.6288 55.3435C43.1172 56.56 44.9803 57.2246 46.9026 57.2246C48.8248 57.2246 50.688 56.56 52.1763 55.3435C53.6647 54.127 54.6867 52.4334 55.0692 50.5496H78.7359C79.1184 52.4334 80.1405 54.127 81.6288 55.3435C83.1172 56.56 84.9803 57.2246 86.9026 57.2246C88.8248 57.2246 90.688 56.56 92.1763 55.3435C93.6647 54.127 94.6867 52.4334 95.0692 50.5496H95.2359C96.562 50.5496 97.8337 50.0228 98.7714 49.0851C99.7091 48.1474 100.236 46.8756 100.236 45.5496V29.6046C100.235 28.8904 100.081 28.1847 99.7859 27.5346L92.6409 11.8146ZM89.6076 13.1946L95.9809 27.2162H83.5692V12.2162H88.0892C88.4096 12.2161 88.7231 12.3084 88.9924 12.4819C89.2617 12.6554 89.4753 12.9028 89.6076 13.1946ZM73.5692 47.2162H55.0692C54.8121 46.0035 54.2852 44.8642 53.5276 43.8829H73.5692V47.2162ZM66.9026 5.54956V40.5496H16.4176L31.3559 3.88289H65.2359C65.6779 3.88289 66.1019 4.05849 66.4144 4.37105C66.727 4.68361 66.9026 5.10753 66.9026 5.54956ZM33.5259 43.8829H40.2792C39.5216 44.8642 38.9947 46.0035 38.7376 47.2162H35.0692C34.8116 46.0033 34.2841 44.864 33.5259 43.8829ZM15.0592 43.8829H20.2792C19.5216 44.8642 18.9947 46.0035 18.7376 47.2162H13.7009L15.0592 43.8829ZM18.8126 4.42789C18.9686 4.25636 19.1588 4.11928 19.3709 4.02544C19.583 3.93159 19.8123 3.88304 20.0442 3.88289H27.7576L23.3526 14.6962L14.2159 9.4829L18.8126 4.42789ZM4.81257 19.8212L11.9192 12.0096L22.0859 17.8112L19.1792 24.9446L4.81257 19.8212ZM3.56924 43.8829V38.8829H13.4976L10.7809 45.5496H5.2359C4.79388 45.5496 4.36995 45.374 4.05739 45.0614C3.74483 44.7488 3.56924 44.3249 3.56924 43.8829ZM26.9026 53.8829C25.9137 53.8829 24.947 53.5896 24.1247 53.0402C23.3025 52.4908 22.6616 51.7099 22.2832 50.7963C21.9047 49.8827 21.8057 48.8774 21.9986 47.9074C22.1916 46.9375 22.6678 46.0466 23.367 45.3474C24.0663 44.6481 24.9572 44.1719 25.9271 43.979C26.897 43.786 27.9024 43.8851 28.816 44.2635C29.7296 44.6419 30.5105 45.2828 31.0599 46.105C31.6093 46.9273 31.9026 47.894 31.9026 48.8829C31.9026 50.209 31.3758 51.4807 30.4381 52.4184C29.5004 53.3561 28.2287 53.8829 26.9026 53.8829ZM46.9026 53.8829C45.9137 53.8829 44.947 53.5896 44.1247 53.0402C43.3025 52.4908 42.6616 51.7099 42.2832 50.7963C41.9047 49.8827 41.8057 48.8774 41.9986 47.9074C42.1916 46.9375 42.6678 46.0466 43.367 45.3474C44.0663 44.6481 44.9572 44.1719 45.9271 43.979C46.897 43.786 47.9024 43.8851 48.816 44.2635C49.7296 44.6419 50.5105 45.2828 51.0599 46.105C51.6093 46.9273 51.9026 47.894 51.9026 48.8829C51.9026 50.209 51.3758 51.4807 50.4381 52.4184C49.5004 53.3561 48.2287 53.8829 46.9026 53.8829ZM86.9026 53.8829C85.9137 53.8829 84.947 53.5896 84.1247 53.0402C83.3025 52.4908 82.6616 51.7099 82.2832 50.7963C81.9047 49.8827 81.8057 48.8774 81.9986 47.9074C82.1916 46.9375 82.6678 46.0466 83.367 45.3474C84.0663 44.6481 84.9572 44.1719 85.9271 43.979C86.897 43.786 87.9023 43.8851 88.816 44.2635C89.7296 44.6419 90.5105 45.2828 91.0599 46.105C91.6093 46.9273 91.9026 47.894 91.9026 48.8829C91.9026 50.209 91.3758 51.4807 90.4381 52.4184C89.5004 53.3561 88.2286 53.8829 86.9026 53.8829ZM95.2359 47.2162H95.0692C94.6867 45.3324 93.6647 43.6388 92.1763 42.4223C90.688 41.2058 88.8248 40.5412 86.9026 40.5412C84.9803 40.5412 83.1172 41.2058 81.6288 42.4223C80.1405 43.6388 79.1184 45.3324 78.7359 47.2162H76.9026V12.2162H80.2359V27.2162C80.2359 28.1003 80.5871 28.9481 81.2122 29.5733C81.8373 30.1984 82.6852 30.5496 83.5692 30.5496H96.9026V45.5496C96.9026 45.9916 96.727 46.4155 96.4144 46.7281C96.1019 47.0406 95.6779 47.2162 95.2359 47.2162Z" fill="#262626"/>
<path d="M36.8859 22.6296C36.2592 22.2962 35.9459 21.7729 35.9459 21.0596C35.9459 20.6996 36.0392 20.3729 36.2259 20.0796C36.4126 19.7796 36.6959 19.5429 37.0759 19.3696C37.4559 19.1896 37.9226 19.0996 38.4759 19.0996C39.0292 19.0996 39.4926 19.1896 39.8659 19.3696C40.2459 19.5429 40.5292 19.7796 40.7159 20.0796C40.9026 20.3729 40.9959 20.6996 40.9959 21.0596C40.9959 21.4196 40.9092 21.7329 40.7359 21.9996C40.5692 22.2662 40.3426 22.4762 40.0559 22.6296C40.4159 22.8029 40.6926 23.0429 40.8859 23.3496C41.0792 23.6496 41.1759 24.0029 41.1759 24.4096C41.1759 24.8829 41.0559 25.2929 40.8159 25.6396C40.5759 25.9796 40.2492 26.2396 39.8359 26.4196C39.4292 26.5996 38.9759 26.6896 38.4759 26.6896C37.9759 26.6896 37.5192 26.5996 37.1059 26.4196C36.6992 26.2396 36.3759 25.9796 36.1359 25.6396C35.8959 25.2929 35.7759 24.8829 35.7759 24.4096C35.7759 23.9962 35.8726 23.6396 36.0659 23.3396C36.2592 23.0329 36.5326 22.7962 36.8859 22.6296ZM39.3359 21.3196C39.3359 21.0462 39.2559 20.8362 39.0959 20.6896C38.9426 20.5362 38.7359 20.4596 38.4759 20.4596C38.2159 20.4596 38.0059 20.5362 37.8459 20.6896C37.6926 20.8429 37.6159 21.0562 37.6159 21.3296C37.6159 21.5896 37.6959 21.7962 37.8559 21.9496C38.0159 22.0962 38.2226 22.1696 38.4759 22.1696C38.7292 22.1696 38.9359 22.0929 39.0959 21.9396C39.2559 21.7862 39.3359 21.5796 39.3359 21.3196ZM38.4759 23.3696C38.1626 23.3696 37.9092 23.4562 37.7159 23.6296C37.5226 23.7962 37.4259 24.0296 37.4259 24.3296C37.4259 24.6096 37.5192 24.8396 37.7059 25.0196C37.8992 25.1996 38.1559 25.2896 38.4759 25.2896C38.7959 25.2896 39.0459 25.1996 39.2259 25.0196C39.4126 24.8396 39.5059 24.6096 39.5059 24.3296C39.5059 24.0362 39.4092 23.8029 39.2159 23.6296C39.0292 23.4562 38.7826 23.3696 38.4759 23.3696ZM42.0503 23.0296C42.0503 22.3362 42.2003 21.7196 42.5003 21.1796C42.8003 20.6329 43.2169 20.2096 43.7503 19.9096C44.2903 19.6029 44.9003 19.4496 45.5803 19.4496C46.4136 19.4496 47.1269 19.6696 47.7203 20.1096C48.3136 20.5496 48.7103 21.1496 48.9103 21.9096H47.0303C46.8903 21.6162 46.6903 21.3929 46.4303 21.2396C46.1769 21.0862 45.8869 21.0096 45.5603 21.0096C45.0336 21.0096 44.6069 21.1929 44.2803 21.5596C43.9536 21.9262 43.7903 22.4162 43.7903 23.0296C43.7903 23.6429 43.9536 24.1329 44.2803 24.4996C44.6069 24.8662 45.0336 25.0496 45.5603 25.0496C45.8869 25.0496 46.1769 24.9729 46.4303 24.8196C46.6903 24.6662 46.8903 24.4429 47.0303 24.1496H48.9103C48.7103 24.9096 48.3136 25.5096 47.7203 25.9496C47.1269 26.3829 46.4136 26.5996 45.5803 26.5996C44.9003 26.5996 44.2903 26.4496 43.7503 26.1496C43.2169 25.8429 42.8003 25.4196 42.5003 24.8796C42.2003 24.3396 42.0503 23.7229 42.0503 23.0296ZM57.9075 19.5296V26.5496H56.1975V22.3396L54.6275 26.5496H53.2475L51.6675 22.3296V26.5496H49.9575V19.5296H51.9775L53.9475 24.3896L55.8975 19.5296H57.9075Z" fill="#3F3F3F"/>
</svg>
