<svg width="101" height="57" viewBox="0 0 101 57" fill="none" xmlns="http://www.w3.org/2000/svg">
<path d="M68.5692 5.09896V43.4323H10.2359L27.2192 1.76562H65.2359C66.1191 1.76826 66.9655 2.1203 67.59 2.74485C68.2146 3.3694 68.5666 4.21571 68.5692 5.09896Z" fill="#85FF00"/>
<path d="M75.2359 48.4323L76.9026 46.7656V41.7656H11.9026V46.7656C11.9026 47.2077 12.0782 47.6316 12.3907 47.9441C12.7033 48.2567 13.1272 48.4323 13.5692 48.4323H75.2359Z" fill="#3C626B"/>
<path d="M26.9026 55.099C30.5845 55.099 33.5692 52.1142 33.5692 48.4323C33.5692 44.7504 30.5845 41.7656 26.9026 41.7656C23.2207 41.7656 20.2359 44.7504 20.2359 48.4323C20.2359 52.1142 23.2207 55.099 26.9026 55.099Z" fill="#315359"/>
<path d="M46.9026 55.099C50.5845 55.099 53.5692 52.1142 53.5692 48.4323C53.5692 44.7504 50.5845 41.7656 46.9026 41.7656C43.2207 41.7656 40.2359 44.7504 40.2359 48.4323C40.2359 52.1142 43.2207 55.099 46.9026 55.099Z" fill="#315359"/>
<path d="M98.5026 28.4323C98.5413 28.6694 98.5636 28.9089 98.5692 29.149V45.099C98.5666 45.9822 98.2146 46.8286 97.59 47.4531C96.9655 48.0777 96.1191 48.4297 95.2359 48.4323H75.2359V11.7657C75.2359 11.3236 75.4115 10.8997 75.7241 10.5872C76.0366 10.2746 76.4605 10.099 76.9026 10.099H81.9026L98.5026 28.4323Z" fill="#D9EAFD"/>
<path d="M98.5026 28.4323H83.5693C83.1272 28.4323 82.7033 28.2568 82.3907 27.9442C82.0782 27.6316 81.9026 27.2077 81.9026 26.7657V10.099H88.0859C88.7257 10.0972 89.3523 10.2803 89.8904 10.6263C90.4285 10.9722 90.8553 11.4663 91.1193 12.049L98.2693 27.7823C98.3617 27.9935 98.4397 28.2106 98.5026 28.4323Z" fill="#467BBC"/>
<path d="M86.9026 55.099C90.5845 55.099 93.5692 52.1142 93.5692 48.4323C93.5692 44.7504 90.5845 41.7656 86.9026 41.7656C83.2207 41.7656 80.2359 44.7504 80.2359 48.4323C80.2359 52.1142 83.2207 55.099 86.9026 55.099Z" fill="#315359"/>
<path d="M30.2359 1.76562L13.2526 43.4323L11.9026 46.7656H5.23589C4.35265 46.763 3.50633 46.4109 2.88178 45.7864C2.25723 45.1618 1.9052 44.3155 1.90256 43.4323V21.3823C1.90894 20.557 2.21723 19.7625 2.76922 19.149L17.5692 2.84896C17.8842 2.509 18.2657 2.23741 18.69 2.05105C19.1143 1.86469 19.5725 1.76754 20.0359 1.76562H30.2359Z" fill="#74DE00"/>
<path d="M92.6409 11.364C92.2427 10.4907 91.6021 9.7501 90.7952 9.23038C89.9883 8.71066 89.049 8.43366 88.0892 8.43233H76.9026C76.0185 8.43233 75.1707 8.78352 74.5455 9.40864C73.9204 10.0338 73.5692 10.8816 73.5692 11.7657V40.099H70.2359V5.099C70.2359 3.77292 69.7091 2.50115 68.7714 1.56346C67.8337 0.625783 66.562 0.0989993 65.2359 0.0989993H20.0442C19.3476 0.0987503 18.6587 0.244062 18.0215 0.525619C17.3843 0.807176 16.813 1.21876 16.3442 1.734L1.53757 18.024C0.699136 18.9434 0.234836 20.1431 0.235903 21.3873V25.099C0.235903 25.541 0.411497 25.965 0.724058 26.2775C1.03662 26.5901 1.46054 26.7657 1.90257 26.7657C2.3446 26.7657 2.76852 26.5901 3.08108 26.2775C3.39364 25.965 3.56924 25.541 3.56924 25.099V22.4623L17.9176 27.5823L14.8559 35.099H3.56924V31.7657C3.56924 31.3236 3.39364 30.8997 3.08108 30.5872C2.76852 30.2746 2.3446 30.099 1.90257 30.099C1.46054 30.099 1.03662 30.2746 0.724058 30.5872C0.411497 30.8997 0.235903 31.3236 0.235903 31.7657V43.4323C0.235903 44.7584 0.762687 46.0302 1.70037 46.9679C2.63805 47.9055 3.90982 48.4323 5.2359 48.4323H10.6992C10.9895 48.9374 11.4074 49.3573 11.9112 49.6498C12.4149 49.9423 12.9867 50.0972 13.5692 50.099H18.7359C19.1184 51.9828 20.1405 53.6765 21.6288 54.893C23.1172 56.1095 24.9803 56.774 26.9026 56.774C28.8248 56.774 30.688 56.1095 32.1763 54.893C33.6647 53.6765 34.6867 51.9828 35.0692 50.099H38.7359C39.1184 51.9828 40.1405 53.6765 41.6288 54.893C43.1172 56.1095 44.9803 56.774 46.9026 56.774C48.8248 56.774 50.688 56.1095 52.1763 54.893C53.6647 53.6765 54.6867 51.9828 55.0692 50.099H78.7359C79.1184 51.9828 80.1405 53.6765 81.6288 54.893C83.1172 56.1095 84.9803 56.774 86.9026 56.774C88.8248 56.774 90.688 56.1095 92.1763 54.893C93.6647 53.6765 94.6867 51.9828 95.0692 50.099H95.2359C96.562 50.099 97.8337 49.5722 98.7714 48.6345C99.7091 47.6969 100.236 46.4251 100.236 45.099V29.154C100.235 28.4398 100.081 27.7341 99.7859 27.084L92.6409 11.364ZM89.6076 12.744L95.9809 26.7657H83.5692V11.7657H88.0892C88.4096 11.7656 88.7231 11.8578 88.9924 12.0313C89.2617 12.2048 89.4753 12.4523 89.6076 12.744ZM73.5692 46.7657H55.0692C54.8121 45.5529 54.2852 44.4136 53.5276 43.4323H73.5692V46.7657ZM66.9026 5.099V40.099H16.4176L31.3559 3.43233H65.2359C65.6779 3.43233 66.1019 3.60793 66.4144 3.92049C66.727 4.23305 66.9026 4.65697 66.9026 5.099ZM33.5259 43.4323H40.2792C39.5216 44.4136 38.9947 45.5529 38.7376 46.7657H35.0692C34.8116 45.5528 34.2841 44.4135 33.5259 43.4323ZM15.0592 43.4323H20.2792C19.5216 44.4136 18.9947 45.5529 18.7376 46.7657H13.7009L15.0592 43.4323ZM18.8126 3.97733C18.9686 3.8058 19.1588 3.66872 19.3709 3.57488C19.583 3.48103 19.8123 3.43248 20.0442 3.43233H27.7576L23.3526 14.2457L14.2159 9.03233L18.8126 3.97733ZM4.81257 19.3707L11.9192 11.559L22.0859 17.3607L19.1792 24.494L4.81257 19.3707ZM3.56924 43.4323V38.4323H13.4976L10.7809 45.099H5.2359C4.79388 45.099 4.36995 44.9234 4.05739 44.6108C3.74483 44.2983 3.56924 43.8744 3.56924 43.4323ZM26.9026 53.4323C25.9137 53.4323 24.947 53.1391 24.1247 52.5897C23.3025 52.0403 22.6616 51.2594 22.2832 50.3457C21.9047 49.4321 21.8057 48.4268 21.9986 47.4569C22.1916 46.487 22.6678 45.5961 23.367 44.8968C24.0663 44.1975 24.9572 43.7213 25.9271 43.5284C26.897 43.3355 27.9024 43.4345 28.816 43.8129C29.7296 44.1914 30.5105 44.8322 31.0599 45.6545C31.6093 46.4767 31.9026 47.4434 31.9026 48.4323C31.9026 49.7584 31.3758 51.0302 30.4381 51.9679C29.5004 52.9055 28.2287 53.4323 26.9026 53.4323ZM46.9026 53.4323C45.9137 53.4323 44.947 53.1391 44.1247 52.5897C43.3025 52.0403 42.6616 51.2594 42.2832 50.3457C41.9047 49.4321 41.8057 48.4268 41.9986 47.4569C42.1916 46.487 42.6678 45.5961 43.367 44.8968C44.0663 44.1975 44.9572 43.7213 45.9271 43.5284C46.897 43.3355 47.9024 43.4345 48.816 43.8129C49.7296 44.1914 50.5105 44.8322 51.0599 45.6545C51.6093 46.4767 51.9026 47.4434 51.9026 48.4323C51.9026 49.7584 51.3758 51.0302 50.4381 51.9679C49.5004 52.9055 48.2287 53.4323 46.9026 53.4323ZM86.9026 53.4323C85.9137 53.4323 84.947 53.1391 84.1247 52.5897C83.3025 52.0403 82.6616 51.2594 82.2832 50.3457C81.9047 49.4321 81.8057 48.4268 81.9986 47.4569C82.1916 46.487 82.6678 45.5961 83.367 44.8968C84.0663 44.1975 84.9572 43.7213 85.9271 43.5284C86.897 43.3355 87.9023 43.4345 88.816 43.8129C89.7296 44.1914 90.5105 44.8322 91.0599 45.6545C91.6093 46.4767 91.9026 47.4434 91.9026 48.4323C91.9026 49.7584 91.3758 51.0302 90.4381 51.9679C89.5004 52.9055 88.2286 53.4323 86.9026 53.4323ZM95.2359 46.7657H95.0692C94.6867 44.8819 93.6647 43.1882 92.1763 41.9717C90.688 40.7552 88.8248 40.0906 86.9026 40.0906C84.9803 40.0906 83.1172 40.7552 81.6288 41.9717C80.1405 43.1882 79.1184 44.8819 78.7359 46.7657H76.9026V11.7657H80.2359V26.7657C80.2359 27.6497 80.5871 28.4976 81.2122 29.1227C81.8373 29.7478 82.6852 30.099 83.5692 30.099H96.9026V45.099C96.9026 45.541 96.727 45.965 96.4144 46.2775C96.1019 46.5901 95.6779 46.7657 95.2359 46.7657Z" fill="#262626"/>
<path d="M35.5159 18.809H40.3459V20.079L37.8359 26.099H36.0859L38.6259 20.269H35.5159V18.809ZM40.9175 22.579C40.9175 20.479 42.3775 18.999 44.4475 18.999C46.1175 18.999 47.3775 19.939 47.7775 21.459H45.8975C45.6075 20.859 45.0775 20.559 44.4275 20.559C43.3775 20.559 42.6575 21.339 42.6575 22.579C42.6575 23.819 43.3775 24.599 44.4275 24.599C45.0775 24.599 45.6075 24.299 45.8975 23.699H47.7775C47.3775 25.219 46.1175 26.149 44.4475 26.149C42.3775 26.149 40.9175 24.679 40.9175 22.579ZM48.8247 26.099V19.079H50.8447L52.8147 23.939L54.7647 19.079H56.7747V26.099H55.0647V21.889L53.4947 26.099H52.1147L50.5347 21.879V26.099H48.8247Z" fill="#3F3F3F"/>
</svg>
