<svg width="101" height="58" viewBox="0 0 101 58" fill="none" xmlns="http://www.w3.org/2000/svg">
<path d="M68.8051 5.3741V43.7074H10.4718L27.4551 2.04077H65.4718C66.355 2.04341 67.2014 2.39545 67.8259 3.02C68.4505 3.64455 68.8025 4.49086 68.8051 5.3741Z" fill="#85FF00"/>
<path d="M75.4718 48.7074L77.1384 47.0408V42.0408H12.1384V47.0408C12.1384 47.4828 12.314 47.9067 12.6266 48.2193C12.9391 48.5318 13.3631 48.7074 13.8051 48.7074H75.4718Z" fill="#3C626B"/>
<path d="M27.1385 55.3741C30.8204 55.3741 33.8051 52.3893 33.8051 48.7074C33.8051 45.0255 30.8204 42.0408 27.1385 42.0408C23.4566 42.0408 20.4718 45.0255 20.4718 48.7074C20.4718 52.3893 23.4566 55.3741 27.1385 55.3741Z" fill="#315359"/>
<path d="M47.1385 55.3741C50.8204 55.3741 53.8051 52.3893 53.8051 48.7074C53.8051 45.0255 50.8204 42.0408 47.1385 42.0408C43.4566 42.0408 40.4718 45.0255 40.4718 48.7074C40.4718 52.3893 43.4566 55.3741 47.1385 55.3741Z" fill="#315359"/>
<path d="M98.7385 28.7074C98.7772 28.9444 98.7995 29.1839 98.8051 29.424V45.374C98.8025 46.2573 98.4505 47.1036 97.8259 47.7281C97.2014 48.3527 96.355 48.7047 95.4718 48.7074H75.4718V12.0407C75.4718 11.5987 75.6474 11.1747 75.96 10.8622C76.2725 10.5496 76.6964 10.374 77.1385 10.374H82.1385L98.7385 28.7074Z" fill="#D9EAFD"/>
<path d="M98.7384 28.7074H83.8051C83.3631 28.7074 82.9391 28.5318 82.6266 28.2192C82.314 27.9067 82.1384 27.4827 82.1384 27.0407V10.374H88.3218C88.9615 10.3723 89.5881 10.5554 90.1263 10.9013C90.6644 11.2473 91.0911 11.7413 91.3551 12.324L98.5051 28.0574C98.5975 28.2685 98.6755 28.4857 98.7384 28.7074Z" fill="#467BBC"/>
<path d="M87.1385 55.3741C90.8204 55.3741 93.8051 52.3893 93.8051 48.7074C93.8051 45.0255 90.8204 42.0408 87.1385 42.0408C83.4566 42.0408 80.4718 45.0255 80.4718 48.7074C80.4718 52.3893 83.4566 55.3741 87.1385 55.3741Z" fill="#315359"/>
<path d="M30.4718 2.04077L13.4884 43.7074L12.1384 47.0408H5.47176C4.58852 47.0381 3.7422 46.6861 3.11765 46.0615C2.4931 45.437 2.14107 44.5907 2.13843 43.7074V21.6574C2.14481 20.8321 2.4531 20.0377 3.00509 19.4241L17.8051 3.1241C18.1201 2.78414 18.5016 2.51255 18.9259 2.3262C19.3502 2.13984 19.8083 2.04268 20.2718 2.04077H30.4718Z" fill="#74DE00"/>
<path d="M92.8768 11.639C92.4786 10.7657 91.838 10.0251 91.0311 9.5054C90.2242 8.98568 89.2849 8.70868 88.3251 8.70736H77.1385C76.2544 8.70736 75.4066 9.05855 74.7814 9.68367C74.1563 10.3088 73.8051 11.1566 73.8051 12.0407V40.374H70.4718V5.37402C70.4718 4.04794 69.945 2.77617 69.0073 1.83849C68.0696 0.900807 66.7979 0.374024 65.4718 0.374024H20.2801C19.5835 0.373775 18.8946 0.519087 18.2574 0.800644C17.6202 1.0822 17.0489 1.49379 16.5801 2.00902L1.77347 18.299C0.935037 19.2184 0.470737 20.4181 0.471804 21.6624V25.374C0.471804 25.8161 0.647398 26.24 0.959959 26.5525C1.27252 26.8651 1.69644 27.0407 2.13847 27.0407C2.5805 27.0407 3.00442 26.8651 3.31698 26.5525C3.62954 26.24 3.80514 25.8161 3.80514 25.374V22.7374L18.1535 27.8574L15.0918 35.374H3.80514V32.0407C3.80514 31.5987 3.62954 31.1747 3.31698 30.8622C3.00442 30.5496 2.5805 30.374 2.13847 30.374C1.69644 30.374 1.27252 30.5496 0.959959 30.8622C0.647398 31.1747 0.471804 31.5987 0.471804 32.0407V43.7074C0.471804 45.0334 0.998588 46.3052 1.93627 47.2429C2.87395 48.1806 4.14572 48.7074 5.4718 48.7074H10.9351C11.2254 49.2124 11.6433 49.6323 12.1471 49.9248C12.6508 50.2174 13.2226 50.3723 13.8051 50.374H18.9718C19.3543 52.2578 20.3764 53.9515 21.8647 55.168C23.3531 56.3845 25.2162 57.049 27.1385 57.049C29.0607 57.049 30.9239 56.3845 32.4122 55.168C33.9006 53.9515 34.9226 52.2578 35.3051 50.374H38.9718C39.3543 52.2578 40.3764 53.9515 41.8647 55.168C43.3531 56.3845 45.2162 57.049 47.1385 57.049C49.0607 57.049 50.9239 56.3845 52.4122 55.168C53.9006 53.9515 54.9226 52.2578 55.3051 50.374H78.9718C79.3543 52.2578 80.3764 53.9515 81.8647 55.168C83.3531 56.3845 85.2162 57.049 87.1385 57.049C89.0607 57.049 90.9239 56.3845 92.4122 55.168C93.9006 53.9515 94.9226 52.2578 95.3051 50.374H95.4718C96.7979 50.374 98.0696 49.8472 99.0073 48.9096C99.945 47.9719 100.472 46.7001 100.472 45.374V29.429C100.471 28.7149 100.317 28.0092 100.022 27.359L92.8768 11.639ZM89.8435 13.019L96.2168 27.0407H83.8051V12.0407H88.3251C88.6455 12.0406 88.959 12.1328 89.2283 12.3063C89.4976 12.4799 89.7112 12.7273 89.8435 13.019ZM73.8051 47.0407H55.3051C55.048 45.8279 54.5211 44.6886 53.7635 43.7074H73.8051V47.0407ZM67.1385 5.37402V40.374H16.6535L31.5918 3.70736H65.4718C65.9138 3.70736 66.3378 3.88295 66.6503 4.19551C66.9629 4.50807 67.1385 4.932 67.1385 5.37402ZM33.7618 43.7074H40.5151C39.7575 44.6886 39.2306 45.8279 38.9735 47.0407H35.3051C35.0475 45.8278 34.52 44.6885 33.7618 43.7074ZM15.2951 43.7074H20.5151C19.7575 44.6886 19.2306 45.8279 18.9735 47.0407H13.9368L15.2951 43.7074ZM19.0485 4.25236C19.2046 4.08082 19.3947 3.94375 19.6068 3.8499C19.8189 3.75606 20.0482 3.70751 20.2801 3.70736H27.9935L23.5885 14.5207L14.4518 9.30736L19.0485 4.25236ZM5.04847 19.6457L12.1551 11.834L22.3218 17.6357L19.4151 24.769L5.04847 19.6457ZM3.80514 43.7074V38.7074H13.7335L11.0168 45.374H5.4718C5.02978 45.374 4.60585 45.1984 4.29329 44.8859C3.98073 44.5733 3.80514 44.1494 3.80514 43.7074ZM27.1385 53.7074C26.1496 53.7074 25.1829 53.4141 24.3606 52.8647C23.5384 52.3153 22.8975 51.5344 22.5191 50.6208C22.1406 49.7071 22.0416 48.7018 22.2345 47.7319C22.4275 46.762 22.9037 45.8711 23.6029 45.1718C24.3022 44.4726 25.1931 43.9964 26.163 43.8034C27.1329 43.6105 28.1383 43.7095 29.0519 44.088C29.9655 44.4664 30.7464 45.1073 31.2958 45.9295C31.8452 46.7518 32.1385 47.7185 32.1385 48.7074C32.1385 50.0334 31.6117 51.3052 30.674 52.2429C29.7363 53.1806 28.4646 53.7074 27.1385 53.7074ZM47.1385 53.7074C46.1496 53.7074 45.1829 53.4141 44.3606 52.8647C43.5384 52.3153 42.8975 51.5344 42.5191 50.6208C42.1406 49.7071 42.0416 48.7018 42.2345 47.7319C42.4275 46.762 42.9037 45.8711 43.6029 45.1718C44.3022 44.4726 45.1931 43.9964 46.163 43.8034C47.1329 43.6105 48.1383 43.7095 49.0519 44.088C49.9655 44.4664 50.7464 45.1073 51.2958 45.9295C51.8452 46.7518 52.1385 47.7185 52.1385 48.7074C52.1385 50.0334 51.6117 51.3052 50.674 52.2429C49.7363 53.1806 48.4646 53.7074 47.1385 53.7074ZM87.1385 53.7074C86.1496 53.7074 85.1829 53.4141 84.3606 52.8647C83.5384 52.3153 82.8975 51.5344 82.5191 50.6208C82.1406 49.7071 82.0416 48.7018 82.2345 47.7319C82.4275 46.762 82.9037 45.8711 83.6029 45.1718C84.3022 44.4726 85.1931 43.9964 86.163 43.8034C87.1329 43.6105 88.1382 43.7095 89.0519 44.088C89.9655 44.4664 90.7464 45.1073 91.2958 45.9295C91.8452 46.7518 92.1385 47.7185 92.1385 48.7074C92.1385 50.0334 91.6117 51.3052 90.674 52.2429C89.7363 53.1806 88.4645 53.7074 87.1385 53.7074ZM95.4718 47.0407H95.3051C94.9226 45.1569 93.9006 43.4632 92.4122 42.2467C90.9239 41.0302 89.0607 40.3657 87.1385 40.3657C85.2162 40.3657 83.3531 41.0302 81.8647 42.2467C80.3764 43.4632 79.3543 45.1569 78.9718 47.0407H77.1385V12.0407H80.4718V27.0407C80.4718 27.9247 80.823 28.7726 81.4481 29.3977C82.0732 30.0228 82.9211 30.374 83.8051 30.374H97.1385V45.374C97.1385 45.8161 96.9629 46.24 96.6503 46.5525C96.3378 46.8651 95.9138 47.0407 95.4718 47.0407Z" fill="#262626"/>
<path d="M30.8618 25.004C31.0885 24.824 31.1918 24.7407 31.1718 24.754C31.8251 24.214 32.3385 23.7707 32.7118 23.424C33.0918 23.0774 33.4118 22.714 33.6718 22.334C33.9318 21.954 34.0618 21.584 34.0618 21.224C34.0618 20.9507 33.9985 20.7374 33.8718 20.584C33.7451 20.4307 33.5551 20.354 33.3018 20.354C33.0485 20.354 32.8485 20.4507 32.7018 20.644C32.5618 20.8307 32.4918 21.0974 32.4918 21.444H30.8418C30.8551 20.8774 30.9751 20.404 31.2018 20.024C31.4351 19.644 31.7385 19.364 32.1118 19.184C32.4918 19.004 32.9118 18.914 33.3718 18.914C34.1651 18.914 34.7618 19.1174 35.1618 19.524C35.5685 19.9307 35.7718 20.4607 35.7718 21.114C35.7718 21.8274 35.5285 22.4907 35.0418 23.104C34.5551 23.7107 33.9351 24.304 33.1818 24.884H35.8818V26.274H30.8618V25.004ZM41.7747 20.564H38.6547V21.944C38.788 21.7974 38.9747 21.6774 39.2147 21.584C39.4547 21.4907 39.7147 21.444 39.9947 21.444C40.4947 21.444 40.908 21.5574 41.2347 21.784C41.568 22.0107 41.8114 22.304 41.9647 22.664C42.118 23.024 42.1947 23.414 42.1947 23.834C42.1947 24.614 41.9747 25.234 41.5347 25.694C41.0947 26.1474 40.4747 26.374 39.6747 26.374C39.1414 26.374 38.678 26.284 38.2847 26.104C37.8914 25.9174 37.588 25.6607 37.3747 25.334C37.1614 25.0074 37.0447 24.6307 37.0247 24.204H38.6947C38.7347 24.4107 38.8314 24.584 38.9847 24.724C39.138 24.8574 39.348 24.924 39.6147 24.924C39.928 24.924 40.1614 24.824 40.3147 24.624C40.468 24.424 40.5447 24.1574 40.5447 23.824C40.5447 23.4974 40.4647 23.2474 40.3047 23.074C40.1447 22.9007 39.9114 22.814 39.6047 22.814C39.378 22.814 39.1914 22.8707 39.0447 22.984C38.898 23.0907 38.8014 23.234 38.7547 23.414H37.1047V19.064H41.7747V20.564ZM45.1377 22.854C45.1377 22.1607 45.2877 21.544 45.5877 21.004C45.8877 20.4574 46.3044 20.034 46.8377 19.734C47.3777 19.4274 47.9877 19.274 48.6677 19.274C49.5011 19.274 50.2144 19.494 50.8077 19.934C51.4011 20.374 51.7977 20.974 51.9977 21.734H50.1177C49.9777 21.4407 49.7777 21.2174 49.5177 21.064C49.2644 20.9107 48.9744 20.834 48.6477 20.834C48.1211 20.834 47.6944 21.0174 47.3677 21.384C47.0411 21.7507 46.8777 22.2407 46.8777 22.854C46.8777 23.4674 47.0411 23.9574 47.3677 24.324C47.6944 24.6907 48.1211 24.874 48.6477 24.874C48.9744 24.874 49.2644 24.7974 49.5177 24.644C49.7777 24.4907 49.9777 24.2674 50.1177 23.974H51.9977C51.7977 24.734 51.4011 25.334 50.8077 25.774C50.2144 26.2074 49.5011 26.424 48.6677 26.424C47.9877 26.424 47.3777 26.274 46.8377 25.974C46.3044 25.6674 45.8877 25.244 45.5877 24.704C45.2877 24.164 45.1377 23.5474 45.1377 22.854ZM60.9949 19.354V26.374H59.2849V22.164L57.7149 26.374H56.3349L54.7549 22.154V26.374H53.0449V19.354H55.0649L57.0349 24.214L58.9849 19.354H60.9949Z" fill="#3F3F3F"/>
</svg>
