<svg width="99" height="61" viewBox="0 0 99 61" fill="none" xmlns="http://www.w3.org/2000/svg">
<path d="M87.0316 15.4869L94.4069 29.686C94.6016 30.0607 94.7033 30.4768 94.7032 30.8991V43.1453H63.2514V14.068H84.6959C85.6782 14.068 86.5787 14.6151 87.0316 15.4869Z" fill="#9D9D9D"/>
<path d="M86.5259 27.2075L82.5393 19.5324C82.4908 19.4391 82.4177 19.361 82.3279 19.3064C82.238 19.2518 82.1349 19.2229 82.0298 19.2229H72.7741C72.6218 19.2229 72.4758 19.2834 72.3681 19.3911C72.2604 19.4988 72.1999 19.6448 72.1999 19.7971V27.4722C72.1999 27.6245 72.2604 27.7705 72.3681 27.8782C72.4758 27.9859 72.6218 28.0464 72.7741 28.0464H86.0164C86.447 28.0464 86.7244 27.5897 86.5259 27.2075Z" fill="#82ADE3"/>
<path d="M94.4071 29.6857L87.0317 15.4867C86.8096 15.059 86.4743 14.7006 86.0624 14.4505C85.6506 14.2003 85.1779 14.068 84.6961 14.068H78.1099C79.092 14.068 79.9925 14.615 80.4454 15.4867L87.8209 29.6857C88.0155 30.0606 88.1172 30.4767 88.1172 30.899V43.145H94.7034V30.899C94.7034 30.4768 94.6019 30.0607 94.4071 29.6857Z" fill="#838383"/>
<path d="M86.5259 27.2075L82.5393 19.5324C82.4908 19.4391 82.4177 19.361 82.3278 19.3064C82.238 19.2518 82.1349 19.2229 82.0298 19.2229H77.6891C77.9035 19.2229 78.1001 19.3423 78.1987 19.5324L82.1852 27.2075C82.3839 27.5897 82.1065 28.0464 81.6757 28.0464H86.0163C86.447 28.0464 86.7243 27.5897 86.5259 27.2075Z" fill="#528FD8"/>
<path d="M94.7034 37.7585H88.3771C88.0218 37.7585 87.681 37.6174 87.4297 37.3661C87.1785 37.1149 87.0373 36.7741 87.0373 36.4187V34.3133C87.0373 33.9579 87.1785 33.6172 87.4297 33.3659C87.681 33.1146 88.0218 32.9735 88.3771 32.9735H94.7034V37.7585Z" fill="#FEC165"/>
<path d="M70.3119 1.53471H17.8027C17.5788 1.53465 17.3599 1.60127 17.174 1.72606C16.9881 1.85086 16.8436 2.02818 16.7588 2.23543C3.01394 35.8143 3.84386 33.6788 3.84386 34.0088V43.145H67.5963V7.04942H70.3119C70.6111 7.04942 70.8981 6.93056 71.1096 6.719C71.3212 6.50743 71.44 6.22049 71.44 5.92129V2.66284C71.44 2.51469 71.4109 2.36799 71.3542 2.23112C71.2975 2.09425 71.2144 1.96989 71.1096 1.86513C71.0049 1.76037 70.8805 1.67727 70.7436 1.62058C70.6068 1.56389 70.4601 1.53471 70.3119 1.53471Z" fill="#85FF00"/>
<path d="M70.3119 1.53471H17.8027C17.5788 1.53465 17.3599 1.60127 17.174 1.72606C16.9881 1.85086 16.8436 2.02818 16.7588 2.23543L15.935 4.24747H61.2138C61.3394 4.24747 61.4639 4.27222 61.58 4.32031C61.6961 4.36841 61.8016 4.4389 61.8905 4.52777C61.9793 4.61664 62.0498 4.72214 62.0979 4.83825C62.146 4.95436 62.1708 5.0788 62.1708 5.20448V43.145H67.5963V7.04942H70.3119C70.4601 7.04942 70.6067 7.02024 70.7436 6.96354C70.8805 6.90684 71.0048 6.82374 71.1096 6.71899C71.2143 6.61423 71.2974 6.48986 71.354 6.35299C71.4107 6.21612 71.4399 6.06943 71.4399 5.92129V2.66284C71.4399 2.5147 71.4107 2.368 71.354 2.23113C71.2974 2.09426 71.2143 1.9699 71.1096 1.86514C71.0048 1.76038 70.8805 1.67728 70.7436 1.62058C70.6067 1.56389 70.4601 1.53471 70.3119 1.53471Z" fill="#74DE00"/>
<path d="M96.0468 49.3701H2.42325C2.22384 49.3701 2.03261 49.2908 1.89162 49.1498C1.75063 49.0088 1.67142 48.8175 1.67142 48.6181V43.8971C1.67142 43.6977 1.75063 43.5065 1.89163 43.3655C2.03263 43.2245 2.22385 43.1453 2.42325 43.1453H96.0468C96.1456 43.1453 96.2434 43.1647 96.3346 43.2025C96.4259 43.2402 96.5088 43.2956 96.5786 43.3654C96.6484 43.4353 96.7038 43.5181 96.7416 43.6094C96.7794 43.7006 96.7989 43.7984 96.7989 43.8971V48.6181C96.7989 48.8175 96.7196 49.0088 96.5786 49.1499C96.4376 49.2909 96.2463 49.3701 96.0468 49.3701Z" fill="#C0C0C0"/>
<path d="M96.0468 43.1453H89.5361C89.7355 43.1453 89.9268 43.2245 90.0678 43.3656C90.2089 43.5066 90.2881 43.6979 90.2881 43.8973V48.6181C90.2881 48.8175 90.2089 49.0088 90.0678 49.1499C89.9268 49.2909 89.7355 49.3701 89.5361 49.3701H96.0468C96.2463 49.3701 96.4376 49.2909 96.5786 49.1499C96.7196 49.0088 96.7989 48.8175 96.7989 48.6181V43.8973C96.7989 43.6979 96.7196 43.5066 96.5786 43.3656C96.4376 43.2245 96.2463 43.1453 96.0468 43.1453Z" fill="#ACACAC"/>
<path d="M10.6846 43.1453H15.615L31.3562 1.53495H26.4258L10.6846 43.1453Z" fill="#017B4E"/>
<path d="M25.2508 43.1453H30.1812L45.9223 1.53495H40.992L25.2508 43.1453Z" fill="#017B4E"/>
<path d="M39.817 43.1453H44.7473L60.4885 1.53495H55.5582L39.817 43.1453Z" fill="#017B4E"/>
<path d="M31.0059 49.37C31.0059 54.4713 26.8704 58.6069 21.769 58.6069C16.6675 58.6069 12.532 54.4713 12.532 49.37C12.532 44.2685 16.6675 40.1331 21.769 40.1331C26.8704 40.1331 31.0059 44.2685 31.0059 49.37Z" fill="#5A5A5A"/>
<path d="M21.7688 53.2502C19.6293 53.2502 17.8886 51.5094 17.8886 49.3701C17.8886 47.2304 19.6293 45.4898 21.7688 45.4898C23.9083 45.4898 25.6489 47.2304 25.6489 49.3701C25.6489 51.5094 23.9083 53.2502 21.7688 53.2502Z" fill="#C0C0C0"/>
<path d="M54.0604 49.37C54.0604 54.4713 49.925 58.6069 44.8235 58.6069C39.722 58.6069 35.5865 54.4713 35.5865 49.37C35.5865 44.2685 39.722 40.1331 44.8235 40.1331C49.925 40.1331 54.0604 44.2685 54.0604 49.37Z" fill="#5A5A5A"/>
<path d="M44.8235 53.2502C42.684 53.2502 40.9434 51.5094 40.9434 49.3701C40.9434 47.2304 42.684 45.4898 44.8235 45.4898C46.963 45.4898 48.7036 47.2304 48.7036 49.3701C48.7036 51.5094 46.963 53.2502 44.8235 53.2502Z" fill="#C0C0C0"/>
<path d="M89.903 49.37C89.903 54.4713 85.7676 58.6069 80.6659 58.6069C75.5646 58.6069 71.429 54.4713 71.429 49.37C71.429 44.2685 75.5646 40.1331 80.6659 40.1331C85.7676 40.1331 89.903 44.2685 89.903 49.37Z" fill="#5A5A5A"/>
<path d="M80.666 53.2502C78.5263 53.2502 76.7859 51.5094 76.7859 49.3701C76.7859 47.2304 78.5263 45.4898 80.666 45.4898C82.8056 45.4898 84.5462 47.2304 84.5462 49.3701C84.5462 51.5094 82.8056 53.2502 80.666 53.2502Z" fill="#C0C0C0"/>
<path d="M21.7688 40.1329C21.021 40.1329 20.2948 40.2242 19.5986 40.392C23.6524 41.3684 26.6652 45.0163 26.6652 49.37C26.6652 53.7237 23.6524 57.3712 19.5986 58.348C20.3092 58.5197 21.0377 58.6066 21.7688 58.6069C26.8702 58.6069 31.0057 54.4713 31.0057 49.37C31.0057 44.2685 26.8702 40.1329 21.7688 40.1329Z" fill="#444444"/>
<path d="M42.6532 40.392C46.7071 41.3686 49.72 45.0163 49.72 49.37C49.72 53.7237 46.7071 57.3714 42.6532 58.3482C43.3639 58.5197 44.0924 58.6066 44.8235 58.6069C49.9248 58.6069 54.0604 54.4715 54.0604 49.37C54.0604 43.4179 48.4929 38.9854 42.6532 40.392Z" fill="#444444"/>
<path d="M80.666 40.1329C79.9182 40.1329 79.1921 40.2242 78.4957 40.392C82.5497 41.3684 85.5623 45.0163 85.5623 49.37C85.5623 53.7237 82.5497 57.3712 78.4957 58.348C79.2064 58.5197 79.9349 58.6066 80.666 58.6069C85.7673 58.6069 89.903 54.4713 89.903 49.37C89.903 44.2685 85.7673 40.1329 80.666 40.1329Z" fill="#444444"/>
<path d="M25.3997 4.24756H30.33L31.3564 1.5348H26.426L25.3997 4.24756Z" fill="#026841"/>
<path d="M39.9659 4.24756H44.8962L45.9224 1.5348H40.992L39.9659 4.24756Z" fill="#026841"/>
<path d="M54.532 4.24756H59.4624L60.4885 1.5348H55.5582L54.532 4.24756Z" fill="#026841"/>
<path d="M73.6354 26.6106V20.6582H81.5065L84.5982 26.6106H73.6354ZM87.7997 26.5456L83.8127 18.8699C83.6436 18.5431 83.3878 18.2691 83.0732 18.0781C82.7587 17.8871 82.3976 17.7864 82.0296 17.7871H72.7741C71.6659 17.7871 70.7644 18.6886 70.7644 19.7969V27.472C70.7644 28.5802 71.6659 29.4817 72.7741 29.4817H86.0163C87.5252 29.4817 88.4935 27.8823 87.7997 26.5456Z" fill="black"/>
<path d="M21.7688 51.8147C20.4207 51.8147 19.3242 50.7182 19.3242 49.3701C19.3242 48.0221 20.4207 46.9253 21.7688 46.9253C23.1168 46.9253 24.2134 48.0221 24.2134 49.3701C24.2134 50.7182 23.1168 51.8147 21.7688 51.8147ZM21.7688 44.0543C18.8376 44.0543 16.4531 46.439 16.4531 49.3701C16.4531 52.3011 18.8376 54.6858 21.7688 54.6858C24.6999 54.6858 27.0844 52.3011 27.0844 49.3701C27.0844 46.439 24.6999 44.0543 21.7688 44.0543Z" fill="black"/>
<path d="M44.8235 51.8147C43.4754 51.8147 42.3789 50.7182 42.3789 49.3701C42.3789 48.0221 43.4754 46.9253 44.8235 46.9253C46.1715 46.9253 47.2681 48.0221 47.2681 49.3701C47.2681 50.7182 46.1715 51.8147 44.8235 51.8147ZM44.8235 44.0543C41.8923 44.0543 39.5078 46.439 39.5078 49.3701C39.5078 52.3011 41.8923 54.6858 44.8235 54.6858C47.7546 54.6858 50.1391 52.3011 50.1391 49.3701C50.1391 46.439 47.7546 44.0543 44.8235 44.0543Z" fill="black"/>
<path d="M80.6661 51.8147C79.318 51.8147 78.2215 50.7182 78.2215 49.3701C78.2215 48.0221 79.318 46.9253 80.6661 46.9253C82.0141 46.9253 83.1107 48.0221 83.1107 49.3701C83.1107 50.7182 82.0141 51.8147 80.6661 51.8147ZM80.6661 44.0543C77.7351 44.0543 75.3504 46.439 75.3504 49.3701C75.3504 52.3011 77.7351 54.6858 80.6661 54.6858C83.597 54.6858 85.9817 52.3011 85.9817 49.3701C85.9817 46.439 83.597 44.0543 80.6661 44.0543Z" fill="black"/>
<path d="M95.3634 47.9345H91.2422C91.0822 46.7674 90.7319 45.6345 90.2052 44.5807H95.3634V47.9345ZM80.6659 57.1714C76.3641 57.1714 72.8645 53.6718 72.8645 49.37C72.8645 45.0238 76.411 41.5684 80.6661 41.5684L80.6705 41.5686C84.9279 41.5711 88.4675 45.0303 88.4675 49.37C88.4675 53.6718 84.9677 57.1714 80.6659 57.1714ZM44.8235 57.1714C40.5219 57.1714 37.0221 53.6718 37.0221 49.37C37.0221 45.0759 40.5315 41.5307 44.893 41.5701C49.1398 41.6063 52.6249 45.068 52.6249 49.37C52.6249 53.6718 49.1253 57.1714 44.8235 57.1714ZM21.7688 57.1714C17.4672 57.1714 13.9676 53.6718 13.9676 49.37C13.9676 45.0443 17.4953 41.5684 21.7688 41.5684C26.0597 41.5684 29.5704 45.0602 29.5704 49.37C29.5704 53.6718 26.0706 57.1714 21.7688 57.1714ZM3.10695 44.5807H12.2298C11.7033 45.6345 11.353 46.7674 11.1928 47.9345H3.10695V44.5807ZM27.7455 2.97022H29.9002L14.2952 41.7097H12.1406L27.7455 2.97022ZM44.4663 2.97022L28.9544 41.4787C28.5096 41.0729 27.8906 40.5992 27.2984 40.2409L42.3117 2.97022H44.4663ZM59.0327 2.97022L44.6403 38.6989C43.877 38.7119 43.0542 38.8208 42.372 38.9816L56.8781 2.97022H59.0327ZM70.0043 5.61389H67.5965C67.408 5.61386 67.2213 5.65098 67.0471 5.72311C66.8729 5.79524 66.7147 5.90098 66.5813 6.03429C66.448 6.16759 66.3423 6.32585 66.2702 6.50003C66.198 6.67421 66.1609 6.86089 66.1609 7.04941V41.7097H52.2536C51.0294 40.5237 49.4145 39.5531 47.5889 39.0628L62.1279 2.97022H70.0043V5.61389ZM53.7827 2.97022L38.5769 40.7188C38.5349 40.749 38.4947 40.7818 38.4532 40.8126C38.081 41.0885 37.727 41.3881 37.3934 41.7097H31.9568L47.5617 2.97022H53.7827ZM18.3804 39.2521L32.9953 2.97022H39.2165L24.663 39.0995C22.6013 38.516 20.4113 38.5692 18.3804 39.2521ZM34.2473 47.9345H32.345C32.1846 46.7675 31.8344 45.6346 31.3081 44.5807H35.2843C34.7492 45.6453 34.3983 46.8165 34.2473 47.9345ZM71.1267 44.5807C70.6002 45.6345 70.2499 46.7674 70.0897 47.9345H55.3997C55.251 46.8316 54.9024 45.6547 54.3627 44.5807H71.1267ZM88.4728 34.409H93.2679V36.323H88.4728V34.409ZM96.1389 41.7143V30.899C96.1389 30.2488 95.9806 29.6004 95.6809 29.024L93.3871 24.6078C93.3002 24.4405 93.1812 24.292 93.0369 24.1707C92.8927 24.0494 92.7259 23.9577 92.5462 23.9009C92.3664 23.844 92.1773 23.8231 91.9895 23.8394C91.8017 23.8557 91.6189 23.9088 91.4516 23.9957C91.2843 24.0825 91.1358 24.2015 91.0144 24.3458C90.8931 24.4901 90.8014 24.6568 90.7445 24.8366C90.6877 25.0163 90.6668 25.2055 90.683 25.3933C90.6993 25.5811 90.7524 25.7639 90.8393 25.9312L93.1333 30.3478C93.2985 30.6653 93.2679 30.8717 93.2679 31.5379H88.3771C86.8469 31.5379 85.6018 32.783 85.6018 34.3133V36.4187C85.6018 37.949 86.8469 39.1941 88.3771 39.1941H93.2679V41.7097H88.096C86.1375 39.8119 83.4676 38.6974 80.6661 38.6974H80.6659L80.6607 38.6976C77.8268 38.6991 75.1716 39.8337 73.236 41.7097H69.032V15.5035H84.6961C84.9152 15.5031 85.1302 15.5631 85.3175 15.6769C85.5048 15.7907 85.6571 15.9539 85.7578 16.1485L87.7512 19.9862C87.8373 20.155 87.9558 20.3051 88.1001 20.4279C88.2444 20.5506 88.4116 20.6436 88.592 20.7015C88.7725 20.7593 88.9625 20.7809 89.1513 20.7649C89.3401 20.7489 89.5239 20.6958 89.692 20.6084C89.8602 20.5211 90.0093 20.4013 90.131 20.2561C90.2526 20.1108 90.3443 19.9429 90.4007 19.762C90.4571 19.5812 90.4772 19.3909 90.4597 19.2022C90.4423 19.0136 90.3877 18.8302 90.299 18.6628L88.3056 14.825C87.9635 14.1631 87.4456 13.6084 86.8088 13.2216C86.1721 12.8348 85.4411 12.631 84.6961 12.6325H69.032V8.48494H70.3119C71.7254 8.48494 72.8754 7.33479 72.8754 5.92128V2.66264C72.8754 1.24912 71.7254 0.0991715 70.3119 0.0991715H17.8027C17.2936 0.0979533 16.7958 0.248887 16.373 0.532598C15.9503 0.816308 15.622 1.21985 15.4303 1.69146L13.2783 6.94777C13.134 7.30012 13.1357 7.69535 13.2828 8.04652C13.4299 8.39768 13.7105 8.67601 14.0629 8.82028C14.4152 8.96455 14.8105 8.96294 15.1616 8.8158C15.5128 8.66867 15.7911 8.38806 15.9354 8.03572L18.009 2.97022H24.6502L9.04524 41.7097H5.27938V34.1119C5.58352 33.2895 7.11915 29.5554 13.3979 14.2307C13.4694 14.0562 13.5058 13.8694 13.505 13.6809C13.5043 13.4924 13.4664 13.3059 13.3936 13.132C13.3207 12.9581 13.2144 12.8003 13.0805 12.6675C12.9467 12.5347 12.788 12.4296 12.6136 12.3582C12.4391 12.2867 12.2523 12.2503 12.0638 12.2511C11.8753 12.2518 11.6887 12.2897 11.5149 12.3625C11.341 12.4354 11.1832 12.5418 11.0504 12.6756C10.9176 12.8094 10.8125 12.9681 10.7411 13.1425C2.04945 34.3565 2.3423 33.5251 2.40833 34.1108V41.7103C1.20919 41.7185 0.235901 42.696 0.235901 43.897V48.6178C0.235901 49.8242 1.21722 50.8055 2.42345 50.8055H11.1957C11.8994 56.0134 16.371 60.0425 21.7688 60.0425C27.1667 60.0425 31.6383 56.0134 32.3421 50.8055H34.2502C34.954 56.0134 39.4257 60.0425 44.8235 60.0425C50.2211 60.0425 54.693 56.0134 55.3966 50.8055H70.0928C70.7964 56.0134 75.2683 60.0425 80.6659 60.0425C86.0636 60.0425 90.5354 56.0134 91.2392 50.8055H96.0469C97.2531 50.8055 98.2344 49.8242 98.2344 48.6178V43.897C98.2344 42.722 97.3023 41.7631 96.1389 41.7143Z" fill="black"/>
</svg>
