<svg width="106" height="82" viewBox="0 0 106 82" fill="none" xmlns="http://www.w3.org/2000/svg">
<path d="M103.713 63.6945V67.1872C103.71 68.1127 103.342 68.9995 102.687 69.6539C102.033 70.3083 101.146 70.6772 100.22 70.68H91.4886C91.4886 68.3641 90.5686 66.1432 88.9311 64.5056C87.2935 62.8681 85.0726 61.9481 82.7567 61.9481C80.4409 61.9481 78.2199 62.8681 76.5823 64.5056C74.9448 66.1432 74.0248 68.3641 74.0248 70.68H65.2929V27.0206H75.7712V42.738H103.434C103.623 43.3666 103.717 44.02 103.713 44.6764V49.7235H94.9814C94.5182 49.7235 94.074 49.9075 93.7465 50.235C93.419 50.5625 93.235 51.0067 93.235 51.4698V54.9626C93.235 55.4258 93.419 55.87 93.7465 56.1975C94.074 56.525 94.5182 56.709 94.9814 56.709H103.713V63.6945ZM58.3074 60.2017H65.2929V70.68H58.3074V60.2017ZM58.3074 60.2017V70.68H51.3219C51.3219 68.3641 50.402 66.1432 48.7644 64.5056C47.1269 62.8681 44.9059 61.9481 42.5901 61.9481C40.2742 61.9481 38.0532 62.8681 36.4157 64.5056C34.7781 66.1432 33.8582 68.3641 33.8582 70.68H26.8727C26.8727 68.3641 25.9527 66.1432 24.3152 64.5056C22.6776 62.8681 20.4566 61.9481 18.1408 61.9481C15.8249 61.9481 13.6039 62.8681 11.9664 64.5056C10.3289 66.1432 9.40889 68.3641 9.40889 70.68H4.16976C3.70659 70.68 3.2624 70.496 2.93489 70.1685C2.60738 69.841 2.42339 69.3968 2.42339 68.9336V54.9626H46.0828L49.5756 51.4698H58.3074V60.2017ZM58.3074 34.0061V51.4698H51.3219V34.0061C51.3219 33.0797 51.6899 32.1913 52.3449 31.5363C53 30.8813 53.8884 30.5133 54.8147 30.5133C55.741 30.5133 56.6294 30.8813 57.2844 31.5363C57.9395 32.1913 58.3074 33.0797 58.3074 34.0061ZM47.8292 21.7814V28.7669L42.0312 29.5877C41.622 31.1972 40.9808 32.7385 40.1277 34.1632L43.6553 38.861L38.7131 43.8032L34.0153 40.2756C32.5906 41.1287 31.0493 41.7699 29.4398 42.1791L28.619 47.9771H21.6335L20.8127 42.1791C19.2033 41.7699 17.662 41.1287 16.2372 40.2756L11.5395 43.8032L6.59723 38.861L10.1249 34.1632C9.27177 32.7385 8.63053 31.1972 8.22136 29.5877L2.42339 28.7669V21.7814L8.22136 20.9606C8.63053 19.3512 9.27177 17.8099 10.1249 16.3851L6.59723 11.6874L11.5395 6.74513L16.2372 10.2728C17.662 9.41967 19.2033 8.77843 20.8127 8.36926L21.6335 2.57129H28.619L29.4398 8.36926C31.0493 8.77843 32.5906 9.41967 34.0153 10.2728L38.7131 6.74513L43.6553 11.6874L40.1277 16.3851C40.9808 17.8099 41.622 19.3512 42.0312 20.9606L47.8292 21.7814ZM33.8582 25.2742C33.8582 23.5472 33.3461 21.859 32.3866 20.423C31.4271 18.9871 30.0634 17.8679 28.4678 17.207C26.8723 16.5461 25.1166 16.3732 23.4228 16.7101C21.729 17.047 20.1731 17.8786 18.9519 19.0998C17.7307 20.321 16.8991 21.8769 16.5622 23.5707C16.2253 25.2645 16.3982 27.0202 17.0591 28.6157C17.72 30.2113 18.8392 31.575 20.2751 32.5345C21.7111 33.494 23.3993 34.0061 25.1263 34.0061C27.4421 34.0061 29.6631 33.0861 31.3007 31.4486C32.9382 29.811 33.8582 27.59 33.8582 25.2742Z" fill="#85FF00"/>
<path d="M74.0248 47.9771H81.0103V51.4698H74.0248V47.9771ZM16.3944 68.9336H19.8871V72.4263H16.3944V68.9336ZM40.8437 68.9336H44.3364V72.4263H40.8437V68.9336ZM81.0103 68.9336H84.5031V72.4263H81.0103V68.9336Z" fill="black"/>
<path d="M100.22 72.4266C101.609 72.4224 102.939 71.8691 103.921 70.8875C104.902 69.9059 105.455 68.5757 105.46 67.1875V44.6767C105.454 43.0622 105.007 41.4801 104.167 40.1012L94.6845 26.0428C94.5217 25.8084 94.3052 25.6163 94.053 25.4826C93.8009 25.3489 93.5204 25.2775 93.235 25.2744H65.2929C64.8298 25.2744 64.3856 25.4584 64.0581 25.7859C63.7306 26.1134 63.5466 26.5576 63.5466 27.0208V58.4556H60.0538V34.0063C60.0538 32.6168 59.5018 31.2842 58.5193 30.3017C57.5368 29.3191 56.2042 28.7672 54.8147 28.7672C53.4252 28.7672 52.0926 29.3191 51.1101 30.3017C50.1275 31.2842 49.5756 32.6168 49.5756 34.0063V49.7237C49.1126 49.7271 48.6686 49.9085 48.3356 50.2301L45.3668 53.2164H2.42338C1.96021 53.2164 1.51601 53.4004 1.1885 53.7279C0.860995 54.0555 0.677002 54.4997 0.677002 54.9628V68.9338C0.679766 69.8593 1.04864 70.7461 1.70306 71.4005C2.35748 72.055 3.24427 72.4238 4.16976 72.4266H7.81968C8.15137 74.3773 9.02941 76.1939 10.3519 77.6657H0.677002V81.1585H105.46V77.6657H90.5455C91.8681 76.1939 92.7461 74.3773 93.0778 72.4266H100.22ZM101.967 54.9628H94.9813V51.4701H101.967V54.9628ZM77.5176 28.7672H92.3094L100.552 40.9918H77.5176V28.7672ZM60.0538 61.9483H63.5466V68.9338H60.0538V61.9483ZM53.0683 34.0063C53.0683 33.5431 53.2523 33.0989 53.5798 32.7714C53.9073 32.4439 54.3515 32.2599 54.8147 32.2599C55.2778 32.2599 55.722 32.4439 56.0496 32.7714C56.3771 33.0989 56.5611 33.5431 56.5611 34.0063V49.7237H53.0683V34.0063ZM7.81968 68.9338H4.16976V56.7092H46.0828C46.5458 56.7057 46.9897 56.5244 47.3227 56.2027L50.2916 53.2164H56.5611V68.9338H52.9111C52.5007 66.4933 51.2387 64.2771 49.3491 62.6789C47.4596 61.0806 45.0649 60.2036 42.59 60.2036C40.1152 60.2036 37.7205 61.0806 35.8309 62.6789C33.9414 64.2771 32.6794 66.4933 32.269 68.9338H28.4619C28.0514 66.4933 26.7894 64.2771 24.8999 62.6789C23.0103 61.0806 20.6156 60.2036 18.1408 60.2036C15.6659 60.2036 13.2712 61.0806 11.3817 62.6789C9.49216 64.2771 8.23014 66.4933 7.81968 68.9338ZM18.1408 77.6657C16.7592 77.6657 15.4086 77.256 14.2598 76.4884C13.1111 75.7209 12.2157 74.6299 11.687 73.3535C11.1583 72.077 11.0199 70.6725 11.2895 69.3174C11.559 67.9624 12.2243 66.7177 13.2013 65.7407C14.1782 64.7638 15.4229 64.0985 16.778 63.8289C18.133 63.5594 19.5376 63.6977 20.814 64.2264C22.0904 64.7552 23.1814 65.6505 23.949 66.7993C24.7166 67.948 25.1263 69.2986 25.1263 70.6802C25.1263 72.5329 24.3903 74.3097 23.0803 75.6197C21.7702 76.9297 19.9934 77.6657 18.1408 77.6657ZM25.9296 77.6657C27.2521 76.1939 28.1302 74.3773 28.4619 72.4266H32.269C32.6006 74.3773 33.4787 76.1939 34.8012 77.6657H25.9296ZM42.59 77.6657C41.2084 77.6657 39.8579 77.256 38.7091 76.4884C37.5603 75.7209 36.665 74.6299 36.1363 73.3535C35.6076 72.077 35.4692 70.6725 35.7388 69.3174C36.0083 67.9624 36.6736 66.7177 37.6505 65.7407C38.6275 64.7638 39.8722 64.0985 41.2272 63.8289C42.5823 63.5594 43.9868 63.6977 45.2633 64.2264C46.5397 64.7552 47.6307 65.6505 48.3983 66.7993C49.1659 67.948 49.5756 69.2986 49.5756 70.6802C49.5756 72.5329 48.8396 74.3097 47.5295 75.6197C46.2195 76.9297 44.4427 77.6657 42.59 77.6657ZM50.3789 77.6657C51.7014 76.1939 52.5794 74.3773 52.9111 72.4266H72.4356C72.7673 74.3773 73.6454 76.1939 74.9679 77.6657H50.3789ZM82.7567 77.6657C81.3751 77.6657 80.0245 77.256 78.8758 76.4884C77.727 75.7209 76.8317 74.6299 76.3029 73.3535C75.7742 72.077 75.6359 70.6725 75.9054 69.3174C76.175 67.9624 76.8403 66.7177 77.8172 65.7407C78.7942 64.7638 80.0388 64.0985 81.3939 63.8289C82.749 63.5594 84.1535 63.6977 85.4299 64.2264C86.7064 64.7552 87.7974 65.6505 88.5649 66.7993C89.3325 67.948 89.7422 69.2986 89.7422 70.6802C89.7422 72.5329 89.0062 74.3097 87.6962 75.6197C86.3862 76.9297 84.6094 77.6657 82.7567 77.6657ZM82.7567 60.202C80.283 60.2069 77.8906 61.0859 76.002 62.6836C74.1135 64.2814 72.8503 66.4951 72.4356 68.9338H67.0393V28.7672H74.0248V42.7382C74.0248 43.2014 74.2088 43.6455 74.5363 43.9731C74.8638 44.3006 75.308 44.4846 75.7712 44.4846H101.949C101.949 44.5544 101.967 44.6068 101.967 44.6767V47.9773H94.9813C94.0559 47.9801 93.1691 48.349 92.5147 49.0034C91.8602 49.6578 91.4914 50.5446 91.4886 51.4701V54.9628C91.4914 55.8883 91.8602 56.7751 92.5147 57.4295C93.1691 58.0839 94.0559 58.4528 94.9813 58.4556H101.967V61.9483H96.7277V65.4411H101.967V67.1875C101.967 67.6506 101.783 68.0948 101.455 68.4223C101.128 68.7498 100.684 68.9338 100.22 68.9338H93.0778C92.6631 66.4951 91.3999 64.2814 89.5114 62.6836C87.6229 61.0859 85.2304 60.2069 82.7567 60.202Z" fill="black"/>
<path d="M2.17539 30.4959L6.85918 31.1648C7.17588 32.1493 7.57186 33.1065 8.04322 34.0271L5.2071 37.8097C4.95495 38.146 4.83256 38.562 4.86239 38.9813C4.89223 39.4006 5.07228 39.795 5.36952 40.0922L10.3083 45.031C10.6055 45.3282 10.9999 45.5083 11.4192 45.5381C11.8385 45.5679 12.2545 45.4455 12.5908 45.1934L16.3734 42.3573C17.294 42.8286 18.2512 43.2246 19.2357 43.5413L19.9046 48.2251C19.9643 48.6411 20.172 49.0216 20.4895 49.2968C20.8071 49.5721 21.2133 49.7236 21.6335 49.7235H28.619C29.0393 49.7236 29.4454 49.5721 29.763 49.2968C30.0806 49.0216 30.2883 48.6411 30.3479 48.2251L31.0168 43.5413C32.0013 43.2246 32.9586 42.8286 33.8791 42.3573L37.6618 45.1934C37.9981 45.4455 38.4141 45.5679 38.8333 45.5381C39.2526 45.5083 39.6471 45.3282 39.9443 45.031L44.883 40.0922C45.1803 39.795 45.3603 39.4006 45.3902 38.9813C45.42 38.562 45.2976 38.146 45.0454 37.8097L42.2093 34.0271C42.6807 33.1065 43.0767 32.1493 43.3934 31.1648L48.0772 30.4959C48.4931 30.4362 48.8737 30.2285 49.1489 29.911C49.4241 29.5934 49.5756 29.1872 49.5756 28.767V21.7815C49.5756 21.3612 49.4241 20.9551 49.1489 20.6375C48.8737 20.3199 48.4931 20.1122 48.0772 20.0526L43.3934 19.3837C43.0767 18.3992 42.6807 17.4419 42.2093 16.5214L45.0454 12.7387C45.2976 12.4024 45.42 11.9864 45.3902 11.5672C45.3603 11.1479 45.1803 10.7534 44.883 10.4562L39.9443 5.51747C39.6471 5.22023 39.2526 5.04017 38.8333 5.01034C38.4141 4.98051 37.9981 5.1029 37.6618 5.35505L33.8791 8.19117C32.9586 7.71981 32.0013 7.32383 31.0168 7.00712L30.3479 2.32334C30.2883 1.90736 30.0806 1.52684 29.763 1.25161C29.4454 0.97638 29.0393 0.824895 28.619 0.824951H21.6335C21.2133 0.824895 20.8071 0.97638 20.4895 1.25161C20.172 1.52684 19.9643 1.90736 19.9046 2.32334L19.2357 7.00712C18.2512 7.32383 17.294 7.71981 16.3734 8.19117L12.5908 5.35505C12.2545 5.1029 11.8385 4.98051 11.4192 5.01034C10.9999 5.04017 10.6055 5.22023 10.3083 5.51747L5.36952 10.4562C5.07228 10.7534 4.89223 11.1479 4.86239 11.5672C4.83256 11.9864 4.95495 12.4024 5.2071 12.7387L8.04322 16.5214C7.57186 17.4419 7.17588 18.3992 6.85918 19.3837L2.17539 20.0526C1.75941 20.1122 1.37889 20.3199 1.10366 20.6375C0.82843 20.9551 0.676946 21.3612 0.677002 21.7815V28.767C0.676946 29.1872 0.82843 29.5934 1.10366 29.911C1.37889 30.2285 1.75941 30.4362 2.17539 30.4959ZM4.16976 23.2956L8.47108 22.6809C8.81351 22.6321 9.13374 22.4827 9.39117 22.2517C9.64861 22.0207 9.83165 21.7185 9.91708 21.3833C10.284 19.9371 10.8575 18.5514 11.6198 17.2688C11.7965 16.9714 11.8808 16.6282 11.8622 16.2828C11.8435 15.9374 11.7227 15.6053 11.515 15.3286L8.90942 11.8533L11.7036 9.05912L15.1789 11.6647C15.4556 11.8724 15.7877 11.9932 16.1331 12.0119C16.4785 12.0305 16.8217 11.9462 17.1191 11.7695C18.4017 11.0072 19.7874 10.4337 21.2336 10.0668C21.5688 9.98134 21.871 9.7983 22.102 9.54087C22.333 9.28344 22.4824 8.9632 22.5312 8.62078L23.1476 4.3177H27.1049L27.7196 8.61903C27.7684 8.96146 27.9178 9.28169 28.1488 9.53912C28.3798 9.79656 28.682 9.9796 29.0172 10.065C30.4634 10.432 31.8491 11.0055 33.1317 11.7677C33.4291 11.9444 33.7723 12.0288 34.1177 12.0101C34.4631 11.9915 34.7952 11.8706 35.0719 11.663L38.5472 9.05737L41.3414 11.8516L38.7358 15.3269C38.5281 15.6035 38.4073 15.9356 38.3886 16.2811C38.37 16.6265 38.4543 16.9697 38.631 17.2671C39.3933 18.5497 39.9668 19.9354 40.3337 21.3816C40.4192 21.7167 40.6022 22.019 40.8596 22.25C41.1171 22.481 41.4373 22.6303 41.7797 22.6791L46.0828 23.2956V27.2529L41.7815 27.8676C41.439 27.9164 41.1188 28.0657 40.8614 28.2967C40.6039 28.5277 40.4209 28.83 40.3355 29.1652C39.9685 30.6113 39.395 31.997 38.6328 33.2796C38.4561 33.577 38.3717 33.9202 38.3904 34.2656C38.409 34.6111 38.5299 34.9432 38.7375 35.2198L41.3431 38.6951L38.5489 41.4893L35.0806 38.8855C34.804 38.6778 34.4719 38.557 34.1264 38.5383C33.781 38.5197 33.4378 38.604 33.1404 38.7807C31.8578 39.543 30.4721 40.1165 29.0259 40.4834C28.6908 40.5689 28.3885 40.7519 28.1575 41.0093C27.9265 41.2668 27.7772 41.587 27.7284 41.9294L27.1049 46.2307H23.1476L22.5329 41.9294C22.4841 41.587 22.3348 41.2668 22.1038 41.0093C21.8728 40.7519 21.5705 40.5689 21.2353 40.4834C19.7892 40.1165 18.4035 39.543 17.1209 38.7807C16.8235 38.604 16.4803 38.5197 16.1349 38.5383C15.7894 38.557 15.4573 38.6778 15.1807 38.8855L11.7054 41.4911L8.91117 38.6969L11.515 35.2286C11.7227 34.9519 11.8435 34.6198 11.8622 34.2744C11.8808 33.929 11.7965 33.5858 11.6198 33.2883C10.8575 32.0058 10.284 30.62 9.91708 29.1739C9.83165 28.8387 9.64861 28.5365 9.39117 28.3055C9.13374 28.0745 8.81351 27.9251 8.47108 27.8763L4.16976 27.2529V23.2956Z" fill="black"/>
<path d="M25.1263 35.7523C27.1987 35.7523 29.2246 35.1378 30.9477 33.9864C32.6708 32.8351 34.0139 31.1986 34.8069 29.2839C35.6 27.3693 35.8075 25.2624 35.4032 23.2299C34.9989 21.1973 34.001 19.3302 32.5355 17.8648C31.0701 16.3994 29.2031 15.4015 27.1705 14.9971C25.1379 14.5928 23.0311 14.8003 21.1164 15.5934C19.2018 16.3865 17.5653 17.7295 16.4139 19.4527C15.2626 21.1758 14.648 23.2017 14.648 25.2741C14.6508 28.0522 15.7556 30.7158 17.7201 32.6803C19.6846 34.6447 22.3481 35.7496 25.1263 35.7523ZM25.1263 18.2886C26.5079 18.2886 27.8585 18.6983 29.0072 19.4658C30.156 20.2334 31.0513 21.3244 31.5801 22.6008C32.1088 23.8773 32.2471 25.2818 31.9776 26.6369C31.708 27.9919 31.0427 29.2366 30.0658 30.2136C29.0888 31.1905 27.8441 31.8558 26.4891 32.1254C25.134 32.3949 23.7295 32.2566 22.4531 31.7278C21.1766 31.1991 20.0856 30.3038 19.3181 29.155C18.5505 28.0062 18.1408 26.6557 18.1408 25.2741C18.1408 23.4214 18.8768 21.6446 20.1868 20.3346C21.4968 19.0245 23.2736 18.2886 25.1263 18.2886ZM23.3799 7.8103H26.8727V11.3031H23.3799V7.8103ZM11.543 14.1601L14.0123 11.6908L16.4817 14.1601L14.0123 16.6295L11.543 14.1601ZM7.66252 23.5277H11.1553V27.0204H7.66252V23.5277ZM11.543 36.388L14.0123 33.9186L16.4817 36.388L14.0123 38.8574L11.543 36.388ZM23.3799 39.2451H26.8727V42.7378H23.3799V39.2451ZM33.7709 36.388L36.2402 33.9186L38.7096 36.388L36.2402 38.8574L33.7709 36.388ZM39.0973 23.5277H42.5901V27.0204H39.0973V23.5277ZM33.7709 14.1601L36.2402 11.6908L38.7096 14.1601L36.2402 16.6295L33.7709 14.1601Z" fill="black"/>
</svg>
