<svg width="93" height="93" viewBox="0 0 93 93" fill="none" xmlns="http://www.w3.org/2000/svg">
<g clip-path="url(#clip0_244_3299)">
<path d="M83.4763 56.6033L77.3723 50.4993C75.5297 48.6567 73.0306 47.6216 70.4248 47.6216H55.7758C54.585 47.6216 53.6196 48.587 53.6196 49.7778V81.2778C53.6196 82.4686 54.585 83.434 55.7758 83.434H61.9711C61.9711 79.2401 65.371 75.8402 69.5649 75.8402C73.7588 75.8402 77.1586 79.2399 77.1586 83.434H84.1979C85.3887 83.434 86.3541 82.4686 86.3541 81.2778V63.5505C86.3541 60.9447 85.319 58.4457 83.4764 56.6031L83.4763 56.6033Z" fill="#85FF00"/>
<path d="M69.5647 91.0279C73.7586 91.0279 77.1584 87.628 77.1584 83.4341C77.1584 79.2402 73.7586 75.8403 69.5647 75.8403C65.3707 75.8403 61.9709 79.2402 61.9709 83.4341C61.9709 87.628 65.3707 91.0279 69.5647 91.0279Z" fill="#74DE00"/>
<path d="M18.594 91.0279C22.7879 91.0279 26.1877 87.628 26.1877 83.4341C26.1877 79.2402 22.7879 75.8403 18.594 75.8403C14.4 75.8403 11.0002 79.2402 11.0002 83.4341C11.0002 87.628 14.4 91.0279 18.594 91.0279Z" fill="#74DE00"/>
<path d="M69.5647 85.8715C70.9108 85.8715 72.0021 84.7802 72.0021 83.434C72.0021 82.0879 70.9108 80.9966 69.5647 80.9966C68.2185 80.9966 67.1272 82.0879 67.1272 83.434C67.1272 84.7802 68.2185 85.8715 69.5647 85.8715Z" fill="#DCEBFD"/>
<path d="M18.594 85.8715C19.9401 85.8715 21.0314 84.7802 21.0314 83.434C21.0314 82.0879 19.9401 80.9966 18.594 80.9966C17.2478 80.9966 16.1565 82.0879 16.1565 83.434C16.1565 84.7802 17.2478 85.8715 18.594 85.8715Z" fill="#DCEBFD"/>
<path d="M69.5647 71.5278C62.989 71.5278 57.6584 76.8584 57.6584 83.4341H61.9709C61.9709 79.2402 65.3708 75.8403 69.5647 75.8403C73.7586 75.8403 77.1584 79.2402 77.1584 83.4341H81.4709C81.4709 76.8584 76.1403 71.5278 69.5647 71.5278Z" fill="#688E96"/>
<path d="M6.5107 72.559H8.85383L18.503 41.5279H14.8189C14.3589 41.5278 13.9109 41.675 13.5404 41.9477C13.17 42.2205 12.8965 42.6046 12.7599 43.0439L4.45166 69.7625C4.02005 71.1504 5.05721 72.559 6.5107 72.559ZM59.7629 39.2906L59.0662 41.5277L18.592 41.5144L19.6874 37.9968C19.8241 37.5576 20.0978 37.1736 20.4684 36.901C20.8389 36.6285 21.2869 36.4815 21.7469 36.4817L57.7049 36.4932C59.1584 36.4937 60.1949 37.9028 59.7627 39.2906H59.7629Z" fill="#85FF00"/>
<path d="M18.539 41.5278L7.86951 75.8402H30.2115L33.0883 78.8402H41.035L50.2783 49.1523C50.415 48.7131 50.6885 48.3292 51.0589 48.0566C51.4293 47.784 51.8772 47.6369 52.3371 47.637H57.1456C57.6056 47.637 58.0536 47.4898 58.424 47.2171C58.7945 46.9443 59.068 46.5602 59.2046 46.1209L60.6329 41.5276H18.539V41.5278Z" fill="#85FF00"/>
<path d="M4.95423 24.5765C3.77414 25.6195 3.66294 27.4216 4.70586 28.6016C5.74878 29.7817 7.55089 29.8928 8.73098 28.8498L15.2578 23.0815C16.4379 22.0385 16.5491 20.2364 15.5062 19.0564C14.4632 17.8763 12.6611 17.7652 11.4811 18.8081L4.95423 24.5765Z" fill="#74DE00"/>
<path d="M22.1635 13.1636C21.4465 12.3519 20.2072 12.2754 19.3955 12.9923L13.6252 18.0904C14.3273 18.1522 15.0081 18.4705 15.5116 19.0403C16.0151 19.6102 16.2469 20.325 16.2217 21.0294L21.992 15.9313C22.8037 15.2144 22.8804 13.9751 22.1635 13.1636Z" fill="#74DE00"/>
<path d="M27.9054 29.7782L40.1091 20.0291C40.5149 19.7049 40.5811 19.1132 40.2569 18.7073L39.0319 17.174C38.7077 16.7682 38.116 16.702 37.7101 17.0262L25.5064 26.7753C25.1006 27.0995 25.0344 27.6913 25.3586 28.0971L26.5836 29.6304C26.9077 30.0362 27.4995 30.1024 27.9054 29.7782Z" fill="#85FF00"/>
<path d="M79.6432 62.6626V63.8016C79.6432 64.9924 78.6777 65.9579 77.4869 65.9579H65.2056C64.0148 65.9579 63.0494 64.9924 63.0494 63.8016V54.2976C63.0494 53.1068 64.0148 52.1414 65.2056 52.1414H69.1217C70.0647 52.1413 70.9985 52.3271 71.8697 52.6879C72.741 53.0488 73.5326 53.5778 74.1993 54.2446L77.5397 57.585C78.2066 58.2518 78.7355 59.0434 79.0964 59.9146C79.4573 60.7858 79.643 61.7196 79.643 62.6626H79.6432Z" fill="#B4D9FB"/>
<path d="M54.2136 30.0617C53.7377 30.0616 53.2652 30.1411 52.8156 30.2969C52.8823 29.9492 52.9184 29.5909 52.9184 29.2238C52.9184 26.0914 50.3791 23.552 47.2466 23.552C46.8935 23.552 46.5485 23.5858 46.2134 23.6476C45.5683 22.1068 44.0463 21.0242 42.2714 21.0242C42.2714 21.0242 42.3084 19.8839 40.3282 19.7405C40.269 19.8479 40.1892 19.9427 40.0934 20.0194L27.889 29.7676C27.6941 29.9232 27.4454 29.9951 27.1975 29.9674C26.9496 29.9396 26.7229 29.8146 26.5672 29.6197L25.8165 28.6799C24.9069 29.6134 24.3497 30.2324 24.3497 30.2324C22.9083 31.0319 21.9322 32.5685 21.9322 34.3336C21.9322 35.1081 22.1212 35.8381 22.4538 36.4818L57.7053 36.4929C57.7691 36.4929 57.8309 36.499 57.8929 36.5042C58.282 35.8471 58.4868 35.0972 58.4858 34.3334C58.4858 31.9741 56.5732 30.0614 54.2138 30.0614L54.2136 30.0617Z" fill="#906F65"/>
<path d="M53.6195 81.2779V78.8404H33.0883L30.2115 75.8403H7.35648C6.78462 75.8404 6.23619 76.0676 5.83183 76.4719L2.78236 79.5212C2.37801 79.9256 2.15082 80.474 2.15076 81.0459V81.2777C2.15076 82.4685 3.11622 83.4339 4.30701 83.4339H11.0002C11.0002 79.24 14.4001 75.8403 18.594 75.8403C22.7879 75.8403 26.1877 79.24 26.1877 83.4339H55.7751C54.5845 83.4336 53.6195 82.4683 53.6195 81.2777V81.2779Z" fill="#688E96"/>
<path d="M6.8467 60.9341C6.96817 60.9341 7.08712 60.924 7.20445 60.9093L9.69816 52.8896V27.9817L8.73467 28.8329C7.55449 29.8756 5.7524 29.7642 4.70967 28.584C4.21811 28.0285 3.96338 27.3027 3.99991 26.5618L3.99506 26.5605V58.0826C3.99506 59.6576 5.27174 60.9342 6.8467 60.9342V60.9341Z" fill="#74DE00"/>
<path d="M24.6096 3.23124C24.2874 2.87992 23.8438 2.66403 23.3686 2.62721C22.8933 2.59038 22.4218 2.73537 22.0494 3.03286L15.3098 8.41612C14.9374 8.71359 14.6918 9.14138 14.6227 9.613C14.5536 10.0846 14.6661 10.5649 14.9375 10.9567L17.5047 14.663L19.3956 12.9924C20.2072 12.2754 21.4463 12.352 22.1635 13.1636C22.8804 13.9753 22.8039 15.2144 21.9922 15.9315L19.7533 17.9095L25.7455 26.5606L37.4387 17.2206L24.6096 3.23124Z" fill="#85FF00"/>
<path d="M55.5259 47.6372H52.337C51.877 47.6372 51.4292 47.7843 51.0588 48.0569C50.6884 48.3295 50.4148 48.7134 50.2781 49.1525L41.0348 78.8403H53.6194V49.7778C53.6194 48.6717 54.4528 47.7612 55.5257 47.6372H55.5259Z" fill="#74DE00"/>
<path d="M79.6431 77.0935V77.0978C80.8398 78.9943 81.4736 81.1915 81.4709 83.434H88.4007C89.5915 83.434 90.557 82.4685 90.557 81.2777V79.2498C90.557 78.059 89.5915 77.0935 88.4007 77.0935H79.6431Z" fill="#688E96"/>
<path d="M69.5646 79.9186C67.626 79.9186 66.0491 81.4957 66.0491 83.4341C66.0491 85.3726 67.6262 86.9497 69.5646 86.9497C71.5031 86.9497 73.0802 85.3726 73.0802 83.4341C73.0802 81.4957 71.5031 79.9186 69.5646 79.9186ZM69.5646 84.7937C68.8152 84.7937 68.2053 84.1838 68.2053 83.4343C68.2053 82.6848 68.8152 82.075 69.5646 82.075C70.3141 82.075 70.924 82.6848 70.924 83.4343C70.924 84.1838 70.3141 84.7937 69.5646 84.7937ZM18.594 79.9186C16.6555 79.9186 15.0784 81.4957 15.0784 83.4341C15.0784 85.3726 16.6555 86.9497 18.594 86.9497C20.5324 86.9497 22.1095 85.3726 22.1095 83.4341C22.1095 81.4957 20.5324 79.9186 18.594 79.9186ZM18.594 84.7937C17.8445 84.7937 17.2346 84.1838 17.2346 83.4343C17.2346 82.6848 17.8445 82.075 18.594 82.075C19.3434 82.075 19.9533 82.6848 19.9533 83.4343C19.9533 84.1838 19.3434 84.7937 18.594 84.7937ZM32.8886 33.6372C33.0095 33.711 33.1436 33.7603 33.2835 33.7823C33.4234 33.8043 33.5663 33.7985 33.7039 33.7652C33.8416 33.7319 33.9713 33.6718 34.0857 33.5884C34.2001 33.5049 34.297 33.3998 34.3707 33.2789C34.9423 32.3425 35.9374 31.7837 37.0324 31.7837C37.6475 31.7837 38.2428 31.9636 38.7544 32.3039C38.8814 32.3885 39.0251 32.4451 39.1757 32.4701C39.3263 32.495 39.4806 32.4876 39.6281 32.4485C39.7757 32.4093 39.9133 32.3392 40.0318 32.2429C40.1502 32.1466 40.2469 32.0262 40.3153 31.8897C40.8484 30.8263 41.9149 30.1656 43.0988 30.1656C43.713 30.1647 44.3137 30.3457 44.8252 30.6857C45.3367 31.0256 45.7361 31.5094 45.9731 32.076C46.0267 32.2084 46.106 32.3288 46.2064 32.4302C46.3069 32.5317 46.4265 32.6122 46.5583 32.667C46.6901 32.7219 46.8315 32.75 46.9743 32.7498C47.117 32.7495 47.2583 32.721 47.39 32.6657C47.5216 32.6104 47.641 32.5295 47.7411 32.4277C47.8412 32.326 47.9201 32.2053 47.9732 32.0728C48.0264 31.9403 48.0526 31.7985 48.0505 31.6558C48.0484 31.513 48.018 31.3721 47.961 31.2412C47.5601 30.2827 46.8844 29.4643 46.0191 28.8892C45.1538 28.3141 44.1376 28.008 43.0987 28.0095C41.4646 28.0095 39.9631 28.7513 38.9759 29.9987C38.3573 29.7531 37.6978 29.6272 37.0322 29.6278C35.1795 29.6278 33.4965 30.5728 32.5302 32.1555C32.4564 32.2763 32.4071 32.4105 32.3852 32.5504C32.3633 32.6903 32.3691 32.8331 32.4024 32.9707C32.4357 33.1084 32.4958 33.2381 32.5792 33.3525C32.6626 33.4669 32.7678 33.5638 32.8886 33.6375V33.6372ZM31.2711 50.9111L32.436 52.9286L32.4028 52.9196C32.1266 52.8459 31.8325 52.8848 31.5849 53.0278C31.3374 53.1707 31.1567 53.406 31.0824 53.682C31.0084 53.9583 31.0472 54.2526 31.1902 54.5002C31.3332 54.7479 31.5688 54.9285 31.845 55.0025L34.1786 55.6277C34.272 55.6526 34.3658 55.6647 34.4582 55.6647C34.6954 55.6644 34.9259 55.5859 35.114 55.4415C35.3022 55.297 35.4374 55.0945 35.499 54.8654L36.1244 52.532C36.1611 52.3953 36.1705 52.2526 36.152 52.1123C36.1335 51.9719 36.0876 51.8365 36.0168 51.7139C35.946 51.5913 35.8518 51.4838 35.7395 51.3976C35.6272 51.3114 35.499 51.2482 35.3622 51.2115C35.1451 51.1533 34.9152 51.1644 34.7048 51.2434C34.4943 51.3224 34.3139 51.4652 34.1887 51.6519L33.1386 49.8329C32.5539 48.8202 31.5067 48.2157 30.3374 48.2157C29.1682 48.2157 28.1212 48.8202 27.5365 49.8329L25.9087 52.652C25.768 52.8995 25.7309 53.1926 25.8054 53.4674C25.88 53.7422 26.0603 53.9762 26.3068 54.1186C26.5534 54.2609 26.8462 54.3 27.1215 54.2272C27.3967 54.1545 27.632 53.9758 27.776 53.7302L29.4038 50.9111C29.6846 50.4245 30.1502 50.372 30.3374 50.372C30.5247 50.372 30.9902 50.4245 31.2711 50.9111ZM27.5246 63.6387H23.9226C23.3609 63.6387 23.0825 63.2617 22.9889 63.0996C22.8953 62.9375 22.7081 62.5081 22.9889 62.0215L24.2861 59.7745C24.3847 59.9211 24.5177 60.0413 24.6736 60.1245C24.8295 60.2077 25.0034 60.2514 25.18 60.2518C25.2724 60.2518 25.3664 60.2397 25.46 60.2146C25.5968 60.1779 25.725 60.1147 25.8373 60.0285C25.9496 59.9423 26.0439 59.8348 26.1147 59.7122C26.1855 59.5896 26.2314 59.4542 26.2498 59.3138C26.2683 59.1734 26.2589 59.0308 26.2222 58.894L25.5967 56.5606C25.5226 56.2846 25.3419 56.0493 25.0944 55.9063C24.8468 55.7634 24.5527 55.7246 24.2766 55.7984L21.943 56.4233C21.8062 56.46 21.678 56.5232 21.5656 56.6093C21.4533 56.6955 21.359 56.803 21.2882 56.9256C21.2174 57.0482 21.1714 57.1835 21.1529 57.3239C21.1344 57.4643 21.1438 57.6069 21.1804 57.7437C21.217 57.8804 21.2802 58.0087 21.3664 58.121C21.4525 58.2333 21.56 58.3276 21.6826 58.3984C21.8052 58.4692 21.9406 58.5152 22.0809 58.5337C22.2213 58.5522 22.364 58.5429 22.5007 58.5063L22.5341 58.4973L21.122 60.9434C20.5375 61.9561 20.5375 63.165 21.122 64.1777C21.7065 65.1905 22.7537 65.7949 23.9229 65.7949H27.525C27.8109 65.7949 28.0851 65.6813 28.2873 65.4792C28.4895 65.277 28.6031 65.0027 28.6031 64.7168C28.6031 64.4309 28.4895 64.1566 28.2873 63.9545C28.0851 63.7523 27.8109 63.6387 27.525 63.6387H27.5246ZM37.678 57.6957C37.534 57.4501 37.2988 57.2714 37.0235 57.1986C36.7483 57.1259 36.4554 57.1649 36.2089 57.3073C35.9623 57.4496 35.7821 57.6837 35.7075 57.9585C35.6329 58.2332 35.67 58.5263 35.8107 58.7738L37.6857 62.0215C37.9666 62.5081 37.7794 62.9375 37.6857 63.0996C37.5921 63.2617 37.3138 63.6387 36.7521 63.6387H33.6245C33.9303 63.2171 33.8965 62.6258 33.5165 62.2459C33.3143 62.0438 33.0401 61.9302 32.7541 61.9302C32.4682 61.9302 32.194 62.0438 31.9918 62.2459L30.2837 63.9544C30.0816 64.1566 29.968 64.4307 29.968 64.7166C29.968 65.0025 30.0816 65.2767 30.2837 65.4789L31.9918 67.1875C32.2022 67.3981 32.4782 67.5034 32.7542 67.5034C33.0302 67.5034 33.3059 67.3981 33.5165 67.1877C33.8965 66.8077 33.9301 66.2163 33.6243 65.7948H36.7521C37.9213 65.7948 38.9685 65.1903 39.5531 64.1776C40.1378 63.1648 40.1376 61.9557 39.5531 60.9432L37.678 57.6955V57.6957ZM69.1219 51.0634H65.2056C63.4222 51.0634 61.9712 52.5144 61.9712 54.2978V63.802C61.9712 65.5854 63.4222 67.0364 65.2056 67.0364H77.4869C79.2703 67.0364 80.7213 65.5854 80.7213 63.802V62.663C80.7213 60.457 79.8622 58.383 78.3023 56.823L74.9619 53.4824C73.4019 51.9225 71.3277 51.0634 69.1219 51.0634ZM78.565 62.663V63.802C78.565 64.3966 78.0815 64.8801 77.4869 64.8801H65.2056C64.611 64.8801 64.1275 64.3966 64.1275 63.802V54.2978C64.1275 53.7032 64.611 53.2197 65.2056 53.2197H69.1219C70.7518 53.2197 72.2846 53.8545 73.4373 55.007L76.7777 58.3474C77.9304 59.5003 78.5652 61.0329 78.5652 62.663H78.565Z" fill="black"/>
<path d="M88.4008 76.0156H87.4319V72.5201C87.4319 72.2342 87.3183 71.9599 87.1161 71.7578C86.9139 71.5556 86.6397 71.442 86.3538 71.442C86.0678 71.442 85.7936 71.5556 85.5914 71.7578C85.3892 71.9599 85.2756 72.2342 85.2756 72.5201V76.0156H80.2119C77.8628 72.6543 73.9674 70.4498 69.5647 70.4498C62.7683 70.4498 57.1788 75.6993 56.6286 82.356H55.7722C55.487 82.3548 55.2138 82.2408 55.0124 82.0388C54.8111 81.8368 54.6978 81.5633 54.6975 81.2781V49.778C54.6975 49.2434 55.0889 48.7997 55.5999 48.7155L70.4247 48.6998C72.7611 48.6998 74.9576 49.6096 76.6097 51.2618L82.7137 57.3658C84.3657 59.0179 85.2755 61.2145 85.2755 63.551V63.8953C85.2755 64.1812 85.3891 64.4555 85.5912 64.6576C85.7934 64.8598 86.0677 64.9734 86.3536 64.9734C86.6395 64.9734 86.9138 64.8598 87.1159 64.6576C87.3181 64.4555 87.4317 64.1812 87.4317 63.8953V63.551C87.4317 60.6386 86.2975 57.9006 84.2383 55.8413L78.1343 49.7374C76.0751 47.6778 73.337 46.5438 70.4245 46.5438H60.1974C60.2092 46.5096 60.2229 46.4764 60.2337 46.4417L61.662 41.8483C61.7122 41.687 61.7237 41.5161 61.6957 41.3494C61.6676 41.1828 61.6008 41.0251 61.5006 40.889C61.4004 40.753 61.2696 40.6424 61.1188 40.5661C60.968 40.4899 60.8014 40.4502 60.6324 40.4502H60.5309L60.792 39.6118C61.1009 38.6197 60.9249 37.5707 60.3091 36.7334C60.049 36.3781 59.7191 36.0795 59.3397 35.856C59.4872 35.3622 59.5625 34.8497 59.5634 34.3344C59.5634 31.3843 57.1634 28.9842 54.2132 28.9842C54.1394 28.9842 54.0657 28.9858 53.9922 28.9887C53.8677 25.3753 50.8894 22.4744 47.2462 22.4744C47.1068 22.4744 46.9665 22.4789 46.8261 22.4879C46.4169 21.8222 45.8664 21.2546 45.2136 20.8251C44.5607 20.3957 43.8215 20.1149 43.0482 20.0027C42.7747 19.5509 42.2858 19.1098 41.4768 18.8595C41.4123 18.5546 41.2775 18.2689 41.0833 18.0252L39.8584 16.4919C39.3148 15.8113 38.4178 15.5786 37.6364 15.8413L25.4041 2.50254C24.3566 1.36027 22.5875 1.22352 21.3766 2.1906L14.6371 7.57404C13.4262 8.5413 13.1689 10.2968 14.0513 11.5706L16.0731 14.4897L13.2307 17.001C12.3229 17.0317 11.4624 17.3746 10.7729 17.9837L4.24485 23.7511C3.45494 24.449 3.01597 25.3965 2.93529 26.3722C2.92367 26.4343 2.91753 26.4974 2.91696 26.5605V58.0826C2.91696 59.8793 4.12949 61.3969 5.77884 61.8636L3.42224 69.4426C3.11372 70.4347 3.29017 71.4837 3.90614 72.3205C4.52229 73.1573 5.47158 73.6372 6.51071 73.6372H7.42622L7.07205 74.7763C6.31508 74.8405 5.60545 75.1712 5.06944 75.7096L2.01996 78.759C1.71873 79.0588 1.47992 79.4152 1.31735 79.8078C1.15477 80.2004 1.07166 80.6214 1.07283 81.0463V81.2779C1.07283 83.0613 2.5238 84.5123 4.3072 84.5123H9.99162C10.5244 88.7869 14.1776 92.1062 18.5942 92.1062C23.0107 92.1062 26.6639 88.7869 27.1967 84.5123H60.9625C61.4953 88.7869 65.1487 92.1062 69.565 92.1062C73.9814 92.1062 77.6346 88.7869 78.1674 84.5125H88.401C90.1843 84.5125 91.6353 83.0613 91.6353 81.2779V79.2501C91.6353 77.4667 90.1843 76.0158 88.401 76.0158L88.4008 76.0156ZM24.3071 76.9185H29.7515L32.3101 79.5867C32.4107 79.6916 32.5315 79.7751 32.6653 79.8322C32.799 79.8892 32.9429 79.9186 33.0883 79.9186H52.5414V81.2779C52.5414 81.6561 52.6101 82.018 52.7301 82.3558H27.1963C26.9273 80.1982 25.8638 78.2852 24.3071 76.9185ZM52.5414 49.7778V77.7621H42.4998L51.3077 49.4727C51.3754 49.2527 51.512 49.0604 51.6973 48.9239C51.8827 48.7875 52.107 48.7143 52.3371 48.7151H52.7245C52.6042 49.0564 52.5423 49.4157 52.5416 49.7776L52.5414 49.7778ZM52.3369 46.559C50.9131 46.559 49.672 47.4724 49.2487 48.8319L40.2415 77.7621H33.5481L30.9895 75.094C30.8889 74.989 30.7681 74.9055 30.6343 74.8485C30.5006 74.7915 30.3567 74.7621 30.2113 74.7621H9.33432L19.3329 42.6057H59.0619L59.0666 42.6061L59.0709 42.6057H59.1685L58.175 45.8008C58.1165 45.991 58.0062 46.1612 57.8564 46.2924C57.7067 46.4235 57.5234 46.5104 57.327 46.5432L52.3369 46.559ZM10.7763 28.4679L15.9765 23.8737C16.657 23.2733 17.1077 22.455 17.2512 21.5589L19.558 19.5209L24.3566 26.4484C23.9587 27.1014 23.955 27.945 24.3903 28.6072C24.1463 28.8635 23.9046 29.1221 23.6653 29.3829C22.8086 29.8947 22.0993 30.6198 21.6065 31.4876C21.1138 32.3554 20.8545 33.3361 20.8539 34.334C20.8539 34.7243 20.8967 35.1138 20.9754 35.4957C19.8895 35.7589 19.0028 36.5697 18.6581 37.6765L17.7945 40.4498H14.8189C13.3945 40.4498 12.1533 41.3637 11.7305 42.724L10.7765 45.792V28.4679H10.7763ZM16.8264 19.057C16.6857 18.7952 16.5157 18.5503 16.3197 18.3269C16.1221 18.1049 15.9002 17.9059 15.6581 17.7336L20.1096 13.8006C20.1963 13.7234 20.2974 13.6643 20.4071 13.6266C20.5168 13.5889 20.6329 13.5734 20.7486 13.581C20.984 13.5955 21.1994 13.7008 21.3556 13.8775C21.5117 14.0541 21.5895 14.2811 21.5752 14.5164C21.5683 14.6322 21.5386 14.7455 21.4877 14.8498C21.4368 14.954 21.3657 15.0471 21.2785 15.1236L16.8266 19.057H16.8264ZM20.0527 40.4498L20.7166 38.3179C20.7843 38.0979 20.921 37.9055 21.1064 37.769C21.2917 37.6326 21.5161 37.5594 21.7462 37.5601H21.7466L57.7044 37.5714C58.0508 37.5714 58.3671 37.7319 58.5725 38.0108C58.6734 38.1465 58.7406 38.3042 58.7686 38.471C58.7966 38.6378 58.7845 38.8089 58.7335 38.9701L58.2727 40.4497H20.0529L20.0527 40.4498ZM40.7333 20.8883C41.031 20.9604 41.1629 21.059 41.1958 21.1038C41.2157 21.3753 41.3377 21.6292 41.5371 21.8145C41.7366 21.9997 41.9988 22.1026 42.271 22.1025C42.9012 22.1015 43.5176 22.2874 44.0422 22.6366C44.5668 22.9857 44.9761 23.4826 45.2185 24.0643C45.3135 24.2913 45.4834 24.479 45.6998 24.5961C45.9163 24.7132 46.1663 24.7528 46.4083 24.7081C46.6847 24.6569 46.9651 24.6308 47.2462 24.6303C49.7793 24.6303 51.8399 26.6912 51.8399 29.224C51.8399 29.5123 51.8119 29.805 51.7564 30.0943C51.7208 30.2801 51.7348 30.472 51.7968 30.6507C51.8588 30.8294 51.9668 30.9886 52.1099 31.1124C52.2529 31.2362 52.426 31.3201 52.6118 31.3559C52.7975 31.3916 52.9894 31.3778 53.1682 31.316C53.5043 31.1994 53.8575 31.1399 54.2132 31.1401C55.9744 31.1401 57.4072 32.5729 57.4072 34.334C57.4072 34.7043 57.3418 35.0698 57.2176 35.415L23.1717 35.4042C23.0639 35.0577 23.0093 34.6969 23.01 34.334C23.0105 33.6893 23.1835 33.0565 23.5109 32.5012C23.8384 31.9458 24.3084 31.4882 24.8723 31.1756C24.9767 31.1178 25.3691 30.712 25.7437 30.3142C25.933 30.5449 26.1711 30.7306 26.4409 30.858C26.7107 30.9854 27.0054 31.0513 27.3038 31.0509C27.7455 31.0509 28.1904 30.9068 28.5616 30.6105L40.7333 20.8883ZM39.3127 19.2634L27.3234 28.8399L26.2702 27.5213L38.2595 17.9449L39.3127 19.2634ZM15.8237 10.3428C15.7085 10.1754 15.6609 9.97066 15.6904 9.76959C15.7199 9.56852 15.8243 9.38604 15.9828 9.25879L22.7223 3.87535C22.8815 3.74886 23.0826 3.6873 23.2853 3.70303C23.488 3.71877 23.6772 3.81063 23.815 3.96016L35.8641 17.0987L25.9746 24.998L21.1851 18.0834L22.7061 16.7395C23.006 16.476 23.2507 16.1556 23.426 15.7969C23.6013 15.4382 23.7037 15.0483 23.7273 14.6498C23.7774 13.8396 23.509 13.0585 22.9715 12.45C22.4341 11.8416 21.6918 11.4792 20.8818 11.4289C20.071 11.3802 19.2903 11.6472 18.682 12.1848L17.7004 13.0522L15.8237 10.3428ZM5.67265 25.3669L12.2007 19.5994C12.3749 19.4447 12.578 19.326 12.7984 19.2503C13.0187 19.1746 13.2519 19.1434 13.4844 19.1585C13.717 19.1723 13.9445 19.232 14.1538 19.3343C14.3631 19.4366 14.5501 19.5793 14.7039 19.7543C15.3513 20.4871 15.2818 21.6101 14.549 22.2577L8.02116 28.025C7.28822 28.6726 6.16517 28.6029 5.51794 27.8703C4.87034 27.1375 4.93988 26.0145 5.67265 25.3669ZM5.07339 58.0826V30.2026C5.55006 30.444 6.07103 30.5854 6.60433 30.6182C7.30349 30.6632 8.00481 30.516 8.62024 30.2019V52.7263L6.42015 59.802C5.64821 59.6101 5.07357 58.9131 5.07357 58.0828L5.07339 58.0826ZM6.51071 71.4808C6.16427 71.4808 5.84784 71.3207 5.64246 71.042C5.43708 70.7633 5.37832 70.4135 5.48128 70.0827L13.7895 43.364C13.8571 43.144 13.9937 42.9515 14.179 42.815C14.3644 42.6785 14.5887 42.6052 14.8189 42.6059H17.0749L8.09663 71.4808H6.51071ZM3.2289 81.2775V81.0459C3.22849 80.9043 3.25618 80.764 3.31037 80.6331C3.36456 80.5022 3.44418 80.3834 3.54461 80.2835L6.59408 77.234C6.69395 77.1336 6.81274 77.054 6.94357 76.9998C7.07441 76.9456 7.2147 76.9179 7.35632 76.9183H12.8806C11.324 78.2848 10.2604 80.198 9.99144 82.3557H4.30702C3.71244 82.3557 3.2289 81.8721 3.2289 81.2775ZM18.594 89.9496C15.0013 89.9496 12.0783 87.0266 12.0783 83.434C12.0783 79.8413 15.0013 76.9183 18.594 76.9183C22.1866 76.9183 25.1096 79.8413 25.1096 83.434C25.1096 87.0266 22.1866 89.9496 18.594 89.9496ZM85.2758 78.1716V81.2777C85.2755 81.563 85.1623 81.8364 84.9609 82.0384C84.7595 82.2404 84.4863 82.3545 84.2011 82.3557H82.5009C82.3822 80.9107 82.0204 79.4961 81.4307 78.1716H85.2758ZM69.5649 72.6058C75.1716 72.6058 79.7961 76.8896 80.3391 82.3558H78.1674C77.6346 78.0814 73.9812 74.7621 69.565 74.7621C65.1488 74.7621 61.4953 78.0814 60.9625 82.3558H58.7908C59.3336 76.8896 63.9581 72.6058 69.5649 72.6058ZM69.5649 89.9494C65.972 89.9494 63.0492 87.0265 63.0492 83.4338C63.0492 79.8411 65.9722 76.9181 69.5649 76.9181C73.1575 76.9181 76.0805 79.8411 76.0805 83.4338C76.0805 87.0265 73.1575 89.9494 69.5649 89.9494ZM89.4791 81.2774C89.4791 81.8719 88.9955 82.3555 88.401 82.3555H87.2436C87.3677 82.0096 87.4315 81.645 87.4323 81.2775V78.1715H88.4011C88.9957 78.1715 89.4793 78.655 89.4793 79.2496V81.2774H89.4791Z" fill="black"/>
<path d="M86.3539 69.2856C86.9494 69.2856 87.4321 68.803 87.4321 68.2075C87.4321 67.6121 86.9494 67.1294 86.3539 67.1294C85.7585 67.1294 85.2758 67.6121 85.2758 68.2075C85.2758 68.803 85.7585 69.2856 86.3539 69.2856Z" fill="black"/>
</g>
<defs>
<clipPath id="clip0_244_3299">
<rect width="92" height="92" fill="white" transform="translate(0.353882 0.824707)"/>
</clipPath>
</defs>
</svg>
