<svg width="125" height="64" viewBox="0 0 125 64" fill="none" xmlns="http://www.w3.org/2000/svg">
<path d="M39.4642 34.9414H36.1991V38.6915H39.4642V34.9414Z" fill="#00FFFF"/>
<path d="M37.5954 45.8904H37.5883V45.894L43.1251 52.3242L43.1412 52.326C43.2193 51.0622 43.5737 49.8308 44.1794 48.7189C44.7851 47.6069 45.6275 46.6414 46.647 45.8904H37.5954Z" fill="#85FF00"/>
<path d="M92.7198 41.7266V45.8904H60.7807L60.779 45.8921C59.2892 44.7881 57.4833 44.1934 55.629 44.1963H51.7933C49.9404 44.1933 48.1359 44.7874 46.647 45.8904H37.5883V41.7266H92.7198Z" fill="#B0B5CA"/>
<path d="M42.8898 34.9416C45.2211 36.9926 48.2193 38.1247 51.3244 38.1264H79.763C81.4985 38.1255 83.2157 37.7715 84.8101 37.086C86.4045 36.4006 87.8428 35.398 89.0375 34.1392V41.7267H39.4642V34.9416H42.8898Z" fill="#6D7486"/>
<path d="M48.8992 8.07198C49.6982 7.91627 50.5103 7.83804 51.3243 7.83838H79.763C83.162 7.84807 86.4191 9.2025 88.8227 11.6058C91.2264 14.0091 92.5813 17.266 92.5914 20.665V25.2978C92.5818 28.6972 91.2271 31.9545 88.8234 34.3582C86.4197 36.7619 83.1623 38.1166 79.763 38.1262H51.3243C48.2193 38.1245 45.2211 36.9924 42.8897 34.9414C41.5116 33.7406 40.4065 32.2588 39.6486 30.5954C38.8907 28.932 38.4977 27.1257 38.4959 25.2978V20.665C38.5057 17.6866 39.5478 14.8037 41.4448 12.5075C43.3417 10.2112 45.9761 8.64373 48.8992 8.07198Z" fill="#85FF00"/>
<path d="M96.4467 21.6066C96.4604 20.7316 96.8175 19.8972 97.441 19.2833C98.0646 18.6694 98.9045 18.3254 99.7796 18.3254H113.619C114.241 18.3255 114.851 18.4987 115.38 18.8256C115.909 19.1525 116.337 19.6202 116.615 20.1764C116.918 20.7809 117.275 21.5031 117.66 22.3038L122.118 34.5545V48.0516L122.116 48.0766C122.035 48.0601 121.953 48.0518 121.87 48.0516H116.176C116.176 48.0516 115.363 39.2532 103.908 39.2532H96.1507L96.4467 21.6066Z" fill="#85FF00"/>
<path d="M121.87 48.0518C121.953 48.0519 122.035 48.0603 122.116 48.0767C122.391 48.1341 122.638 48.2843 122.816 48.5021C122.993 48.72 123.091 48.9922 123.091 49.2733V53.5583C123.091 53.882 122.962 54.1923 122.733 54.4212C122.504 54.6501 122.194 54.779 121.87 54.7798H113.282V52.8664C113.285 51.1522 112.777 49.476 111.823 48.0518H121.87Z" fill="#85FF00"/>
<path d="M92.7198 45.8905V48.7241C93.4649 47.3539 94.5658 46.2101 95.9065 45.4133C97.2472 44.6165 98.7781 44.1961 100.338 44.1965H104.614C106.04 44.1957 107.445 44.5472 108.702 45.2197C109.96 45.8923 111.032 46.8651 111.823 48.0518H116.176C116.176 48.0518 115.363 39.2534 103.908 39.2534H96.1507L92.7198 41.7267V45.8905Z" fill="#85FF00"/>
<path d="M60.7807 45.8904H92.7198V48.7239C92.0275 49.9947 91.6658 51.4192 91.6678 52.8663V54.7797H64.2972V52.8663C64.2982 51.5095 63.9803 50.1714 63.3692 48.96C62.7581 47.7485 61.8708 46.6977 60.779 45.8922L60.7807 45.8904Z" fill="#85FF00"/>
<path d="M53.7888 47.9338C52.3995 47.9338 51.0415 48.3458 49.8864 49.1176C48.7313 49.8894 47.831 50.9864 47.2994 52.2699C46.7677 53.5534 46.6286 54.9657 46.8997 56.3282C47.1707 57.6908 47.8397 58.9423 48.822 59.9247C49.8043 60.907 51.0559 61.576 52.4184 61.847C53.781 62.118 55.1933 61.9789 56.4768 61.4473C57.7602 60.9157 58.8572 60.0154 59.6291 58.8603C60.4009 57.7052 60.8128 56.3471 60.8128 54.9579C60.8129 54.0355 60.6313 53.1221 60.2783 52.2698C59.9253 51.4176 59.4079 50.6432 58.7557 49.991C58.1034 49.3387 57.3291 48.8213 56.4768 48.4684C55.6246 48.1154 54.7112 47.9338 53.7888 47.9338ZM102.246 47.9338C100.857 47.9338 99.4985 48.3458 98.3434 49.1176C97.1883 49.8894 96.288 50.9864 95.7564 52.2699C95.2247 53.5534 95.0856 54.9657 95.3567 56.3282C95.6277 57.6908 96.2967 58.9423 97.279 59.9247C98.2613 60.907 99.5129 61.576 100.875 61.847C102.238 62.118 103.65 61.9789 104.934 61.4473C106.217 60.9157 107.314 60.0154 108.086 58.8603C108.858 57.7052 109.27 56.3471 109.27 54.9579C109.27 54.0355 109.088 53.1221 108.735 52.2698C108.382 51.4176 107.865 50.6432 107.213 49.991C106.56 49.3387 105.786 48.8213 104.934 48.4684C104.082 48.1154 103.168 47.9338 102.246 47.9338Z" fill="#6D7486"/>
<path d="M101.379 23.4131V27.247C101.379 27.7526 101.546 28.244 101.854 28.645C102.162 29.0461 102.594 29.3344 103.082 29.4653L110.775 31.5214L110.786 31.4786V22.304H102.487C102.341 22.304 102.197 22.3327 102.062 22.3885C101.928 22.4443 101.806 22.526 101.703 22.629C101.6 22.732 101.519 22.8543 101.463 22.9888C101.407 23.1234 101.379 23.2676 101.379 23.4131Z" fill="#92DDDB"/>
<path d="M110.786 31.4786L110.775 31.5214L122.118 34.5546C122.118 32.0403 119.554 26.2431 117.66 22.304H110.786V31.4786Z" fill="#98EAE8"/>
<path d="M110.381 14.604H100.309V18.3256H110.381V14.604Z" fill="#85FF00"/>
<path d="M66.5798 7.79375V7.83834H78.6967V7.01984C78.6942 6.16932 78.3552 5.35435 77.7538 4.75294C77.1524 4.15152 76.3374 3.81255 75.4869 3.81006H69.7895C68.939 3.81255 68.124 4.15152 67.5226 4.75294C66.9212 5.35435 66.5823 6.16932 66.5798 7.01984V7.79375Z" fill="#85FF00"/>
<path d="M63.9013 34.9414H76.7155L80.2819 41.7265H60.3349L63.9013 34.9414Z" fill="#CCD3DF"/>
<path d="M69.0156 54.7797V56.652C69.0172 57.2191 69.2432 57.7624 69.6441 58.1633C70.0451 58.5643 70.5884 58.7902 71.1554 58.7919H84.8255C85.3926 58.7902 85.9359 58.5643 86.3368 58.1633C86.7378 57.7624 86.9637 57.2191 86.9654 56.652V50.8637C86.9637 50.2967 86.7378 49.7534 86.3368 49.3524C85.9359 48.9515 85.3926 48.7255 84.8255 48.7239H71.1554C70.5884 48.7255 70.0451 48.9515 69.6441 49.3524C69.2432 49.7534 69.0172 50.2967 69.0156 50.8637V54.7797Z" fill="#B0B5CA"/>
<path d="M53.7888 53.2979C53.4605 53.2982 53.1397 53.3959 52.8669 53.5785C52.5941 53.7611 52.3816 54.0206 52.2562 54.3239C52.1309 54.6273 52.0982 54.9611 52.1625 55.283C52.2267 55.6049 52.385 55.9006 52.6173 56.1326C52.8495 56.3646 53.1453 56.5225 53.4673 56.5864C53.7893 56.6503 54.123 56.6174 54.4263 56.4916C54.7295 56.3659 54.9887 56.1532 55.171 55.8802C55.3534 55.6072 55.4507 55.2863 55.4507 54.958C55.4507 54.7399 55.4076 54.5239 55.3241 54.3223C55.2405 54.1208 55.1181 53.9378 54.9637 53.7836C54.8094 53.6294 54.6262 53.5071 54.4246 53.4238C54.223 53.3405 54.0069 53.2977 53.7888 53.2979ZM102.246 53.2979C101.917 53.2982 101.597 53.3959 101.324 53.5785C101.051 53.7611 100.839 54.0206 100.713 54.3239C100.588 54.6273 100.555 54.9611 100.619 55.283C100.684 55.6049 100.842 55.9006 101.074 56.1326C101.307 56.3646 101.602 56.5225 101.924 56.5864C102.246 56.6503 102.58 56.6174 102.883 56.4916C103.187 56.3659 103.446 56.1532 103.628 55.8802C103.81 55.6072 103.908 55.2863 103.908 54.958C103.908 54.7399 103.865 54.5239 103.781 54.3223C103.698 54.1208 103.575 53.9378 103.421 53.7836C103.266 53.6294 103.083 53.5071 102.882 53.4238C102.68 53.3405 102.464 53.2977 102.246 53.2979Z" fill="#85FF00"/>
<path d="M87.2418 25.2978V20.665C87.2316 17.266 85.8767 14.0091 83.4731 11.6058C81.0695 9.2025 77.8124 7.84807 74.4134 7.83838H79.763C83.162 7.84807 86.4191 9.2025 88.8227 11.6058C91.2264 14.0091 92.5813 17.266 92.5914 20.665V25.2978C92.5818 28.6972 91.2271 31.9545 88.8234 34.3582C86.4197 36.7619 83.1623 38.1166 79.763 38.1262H74.4134C77.8127 38.1166 81.0701 36.7619 83.4738 34.3582C85.8775 31.9545 87.2321 28.6972 87.2418 25.2978Z" fill="#85FF00"/>
<path d="M73.347 7.83834V7.01984C73.3446 6.16932 73.0056 5.35435 72.4042 4.75294C71.8028 4.15152 70.9878 3.81255 70.1373 3.81006H75.4869C76.3374 3.81255 77.1524 4.15152 77.7538 4.75294C78.3552 5.35435 78.6942 6.16932 78.6967 7.01984V7.83834H73.347Z" fill="#85FF00"/>
<path d="M111.265 20.1764C110.987 19.6202 110.559 19.1525 110.03 18.8256C109.501 18.4987 108.891 18.3255 108.269 18.3254H113.619C114.241 18.3255 114.851 18.4987 115.38 18.8256C115.909 19.1525 116.337 19.6202 116.615 20.1764C116.918 20.7809 117.275 21.5031 117.66 22.3038H112.31C111.925 21.5031 111.568 20.7809 111.265 20.1764ZM116.768 48.0516V34.5545C116.755 34.0549 116.69 33.558 116.574 33.0719L122.118 34.5545V48.0516L122.116 48.0766C122.035 48.0601 121.953 48.0518 121.87 48.0516H116.768Z" fill="#85FF00"/>
<path d="M117.742 53.5583V49.2733C117.741 48.9922 117.644 48.72 117.466 48.5021C117.289 48.2843 117.042 48.1341 116.766 48.0767L116.768 48.0518H121.87C121.953 48.0519 122.035 48.0603 122.116 48.0767C122.391 48.1341 122.638 48.2843 122.816 48.5021C122.993 48.72 123.091 48.9922 123.091 49.2733V53.5583C123.091 53.882 122.962 54.1923 122.733 54.4212C122.504 54.6501 122.194 54.779 121.87 54.7798H116.52C116.844 54.779 117.154 54.6501 117.383 54.4212C117.612 54.1923 117.741 53.882 117.742 53.5583Z" fill="#85FF00"/>
<path d="M112.31 22.304H117.66C119.554 26.2431 122.118 32.0403 122.118 34.5546L116.574 33.0721C115.943 30.1857 113.893 25.5963 112.31 22.304Z" fill="#D9FFFD"/>
<path d="M55.4632 54.958C55.4629 53.5665 55.0494 52.2063 54.2751 51.0501C53.5008 49.8939 52.4006 48.9937 51.114 48.4635C52.1809 48.0244 53.3396 47.8548 54.4877 47.9698C55.6357 48.0848 56.7378 48.4808 57.6964 49.1229C58.655 49.765 59.4407 50.6333 59.9841 51.6512C60.5274 52.6691 60.8116 53.8051 60.8116 54.9589C60.8116 56.1127 60.5274 57.2487 59.9841 58.2666C59.4407 59.2844 58.655 60.1528 57.6964 60.7949C56.7378 61.4369 55.6357 61.833 54.4877 61.948C53.3396 62.063 52.1809 61.8934 51.114 61.4542C52.4009 60.924 53.5013 60.0235 54.2756 58.8669C55.0499 57.7103 55.4633 56.3498 55.4632 54.958ZM103.92 54.958C103.92 53.5665 103.507 52.2065 102.732 51.0502C101.958 49.894 100.858 48.9937 99.5715 48.4635C100.638 48.0244 101.797 47.8548 102.945 47.9698C104.093 48.0848 105.195 48.4808 106.154 49.1229C107.113 49.765 107.898 50.6333 108.442 51.6512C108.985 52.6691 109.269 53.8051 109.269 54.9589C109.269 56.1127 108.985 57.2487 108.442 58.2666C107.898 59.2844 107.113 60.1528 106.154 60.7949C105.195 61.4369 104.093 61.833 102.945 61.948C101.797 62.063 100.638 61.8934 99.5715 61.4542C100.858 60.9239 101.959 60.0234 102.733 58.8668C103.507 57.7102 103.92 56.3498 103.92 54.958Z" fill="#575F72"/>
<path d="M81.6158 56.652V50.8637C81.6141 50.2967 81.3881 49.7534 80.9872 49.3524C80.5862 48.9515 80.0429 48.7255 79.4759 48.7239H84.8255C85.3926 48.7255 85.9359 48.9515 86.3368 49.3524C86.7378 49.7534 86.9637 50.2967 86.9654 50.8637V56.652C86.9637 57.2191 86.7378 57.7624 86.3368 58.1633C85.9359 58.5643 85.3926 58.7902 84.8255 58.7919H79.4759C80.0429 58.7902 80.5862 58.5643 80.9872 58.1633C81.3881 57.7624 81.6141 57.2191 81.6158 56.652Z" fill="#CCD3DF"/>
<path d="M110.381 14.604H105.031V18.3256H110.381V14.604Z" fill="#85FF00"/>
<path d="M36.1991 33.8715H40.4061C38.4789 31.429 37.4292 28.4092 37.426 25.2979V20.6651C37.4311 17.5897 38.4547 14.6026 40.3368 12.1703C42.2189 9.73808 44.8536 7.99766 47.8293 7.22091V5.44537C47.8293 5.1616 47.942 4.88946 48.1426 4.68881C48.3433 4.48816 48.6154 4.37544 48.8992 4.37544C49.1829 4.37544 49.4551 4.48816 49.6557 4.68881C49.8564 4.88946 49.9691 5.1616 49.9691 5.44537V6.83627C50.4195 6.79155 50.8718 6.769 51.3244 6.76869H56.4939V5.44554C56.4939 5.16178 56.6066 4.88964 56.8073 4.68899C57.0079 4.48834 57.2801 4.37562 57.5638 4.37562C57.8476 4.37562 58.1197 4.48834 58.3204 4.68899C58.521 4.88964 58.6337 5.16178 58.6337 5.44554V6.76869H65.5169C65.5822 5.6794 66.0606 4.65605 66.8546 3.90744C67.6486 3.15883 68.6983 2.74137 69.7895 2.74023H75.4869C76.5779 2.74159 77.6274 3.15913 78.4212 3.90768C79.2149 4.65623 79.6933 5.6794 79.7586 6.76851H79.763C83.4476 6.77248 86.9801 8.23779 89.5856 10.843C92.1912 13.4482 93.6569 16.9805 93.6614 20.6651V25.2979C93.6624 28.7162 92.3962 32.0136 90.1074 34.5527V40.6567H92.3744L95.0899 38.6991L95.377 21.5899C95.3986 20.5293 95.8005 19.5117 96.5094 18.7226C97.2183 17.9334 98.1871 17.4252 99.2393 17.2904V14.6039C99.2393 14.3202 99.352 14.048 99.5526 13.8474C99.7533 13.6467 100.025 13.534 100.309 13.534H110.381C110.665 13.534 110.937 13.6467 111.137 13.8474C111.338 14.048 111.451 14.3202 111.451 14.6039V17.2556H113.619C114.44 17.2526 115.246 17.4798 115.944 17.9113C116.643 18.3427 117.206 18.9613 117.571 19.6968C117.928 20.4084 118.279 21.123 118.624 21.8404C121.652 28.1391 123.188 32.4166 123.188 34.5545V47.4022C123.488 47.6137 123.733 47.8939 123.902 48.2194C124.071 48.5449 124.16 48.9062 124.161 49.2732V53.5582C124.161 54.1657 123.919 54.7482 123.49 55.1778C123.06 55.6074 122.478 55.849 121.87 55.8496H113.282C112.998 55.8496 112.726 55.7369 112.526 55.5363C112.325 55.3356 112.212 55.0635 112.212 54.7797V52.8663C112.212 51.8683 112.016 50.8801 111.634 49.958C111.253 49.0359 110.693 48.1981 109.987 47.4923C109.282 46.7866 108.444 46.2267 107.522 45.8448C106.6 45.4628 105.612 45.2662 104.614 45.2663H100.338C99.3395 45.2658 98.351 45.4621 97.4288 45.8438C96.5065 46.2256 95.6685 46.7854 94.9626 47.4912C94.2568 48.1971 93.697 49.0351 93.3152 49.9574C92.9335 50.8796 92.7372 51.8681 92.7377 52.8663V54.7797C92.7377 55.0635 92.625 55.3356 92.4243 55.5363C92.2236 55.7369 91.9515 55.8496 91.6677 55.8496H88.0353V56.6521C88.0344 57.5031 87.6959 58.3189 87.0941 58.9206C86.4924 59.5224 85.6765 59.8609 84.8256 59.8619H71.1555C70.3045 59.8609 69.4886 59.5224 68.8869 58.9206C68.2852 58.3189 67.9467 57.5031 67.9457 56.6521V55.8496H64.2972C64.0135 55.8496 63.7413 55.7369 63.5407 55.5363C63.34 55.3356 63.2273 55.0635 63.2273 54.7797V52.8663C63.2275 51.8684 63.0311 50.8801 62.6493 49.9581C62.2676 49.036 61.7079 48.1982 61.0023 47.4925C60.2968 46.7867 59.4591 46.2269 58.5371 45.8449C57.6152 45.4629 56.627 45.2663 55.629 45.2663H51.7933C49.8604 45.2669 48.0002 46.0039 46.5914 47.3273C45.1825 48.6507 44.3306 50.4611 44.2092 52.3902C44.1999 52.5464 44.1951 52.7065 44.1951 52.8663V54.7797C44.1951 55.0635 44.0823 55.3356 43.8817 55.5363C43.681 55.7369 43.4089 55.8496 43.1251 55.8496C42.8414 55.8496 42.5692 55.7369 42.3686 55.5363C42.1679 55.3356 42.0552 55.0635 42.0552 54.7797V52.8663C42.0552 52.8196 42.0588 52.7731 42.0593 52.7262L36.7774 46.5919C36.6102 46.3964 36.5183 46.1475 36.5183 45.8902V41.7266C36.5183 41.4428 36.6311 41.1707 36.8317 40.97C37.0324 40.7694 37.3045 40.6567 37.5883 40.6567H38.3943V39.7615H36.1991C35.9154 39.7615 35.6432 39.6488 35.4426 39.4481C35.2419 39.2475 35.1292 38.9753 35.1292 38.6916V34.9415C35.1292 34.6577 35.2419 34.3856 35.4426 34.1849C35.6432 33.9843 35.9154 33.8715 36.1991 33.8715ZM109.311 15.6739H101.379V17.2556H109.311V15.6739ZM116.986 23.3738H111.855V30.7028L120.835 33.1041C120.341 31.0164 119 27.6178 116.986 23.3738ZM114.352 52.8663V53.7098H121.87C121.91 53.7088 121.948 53.6925 121.976 53.6643C122.004 53.6361 122.021 53.5981 122.022 53.5582V49.2732C122.021 49.2395 122.009 49.2069 121.989 49.1803C121.968 49.1538 121.939 49.1347 121.907 49.1259C121.895 49.1232 121.882 49.1218 121.87 49.1216H113.606C114.1 50.3082 114.354 51.581 114.352 52.8663ZM93.7898 45.6556C95.582 44.0277 97.9165 43.126 100.338 43.1264H104.614C106.117 43.1253 107.601 43.4728 108.947 44.1418C110.294 44.8107 111.467 45.7829 112.374 46.9817H114.851C114.301 45.1839 112.629 41.8484 107.67 40.7152C107.533 40.6839 107.403 40.6259 107.289 40.5445C107.174 40.4632 107.077 40.3601 107.002 40.2411C106.927 40.1221 106.877 39.9895 106.853 39.851C106.83 39.7125 106.834 39.5706 106.865 39.4337C106.896 39.2967 106.954 39.1672 107.036 39.0526C107.117 38.938 107.22 38.8406 107.339 38.7658C107.458 38.6911 107.591 38.6405 107.729 38.617C107.868 38.5935 108.009 38.5975 108.146 38.6288C112.471 39.6171 114.714 42.0802 115.834 43.9727C116.388 44.9102 116.802 45.9239 117.063 46.9814H121.048V35.3759L102.804 30.4982C102.234 30.3448 101.714 30.0447 101.296 29.6277C100.982 29.3161 100.733 28.9452 100.564 28.5365C100.394 28.1277 100.308 27.6894 100.309 27.2469V23.413C100.31 22.8355 100.539 22.2818 100.947 21.8733C101.355 21.4647 101.909 21.2348 102.486 21.2339H115.945C115.85 21.0406 115.754 20.8466 115.658 20.6549C115.47 20.2755 115.179 19.9564 114.819 19.7337C114.458 19.5111 114.043 19.3939 113.619 19.3954H99.7796C99.1861 19.3981 98.6171 19.6327 98.1942 20.0492C97.7714 20.4657 97.5281 21.031 97.5165 21.6244L97.2389 38.1832H103.908C104.192 38.1832 104.464 38.2959 104.665 38.4966C104.865 38.6972 104.978 38.9693 104.978 39.2531C104.978 39.5369 104.865 39.809 104.665 40.0097C104.464 40.2103 104.192 40.323 103.908 40.323H96.4967L93.7903 42.274L93.7898 45.6556ZM109.716 30.1322V23.3738H102.486C102.481 23.3738 102.476 23.3749 102.472 23.3769C102.467 23.379 102.463 23.3819 102.46 23.3855C102.456 23.3892 102.453 23.3935 102.452 23.3982C102.45 23.4029 102.449 23.408 102.449 23.413V27.2469C102.448 27.4079 102.48 27.5674 102.541 27.7161C102.603 27.8648 102.694 27.9997 102.808 28.113C102.961 28.2654 103.15 28.3752 103.358 28.4315L109.716 30.1322ZM47.8293 9.44689C45.4373 10.1945 43.3463 11.6856 41.8601 13.7034C40.374 15.7212 39.5703 18.1605 39.5659 20.6665V25.2993C39.5762 27.8041 40.3822 30.2408 41.8675 32.2577C43.3527 34.2747 45.4404 35.7675 47.8293 36.5209V9.44689ZM47.8293 38.7477C45.8739 38.2355 44.0542 37.3021 42.4975 36.0128H40.5341V40.6581H47.8293V38.7477ZM56.4939 8.90837H51.3244C50.8714 8.90951 50.4189 8.93701 49.9691 8.99075V10.4187H56.4939V8.90837ZM56.4939 12.5586H49.9691V14.2295H56.4939V12.5586ZM56.4939 16.3693H49.9691V18.0384H56.4939V16.3693ZM56.4939 20.1783H49.9691V21.8491H56.4939V20.1783ZM56.4939 23.989H49.9691V25.6599H56.4939V23.989ZM56.4939 27.7997H49.9691V29.4706H56.4939V27.7997ZM56.4939 31.6104H49.9691V33.2635H56.4939V31.6104ZM56.4939 35.4033H49.9691V36.974C50.4189 37.0277 50.8714 37.0552 51.3244 37.0564H56.4939V35.4033ZM56.4939 39.1962H51.3244C50.872 39.1962 50.419 39.173 49.9691 39.1286V40.6567H56.4939V39.1962ZM75.4869 4.88009H69.7895C69.2659 4.88089 68.7607 5.07346 68.3694 5.4214C67.9781 5.76934 67.7277 6.24857 67.6657 6.76851H77.6107C77.5487 6.24855 77.2984 5.76931 76.9071 5.42136C76.5157 5.07341 76.0105 4.88085 75.4869 4.88009ZM91.5215 25.2979V20.6651C91.5177 17.5479 90.2776 14.5594 88.0733 12.3554C85.8689 10.1513 82.8802 8.91167 79.763 8.90837H58.6337V37.0564H61.5814L62.9545 34.4436C63.0452 34.271 63.1814 34.1265 63.3483 34.0257C63.5152 33.9248 63.7065 33.8715 63.9015 33.8715H65.4392C65.723 33.8715 65.9951 33.9843 66.1957 34.1849C66.3964 34.3856 66.5091 34.6577 66.5091 34.9415C66.5091 35.2252 66.3964 35.4974 66.1957 35.698C65.9951 35.8987 65.723 36.0114 65.4392 36.0114H64.5476L62.106 40.6567H78.5116L76.07 36.0114H69.0062C68.7224 36.0114 68.4502 35.8987 68.2496 35.698C68.0489 35.4974 67.9362 35.2252 67.9362 34.9415C67.9362 34.6577 68.0489 34.3856 68.2496 34.1849C68.4502 33.9843 68.7224 33.8715 69.0062 33.8715H76.7155C76.9105 33.8715 77.1018 33.9248 77.2687 34.0257C77.4356 34.1265 77.5718 34.271 77.6626 34.4436L79.0356 37.0564H79.763C82.8786 37.0468 85.8639 35.8049 88.0669 33.6018C90.27 31.3987 91.5119 28.4135 91.5215 25.2979ZM58.6337 39.1962V40.6567H59.6887L60.4555 39.1962H58.6337ZM80.1555 39.1864L80.9284 40.6567H87.9676V36.4996C85.7018 38.1772 82.9739 39.1154 80.1555 39.1864ZM70.0855 56.6521C70.0859 56.9357 70.1987 57.2077 70.3993 57.4083C70.5998 57.6089 70.8718 57.7217 71.1555 57.722H84.8256C85.1092 57.7217 85.3812 57.6089 85.5818 57.4083C85.7824 57.2077 85.8952 56.9358 85.8955 56.6521V50.8638C85.8952 50.5801 85.7824 50.3081 85.5818 50.1075C85.3812 49.9069 85.1092 49.7941 84.8256 49.7938H71.1555C70.8718 49.7942 70.5998 49.907 70.3993 50.1076C70.1987 50.3082 70.0859 50.5801 70.0855 50.8638V56.6521ZM65.3671 52.8663V53.7098H67.9457V50.8638C67.9466 50.0128 68.2851 49.1969 68.8868 48.5952C69.4886 47.9934 70.3045 47.6549 71.1555 47.654H84.8256C85.6766 47.6549 86.4924 47.9934 87.0942 48.5952C87.6959 49.1969 88.0344 50.0128 88.0353 50.8638V53.7098H90.5978V52.8663C90.5996 51.3389 90.9599 49.8332 91.6499 48.4705V46.9603H63.3646C64.6589 48.6576 65.3622 50.7318 65.3671 52.8663ZM42.4999 49.9584C42.8373 48.8761 43.3621 47.8613 44.0503 46.9603H39.9184L42.4999 49.9584ZM38.6582 44.8205H46.3062C47.921 43.7121 49.8348 43.1213 51.7933 43.1264H55.629C57.588 43.1211 59.5022 43.712 61.1174 44.8205H91.6499V42.7965H38.6582V44.8205ZM37.2691 37.6216H38.3943V36.0114H37.2691V37.6216Z" fill="black"/>
<path d="M102.246 46.864C103.847 46.8637 105.412 47.3381 106.743 48.2272C108.074 49.1164 109.112 50.3804 109.725 51.8593C110.338 53.3383 110.498 54.9658 110.186 56.536C109.874 58.1062 109.103 59.5486 107.972 60.6807C106.84 61.8128 105.397 62.5839 103.827 62.8964C102.257 63.2088 100.63 63.0486 99.1505 62.4361C97.6714 61.8235 96.4072 60.7861 95.5178 59.455C94.6283 58.1239 94.1535 56.5589 94.1535 54.958C94.156 52.8124 95.0093 50.7554 96.5263 49.238C98.0433 47.7207 100.1 46.8669 102.246 46.864ZM102.246 60.9122C103.423 60.9125 104.575 60.5636 105.554 59.9096C106.534 59.2555 107.297 58.3257 107.748 57.2378C108.199 56.1499 108.317 54.9526 108.088 53.7975C107.858 52.6424 107.291 51.5813 106.458 50.7484C105.626 49.9156 104.565 49.3483 103.41 49.1184C102.255 48.8885 101.057 49.0063 99.9694 49.4569C98.8813 49.9075 97.9513 50.6707 97.297 51.6499C96.6427 52.6291 96.2934 53.7803 96.2934 54.958C96.2952 56.5363 96.9228 58.0494 98.0387 59.1656C99.1545 60.2818 100.667 60.9099 102.246 60.9122Z" fill="black"/>
<path d="M102.246 52.2279C102.786 52.2279 103.314 52.388 103.762 52.688C104.211 52.988 104.561 53.4144 104.768 53.9133C104.975 54.4121 105.029 54.961 104.923 55.4906C104.818 56.0202 104.558 56.5067 104.176 56.8885C103.794 57.2703 103.308 57.5303 102.778 57.6357C102.249 57.741 101.7 57.6869 101.201 57.4803C100.702 57.2737 100.276 56.9237 99.9757 56.4748C99.6758 56.0258 99.5156 55.498 99.5156 54.958C99.5167 54.2343 99.8046 53.5405 100.316 53.0287C100.828 52.5169 101.522 52.229 102.246 52.2279ZM102.246 55.5483C102.362 55.5483 102.477 55.5136 102.574 55.4488C102.671 55.3839 102.746 55.2917 102.791 55.1839C102.836 55.076 102.847 54.9574 102.825 54.8429C102.802 54.7284 102.746 54.6232 102.663 54.5407C102.581 54.4581 102.475 54.4019 102.361 54.3791C102.246 54.3563 102.128 54.368 102.02 54.4127C101.912 54.4574 101.82 54.533 101.755 54.6301C101.69 54.7272 101.655 54.8413 101.655 54.958C101.656 55.1144 101.718 55.2643 101.829 55.3749C101.939 55.4855 102.089 55.5478 102.246 55.5483ZM53.7887 46.864C55.3896 46.8637 56.9547 47.3381 58.286 48.2272C59.6173 49.1164 60.655 50.3804 61.2679 51.8593C61.8808 53.3383 62.0413 54.9658 61.7292 56.536C61.4171 58.1062 60.6464 59.5486 59.5145 60.6807C58.3826 61.8128 56.9404 62.5839 55.3702 62.8964C53.8001 63.2088 52.1726 63.0486 50.6935 62.4361C49.2144 61.8235 47.9502 60.7861 47.0607 59.455C46.1713 58.1239 45.6965 56.5589 45.6965 54.958C45.699 52.8124 46.5523 50.7554 48.0693 49.238C49.5863 47.7207 51.6431 46.8669 53.7887 46.864ZM53.7887 60.9122C54.9664 60.9125 56.1178 60.5636 57.0972 59.9096C58.0766 59.2555 58.84 58.3257 59.2909 57.2378C59.7418 56.1499 59.86 54.9526 59.6305 53.7975C59.4009 52.6424 58.834 51.5813 58.0014 50.7484C57.1687 49.9156 56.1078 49.3483 54.9528 49.1184C53.7977 48.8885 52.6005 49.0063 51.5124 49.4569C50.4243 49.9075 49.4943 50.6707 48.8399 51.6499C48.1856 52.6291 47.8364 53.7803 47.8364 54.958C47.8382 56.5363 48.4658 58.0494 49.5817 59.1656C50.6975 60.2818 52.2105 60.9099 53.7887 60.9122Z" fill="black"/>
<path d="M53.7888 52.228C54.3287 52.228 54.8566 52.3881 55.3055 52.6881C55.7545 52.9881 56.1044 53.4145 56.311 53.9134C56.5177 54.4122 56.5717 54.9612 56.4664 55.4907C56.3611 56.0203 56.101 56.5068 55.7192 56.8886C55.3374 57.2704 54.851 57.5304 54.3214 57.6358C53.7918 57.7411 53.2429 57.687 52.744 57.4804C52.2451 57.2738 51.8188 56.9238 51.5188 56.4749C51.2188 56.0259 51.0587 55.4981 51.0587 54.9581C51.0597 54.2344 51.3477 53.5406 51.8594 53.0288C52.3712 52.517 53.065 52.2291 53.7888 52.228ZM53.7888 55.5484C53.9055 55.5484 54.0196 55.5138 54.1167 55.4489C54.2137 55.384 54.2894 55.2919 54.3341 55.184C54.3788 55.0761 54.3904 54.9575 54.3677 54.843C54.3449 54.7285 54.2887 54.6233 54.2061 54.5408C54.1236 54.4582 54.0184 54.402 53.9039 54.3792C53.7894 54.3564 53.6707 54.3681 53.5629 54.4128C53.455 54.4575 53.3629 54.5331 53.298 54.6302C53.2331 54.7273 53.1985 54.8414 53.1985 54.9581C53.1989 55.1145 53.2613 55.2644 53.3719 55.375C53.4825 55.4856 53.6324 55.5479 53.7888 55.5484Z" fill="black"/>
<path d="M21.2813 13.358V11.3685C21.2813 8.74588 19.1552 6.61977 16.5326 6.61977C13.9099 6.61977 11.7838 8.74588 11.7838 11.3685V24.1812H7.07431V11.3685C7.07431 6.14489 11.3089 1.91026 16.5326 1.91026C21.7562 1.91026 25.9909 6.14489 25.9909 11.3685V13.358H21.2813Z" fill="#85FF00"/>
<path d="M9.03661 11.3685V24.1812H7.07431V11.3685C7.07431 6.14489 11.3089 1.91026 16.5326 1.91026C16.8639 1.91026 17.1912 1.92745 17.5137 1.96073C12.7512 2.45154 9.03661 6.47621 9.03661 11.3685Z" fill="#6CCF00"/>
<path d="M16.4933 40.9207H2.36481L3.38088 38.0354C3.54278 37.5756 3.84339 37.1774 4.24122 36.8957C4.63906 36.614 5.11451 36.4628 5.60197 36.4628H13.2563C13.7437 36.4628 14.2191 36.6141 14.617 36.8958C15.0148 37.1774 15.3154 37.5756 15.4773 38.0354L16.4933 40.9207Z" fill="#85FF00"/>
<path d="M5.11203 36.4629V33.7134C5.11203 33.0632 5.63918 32.536 6.28941 32.536H12.5688C13.219 32.536 13.7461 33.0632 13.7461 33.7134V36.4629H5.11203Z" fill="#85FF00"/>
<path d="M40.3941 15.6918V29.8203L37.5089 28.8042C37.0491 28.6423 36.6509 28.3417 36.3692 27.9439C36.0875 27.5461 35.9363 27.0706 35.9363 26.5832V18.9289C35.9363 18.4414 36.0876 17.966 36.3692 17.5682C36.6509 17.1703 37.0491 16.8697 37.5089 16.7078L40.3941 15.6918Z" fill="#85FF00"/>
<path d="M35.9363 27.0732H33.9717C33.3215 27.0732 32.7943 26.5461 32.7943 25.8959V19.6165C32.7943 18.9663 33.3215 18.4391 33.9717 18.4391H35.9363V27.0732Z" fill="#85FF00"/>
<path d="M6.2894 32.5359V24.5736C6.2894 23.9234 6.81655 23.3962 7.46678 23.3962H11.3914C12.0416 23.3962 12.5687 23.9234 12.5687 24.5736V32.5359H6.2894ZM25.9909 16.1499C25.9909 18.498 27.8944 20.4015 30.2425 20.4015H32.7942V25.111L30.2385 25.1102C25.2911 25.1084 21.2813 21.0973 21.2813 16.1499V15.365H25.9909V16.1499Z" fill="#85FF00"/>
<path d="M20.4964 13.2896V14.9725C20.4964 15.6228 21.0236 16.1499 21.6738 16.1499H25.5984C26.2486 16.1499 26.7758 15.6228 26.7758 14.9725V13.2896H20.4964Z" fill="#85FF00"/>
<path d="M23.225 4.6849C23.225 4.6849 21.9393 5.59085 21.4383 5.59242C20.536 5.59525 18.9796 4.36277 18.0828 4.26269C16.7455 4.11348 12.765 5.09376 12.765 5.09376C12.765 5.09376 10.9374 6.53911 10.7634 7.25457C10.5345 8.19655 9.42907 9.96952 9.42907 9.96952L9.03308 12.2031C9.26533 13.679 8.45538 15.1217 7.07431 15.6919V11.3685C7.07431 6.14485 11.3089 1.91021 16.5326 1.91021C19.1467 1.91021 21.513 2.97071 23.225 4.6849Z" fill="#0641A9"/>
<path d="M5.34318 38.0354L4.3271 40.9207H2.36481L3.38088 38.0354C3.5428 37.5756 3.84341 37.1774 4.24124 36.8957C4.63908 36.614 5.11452 36.4628 5.60197 36.4628H7.56427C7.07681 36.4628 6.60137 36.614 6.20354 36.8957C5.80571 37.1774 5.5051 37.5756 5.34318 38.0354Z" fill="#6CCF00"/>
<path d="M7.07433 33.7133V36.4629H5.11203V33.7134C5.11203 33.0632 5.63918 32.536 6.28941 32.536H8.25171C7.60148 32.5359 7.07433 33.0631 7.07433 33.7133Z" fill="#6CCF00"/>
<path d="M8.2517 24.5736V32.5359H6.2894V24.5736C6.2894 23.9234 6.81655 23.3962 7.46678 23.3962H9.42907C8.77885 23.3962 8.2517 23.9234 8.2517 24.5736Z" fill="#6CCF00"/>
<path d="M17.5137 1.96068C12.7512 2.45149 9.03661 6.47616 9.03661 11.3685V12.1832L9.03308 12.2031C9.03441 12.2118 9.03527 12.2205 9.03661 12.2291V13.1838C8.87185 14.2835 8.14486 15.2499 7.07431 15.6919V11.3685C7.07431 6.14485 11.3089 1.91021 16.5326 1.91021C16.8639 1.91021 17.1912 1.9274 17.5137 1.96068Z" fill="#2977FF"/>
<path d="M0.794983 40.9207H18.0632M16.4934 40.9207H2.36482L3.3809 38.0354C3.54279 37.5756 3.8434 37.1774 4.24124 36.8957C4.63907 36.614 5.11452 36.4628 5.60198 36.4628H13.2563C13.7437 36.4628 14.2192 36.6141 14.617 36.8958C15.0148 37.1774 15.3154 37.5756 15.4774 38.0354L16.4934 40.9207Z" stroke="black" stroke-width="2" stroke-miterlimit="10"/>
<path d="M40.3941 14.1221V24.4265M40.3941 25.6039V31.3903M40.3941 29.8205L37.5089 28.8044C37.0491 28.6425 36.6509 28.3419 36.3692 27.9441C36.0875 27.5463 35.9362 27.0708 35.9363 26.5834V18.9291C35.9363 18.4416 36.0876 17.9662 36.3692 17.5684C36.6509 17.1705 37.0491 16.8699 37.5089 16.708L40.3941 15.6919M5.11203 36.4629V33.7134C5.11203 33.0632 5.63918 32.536 6.28941 32.536H12.5688C13.219 32.536 13.7461 33.0632 13.7461 33.7134V36.4629H5.11203Z" stroke="black" stroke-width="2" stroke-miterlimit="10"/>
<path d="M35.9363 27.0732H33.9717C33.3215 27.0732 32.7943 26.5461 32.7943 25.8959V19.6165C32.7943 18.9663 33.3215 18.4391 33.9717 18.4391H35.9363M25.9909 13.3583V11.3685C25.9909 8.7563 24.932 6.39213 23.2209 4.68022C21.509 2.9691 19.1448 1.91024 16.5326 1.91024C11.309 1.91024 7.07432 6.14488 7.07432 11.3685V18.6565M7.07432 19.8339V23.3966M6.2894 32.5359V24.5736C6.2894 23.9234 6.81655 23.3962 7.46678 23.3962H11.3914C12.0416 23.3962 12.5687 23.9234 12.5687 24.5736V32.5359H6.2894Z" stroke="black" stroke-width="2" stroke-miterlimit="10"/>
<path d="M21.2813 13.3578V11.3683C21.2813 8.74567 19.1552 6.61956 16.5326 6.61956C13.9099 6.61956 11.7838 8.74567 11.7838 11.3683V23.396M32.7943 25.1108L30.2386 25.11C25.2911 25.1082 21.2813 21.0972 21.2813 16.1497M25.9908 16.1497C25.9908 18.4978 27.8944 20.4013 30.2424 20.4013H32.7942" stroke="black" stroke-width="2" stroke-miterlimit="10"/>
<path d="M20.4965 13.2896V14.9725C20.4965 15.6228 21.0236 16.1499 21.6739 16.1499H25.5985C26.2487 16.1499 26.7758 15.6228 26.7758 14.9725V13.2896H20.4965Z" stroke="black" stroke-width="2" stroke-miterlimit="10"/>
<path d="M7.07431 15.6919C8.45538 15.1217 9.26533 13.679 9.03308 12.2031L9.42907 9.9696C9.42907 9.9696 10.5345 8.19655 10.7634 7.25464C10.9374 6.53911 12.765 5.09384 12.765 5.09384C12.765 5.09384 16.7455 4.11348 18.0828 4.26277C18.9796 4.36285 20.536 5.59533 21.4383 5.5925C21.9393 5.59093 23.225 4.68498 23.225 4.68498" stroke="black" stroke-width="2" stroke-miterlimit="10"/>
<path d="M9.42908 29.7319V28.5546M9.42908 27.3772V26.1998" stroke="white" stroke-width="2" stroke-miterlimit="10"/>
</svg>
