<svg width="108" height="89" viewBox="0 0 108 89" fill="none" xmlns="http://www.w3.org/2000/svg">
<path d="M45.3186 16.8435H22.5071C19.8117 16.8435 17.619 19.0365 17.619 21.7317V23.6198H14.3602C14.0379 23.6198 13.7229 23.7154 13.455 23.8944C13.187 24.0734 12.9781 24.3279 12.8548 24.6257C12.7315 24.9234 12.6992 25.251 12.7621 25.5671C12.825 25.8832 12.9802 26.1735 13.208 26.4014L18.0962 31.2895C18.4143 31.6077 18.8315 31.7668 19.2484 31.7668C19.6653 31.7668 20.0824 31.6077 20.4006 31.2895L25.2887 26.4014C25.5166 26.1735 25.6718 25.8832 25.7347 25.5671C25.7975 25.251 25.7653 24.9234 25.6419 24.6257C25.5186 24.3279 25.3098 24.0734 25.0418 23.8944C24.7738 23.7154 24.4588 23.6198 24.1365 23.6198H20.8778V21.7317C20.8778 20.8333 21.6087 20.1023 22.5071 20.1023H45.3186C45.7507 20.1023 46.1651 19.9306 46.4707 19.625C46.7763 19.3195 46.9479 18.905 46.9479 18.4729C46.9479 18.0408 46.7763 17.6263 46.4707 17.3207C46.1651 17.0152 45.7507 16.8435 45.3186 16.8435Z" fill="#555A6E"/>
<path d="M94.2001 68.8721H87.6826C82.2832 68.8721 77.9062 73.249 77.9062 78.6484C77.9062 84.0478 82.2832 88.4247 87.6826 88.4247H94.2001C99.5995 88.4247 103.976 84.0478 103.976 78.6484C103.976 73.249 99.5995 68.8721 94.2001 68.8721Z" fill="#463C4B"/>
<path d="M96.4589 78.6484C96.4589 83.4954 92.5296 87.4247 87.6826 87.4247C82.8355 87.4247 78.9062 83.4954 78.9062 78.6484C78.9062 73.8014 82.8355 69.8721 87.6826 69.8721C92.5296 69.8721 96.4589 73.8014 96.4589 78.6484Z" fill="#555A6E" stroke="black" stroke-width="2"/>
<path d="M87.6826 81.9072C89.4824 81.9072 90.9414 80.4482 90.9414 78.6484C90.9414 76.8487 89.4824 75.3896 87.6826 75.3896C85.8828 75.3896 84.4238 76.8487 84.4238 78.6484C84.4238 80.4482 85.8828 81.9072 87.6826 81.9072Z" fill="#E6E6EB"/>
<path d="M25.5423 68.8721H19.0247C13.6254 68.8721 9.24841 73.249 9.24841 78.6484C9.24841 84.0478 13.6254 88.4247 19.0247 88.4247H25.5423C30.9417 88.4247 35.3186 84.0478 35.3186 78.6484C35.3186 73.249 30.9417 68.8721 25.5423 68.8721Z" fill="#463C4B"/>
<path d="M77.9063 77.6484H48.9297C49.3401 76.9937 49.5773 76.2194 49.5773 75.3897V33.0256C49.5773 32.1959 49.3401 31.4216 48.9297 30.7668H77.9063C79.1538 30.7668 80.165 31.778 80.165 33.0256V75.3897C80.165 76.6372 79.1538 77.6484 77.9063 77.6484Z" fill="#85FF00" stroke="black" stroke-width="2"/>
<path d="M18.9199 30.7668H18.9199H45.801C47.0486 30.7668 48.0598 31.778 48.0598 33.0256V75.3897C48.0598 76.6372 47.0486 77.6484 45.801 77.6484H7.69185L16.7051 32.5826L16.7051 32.5826C16.8075 32.0705 17.0841 31.6098 17.4879 31.2788C17.8917 30.9477 18.3978 30.7668 18.9199 30.7668Z" fill="#74DE00" stroke="black" stroke-width="2"/>
<path d="M30.3825 67.2427C29.0328 67.2427 27.9384 66.1484 27.9384 64.7986V38.7284C27.9384 37.3787 29.0328 36.2844 30.3825 36.2844C31.7323 36.2844 32.8266 37.3787 32.8266 38.7284V64.7986C32.8266 66.1484 31.7323 67.2427 30.3825 67.2427ZM41.245 67.2427C39.8953 67.2427 38.801 66.1484 38.801 64.7986V38.7284C38.801 37.3787 39.8953 36.2844 41.245 36.2844C42.5948 36.2844 43.6891 37.3787 43.6891 38.7284V64.7986C43.6891 66.1484 42.5948 67.2427 41.245 67.2427Z" fill="#85FF00"/>
<path d="M21.5279 67.2426C20.1782 67.2426 19.0839 66.1483 19.0839 64.7986V38.7284C19.0839 37.3786 20.1782 36.2843 21.5279 36.2843C22.8777 36.2843 23.972 37.3786 23.972 38.7284V64.7986C23.972 66.1483 22.8777 67.2426 21.5279 67.2426Z" fill="#85FF00"/>
<path d="M68.1299 68.8721H61.6124C56.213 68.8721 51.8361 73.249 51.8361 78.6484C51.8361 84.0478 56.213 88.4247 61.6124 88.4247H68.1299C73.5293 88.4247 77.9062 84.0478 77.9062 78.6484C77.9062 73.249 73.5293 68.8721 68.1299 68.8721Z" fill="#463C4B"/>
<path d="M103.976 77.6483H51.8361C50.5885 77.6483 49.5773 76.6371 49.5773 75.3896V60.0957H106.235V75.3896C106.235 76.6371 105.224 77.6483 103.976 77.6483Z" fill="#74DE00" stroke="black" stroke-width="2"/>
<path d="M93.5899 37.9137H53.4655C50.7658 37.9137 48.5773 40.1022 48.5773 42.8019V59.0957H107.235C107.235 56.9574 106.699 54.8533 105.675 52.9762L99.3115 41.3104C98.7509 40.2824 97.9237 39.4245 96.9169 38.8268C95.9101 38.2291 94.7608 37.9137 93.5899 37.9137Z" fill="#463C4B"/>
<path d="M61.0022 37.9137H53.4655C50.7658 37.9137 48.5773 40.1022 48.5773 42.8019V59.0957H74.6475C74.6476 56.9574 74.111 54.8533 73.087 52.9762L66.7238 41.3104C66.1632 40.2824 65.336 39.4245 64.3292 38.8268C63.3223 38.2291 62.1731 37.9137 61.0022 37.9137Z" fill="#555A6E"/>
<path d="M71.3887 77.6483H51.8361C50.5885 77.6483 49.5773 76.6371 49.5773 75.3896V60.0957H73.6475V75.3896C73.6475 76.6371 72.6363 77.6483 71.3887 77.6483Z" fill="#85FF00" stroke="black" stroke-width="2"/>
<path d="M84.4238 73.7602C86.2236 73.7602 87.6826 72.3012 87.6826 70.5014C87.6826 68.7017 86.2236 67.2427 84.4238 67.2427C82.624 67.2427 81.165 68.7017 81.165 70.5014C81.165 72.3012 82.624 73.7602 84.4238 73.7602Z" fill="#85FF00"/>
<path d="M97.4589 73.7602C99.2587 73.7602 100.718 72.3012 100.718 70.5014C100.718 68.7017 99.2587 67.2427 97.4589 67.2427C95.6591 67.2427 94.2001 68.7017 94.2001 70.5014C94.2001 72.3012 95.6591 73.7602 97.4589 73.7602Z" fill="#85FF00"/>
<path d="M70.3887 78.6484C70.3887 83.4954 66.4594 87.4247 61.6124 87.4247C56.7653 87.4247 52.8361 83.4954 52.8361 78.6484C52.8361 73.8014 56.7653 69.8721 61.6124 69.8721C66.4594 69.8721 70.3887 73.8014 70.3887 78.6484Z" fill="#555A6E" stroke="black" stroke-width="2"/>
<path d="M61.6124 81.9072C63.4122 81.9072 64.8712 80.4482 64.8712 78.6484C64.8712 76.8487 63.4122 75.3896 61.6124 75.3896C59.8126 75.3896 58.3536 76.8487 58.3536 78.6484C58.3536 80.4482 59.8126 81.9072 61.6124 81.9072Z" fill="#E6E6EB"/>
<path d="M27.801 78.6484C27.801 83.4954 23.8718 87.4247 19.0247 87.4247C14.1777 87.4247 10.2484 83.4954 10.2484 78.6484C10.2484 73.8014 14.1777 69.8721 19.0247 69.8721C23.8718 69.8721 27.801 73.8014 27.801 78.6484Z" fill="#555A6E" stroke="black" stroke-width="2"/>
<path d="M19.0246 81.9072C20.8244 81.9072 22.2834 80.4482 22.2834 78.6484C22.2834 76.8487 20.8244 75.3896 19.0246 75.3896C17.2249 75.3896 15.7659 76.8487 15.7659 78.6484C15.7659 80.4482 17.2249 81.9072 19.0246 81.9072Z" fill="#E6E6EB"/>
<path d="M98.4338 41.7892C98.4338 41.7892 98.4338 41.7892 98.4338 41.7892L98.4407 41.8019H49.7071C50.1484 40.1391 51.6638 38.9137 53.4655 38.9137H93.5899C94.5811 38.9137 95.5541 39.1808 96.4065 39.6868C97.2588 40.1928 97.9591 40.919 98.4338 41.7892Z" fill="#74DE00" stroke="black" stroke-width="2"/>
<path d="M65.8461 41.7892L65.853 41.8019H49.7071C50.1484 40.1391 51.6638 38.9137 53.4655 38.9137H61.0022C61.0022 38.9137 61.0022 38.9137 61.0022 38.9137C61.9934 38.9137 62.9664 39.1808 63.8187 39.6868C64.6711 40.1928 65.3714 40.919 65.8461 41.7892C65.8461 41.7892 65.8461 41.7892 65.8461 41.7892Z" fill="#85FF00" stroke="black" stroke-width="2"/>
<path d="M14.4599 36.1981L5.99374 78.5288C5.99374 78.5288 5.99374 78.5288 5.99373 78.5288C5.8902 79.0463 5.61058 79.512 5.20243 79.8466C4.79427 80.1812 4.28279 80.3641 3.755 80.3641H2.10143C1.93452 80.3641 1.77443 80.2978 1.65639 80.1798C1.53835 80.0617 1.47205 79.9017 1.47205 79.7347V42.1299L7.4038 36.1981H14.4599Z" fill="#85FF00" stroke="black" stroke-width="2"/>
<path d="M64.8712 28.2492H51.8361C48.2366 28.2492 45.3185 25.3312 45.3185 21.7317V18.4729C45.3185 11.2739 51.1546 5.43784 58.3536 5.43784C65.5527 5.43784 71.3887 11.2739 71.3887 18.4729V21.7317C71.3887 25.3312 68.4707 28.2492 64.8712 28.2492ZM58.3536 5.43784C56.5538 5.43784 55.0949 3.97893 55.0949 2.17907C55.0949 1.74693 55.2665 1.33249 55.5721 1.02692C55.8777 0.72135 56.2921 0.549683 56.7242 0.549683H59.983C60.4152 0.549683 60.8296 0.72135 61.1352 1.02692C61.4407 1.33249 61.6124 1.74693 61.6124 2.17907C61.6124 3.97893 60.1535 5.43784 58.3536 5.43784Z" fill="#463C4B"/>
<path d="M50.2067 20.1024C49.7746 20.1024 49.3601 19.9307 49.0546 19.6251C48.749 19.3196 48.5773 18.9051 48.5773 18.473C48.5773 13.0821 52.963 8.69666 58.3536 8.69666C58.7858 8.69666 59.2002 8.86832 59.5058 9.17389C59.8114 9.47946 59.983 9.8939 59.983 10.326C59.983 10.7582 59.8114 11.1726 59.5058 11.4782C59.2002 11.7838 58.7858 11.9554 58.3536 11.9554C54.7598 11.9554 51.8361 14.8792 51.8361 18.473C51.8361 18.9051 51.6644 19.3196 51.3589 19.6251C51.0533 19.9307 50.6389 20.1024 50.2067 20.1024Z" fill="#555A6E"/>
<path d="M60.5262 5.98105H56.1813C56.0372 5.98105 55.899 5.92382 55.7972 5.82195C55.6953 5.72008 55.6381 5.58191 55.6381 5.43785C55.6381 5.29379 55.6953 5.15562 55.7972 5.05375C55.899 4.95188 56.0372 4.89465 56.1813 4.89465H60.5262C60.6703 4.89465 60.8084 4.95188 60.9103 5.05375C61.0122 5.15562 61.0694 5.29379 61.0694 5.43785C61.0694 5.58191 61.0122 5.72008 60.9103 5.82195C60.8084 5.92382 60.6703 5.98105 60.5262 5.98105Z" fill="#74DE00"/>
</svg>
