<svg width="108" height="75" viewBox="0 0 108 75" fill="none" xmlns="http://www.w3.org/2000/svg">
<path d="M54.9909 14.3761H35.6933C33.4131 14.3761 31.5581 16.2313 31.5581 18.5113V20.1086H28.8013C28.5287 20.1086 28.2622 20.1894 28.0355 20.3409C27.8088 20.4923 27.6321 20.7076 27.5278 20.9595C27.4234 21.2114 27.3962 21.4885 27.4493 21.7559C27.5025 22.0233 27.6338 22.2689 27.8266 22.4617L31.9618 26.5969C32.2309 26.866 32.5838 27.0006 32.9365 27.0006C33.2892 27.0006 33.6421 26.866 33.9112 26.5969L38.0464 22.4617C38.2392 22.2689 38.3705 22.0233 38.4237 21.7559C38.4768 21.4885 38.4495 21.2114 38.3452 20.9595C38.2409 20.7076 38.0642 20.4923 37.8375 20.3409C37.6108 20.1894 37.3443 20.1086 37.0717 20.1086H34.3149V18.5113C34.3149 17.7513 34.9333 17.1329 35.6933 17.1329H54.9909C55.3564 17.1329 55.707 16.9877 55.9655 16.7292C56.224 16.4707 56.3693 16.1201 56.3693 15.7545C56.3693 15.3889 56.224 15.0383 55.9655 14.7798C55.707 14.5213 55.3564 14.3761 54.9909 14.3761Z" fill="#555A6E"/>
<path d="M96.3428 58.3904H90.8292C86.2616 58.3904 82.5588 62.0931 82.5588 66.6608C82.5588 71.2284 86.2616 74.9312 90.8292 74.9312H96.3428C100.91 74.9312 104.613 71.2284 104.613 66.6608C104.613 62.0931 100.91 58.3904 96.3428 58.3904Z" fill="#463C4B"/>
<path d="M98.0996 66.6608C98.0996 70.6761 94.8446 73.9312 90.8292 73.9312C86.8139 73.9312 83.5588 70.6761 83.5588 66.6608C83.5588 62.6454 86.8139 59.3904 90.8292 59.3904C94.8446 59.3904 98.0996 62.6454 98.0996 66.6608Z" fill="#555A6E" stroke="black" stroke-width="2"/>
<path d="M90.8292 69.4175C92.3517 69.4175 93.586 68.1833 93.586 66.6607C93.586 65.1382 92.3517 63.9039 90.8292 63.9039C89.3066 63.9039 88.0724 65.1382 88.0724 66.6607C88.0724 68.1833 89.3066 69.4175 90.8292 69.4175Z" fill="#E6E6EB"/>
<path d="M46.7204 58.3904H41.2069C36.6392 58.3904 32.9365 62.0931 32.9365 66.6608C32.9365 71.2284 36.6392 74.9312 41.2069 74.9312H46.7204C51.2881 74.9312 54.9908 71.2284 54.9908 66.6608C54.9908 62.0931 51.2881 58.3904 46.7204 58.3904Z" fill="#463C4B"/>
<path d="M20.6849 58.3904H15.1713C10.6036 58.3904 6.90088 62.0931 6.90088 66.6608C6.90088 71.2284 10.6036 74.9312 15.1713 74.9312H20.6849C25.2525 74.9312 28.9553 71.2284 28.9553 66.6608C28.9553 62.0931 25.2525 58.3904 20.6849 58.3904Z" fill="#463C4B"/>
<path d="M82.5588 65.6608H58.3124C58.5903 65.1366 58.7476 64.5387 58.7476 63.904V28.0656C58.7476 27.431 58.5903 26.8331 58.3124 26.3088H82.5588C83.5291 26.3088 84.3156 27.0953 84.3156 28.0656V63.904C84.3156 64.8743 83.5291 65.6608 82.5588 65.6608Z" fill="#85FF00" stroke="black" stroke-width="2"/>
<path d="M15.7393 26.3088H15.7394H55.399C56.3693 26.3088 57.1558 27.0953 57.1558 28.0656V63.904C57.1558 64.8743 56.3693 65.6608 55.399 65.6608H6.42873L14.0167 27.7211L14.0167 27.721C14.0964 27.3228 14.3115 26.9645 14.6256 26.707C14.9397 26.4495 15.3332 26.3088 15.7393 26.3088Z" fill="#74DE00" stroke="black" stroke-width="2"/>
<path d="M42.3556 57.0119C41.2137 57.0119 40.288 56.0861 40.288 54.9443V32.8899C40.288 31.7481 41.2137 30.8223 42.3556 30.8223C43.4974 30.8223 44.4232 31.7481 44.4232 32.8899V54.9443C44.4232 56.0861 43.4974 57.0119 42.3556 57.0119ZM51.5448 57.0119C50.403 57.0119 49.4772 56.0861 49.4772 54.9443V32.8899C49.4772 31.7481 50.403 30.8223 51.5448 30.8223C52.6867 30.8223 53.6124 31.7481 53.6124 32.8899V54.9443C53.6124 56.0861 52.6867 57.0119 51.5448 57.0119Z" fill="#85FF00"/>
<path d="M34.019 57.0119C32.8771 57.0119 31.9514 56.0861 31.9514 54.9443V32.8899C31.9514 31.748 32.8771 30.8223 34.019 30.8223C35.1608 30.8223 36.0865 31.748 36.0865 32.8899V54.9443C36.0865 56.0861 35.1608 57.0119 34.019 57.0119Z" fill="#85FF00"/>
<path d="M25.4647 57.0118C24.3229 57.0118 23.3971 56.0861 23.3971 54.9442V32.8899C23.3971 31.748 24.3229 30.8223 25.4647 30.8223C26.6066 30.8223 27.5323 31.748 27.5323 32.8899V54.9442C27.5323 56.0861 26.6066 57.0118 25.4647 57.0118Z" fill="#85FF00"/>
<path d="M17.0051 57.0118C15.8633 57.0118 14.9375 56.0861 14.9375 54.9442V32.8899C14.9375 31.748 15.8633 30.8223 17.0051 30.8223C18.1469 30.8223 19.0727 31.748 19.0727 32.8899V54.9442C19.0727 56.0861 18.1469 57.0118 17.0051 57.0118Z" fill="#85FF00"/>
<path d="M74.2884 58.3904H68.7748C64.2072 58.3904 60.5045 62.0931 60.5045 66.6608C60.5045 71.2284 64.2072 74.9312 68.7748 74.9312H74.2884C78.8561 74.9312 82.5588 71.2284 82.5588 66.6608C82.5588 62.0931 78.8561 58.3904 74.2884 58.3904Z" fill="#463C4B"/>
<path d="M104.613 65.6607H60.5044C59.5341 65.6607 58.7476 64.8742 58.7476 63.9039V51.1199H106.37V63.9039C106.37 64.8742 105.583 65.6607 104.613 65.6607Z" fill="#74DE00" stroke="black" stroke-width="2"/>
<path d="M95.8266 32.2007H61.8828C59.599 32.2007 57.7476 34.052 57.7476 36.3359V50.1199H107.37C107.37 48.3109 106.916 46.5309 106.05 44.9429L100.667 35.0741C100.193 34.2045 99.4928 33.4788 98.641 32.9731C97.7893 32.4675 96.8171 32.2007 95.8266 32.2007Z" fill="#463C4B"/>
<path d="M68.2586 32.2007H61.8828C59.599 32.2007 57.7476 34.052 57.7476 36.3359V50.1199H79.802C79.8021 48.3109 79.3481 46.5309 78.4818 44.9429L73.0988 35.0741C72.6246 34.2045 71.9248 33.4788 71.0731 32.9731C70.2213 32.4675 69.2491 32.2007 68.2586 32.2007Z" fill="#555A6E"/>
<path d="M77.0452 65.6607H60.5044C59.5341 65.6607 58.7476 64.8742 58.7476 63.9039V51.1199H78.802V63.9039C78.802 64.8742 78.0155 65.6607 77.0452 65.6607Z" fill="#85FF00" stroke="black" stroke-width="2"/>
<path d="M88.0724 62.5256C89.5949 62.5256 90.8292 61.2913 90.8292 59.7688C90.8292 58.2462 89.5949 57.012 88.0724 57.012C86.5499 57.012 85.3156 58.2462 85.3156 59.7688C85.3156 61.2913 86.5499 62.5256 88.0724 62.5256Z" fill="#85FF00"/>
<path d="M99.0996 62.5256C100.622 62.5256 101.856 61.2913 101.856 59.7688C101.856 58.2462 100.622 57.012 99.0996 57.012C97.577 57.012 96.3428 58.2462 96.3428 59.7688C96.3428 61.2913 97.577 62.5256 99.0996 62.5256Z" fill="#85FF00"/>
<path d="M76.0452 66.6608C76.0452 70.6761 72.7902 73.9312 68.7748 73.9312C64.7595 73.9312 61.5045 70.6761 61.5045 66.6608C61.5045 62.6454 64.7595 59.3904 68.7748 59.3904C72.7902 59.3904 76.0452 62.6454 76.0452 66.6608Z" fill="#555A6E" stroke="black" stroke-width="2"/>
<path d="M68.7748 69.4175C70.2973 69.4175 71.5316 68.1833 71.5316 66.6607C71.5316 65.1382 70.2973 63.9039 68.7748 63.9039C67.2523 63.9039 66.018 65.1382 66.018 66.6607C66.018 68.1833 67.2523 69.4175 68.7748 69.4175Z" fill="#E6E6EB"/>
<path d="M48.4772 66.6608C48.4772 70.6761 45.2222 73.9312 41.2069 73.9312C37.1915 73.9312 33.9365 70.6761 33.9365 66.6608C33.9365 62.6454 37.1915 59.3904 41.2069 59.3904C45.2222 59.3904 48.4772 62.6454 48.4772 66.6608Z" fill="#555A6E" stroke="black" stroke-width="2"/>
<path d="M22.4417 66.6608C22.4417 70.6761 19.1866 73.9312 15.1713 73.9312C11.1559 73.9312 7.90088 70.6761 7.90088 66.6608C7.90088 62.6454 11.1559 59.3904 15.1713 59.3904C19.1866 59.3904 22.4417 62.6454 22.4417 66.6608Z" fill="#555A6E" stroke="black" stroke-width="2"/>
<path d="M41.2069 69.4175C42.7294 69.4175 43.9637 68.1833 43.9637 66.6607C43.9637 65.1382 42.7294 63.9039 41.2069 63.9039C39.6843 63.9039 38.4501 65.1382 38.4501 66.6607C38.4501 68.1833 39.6843 69.4175 41.2069 69.4175Z" fill="#E6E6EB"/>
<path d="M15.1713 69.4175C16.6938 69.4175 17.9281 68.1833 17.9281 66.6607C17.9281 65.1382 16.6938 63.9039 15.1713 63.9039C13.6487 63.9039 12.4145 65.1382 12.4145 66.6607C12.4145 68.1833 13.6487 69.4175 15.1713 69.4175Z" fill="#E6E6EB"/>
<path d="M98.1306 33.8331C98.7557 34.2042 99.2809 34.7201 99.6627 35.3359H58.9105C59.3279 34.0947 60.5009 33.2007 61.8828 33.2007H95.8265C96.6374 33.2007 97.4333 33.4192 98.1306 33.8331Z" fill="#74DE00" stroke="black" stroke-width="2"/>
<path d="M70.5626 33.8331C71.1878 34.2042 71.7129 34.7201 72.0947 35.3359H58.9105C59.3279 34.0947 60.5009 33.2007 61.8828 33.2007H68.2586C68.2586 33.2007 68.2586 33.2007 68.2586 33.2007C69.0695 33.2007 69.8654 33.4192 70.5626 33.8331Z" fill="#85FF00" stroke="black" stroke-width="2"/>
<path d="M6.06099 30.9034H11.7785L4.65328 66.5293C4.57268 66.9322 4.35499 67.2947 4.03724 67.5552C3.71949 67.8157 3.32131 67.9581 2.91043 67.9581H1.51158C1.41123 67.9581 1.31498 67.9183 1.24401 67.8473C1.17304 67.7763 1.13318 67.6801 1.13318 67.5797V35.8312L6.06099 30.9034Z" fill="#85FF00" stroke="black" stroke-width="2"/>
<path d="M71.5316 24.0249H60.5044C57.4594 24.0249 54.9908 21.5564 54.9908 18.5113V15.7545C54.9908 9.66444 59.9279 4.72736 66.018 4.72736C72.1081 4.72736 77.0452 9.66444 77.0452 15.7545V18.5113C77.0452 21.5564 74.5767 24.0249 71.5316 24.0249ZM66.018 4.72736C64.4954 4.72736 63.2612 3.49318 63.2612 1.97056C63.2612 1.60499 63.4065 1.25439 63.665 0.995887C63.9235 0.737387 64.2741 0.592163 64.6396 0.592163H67.3964C67.762 0.592163 68.1126 0.737387 68.3711 0.995887C68.6296 1.25439 68.7748 1.60499 68.7748 1.97056C68.7748 3.49318 67.5406 4.72736 66.018 4.72736Z" fill="#463C4B"/>
<path d="M59.1261 17.1329C58.7605 17.1329 58.4099 16.9877 58.1514 16.7292C57.8929 16.4707 57.7477 16.1201 57.7477 15.7545C57.7477 11.1941 61.4578 7.48413 66.0181 7.48413C66.3836 7.48413 66.7342 7.62935 66.9927 7.88785C67.2512 8.14635 67.3965 8.49696 67.3965 8.86253C67.3965 9.2281 67.2512 9.5787 66.9927 9.8372C66.7342 10.0957 66.3836 10.2409 66.0181 10.2409C62.9778 10.2409 60.5045 12.7143 60.5045 15.7545C60.5045 16.1201 60.3593 16.4707 60.1008 16.7292C59.8423 16.9877 59.4917 17.1329 59.1261 17.1329Z" fill="#555A6E"/>
<path d="M67.856 5.18687H64.1803C64.0584 5.18687 63.9415 5.13846 63.8554 5.05228C63.7692 4.9661 63.7208 4.84922 63.7208 4.72735C63.7208 4.60547 63.7692 4.48859 63.8554 4.40241C63.9415 4.31624 64.0584 4.26782 64.1803 4.26782H67.856C67.9778 4.26782 68.0947 4.31624 68.1809 4.40241C68.2671 4.48859 68.3155 4.60547 68.3155 4.72735C68.3155 4.84922 68.2671 4.9661 68.1809 5.05228C68.0947 5.13846 67.9778 5.18687 67.856 5.18687Z" fill="#74DE00"/>
</svg>
