<svg width="104" height="79" viewBox="0 0 104 79" fill="none" xmlns="http://www.w3.org/2000/svg">
<path d="M48.7288 14.7709H28.5599C26.1768 14.7709 24.238 16.7098 24.238 19.0928V20.7622H21.3568C21.0718 20.7622 20.7933 20.8467 20.5564 21.005C20.3194 21.1633 20.1348 21.3883 20.0257 21.6515C19.9167 21.9148 19.8882 22.2044 19.9438 22.4839C19.9994 22.7634 20.1366 23.0201 20.3381 23.2215L24.6599 27.5434C24.9412 27.8247 25.31 27.9654 25.6787 27.9654C26.0473 27.9654 26.4161 27.8247 26.6974 27.5434L31.0193 23.2215C31.2207 23.0201 31.358 22.7634 31.4135 22.4839C31.4691 22.2044 31.4406 21.9148 31.3316 21.6515C31.2225 21.3883 31.0379 21.1633 30.8009 21.005C30.564 20.8467 30.2855 20.7622 30.0005 20.7622H27.1193V19.0928C27.1193 18.2984 27.7656 17.6521 28.5599 17.6521H48.7288C49.1108 17.6521 49.4773 17.5004 49.7474 17.2302C50.0176 16.96 50.1694 16.5936 50.1694 16.2115C50.1694 15.8294 50.0176 15.463 49.7474 15.1928C49.4773 14.9227 49.1108 14.7709 48.7288 14.7709Z" fill="#555A6E"/>
<path d="M91.9477 60.7722H86.1852C81.4113 60.7722 77.5414 64.6421 77.5414 69.416C77.5414 74.1899 81.4113 78.0598 86.1852 78.0598H91.9477C96.7216 78.0598 100.591 74.1899 100.591 69.416C100.591 64.6421 96.7216 60.7722 91.9477 60.7722Z" fill="#463C4B"/>
<path d="M93.829 69.416C93.829 73.6376 90.4067 77.0598 86.1852 77.0598C81.9636 77.0598 78.5414 73.6376 78.5414 69.416C78.5414 65.1945 81.9636 61.7722 86.1852 61.7722C90.4067 61.7722 93.829 65.1945 93.829 69.416Z" fill="#555A6E" stroke="black" stroke-width="2"/>
<path d="M86.1852 72.2972C87.7764 72.2972 89.0664 71.0072 89.0664 69.4159C89.0664 67.8247 87.7764 66.5347 86.1852 66.5347C84.5939 66.5347 83.3039 67.8247 83.3039 69.4159C83.3039 71.0072 84.5939 72.2972 86.1852 72.2972Z" fill="#E6E6EB"/>
<path d="M42.7374 60.7722H36.9749C32.201 60.7722 28.3311 64.6421 28.3311 69.416C28.3311 74.1899 32.201 78.0598 36.9749 78.0598H42.7374C47.5113 78.0598 51.3812 74.1899 51.3812 69.416C51.3812 64.6421 47.5113 60.7722 42.7374 60.7722Z" fill="#463C4B"/>
<path d="M20.8313 60.7722H15.0688C10.2949 60.7722 6.42499 64.6421 6.42499 69.416C6.42499 74.1899 10.2949 78.0598 15.0688 78.0598H20.8313C25.6052 78.0598 29.4751 74.1899 29.4751 69.416C29.4751 64.6421 25.6052 60.7722 20.8313 60.7722Z" fill="#463C4B"/>
<path d="M77.5414 68.4161H52.1245C52.4338 67.8588 52.61 67.2174 52.61 66.5348V29.0784C52.61 28.3958 52.4338 27.7544 52.1245 27.1971H77.5414C78.5805 27.1971 79.4227 28.0393 79.4227 29.0784V66.5348C79.4227 67.5739 78.5805 68.4161 77.5414 68.4161Z" fill="#85FF00" stroke="black" stroke-width="2"/>
<path d="M16.5467 27.1971H16.5467H49.1553C50.1944 27.1971 51.0366 28.0393 51.0366 29.0784V66.5348C51.0366 67.5739 50.1944 68.4161 49.1553 68.4161H6.76064L14.702 28.7094L14.702 28.7094C14.7873 28.2829 15.0177 27.8992 15.354 27.6235C15.6903 27.3478 16.1118 27.1971 16.5467 27.1971Z" fill="#74DE00" stroke="black" stroke-width="2"/>
<path d="M35.523 59.3317C34.3296 59.3317 33.362 58.3641 33.362 57.1707V34.1206C33.362 32.9272 34.3296 31.9597 35.523 31.9597C36.7164 31.9597 37.6839 32.9272 37.6839 34.1206V57.1707C37.6839 58.3641 36.7164 59.3317 35.523 59.3317ZM45.1271 59.3317C43.9338 59.3317 42.9662 58.3641 42.9662 57.1707V34.1206C42.9662 32.9272 43.9338 31.9597 45.1271 31.9597C46.3205 31.9597 47.2881 32.9272 47.2881 34.1206V57.1707C47.2881 58.3641 46.3205 59.3317 45.1271 59.3317Z" fill="#85FF00"/>
<path d="M26.81 59.3316C25.6166 59.3316 24.6491 58.364 24.6491 57.1707V34.1206C24.6491 32.9272 25.6166 31.9596 26.81 31.9596C28.0034 31.9596 28.9709 32.9272 28.9709 34.1206V57.1707C28.9709 58.364 28.0034 59.3316 26.81 59.3316Z" fill="#85FF00"/>
<path d="M17.8696 59.3316C16.6762 59.3316 15.7086 58.364 15.7086 57.1706V34.1205C15.7086 32.9272 16.6762 31.9596 17.8696 31.9596C19.0629 31.9596 20.0305 32.9272 20.0305 34.1205V57.1706C20.0305 58.364 19.0629 59.3316 17.8696 59.3316Z" fill="#85FF00"/>
<path d="M68.8976 60.7722H63.1351C58.3612 60.7722 54.4913 64.6421 54.4913 69.416C54.4913 74.1899 58.3612 78.0598 63.1351 78.0598H68.8976C73.6715 78.0598 77.5414 74.1899 77.5414 69.416C77.5414 64.6421 73.6715 60.7722 68.8976 60.7722Z" fill="#463C4B"/>
<path d="M100.591 68.416H54.4913C53.4522 68.416 52.61 67.5738 52.61 66.5347V53.1284H102.473V66.5347C102.473 67.5738 101.631 68.416 100.591 68.416Z" fill="#74DE00" stroke="black" stroke-width="2"/>
<path d="M91.4082 33.4003H55.9319C53.545 33.4003 51.61 35.3352 51.61 37.7222V52.1285H103.473C103.473 50.2379 102.998 48.3775 102.093 46.7178L96.467 36.4034C95.9713 35.4946 95.2399 34.7361 94.3497 34.2076C93.4595 33.6791 92.4434 33.4003 91.4082 33.4003Z" fill="#463C4B"/>
<path d="M62.5956 33.4003H55.9319C53.545 33.4003 51.61 35.3352 51.61 37.7222V52.1285H74.6601C74.6602 50.2379 74.1858 48.3775 73.2804 46.7178L67.6543 36.4034C67.1586 35.4946 66.4273 34.7361 65.5371 34.2076C64.6469 33.6791 63.6308 33.4003 62.5956 33.4003Z" fill="#555A6E"/>
<path d="M71.7789 68.416H54.4913C53.4522 68.416 52.61 67.5738 52.61 66.5347V53.1284H73.6601V66.5347C73.6601 67.5738 72.8179 68.416 71.7789 68.416Z" fill="#85FF00" stroke="black" stroke-width="2"/>
<path d="M83.3039 65.0942C84.8952 65.0942 86.1852 63.8042 86.1852 62.2129C86.1852 60.6217 84.8952 59.3317 83.3039 59.3317C81.7126 59.3317 80.4226 60.6217 80.4226 62.2129C80.4226 63.8042 81.7126 65.0942 83.3039 65.0942Z" fill="#85FF00"/>
<path d="M94.829 65.0942C96.4202 65.0942 97.7102 63.8042 97.7102 62.2129C97.7102 60.6217 96.4202 59.3317 94.829 59.3317C93.2377 59.3317 91.9477 60.6217 91.9477 62.2129C91.9477 63.8042 93.2377 65.0942 94.829 65.0942Z" fill="#85FF00"/>
<path d="M70.7789 69.416C70.7789 73.6376 67.3566 77.0598 63.1351 77.0598C58.9135 77.0598 55.4913 73.6376 55.4913 69.416C55.4913 65.1945 58.9135 61.7722 63.1351 61.7722C67.3566 61.7722 70.7789 65.1945 70.7789 69.416Z" fill="#555A6E" stroke="black" stroke-width="2"/>
<path d="M63.1351 72.2972C64.7264 72.2972 66.0163 71.0072 66.0163 69.4159C66.0163 67.8247 64.7264 66.5347 63.1351 66.5347C61.5438 66.5347 60.2538 67.8247 60.2538 69.4159C60.2538 71.0072 61.5438 72.2972 63.1351 72.2972Z" fill="#E6E6EB"/>
<path d="M44.6187 69.416C44.6187 73.6376 41.1965 77.0598 36.9749 77.0598C32.7534 77.0598 29.3311 73.6376 29.3311 69.416C29.3311 65.1945 32.7534 61.7722 36.9749 61.7722C41.1965 61.7722 44.6187 65.1945 44.6187 69.416Z" fill="#555A6E" stroke="black" stroke-width="2"/>
<path d="M22.7126 69.416C22.7126 73.6376 19.2903 77.0598 15.0688 77.0598C10.8472 77.0598 7.42499 73.6376 7.42499 69.416C7.42499 65.1945 10.8472 61.7722 15.0688 61.7722C19.2903 61.7722 22.7126 65.1945 22.7126 69.416Z" fill="#555A6E" stroke="black" stroke-width="2"/>
<path d="M36.9749 72.2972C38.5662 72.2972 39.8562 71.0072 39.8562 69.4159C39.8562 67.8247 38.5662 66.5347 36.9749 66.5347C35.3836 66.5347 34.0936 67.8247 34.0936 69.4159C34.0936 71.0072 35.3836 72.2972 36.9749 72.2972Z" fill="#E6E6EB"/>
<path d="M15.0688 72.2972C16.6601 72.2972 17.9501 71.0072 17.9501 69.4159C17.9501 67.8247 16.6601 66.5347 15.0688 66.5347C13.4775 66.5347 12.1875 67.8247 12.1875 69.4159C12.1875 71.0072 13.4775 72.2972 15.0688 72.2972Z" fill="#E6E6EB"/>
<path d="M93.8393 35.0676C94.5221 35.4729 95.0919 36.042 95.4978 36.7222H52.7632C53.1875 35.3762 54.4457 34.4003 55.9319 34.4003H91.4081C92.2638 34.4003 93.1036 34.6308 93.8393 35.0676Z" fill="#74DE00" stroke="black" stroke-width="2"/>
<path d="M65.0267 35.0676C65.7095 35.4729 66.2792 36.042 66.6852 36.7222H52.7632C53.1875 35.3762 54.4457 34.4003 55.9319 34.4003H62.5955C62.5955 34.4003 62.5955 34.4003 62.5956 34.4003C63.4511 34.4003 64.2909 34.6308 65.0267 35.0676Z" fill="#85FF00" stroke="black" stroke-width="2"/>
<path d="M6.41264 31.9993H12.462L5.00435 69.2876C5.00434 69.2876 5.00434 69.2876 5.00434 69.2876C4.91805 69.7189 4.68501 70.107 4.34485 70.3859C4.00468 70.6648 3.57841 70.8172 3.13854 70.8172H1.67653C1.55968 70.8172 1.4476 70.7708 1.36496 70.6882C1.28232 70.6055 1.2359 70.4934 1.2359 70.3766V37.176L6.41264 31.9993Z" fill="#85FF00" stroke="black" stroke-width="2"/>
<path d="M66.0163 24.8554H54.4913C51.3088 24.8554 48.7288 22.2754 48.7288 19.0928V16.2116C48.7288 9.8465 53.8887 4.68652 60.2538 4.68652C66.6189 4.68652 71.7789 9.8465 71.7789 16.2116V19.0928C71.7789 22.2754 69.1989 24.8554 66.0163 24.8554ZM60.2538 4.68652C58.6625 4.68652 57.3725 3.39661 57.3725 1.80526C57.3725 1.42318 57.5243 1.05675 57.7945 0.786575C58.0647 0.516404 58.4311 0.364624 58.8132 0.364624H61.6944C62.0765 0.364624 62.443 0.516404 62.7131 0.786575C62.9833 1.05675 63.1351 1.42318 63.1351 1.80526C63.1351 3.39661 61.8452 4.68652 60.2538 4.68652Z" fill="#463C4B"/>
<path d="M53.0507 17.6523C52.6686 17.6523 52.3022 17.5005 52.032 17.2303C51.7618 16.9602 51.61 16.5937 51.61 16.2117C51.61 11.4453 55.4877 7.56787 60.2538 7.56787C60.6359 7.56787 61.0023 7.71965 61.2725 7.98982C61.5427 8.25999 61.6945 8.62642 61.6945 9.0085C61.6945 9.39058 61.5427 9.75701 61.2725 10.0272C61.0023 10.2974 60.6359 10.4491 60.2538 10.4491C57.0763 10.4491 54.4913 13.0342 54.4913 16.2117C54.4913 16.5937 54.3395 16.9602 54.0694 17.2303C53.7992 17.5005 53.4328 17.6523 53.0507 17.6523Z" fill="#555A6E"/>
<path d="M62.1747 5.16684H58.3331C58.2057 5.16684 58.0836 5.11624 57.9935 5.02617C57.9034 4.9361 57.8528 4.81394 57.8528 4.68657C57.8528 4.55919 57.9034 4.43704 57.9935 4.34697C58.0836 4.2569 58.2057 4.2063 58.3331 4.2063H62.1747C62.3021 4.2063 62.4243 4.2569 62.5143 4.34697C62.6044 4.43704 62.655 4.55919 62.655 4.68657C62.655 4.81394 62.6044 4.9361 62.5143 5.02617C62.4243 5.11624 62.3021 5.16684 62.1747 5.16684Z" fill="#74DE00"/>
</svg>
