<svg width="108" height="89" viewBox="0 0 108 89" fill="none" xmlns="http://www.w3.org/2000/svg">
<path d="M45.2006 16.8438H22.3892C19.6938 16.8438 17.501 19.0367 17.501 21.7319V23.6201H14.2422C13.92 23.6201 13.6049 23.7156 13.337 23.8946C13.069 24.0737 12.8602 24.3282 12.7368 24.6259C12.6135 24.9236 12.5812 25.2513 12.6441 25.5673C12.707 25.8834 12.8622 26.1738 13.0901 26.4016L17.9782 31.2898C18.2964 31.6079 18.7135 31.767 19.1304 31.767C19.5473 31.767 19.9644 31.6079 20.2826 31.2898L25.1707 26.4016C25.3986 26.1738 25.5538 25.8834 25.6167 25.5673C25.6796 25.2513 25.6473 24.9236 25.524 24.6259C25.4006 24.3282 25.1918 24.0737 24.9238 23.8946C24.6559 23.7156 24.3408 23.6201 24.0186 23.6201H20.7598V21.7319C20.7598 20.8335 21.4908 20.1025 22.3892 20.1025H45.2006C45.6327 20.1025 46.0472 19.9309 46.3527 19.6253C46.6583 19.3197 46.83 18.9053 46.83 18.4731C46.83 18.041 46.6583 17.6266 46.3527 17.321C46.0472 17.0154 45.6327 16.8438 45.2006 16.8438Z" fill="#555A6E"/>
<path d="M94.0821 68.8721H87.5646C82.1652 68.8721 77.7883 73.249 77.7883 78.6484C77.7883 84.0478 82.1652 88.4247 87.5646 88.4247H94.0821C99.4815 88.4247 103.858 84.0478 103.858 78.6484C103.858 73.249 99.4815 68.8721 94.0821 68.8721Z" fill="#463C4B"/>
<path d="M96.3409 78.6484C96.3409 83.4954 92.4116 87.4247 87.5646 87.4247C82.7176 87.4247 78.7883 83.4954 78.7883 78.6484C78.7883 73.8014 82.7176 69.8721 87.5646 69.8721C92.4116 69.8721 96.3409 73.8014 96.3409 78.6484Z" fill="#555A6E" stroke="black" stroke-width="2"/>
<path d="M87.5646 81.9072C89.3643 81.9072 90.8233 80.4482 90.8233 78.6484C90.8233 76.8487 89.3643 75.3896 87.5646 75.3896C85.7648 75.3896 84.3058 76.8487 84.3058 78.6484C84.3058 80.4482 85.7648 81.9072 87.5646 81.9072Z" fill="#E6E6EB"/>
<path d="M25.4243 68.8721H18.9067C13.5074 68.8721 9.13043 73.249 9.13043 78.6484C9.13043 84.0478 13.5074 88.4247 18.9067 88.4247H25.4243C30.8237 88.4247 35.2006 84.0478 35.2006 78.6484C35.2006 73.249 30.8237 68.8721 25.4243 68.8721Z" fill="#463C4B"/>
<path d="M77.7883 77.6484H48.8117C49.2221 76.9937 49.4593 76.2194 49.4593 75.3897V33.0256C49.4593 32.1959 49.2221 31.4216 48.8117 30.7668H77.7883C79.0359 30.7668 80.0471 31.778 80.0471 33.0256V75.3897C80.0471 76.6372 79.0359 77.6484 77.7883 77.6484Z" fill="#85FF00" stroke="black" stroke-width="2"/>
<path d="M18.8019 30.7671H18.802H45.683C46.9306 30.7671 47.9418 31.7783 47.9418 33.0259V75.3899C47.9418 76.6375 46.9306 77.6487 45.683 77.6487H7.57387L16.5871 32.5829L16.5871 32.5828C16.6895 32.0708 16.9661 31.6101 17.3699 31.279C17.7737 30.948 18.2798 30.7671 18.8019 30.7671Z" fill="#74DE00" stroke="black" stroke-width="2"/>
<path d="M30.2646 67.2428C28.9148 67.2428 27.8205 66.1485 27.8205 64.7987V38.7286C27.8205 37.3788 28.9148 36.2845 30.2646 36.2845C31.6143 36.2845 32.7087 37.3788 32.7087 38.7286V64.7987C32.7087 66.1485 31.6143 67.2428 30.2646 67.2428ZM41.1271 67.2428C39.7773 67.2428 38.683 66.1485 38.683 64.7987V38.7286C38.683 37.3788 39.7773 36.2845 41.1271 36.2845C42.4768 36.2845 43.5712 37.3788 43.5712 38.7286V64.7987C43.5712 66.1485 42.4768 67.2428 41.1271 67.2428Z" fill="#85FF00"/>
<path d="M21.41 67.2428C20.0602 67.2428 18.9659 66.1484 18.9659 64.7987V38.7285C18.9659 37.3788 20.0602 36.2844 21.41 36.2844C22.7597 36.2844 23.8541 37.3788 23.8541 38.7285V64.7987C23.8541 66.1484 22.7597 67.2428 21.41 67.2428Z" fill="#85FF00"/>
<path d="M68.012 68.8721H61.4944C56.095 68.8721 51.7181 73.249 51.7181 78.6484C51.7181 84.0478 56.095 88.4247 61.4944 88.4247H68.012C73.4113 88.4247 77.7883 84.0478 77.7883 78.6484C77.7883 73.249 73.4113 68.8721 68.012 68.8721Z" fill="#463C4B"/>
<path d="M103.858 77.6486H51.7181C50.4705 77.6486 49.4593 76.6374 49.4593 75.3898V60.0959H106.117V75.3898C106.117 76.6374 105.106 77.6486 103.858 77.6486Z" fill="#74DE00" stroke="black" stroke-width="2"/>
<path d="M93.4719 37.9138H53.3475C50.6478 37.9138 48.4593 40.1023 48.4593 42.802V59.0958H107.117C107.117 56.9575 106.581 54.8534 105.557 52.9763L99.1935 41.3105C98.6329 40.2825 97.8057 39.4246 96.7989 38.8269C95.792 38.2292 94.6428 37.9138 93.4719 37.9138Z" fill="#463C4B"/>
<path d="M60.8842 37.9138H53.3475C50.6478 37.9138 48.4593 40.1023 48.4593 42.802V59.0958H74.5295C74.5296 56.9575 73.993 54.8534 72.969 52.9763L66.6058 41.3105C66.0452 40.2825 65.218 39.4246 64.2111 38.8269C63.2043 38.2292 62.0551 37.9138 60.8842 37.9138Z" fill="#555A6E"/>
<path d="M71.2707 77.6486H51.7181C50.4705 77.6486 49.4593 76.6374 49.4593 75.3898V60.0959H73.5295V75.3898C73.5295 76.6374 72.5183 77.6486 71.2707 77.6486Z" fill="#85FF00" stroke="black" stroke-width="2"/>
<path d="M84.3058 73.7602C86.1056 73.7602 87.5646 72.3012 87.5646 70.5014C87.5646 68.7017 86.1056 67.2427 84.3058 67.2427C82.5061 67.2427 81.0471 68.7017 81.0471 70.5014C81.0471 72.3012 82.5061 73.7602 84.3058 73.7602Z" fill="#85FF00"/>
<path d="M97.3409 73.7602C99.1407 73.7602 100.6 72.3012 100.6 70.5014C100.6 68.7017 99.1407 67.2427 97.3409 67.2427C95.5412 67.2427 94.0822 68.7017 94.0822 70.5014C94.0822 72.3012 95.5412 73.7602 97.3409 73.7602Z" fill="#85FF00"/>
<path d="M70.2707 78.6484C70.2707 83.4954 66.3414 87.4247 61.4944 87.4247C56.6474 87.4247 52.7181 83.4954 52.7181 78.6484C52.7181 73.8014 56.6474 69.8721 61.4944 69.8721C66.3414 69.8721 70.2707 73.8014 70.2707 78.6484Z" fill="#555A6E" stroke="black" stroke-width="2"/>
<path d="M61.4944 81.9072C63.2942 81.9072 64.7532 80.4482 64.7532 78.6484C64.7532 76.8487 63.2942 75.3896 61.4944 75.3896C59.6947 75.3896 58.2357 76.8487 58.2357 78.6484C58.2357 80.4482 59.6947 81.9072 61.4944 81.9072Z" fill="#E6E6EB"/>
<path d="M27.6831 78.6484C27.6831 83.4954 23.7538 87.4247 18.9067 87.4247C14.0597 87.4247 10.1304 83.4954 10.1304 78.6484C10.1304 73.8014 14.0597 69.8721 18.9067 69.8721C23.7538 69.8721 27.6831 73.8014 27.6831 78.6484Z" fill="#555A6E" stroke="black" stroke-width="2"/>
<path d="M18.9067 81.9072C20.7064 81.9072 22.1654 80.4482 22.1654 78.6484C22.1654 76.8487 20.7064 75.3896 18.9067 75.3896C17.1069 75.3896 15.6479 76.8487 15.6479 78.6484C15.6479 80.4482 17.1069 81.9072 18.9067 81.9072Z" fill="#E6E6EB"/>
<path d="M98.3158 41.7893C98.3158 41.7893 98.3158 41.7893 98.3158 41.7894L98.3227 41.802H49.5891C50.0304 40.1392 51.5458 38.9138 53.3475 38.9138H93.4719C94.4631 38.9138 95.4361 39.1809 96.2884 39.6869C97.1408 40.1929 97.8411 40.9191 98.3158 41.7893Z" fill="#74DE00" stroke="black" stroke-width="2"/>
<path d="M65.7281 41.7894L65.735 41.802H49.5891C50.0304 40.1392 51.5458 38.9138 53.3475 38.9138H60.8842C60.8842 38.9138 60.8842 38.9138 60.8842 38.9138C61.8754 38.9139 62.8484 39.1809 63.7007 39.6869C64.5531 40.1929 65.2534 40.9191 65.7281 41.7893C65.7281 41.7893 65.7281 41.7893 65.7281 41.7894Z" fill="#85FF00" stroke="black" stroke-width="2"/>
<path d="M14.3419 36.1982L5.87576 78.5289C5.87576 78.5289 5.87575 78.5289 5.87575 78.5289C5.77222 79.0465 5.4926 79.5121 5.08445 79.8467C4.67629 80.1813 4.16481 80.3642 3.63702 80.3642H1.98345C1.81654 80.3642 1.65645 80.2979 1.53841 80.1799C1.42037 80.0619 1.35406 79.9018 1.35406 79.7349V42.13L7.28582 36.1982H14.3419Z" fill="#85FF00" stroke="black" stroke-width="2"/>
<path d="M64.7532 28.2494H51.7181C48.1186 28.2494 45.2006 25.3313 45.2006 21.7318V18.4731C45.2006 11.274 51.0366 5.43796 58.2356 5.43796C65.4347 5.43796 71.2707 11.274 71.2707 18.4731V21.7318C71.2707 25.3313 68.3527 28.2494 64.7532 28.2494ZM58.2356 5.43796C56.4358 5.43796 54.9769 3.97905 54.9769 2.17919C54.9769 1.74705 55.1485 1.33261 55.4541 1.02704C55.7597 0.721472 56.1741 0.549805 56.6063 0.549805H59.865C60.2972 0.549805 60.7116 0.721472 61.0172 1.02704C61.3228 1.33261 61.4944 1.74705 61.4944 2.17919C61.4944 3.97905 60.0355 5.43796 58.2356 5.43796Z" fill="#463C4B"/>
<path d="M50.0887 20.1025C49.6566 20.1025 49.2422 19.9308 48.9366 19.6252C48.631 19.3197 48.4594 18.9052 48.4594 18.4731C48.4594 13.0823 52.845 8.69678 58.2357 8.69678C58.6678 8.69678 59.0822 8.86844 59.3878 9.17401C59.6934 9.47958 59.8651 9.89402 59.8651 10.3262C59.8651 10.7583 59.6934 11.1727 59.3878 11.4783C59.0822 11.7839 58.6678 11.9555 58.2357 11.9555C54.6419 11.9555 51.7181 14.8793 51.7181 18.4731C51.7181 18.9052 51.5465 19.3197 51.2409 19.6252C50.9353 19.9308 50.5209 20.1025 50.0887 20.1025Z" fill="#555A6E"/>
<path d="M60.4082 5.98117H56.0633C55.9192 5.98117 55.781 5.92394 55.6792 5.82207C55.5773 5.7202 55.5201 5.58204 55.5201 5.43797C55.5201 5.29391 55.5773 5.15574 55.6792 5.05387C55.781 4.95201 55.9192 4.89478 56.0633 4.89478H60.4082C60.5523 4.89478 60.6905 4.95201 60.7923 5.05387C60.8942 5.15574 60.9514 5.29391 60.9514 5.43797C60.9514 5.58204 60.8942 5.7202 60.7923 5.82207C60.6905 5.92394 60.5523 5.98117 60.4082 5.98117Z" fill="#74DE00"/>
</svg>
