<svg width="118" height="75" viewBox="0 0 118 75" fill="none" xmlns="http://www.w3.org/2000/svg">
<path d="M64.8729 14.1016H45.5753C43.2951 14.1016 41.4401 15.9567 41.4401 18.2368V19.8341H38.6833C38.4107 19.8341 38.1442 19.9149 37.9175 20.0664C37.6908 20.2178 37.5141 20.4331 37.4098 20.685C37.3054 20.9368 37.2781 21.214 37.3313 21.4814C37.3845 21.7488 37.5158 21.9944 37.7086 22.1872L41.8438 26.3224C42.1129 26.5915 42.4658 26.7261 42.8185 26.7261C43.1712 26.7261 43.5241 26.5915 43.7932 26.3224L47.9284 22.1872C48.1212 21.9944 48.2525 21.7488 48.3056 21.4814C48.3588 21.214 48.3315 20.9368 48.2272 20.685C48.1229 20.4331 47.9462 20.2178 47.7195 20.0664C47.4928 19.9149 47.2263 19.8341 46.9537 19.8341H44.1969V18.2368C44.1969 17.4767 44.8153 16.8584 45.5753 16.8584H64.8729C65.2384 16.8584 65.589 16.7131 65.8475 16.4546C66.106 16.1961 66.2513 15.8455 66.2513 15.48C66.2513 15.1144 66.106 14.7638 65.8475 14.5053C65.589 14.2468 65.2384 14.1016 64.8729 14.1016Z" fill="#555A6E"/>
<path d="M106.225 58.1157H100.711C96.1435 58.1157 92.4408 61.8184 92.4408 66.3861C92.4408 70.9538 96.1435 74.6565 100.711 74.6565H106.225C110.792 74.6565 114.495 70.9538 114.495 66.3861C114.495 61.8184 110.792 58.1157 106.225 58.1157Z" fill="#463C4B"/>
<path d="M107.982 66.3861C107.982 70.4014 104.727 73.6565 100.711 73.6565C96.6959 73.6565 93.4408 70.4014 93.4408 66.3861C93.4408 62.3708 96.6959 59.1157 100.711 59.1157C104.727 59.1157 107.982 62.3708 107.982 66.3861Z" fill="#555A6E" stroke="black" stroke-width="2"/>
<path d="M100.711 69.143C102.234 69.143 103.468 67.9087 103.468 66.3862C103.468 64.8637 102.234 63.6294 100.711 63.6294C99.1887 63.6294 97.9544 64.8637 97.9544 66.3862C97.9544 67.9087 99.1887 69.143 100.711 69.143Z" fill="#E6E6EB"/>
<path d="M56.6025 58.1157H51.0889C46.5212 58.1157 42.8185 61.8184 42.8185 66.3861C42.8185 70.9538 46.5212 74.6565 51.0889 74.6565H56.6025C61.1701 74.6565 64.8729 70.9538 64.8729 66.3861C64.8729 61.8184 61.1701 58.1157 56.6025 58.1157Z" fill="#463C4B"/>
<path d="M30.5669 58.1157H25.0533C20.4856 58.1157 16.7829 61.8184 16.7829 66.3861C16.7829 70.9538 20.4856 74.6565 25.0533 74.6565H30.5669C35.1346 74.6565 38.8373 70.9538 38.8373 66.3861C38.8373 61.8184 35.1346 58.1157 30.5669 58.1157Z" fill="#463C4B"/>
<path d="M92.4408 65.3861H68.1945C68.4723 64.8619 68.6297 64.264 68.6297 63.6293V27.791C68.6297 27.1563 68.4723 26.5584 68.1945 26.0342H92.4408C93.4112 26.0342 94.1976 26.8206 94.1976 27.791V63.6293C94.1976 64.5997 93.4112 65.3861 92.4408 65.3861Z" fill="#85FF00" stroke="black" stroke-width="2"/>
<path d="M15.6214 26.0342H15.6214H65.281C66.2513 26.0342 67.0378 26.8206 67.0378 27.791V63.6293C67.0378 64.5997 66.2513 65.3861 65.281 65.3861H6.31078L13.8988 27.4464L13.8988 27.4464C13.9784 27.0481 14.1936 26.6898 14.5076 26.4323C14.8217 26.1749 15.2153 26.0342 15.6214 26.0342Z" fill="#74DE00" stroke="black" stroke-width="2"/>
<path d="M52.2376 56.7375C51.0957 56.7375 50.17 55.8117 50.17 54.6699V32.6155C50.17 31.4737 51.0957 30.5479 52.2376 30.5479C53.3794 30.5479 54.3052 31.4737 54.3052 32.6155V54.6699C54.3052 55.8117 53.3794 56.7375 52.2376 56.7375ZM61.4268 56.7375C60.285 56.7375 59.3592 55.8117 59.3592 54.6699V32.6155C59.3592 31.4737 60.285 30.5479 61.4268 30.5479C62.5687 30.5479 63.4944 31.4737 63.4944 32.6155V54.6699C63.4944 55.8117 62.5687 56.7375 61.4268 56.7375Z" fill="#85FF00"/>
<path d="M43.901 56.7374C42.7591 56.7374 41.8334 55.8117 41.8334 54.6698V32.6155C41.8334 31.4736 42.7591 30.5479 43.901 30.5479C45.0428 30.5479 45.9686 31.4736 45.9686 32.6155V54.6698C45.9686 55.8117 45.0428 56.7374 43.901 56.7374Z" fill="#85FF00"/>
<path d="M35.3467 56.7374C34.2049 56.7374 33.2791 55.8117 33.2791 54.6698V32.6154C33.2791 31.4736 34.2049 30.5479 35.3467 30.5479C36.4886 30.5479 37.4143 31.4736 37.4143 32.6154V54.6698C37.4143 55.8117 36.4886 56.7374 35.3467 56.7374Z" fill="#85FF00"/>
<path d="M26.8871 56.7374C25.7453 56.7374 24.8195 55.8117 24.8195 54.6698V32.6154C24.8195 31.4736 25.7453 30.5479 26.8871 30.5479C28.0289 30.5479 28.9547 31.4736 28.9547 32.6154V54.6698C28.9547 55.8117 28.0289 56.7374 26.8871 56.7374Z" fill="#85FF00"/>
<path d="M84.1704 58.1157H78.6568C74.0892 58.1157 70.3864 61.8184 70.3864 66.3861C70.3864 70.9538 74.0892 74.6565 78.6568 74.6565H84.1704C88.7381 74.6565 92.4408 70.9538 92.4408 66.3861C92.4408 61.8184 88.7381 58.1157 84.1704 58.1157Z" fill="#463C4B"/>
<path d="M114.495 65.3862H70.3865C69.4161 65.3862 68.6297 64.5998 68.6297 63.6294V50.8455H116.252V63.6294C116.252 64.5998 115.466 65.3862 114.495 65.3862Z" fill="#74DE00" stroke="black" stroke-width="2"/>
<path d="M105.709 31.9263H71.7649C69.481 31.9263 67.6297 33.7776 67.6297 36.0615V49.8455H117.252C117.252 48.0365 116.798 46.2565 115.932 44.6685L110.549 34.7997C110.075 33.9301 109.375 33.2044 108.523 32.6987C107.671 32.1931 106.699 31.9263 105.709 31.9263Z" fill="#463C4B"/>
<path d="M78.1406 31.9263H71.7649C69.481 31.9263 67.6297 33.7776 67.6297 36.0615V49.8455H89.684C89.6841 48.0365 89.2302 46.2565 88.3639 44.6685L82.9809 34.7997C82.5066 33.9301 81.8068 33.2044 80.9551 32.6987C80.1034 32.1931 79.1312 31.9263 78.1406 31.9263Z" fill="#555A6E"/>
<path d="M86.9272 65.3862H70.3865C69.4161 65.3862 68.6297 64.5998 68.6297 63.6294V50.8455H88.684V63.6294C88.684 64.5998 87.8976 65.3862 86.9272 65.3862Z" fill="#85FF00" stroke="black" stroke-width="2"/>
<path d="M97.9544 62.2509C99.477 62.2509 100.711 61.0166 100.711 59.4941C100.711 57.9716 99.477 56.7373 97.9544 56.7373C96.4319 56.7373 95.1976 57.9716 95.1976 59.4941C95.1976 61.0166 96.4319 62.2509 97.9544 62.2509Z" fill="#85FF00"/>
<path d="M108.982 62.2509C110.504 62.2509 111.738 61.0166 111.738 59.4941C111.738 57.9716 110.504 56.7373 108.982 56.7373C107.459 56.7373 106.225 57.9716 106.225 59.4941C106.225 61.0166 107.459 62.2509 108.982 62.2509Z" fill="#85FF00"/>
<path d="M85.9272 66.3861C85.9272 70.4014 82.6722 73.6565 78.6568 73.6565C74.6415 73.6565 71.3864 70.4014 71.3864 66.3861C71.3864 62.3708 74.6415 59.1157 78.6568 59.1157C82.6722 59.1157 85.9272 62.3708 85.9272 66.3861Z" fill="#555A6E" stroke="black" stroke-width="2"/>
<path d="M78.6569 69.143C80.1794 69.143 81.4136 67.9087 81.4136 66.3862C81.4136 64.8637 80.1794 63.6294 78.6569 63.6294C77.1343 63.6294 75.9001 64.8637 75.9001 66.3862C75.9001 67.9087 77.1343 69.143 78.6569 69.143Z" fill="#E6E6EB"/>
<path d="M58.3593 66.3861C58.3593 70.4014 55.1042 73.6565 51.0889 73.6565C47.0735 73.6565 43.8185 70.4014 43.8185 66.3861C43.8185 62.3708 47.0735 59.1157 51.0889 59.1157C55.1042 59.1157 58.3593 62.3708 58.3593 66.3861Z" fill="#555A6E" stroke="black" stroke-width="2"/>
<path d="M32.3237 66.3861C32.3237 70.4014 29.0686 73.6565 25.0533 73.6565C21.038 73.6565 17.7829 70.4014 17.7829 66.3861C17.7829 62.3708 21.038 59.1157 25.0533 59.1157C29.0686 59.1157 32.3237 62.3708 32.3237 66.3861Z" fill="#555A6E" stroke="black" stroke-width="2"/>
<path d="M51.0889 69.143C52.6114 69.143 53.8457 67.9087 53.8457 66.3862C53.8457 64.8637 52.6114 63.6294 51.0889 63.6294C49.5664 63.6294 48.3321 64.8637 48.3321 66.3862C48.3321 67.9087 49.5664 69.143 51.0889 69.143Z" fill="#E6E6EB"/>
<path d="M25.0533 69.143C26.5758 69.143 27.8101 67.9087 27.8101 66.3862C27.8101 64.8637 26.5758 63.6294 25.0533 63.6294C23.5307 63.6294 22.2965 64.8637 22.2965 66.3862C22.2965 67.9087 23.5307 69.143 25.0533 69.143Z" fill="#E6E6EB"/>
<path d="M108.013 33.5587C108.638 33.9298 109.163 34.4457 109.545 35.0615H68.7925C69.2099 33.8203 70.383 32.9263 71.7649 32.9263H105.709C106.519 32.9263 107.315 33.1448 108.013 33.5587Z" fill="#74DE00" stroke="black" stroke-width="2"/>
<path d="M80.4447 33.5587C81.0698 33.9298 81.595 34.4457 81.9768 35.0615H68.7925C69.2099 33.8203 70.383 32.9263 71.7649 32.9263H78.1406C78.1406 32.9263 78.1406 32.9263 78.1406 32.9263C78.9515 32.9263 79.7474 33.1448 80.4447 33.5587Z" fill="#85FF00" stroke="black" stroke-width="2"/>
<path d="M5.94301 30.6289H11.6605L4.5353 66.2548C4.4547 66.6577 4.23701 67.0202 3.91926 67.2807C3.60151 67.5412 3.20332 67.6836 2.79245 67.6836H1.3936C1.29325 67.6836 1.197 67.6437 1.12603 67.5728C1.05506 67.5018 1.0152 67.4055 1.0152 67.3052V35.5567L5.94301 30.6289Z" fill="#85FF00" stroke="black" stroke-width="2"/>
<path d="M81.4136 23.7504H70.3865C67.3414 23.7504 64.8729 21.2819 64.8729 18.2368V15.48C64.8729 9.3899 69.8099 4.45282 75.9001 4.45282C81.9902 4.45282 86.9272 9.3899 86.9272 15.48V18.2368C86.9272 21.2819 84.4587 23.7504 81.4136 23.7504ZM75.9001 4.45282C74.3774 4.45282 73.1433 3.21864 73.1433 1.69603C73.1433 1.33045 73.2885 0.97985 73.547 0.721351C73.8055 0.462851 74.1561 0.317627 74.5217 0.317627H77.2785C77.644 0.317627 77.9946 0.462851 78.2531 0.721351C78.5116 0.97985 78.6568 1.33045 78.6568 1.69603C78.6568 3.21864 77.4227 4.45282 75.9001 4.45282Z" fill="#463C4B"/>
<path d="M69.0081 16.8585C68.6425 16.8585 68.2919 16.7133 68.0334 16.4548C67.7749 16.1963 67.6297 15.8457 67.6297 15.4801C67.6297 10.9197 71.3398 7.20972 75.9001 7.20972C76.2657 7.20972 76.6163 7.35494 76.8748 7.61344C77.1333 7.87194 77.2785 8.22254 77.2785 8.58812C77.2785 8.95369 77.1333 9.30429 76.8748 9.56279C76.6163 9.82129 76.2657 9.96651 75.9001 9.96651C72.8599 9.96651 70.3865 12.4399 70.3865 15.4801C70.3865 15.8457 70.2413 16.1963 69.9828 16.4548C69.7243 16.7133 69.3737 16.8585 69.0081 16.8585Z" fill="#555A6E"/>
<path d="M77.738 4.91246H74.0623C73.9404 4.91246 73.8236 4.86404 73.7374 4.77786C73.6512 4.69169 73.6028 4.57481 73.6028 4.45293C73.6028 4.33106 73.6512 4.21418 73.7374 4.128C73.8236 4.04182 73.9404 3.99341 74.0623 3.99341H77.738C77.8598 3.99341 77.9767 4.04182 78.0629 4.128C78.1491 4.21418 78.1975 4.33106 78.1975 4.45293C78.1975 4.57481 78.1491 4.69169 78.0629 4.77786C77.9767 4.86404 77.8598 4.91246 77.738 4.91246Z" fill="#74DE00"/>
</svg>
