<svg width="105" height="63" viewBox="0 0 105 63" fill="none" xmlns="http://www.w3.org/2000/svg">
<path d="M96.67 33.2053H103.17V39.7053H96.67V33.2053Z" fill="#96E8FF"/>
<path d="M77.17 5.58032H86.92V12.0803H77.17V5.58032Z" fill="#85FF00"/>
<path d="M77.17 5.58032H82.045V12.0803H77.17V5.58032Z" fill="#74DE00"/>
<path d="M96.67 16.9553L103.17 26.7053H82.045V16.9553H96.67Z" fill="#96E8FF"/>
<path d="M82.045 16.9553H86.92V26.7053H82.045V16.9553Z" fill="#19CFFC"/>
<path d="M103.17 39.7054V46.2054H93.7287C92.6534 44.3516 90.9972 42.9038 89.0163 42.0858C87.0354 41.2678 84.8402 41.1253 82.7702 41.6803C80.7002 42.2352 78.8707 43.4568 77.5646 45.156C76.2586 46.8552 75.5488 48.9373 75.545 51.0804H70.67V12.0804H93.42L96.67 16.9554H82.045V26.7054H103.17V33.2054H96.67V39.7054H103.17Z" fill="#74DE00"/>
<path d="M75.545 12.0804H70.67V51.0804H75.545V46.2054V12.0804ZM90.17 41.3304C89.347 41.3355 88.528 41.4447 87.7325 41.6554C88.9836 41.9787 90.158 42.5474 91.1874 43.3285C92.2168 44.1096 93.0806 45.0875 93.7287 46.2054H98.6037C97.7507 44.7231 96.5219 43.4918 95.0412 42.6359C93.5605 41.78 91.8803 41.3297 90.17 41.3304Z" fill="#00BD9D"/>
<path d="M60.92 18.5803V34.8303C60.92 35.6923 60.5776 36.5189 59.9681 37.1284C59.3586 37.7379 58.5319 38.0803 57.67 38.0803C56.808 38.0803 55.9814 37.7379 55.3719 37.1284C54.7624 36.5189 54.42 35.6923 54.42 34.8303V18.5803C54.4226 17.7192 54.7658 16.894 55.3747 16.2851C55.9837 15.6761 56.8088 15.3329 57.67 15.3303C58.53 15.3367 59.3529 15.6812 59.961 16.2893C60.5691 16.8974 60.9136 17.7203 60.92 18.5803ZM44.67 18.5803V34.8303C44.67 35.6923 44.3276 36.5189 43.7181 37.1284C43.1086 37.7379 42.2819 38.0803 41.42 38.0803C40.558 38.0803 39.7314 37.7379 39.1219 37.1284C38.5124 36.5189 38.17 35.6923 38.17 34.8303V18.5803C38.1726 17.7192 38.5158 16.894 39.1247 16.2851C39.7337 15.6761 40.5588 15.3329 41.42 15.3303C42.28 15.3367 43.1029 15.6812 43.711 16.2893C44.3191 16.8974 44.6636 17.7203 44.67 18.5803Z" fill="#C8F5E6"/>
<path d="M57.67 34.8303V18.5803C57.6731 18.0129 57.8248 17.4561 58.1099 16.9655C58.395 16.4749 58.8035 16.0674 59.295 15.7837C58.8038 15.4895 58.2425 15.3329 57.67 15.3303C56.8088 15.3329 55.9837 15.6761 55.3747 16.2851C54.7658 16.894 54.4226 17.7192 54.42 18.5803V34.8303C54.4226 35.6915 54.7658 36.5166 55.3747 37.1256C55.9837 37.7345 56.8088 38.0778 57.67 38.0803C58.2424 38.0768 58.8034 37.9203 59.295 37.627C58.8035 37.3432 58.395 36.9358 58.1099 36.4451C57.8248 35.9545 57.6731 35.3978 57.67 34.8303ZM41.42 34.8303V18.5803C41.4231 18.0129 41.5748 17.4561 41.8599 16.9655C42.145 16.4749 42.5535 16.0674 43.045 15.7837C42.5538 15.4895 41.9925 15.3329 41.42 15.3303C40.5588 15.3329 39.7337 15.6761 39.1247 16.2851C38.5158 16.894 38.1726 17.7192 38.17 18.5803V34.8303C38.1726 35.6915 38.5158 36.5166 39.1247 37.1256C39.7337 37.7345 40.5588 38.0778 41.42 38.0803C41.9924 38.0768 42.5534 37.9203 43.045 37.627C42.5535 37.3432 42.145 36.9358 41.8599 36.4451C41.5748 35.9545 41.4231 35.3978 41.42 34.8303Z" fill="#B3F2D7"/>
<path d="M31.67 5.58032L17.045 41.3303H10.545L25.17 5.58032H31.67Z" fill="#C8F5E6"/>
<path d="M25.17 2.33044V5.58044L10.545 41.3304H2.41998V20.2054L10.545 2.33044H25.17Z" fill="#85FF00"/>
<path d="M15.42 2.33044H10.545L2.41998 20.2054V41.3304H7.29498V20.2054L15.42 2.33044Z" fill="#74DE00"/>
<path d="M20.295 41.3303H17.045L31.67 5.58032H67.42C68.2811 5.58289 69.1063 5.92613 69.7152 6.53507C70.3242 7.144 70.6674 7.96916 70.67 8.83032V46.2053H28.7287C27.8757 44.7229 26.6469 43.4917 25.1662 42.6358C23.6855 41.7799 22.0053 41.3296 20.295 41.3303ZM60.92 34.8303V18.5803C60.9136 17.7203 60.5691 16.8974 59.961 16.2893C59.3529 15.6812 58.53 15.3367 57.67 15.3303C56.8088 15.3329 55.9837 15.6761 55.3747 16.2851C54.7658 16.894 54.4226 17.7192 54.42 18.5803V34.8303C54.42 35.6923 54.7624 36.5189 55.3719 37.1284C55.9814 37.7379 56.808 38.0803 57.67 38.0803C58.5319 38.0803 59.3586 37.7379 59.9681 37.1284C60.5776 36.5189 60.92 35.6923 60.92 34.8303ZM44.67 34.8303V18.5803C44.6636 17.7203 44.3191 16.8974 43.711 16.2893C43.1029 15.6812 42.28 15.3367 41.42 15.3303C40.5588 15.3329 39.7337 15.6761 39.1247 16.2851C38.5158 16.894 38.1726 17.7192 38.17 18.5803V34.8303C38.17 35.6923 38.5124 36.5189 39.1219 37.1284C39.7314 37.7379 40.558 38.0803 41.42 38.0803C42.2819 38.0803 43.1086 37.7379 43.7181 37.1284C44.3276 36.5189 44.67 35.6923 44.67 34.8303Z" fill="#85FF00"/>
<path d="M60.1075 36.9542C60.5391 37.4557 61.1141 37.8127 61.7549 37.9773C62.3958 38.1419 63.0717 38.106 63.6915 37.8745C64.3113 37.6431 64.8453 37.2272 65.2214 36.6828C65.5975 36.1385 65.7977 35.492 65.795 34.8303V18.5803C65.7886 17.7203 65.4441 16.8974 64.836 16.2893C64.2279 15.6812 63.405 15.3367 62.545 15.3303C62.0808 15.3335 61.6227 15.4367 61.2021 15.633C60.7814 15.8293 60.4081 16.1141 60.1075 16.4678C60.6291 17.048 60.9184 17.8001 60.92 18.5803V34.8303C60.9162 35.6135 60.6274 36.3685 60.1075 36.9542ZM43.8575 36.9542C44.2891 37.4557 44.8641 37.8127 45.5049 37.9773C46.1458 38.1419 46.8217 38.106 47.4415 37.8745C48.0613 37.6431 48.5953 37.2272 48.9714 36.6828C49.3475 36.1385 49.5477 35.492 49.545 34.8303V18.5803C49.5386 17.7203 49.1941 16.8974 48.586 16.2893C47.9779 15.6812 47.155 15.3367 46.295 15.3303C45.8308 15.3335 45.3727 15.4367 44.9521 15.633C44.5314 15.8293 44.1581 16.1141 43.8575 16.4678C44.3791 17.048 44.6684 17.8001 44.67 18.5803V34.8303C44.6662 35.6135 44.3774 36.3685 43.8575 36.9542ZM25.17 41.3303H21.92L36.545 5.58032H31.67L17.045 41.3303H20.295C22.0053 41.3296 23.6855 41.7799 25.1662 42.6358C26.6469 43.4917 27.8757 44.7229 28.7287 46.2053H33.6037C32.7507 44.7229 31.5219 43.4917 30.0412 42.6358C28.5605 41.7799 26.8803 41.3296 25.17 41.3303Z" fill="#74DE00"/>
<path d="M17.045 41.3303H20.295C17.7091 41.3303 15.2292 42.3576 13.4007 44.186C11.5722 46.0145 10.545 48.4945 10.545 51.0803H2.41998V41.3303H17.045ZM28.7287 46.2053H70.67V51.0803H30.045C30.051 49.3667 29.5964 47.683 28.7287 46.2053ZM103.17 46.2053V51.0803H95.045C95.051 49.3667 94.5964 47.683 93.7287 46.2053H103.17Z" fill="#AFB4C8"/>
<path d="M85.295 55.9554C87.9874 55.9554 90.17 53.7728 90.17 51.0804C90.17 48.3881 87.9874 46.2054 85.295 46.2054C82.6026 46.2054 80.42 48.3881 80.42 51.0804C80.42 53.7728 82.6026 55.9554 85.295 55.9554Z" fill="#DCE1EB"/>
<path d="M85.295 51.0804C85.2957 50.2277 85.5215 49.3903 85.9495 48.6527C86.3775 47.9152 86.9925 47.3036 87.7325 46.8798C86.992 46.4437 86.1495 46.2111 85.2902 46.2055C84.4309 46.2 83.5854 46.4216 82.8393 46.8481C82.0933 47.2745 81.4732 47.8906 81.042 48.6338C80.6107 49.3771 80.3835 50.2211 80.3835 51.0804C80.3835 51.9398 80.6107 52.7838 81.042 53.5271C81.4732 54.2703 82.0933 54.8864 82.8393 55.3128C83.5854 55.7393 84.4309 55.9609 85.2902 55.9553C86.1495 55.9498 86.992 55.7171 87.7325 55.2811C86.9925 54.8573 86.3775 54.2457 85.9495 53.5082C85.5215 52.7706 85.2957 51.9332 85.295 51.0804Z" fill="#BEC3D2"/>
<path d="M85.295 60.8303C82.7091 60.8303 80.2292 59.8031 78.4007 57.9746C76.5722 56.1461 75.545 53.6662 75.545 51.0803C75.545 48.4945 76.5722 46.0145 78.4007 44.186C80.2292 42.3576 82.7091 41.3303 85.295 41.3303C87.8808 41.3303 90.3608 42.3576 92.1893 44.186C94.0178 46.0145 95.045 48.4945 95.045 51.0803C95.045 53.6662 94.0178 56.1461 92.1893 57.9746C90.3608 59.8031 87.8808 60.8303 85.295 60.8303ZM85.295 46.2053C84.3308 46.2053 83.3883 46.4912 82.5866 47.0269C81.7849 47.5626 81.1601 48.324 80.7911 49.2147C80.4221 50.1055 80.3256 51.0857 80.5137 52.0314C80.7018 52.977 81.1661 53.8457 81.8478 54.5275C82.5296 55.2092 83.3983 55.6735 84.3439 55.8617C85.2896 56.0498 86.2698 55.9532 87.1606 55.5842C88.0514 55.2153 88.8127 54.5904 89.3484 53.7887C89.8841 52.987 90.17 52.0445 90.17 51.0803C90.17 49.7874 89.6564 48.5474 88.7421 47.6332C87.8279 46.7189 86.5879 46.2053 85.295 46.2053Z" fill="#707789"/>
<path d="M20.295 55.9554C22.9874 55.9554 25.17 53.7728 25.17 51.0804C25.17 48.3881 22.9874 46.2054 20.295 46.2054C17.6026 46.2054 15.42 48.3881 15.42 51.0804C15.42 53.7728 17.6026 55.9554 20.295 55.9554Z" fill="#DCE1EB"/>
<path d="M20.295 51.0804C20.2957 50.2277 20.5215 49.3903 20.9495 48.6527C21.3775 47.9152 21.9925 47.3036 22.7325 46.8798C21.992 46.4437 21.1495 46.2111 20.2902 46.2055C19.4309 46.2 18.5853 46.4216 17.8393 46.8481C17.0933 47.2745 16.4732 47.8906 16.0419 48.6338C15.6107 49.3771 15.3835 50.2211 15.3835 51.0804C15.3835 51.9398 15.6107 52.7838 16.0419 53.5271C16.4732 54.2703 17.0933 54.8864 17.8393 55.3128C18.5853 55.7393 19.4309 55.9609 20.2902 55.9553C21.1495 55.9498 21.992 55.7171 22.7325 55.2811C21.9925 54.8573 21.3775 54.2457 20.9495 53.5082C20.5215 52.7706 20.2957 51.9332 20.295 51.0804Z" fill="#BEC3D2"/>
<path d="M20.295 60.8303C17.7091 60.8303 15.2292 59.8031 13.4007 57.9746C11.5722 56.1461 10.545 53.6662 10.545 51.0803C10.5426 49.1069 11.1398 47.1794 12.2576 45.5531C13.3753 43.9268 14.9609 42.6785 16.8041 41.9736C18.6473 41.2687 20.6612 41.1406 22.5789 41.6061C24.4966 42.0716 26.2276 43.1088 27.5425 44.5803C29.1578 46.3593 30.0503 48.6774 30.045 51.0803C30.045 53.6662 29.0178 56.1461 27.1893 57.9746C25.3608 59.8031 22.8809 60.8303 20.295 60.8303ZM20.295 46.2053C19.3308 46.2053 18.3883 46.4912 17.5866 47.0269C16.7849 47.5626 16.1601 48.3239 15.7911 49.2147C15.4221 50.1055 15.3256 51.0857 15.5137 52.0314C15.7018 52.977 16.1661 53.8457 16.8478 54.5274C17.5296 55.2092 18.3983 55.6735 19.3439 55.8616C20.2896 56.0497 21.2698 55.9532 22.1606 55.5842C23.0514 55.2152 23.8127 54.5904 24.3484 53.7887C24.8841 52.987 25.17 52.0445 25.17 51.0803C25.17 49.7874 24.6564 48.5474 23.7421 47.6332C22.8279 46.7189 21.5879 46.2053 20.295 46.2053Z" fill="#707789"/>
<path d="M20.295 44.5804C19.0094 44.5804 17.7527 44.9617 16.6838 45.6759C15.6149 46.3901 14.7817 47.4053 14.2898 48.593C13.7978 49.7807 13.6691 51.0877 13.9199 52.3485C14.1707 53.6094 14.7898 54.7676 15.6988 55.6766C16.6078 56.5857 17.766 57.2047 19.0269 57.4556C20.2878 57.7064 21.5947 57.5776 22.7824 57.0857C23.9702 56.5937 24.9853 55.7606 25.6995 54.6917C26.4138 53.6227 26.795 52.366 26.795 51.0804C26.795 49.3565 26.1102 47.7032 24.8912 46.4843C23.6722 45.2653 22.0189 44.5804 20.295 44.5804ZM20.295 54.3304C19.6522 54.3304 19.0238 54.1398 18.4894 53.7827C17.9549 53.4256 17.5384 52.918 17.2924 52.3242C17.0464 51.7303 16.982 51.0768 17.1074 50.4464C17.2328 49.816 17.5424 49.2369 17.9969 48.7823C18.4514 48.3278 19.0305 48.0183 19.6609 47.8929C20.2914 47.7675 20.9448 47.8319 21.5387 48.0778C22.1326 48.3238 22.6401 48.7404 22.9973 49.2748C23.3544 49.8093 23.545 50.4377 23.545 51.0804C23.545 51.9424 23.2026 52.7691 22.5931 53.3785C21.9836 53.988 21.1569 54.3304 20.295 54.3304ZM85.295 44.5804C84.0094 44.5804 82.7527 44.9617 81.6838 45.6759C80.6149 46.3901 79.7818 47.4053 79.2898 48.593C78.7978 49.7807 78.6691 51.0877 78.9199 52.3485C79.1707 53.6094 79.7898 54.7676 80.6988 55.6766C81.6078 56.5857 82.766 57.2047 84.0269 57.4556C85.2878 57.7064 86.5947 57.5776 87.7824 57.0857C88.9702 56.5937 89.9853 55.7606 90.6996 54.6917C91.4138 53.6227 91.795 52.366 91.795 51.0804C91.795 49.3565 91.1102 47.7032 89.8912 46.4843C88.6722 45.2653 87.0189 44.5804 85.295 44.5804ZM85.295 54.3304C84.6522 54.3304 84.0239 54.1398 83.4894 53.7827C82.9549 53.4256 82.5384 52.918 82.2924 52.3242C82.0464 51.7303 81.982 51.0768 82.1074 50.4464C82.2328 49.816 82.5424 49.2369 82.9969 48.7823C83.4514 48.3278 84.0305 48.0183 84.661 47.8929C85.2914 47.7675 85.9449 47.8319 86.5387 48.0778C87.1326 48.3238 87.6402 48.7404 87.9973 49.2748C88.3544 49.8093 88.545 50.4377 88.545 51.0804C88.545 51.9424 88.2026 52.7691 87.5931 53.3785C86.9836 53.988 86.157 54.3304 85.295 54.3304Z" fill="black"/>
<path d="M104.522 25.8035L94.772 11.1784C94.6236 10.956 94.4225 10.7736 94.1866 10.6474C93.9508 10.5213 93.6875 10.4553 93.42 10.4553H88.545V5.58032C88.545 5.14935 88.3738 4.73602 88.069 4.43127C87.7643 4.12653 87.351 3.95532 86.92 3.95532H77.17C76.739 3.95532 76.3257 4.12653 76.0209 4.43127C75.7162 4.73602 75.545 5.14935 75.545 5.58032V10.4553H72.295V8.83032C72.295 7.53739 71.7814 6.29742 70.8671 5.38318C69.9529 4.46894 68.7129 3.95532 67.42 3.95532H26.795V2.33032C26.795 1.89935 26.6238 1.48602 26.319 1.18127C26.0143 0.876527 25.601 0.705322 25.17 0.705322H10.545C10.2331 0.705409 9.92785 0.795238 9.66564 0.96409C9.40343 1.13294 9.19535 1.37368 9.06623 1.65757L0.941233 19.5326C0.844993 19.7438 0.795124 19.9732 0.794983 20.2053L0.794983 51.0803C0.794983 51.5113 0.966188 51.9246 1.27093 52.2294C1.57568 52.5341 1.98901 52.7053 2.41998 52.7053H9.04998C9.43852 55.4107 10.7894 57.8854 12.8548 59.6754C14.9203 61.4654 17.5618 62.4507 20.295 62.4507C23.0281 62.4507 25.6697 61.4654 27.7351 59.6754C29.8006 57.8854 31.1514 55.4107 31.54 52.7053H74.05C74.4385 55.4107 75.7894 57.8854 77.8548 59.6754C79.9203 61.4654 82.5618 62.4507 85.295 62.4507C88.0282 62.4507 90.6697 61.4654 92.7351 59.6754C94.8006 57.8854 96.1515 55.4107 96.54 52.7053H103.17C103.601 52.7053 104.014 52.5341 104.319 52.2294C104.624 51.9246 104.795 51.5113 104.795 51.0803V26.7053C104.794 26.3844 104.7 26.0708 104.522 25.8035ZM100.134 25.0803H83.67V18.5803H95.8006L100.134 25.0803ZM93.6345 15.3303H82.045C81.614 15.3303 81.2007 15.5015 80.8959 15.8063C80.5912 16.111 80.42 16.5243 80.42 16.9553V26.7053C80.42 27.1363 80.5912 27.5496 80.8959 27.8544C81.2007 28.1591 81.614 28.3303 82.045 28.3303H101.545V31.5803H96.67C96.239 31.5803 95.8257 31.7515 95.5209 32.0563C95.2162 32.361 95.045 32.7744 95.045 33.2053V39.7053C95.045 40.1363 95.2162 40.5496 95.5209 40.8544C95.8257 41.1591 96.239 41.3303 96.67 41.3303H101.545V44.5803H94.616C93.3143 42.7074 91.4787 41.2698 89.3484 40.455C87.218 39.6401 84.8916 39.4856 82.6722 40.0117C80.4529 40.5378 78.4433 41.72 76.9054 43.4044C75.3675 45.0889 74.3725 47.1974 74.05 49.4553H72.295V13.7053H92.5506L93.6345 15.3303ZM101.545 34.8303V38.0803H98.295V34.8303H101.545ZM31.1825 47.8303H69.045V49.4553H31.54C31.4611 48.9056 31.3416 48.3624 31.1825 47.8303ZM78.795 7.20532H85.295V10.4553H78.795V7.20532ZM69.045 8.83032V44.5803H29.616C28.5704 43.0765 27.1767 41.8479 25.5537 40.999C23.9307 40.1502 22.1266 39.7063 20.295 39.7053H19.4662L32.762 7.20532H67.42C67.851 7.20532 68.2643 7.37653 68.569 7.68127C68.8738 7.98602 69.045 8.39935 69.045 8.83032ZM26.2604 7.20532H29.2487L15.953 39.7053H12.9662L26.2604 7.20532ZM4.04498 20.5579L11.5915 3.95532H23.545V5.25532L9.45461 39.7053H4.04498V20.5579ZM4.04498 42.9553H12.3504C10.5648 44.6997 9.40467 46.9845 9.04998 49.4553H4.04498V42.9553ZM20.295 59.2053C18.688 59.2053 17.1171 58.7288 15.781 57.836C14.4448 56.9432 13.4034 55.6743 12.7885 54.1896C12.1735 52.705 12.0126 51.0713 12.3261 49.4952C12.6396 47.9191 13.4134 46.4714 14.5497 45.3351C15.686 44.1988 17.1338 43.425 18.7099 43.1114C20.286 42.7979 21.9196 42.9588 23.4043 43.5738C24.8889 44.1888 26.1579 45.2302 27.0507 46.5663C27.9435 47.9025 28.42 49.4734 28.42 51.0803C28.4174 53.2344 27.5606 55.2995 26.0374 56.8227C24.5142 58.3459 22.4491 59.2028 20.295 59.2053ZM85.295 59.2053C83.688 59.2053 82.1171 58.7288 80.781 57.836C79.4448 56.9432 78.4034 55.6743 77.7885 54.1896C77.1735 52.705 77.0126 51.0713 77.3261 49.4952C77.6396 47.9191 78.4135 46.4714 79.5498 45.3351C80.6861 44.1988 82.1338 43.425 83.7099 43.1114C85.286 42.7979 86.9196 42.9588 88.4043 43.5738C89.8889 44.1888 91.1579 45.2302 92.0507 46.5663C92.9435 47.9025 93.42 49.4734 93.42 51.0803C93.4174 53.2344 92.5606 55.2995 91.0374 56.8227C89.5142 58.3459 87.4491 59.2028 85.295 59.2053ZM96.54 49.4553C96.4638 48.9058 96.347 48.3626 96.1906 47.8303H101.545V49.4553H96.54Z" fill="black"/>
<path d="M41.42 39.7053C42.7129 39.7053 43.9529 39.1917 44.8671 38.2775C45.7814 37.3632 46.295 36.1233 46.295 34.8303V18.5803C46.295 17.2874 45.7814 16.0474 44.8671 15.1332C43.9529 14.2189 42.7129 13.7053 41.42 13.7053C40.1271 13.7053 38.8871 14.2189 37.9728 15.1332C37.0586 16.0474 36.545 17.2874 36.545 18.5803V34.8303C36.545 36.1233 37.0586 37.3632 37.9728 38.2775C38.8871 39.1917 40.1271 39.7053 41.42 39.7053ZM39.795 18.5803C39.795 18.1493 39.9662 17.736 40.2709 17.4313C40.5757 17.1265 40.989 16.9553 41.42 16.9553C41.851 16.9553 42.2643 17.1265 42.569 17.4313C42.8738 17.736 43.045 18.1493 43.045 18.5803V34.8303C43.045 35.2613 42.8738 35.6746 42.569 35.9794C42.2643 36.2841 41.851 36.4553 41.42 36.4553C40.989 36.4553 40.5757 36.2841 40.2709 35.9794C39.9662 35.6746 39.795 35.2613 39.795 34.8303V18.5803ZM57.67 39.7053C58.9629 39.7053 60.2029 39.1917 61.1171 38.2775C62.0314 37.3632 62.545 36.1233 62.545 34.8303V18.5803C62.545 17.2874 62.0314 16.0474 61.1171 15.1332C60.2029 14.2189 58.9629 13.7053 57.67 13.7053C56.3771 13.7053 55.1371 14.2189 54.2228 15.1332C53.3086 16.0474 52.795 17.2874 52.795 18.5803V34.8303C52.795 36.1233 53.3086 37.3632 54.2228 38.2775C55.1371 39.1917 56.3771 39.7053 57.67 39.7053ZM56.045 18.5803C56.045 18.1493 56.2162 17.736 56.5209 17.4313C56.8257 17.1265 57.239 16.9553 57.67 16.9553C58.101 16.9553 58.5143 17.1265 58.819 17.4313C59.1238 17.736 59.295 18.1493 59.295 18.5803V34.8303C59.295 35.2613 59.1238 35.6746 58.819 35.9794C58.5143 36.2841 58.101 36.4553 57.67 36.4553C57.239 36.4553 56.8257 36.2841 56.5209 35.9794C56.2162 35.6746 56.045 35.2613 56.045 34.8303V18.5803Z" fill="black"/>
</svg>
