<svg width="94" height="85" viewBox="0 0 94 85" fill="none" xmlns="http://www.w3.org/2000/svg">
<path d="M32.9 75.454H39.1667V56.654H47V53.5206L39.1667 28.454H23.5V48.8206H1.56665V75.454H12.5333M60.3319 54.649L62.6667 39.4206L73.6112 29.2839L70.0364 24.1035L51.8316 37.3321L52.7258 54.9404L60.3319 54.649Z" fill="#85FF00"/>
<path d="M1.56665 75.4541V66.3157H6.26665L17.2333 56.6541H39.1667V75.4541" fill="#66C400"/>
<path d="M32.9 73.104C32.9 78.7281 28.3408 83.2873 22.7167 83.2873C17.0925 83.2873 12.5333 78.7281 12.5333 73.104C12.5333 67.4799 17.0925 62.9207 22.7167 62.9207C28.3408 62.9207 32.9 67.4799 32.9 73.104Z" fill="#4D4D4D"/>
<path d="M26.6333 73.1039C26.6333 75.2673 24.88 77.0206 22.7167 77.0206C20.5533 77.0206 18.8 75.2673 18.8 73.1039C18.8 70.9406 20.5533 69.1873 22.7167 69.1873C24.88 69.1873 26.6333 70.9406 26.6333 73.1039Z" fill="#85FF00"/>
<path d="M29.7667 34.7207H41.125L46.0224 50.3874H29.7667V34.7207Z" fill="#4EC3C7"/>
<path d="M1.56665 39.4207H7.83332V44.1207H1.56665V39.4207Z" fill="#4D4D4D"/>
<path d="M62.6667 62.9207L61.1 58.2207L60.1254 53.347C59.9588 52.5124 59.5081 51.7613 58.8501 51.2217C58.192 50.682 57.3672 50.3872 56.5161 50.3873C54.6596 50.3881 53.0945 51.7695 52.8642 53.6117L51.7 62.9207H45.4333V75.454H54.8333" fill="#66C400"/>
<path d="M39.1667 64.4873H45.4334V72.3206H39.1667V64.4873Z" fill="#177A96"/>
<path d="M73.5002 20.7101L70.9383 22.8137C70.3072 23.3294 69.8662 24.041 69.6852 24.8357C69.5043 25.6303 69.5937 26.4627 69.9393 27.2008C70.6997 28.8325 72.5333 29.6687 74.2645 29.1746L76.9188 28.4163L73.5002 20.7101Z" fill="#666666"/>
<path d="M75.2 73.104C75.2 78.7281 70.6408 83.2873 65.0166 83.2873C59.3925 83.2873 54.8333 78.7281 54.8333 73.104C54.8333 67.4799 59.3925 62.9207 65.0166 62.9207C70.6408 62.9207 75.2 67.4799 75.2 73.104Z" fill="#4D4D4D"/>
<path d="M68.9333 73.1039C68.9333 75.2673 67.18 77.0206 65.0166 77.0206C62.8533 77.0206 61.1 75.2673 61.1 73.1039C61.1 70.9406 62.8533 69.1873 65.0166 69.1873C67.18 69.1873 68.9333 70.9406 68.9333 73.1039Z" fill="#85FF00"/>
<path d="M22.7167 67.6206C19.6881 67.6206 17.2333 70.0754 17.2333 73.1039C17.2333 76.1325 19.6881 78.5873 22.7167 78.5873C25.7452 78.5873 28.2 76.1325 28.2 73.1039C28.2 70.0754 25.7452 67.6206 22.7167 67.6206ZM22.7167 75.4539C21.4185 75.4539 20.3667 74.4021 20.3667 73.1039C20.3667 71.8058 21.4185 70.7539 22.7167 70.7539C24.0149 70.7539 25.0667 71.8058 25.0667 73.1039C25.0667 74.4021 24.0149 75.4539 22.7167 75.4539ZM65.0167 78.5873C68.0452 78.5873 70.5 76.1325 70.5 73.1039C70.5 70.0754 68.0452 67.6206 65.0167 67.6206C61.9881 67.6206 59.5333 70.0754 59.5333 73.1039C59.5333 76.1325 61.9881 78.5873 65.0167 78.5873ZM65.0167 70.7539C66.3149 70.7539 67.3667 71.8058 67.3667 73.1039C67.3667 74.4021 66.3149 75.4539 65.0167 75.4539C63.7185 75.4539 62.6667 74.4021 62.6667 73.1039C62.6667 71.8058 63.7185 70.7539 65.0167 70.7539Z" fill="black"/>
<path d="M76.7667 73.104C76.7667 71.4596 76.4216 69.8335 75.7537 68.3309C75.0858 66.8283 74.1099 65.4827 72.8892 64.3809C71.6685 63.2789 70.23 62.4455 68.6669 61.9346C67.1037 61.4237 65.4507 61.2467 63.8148 61.4151L62.6183 57.8121L61.9476 54.4608L64.1409 40.204L74.3493 30.7489C74.4648 30.7244 74.5827 30.7084 74.7004 30.6755L76.0478 30.2897L76.909 32.2298C77.0325 32.5044 77.2325 32.7377 77.4851 32.9016C77.7377 33.0654 78.0322 33.1531 78.3333 33.154H92.4333C93.0667 33.154 93.6381 32.7721 93.8805 32.1869C94.123 31.6018 93.9885 30.9277 93.541 30.4797L87.6078 24.5449L82.8453 1.25368C82.7907 0.985097 82.6665 0.735572 82.4851 0.530059C82.3038 0.324546 82.0716 0.170248 81.8119 0.0825964C81.5522 -0.00528948 81.274 -0.0234183 81.0051 0.0300248C80.7362 0.0834678 80.4861 0.206608 80.2797 0.387117L72.5809 7.12418C72.3083 7.3619 72.1265 7.68685 72.0667 8.04361L70.5237 17.2272C70.4724 17.5306 70.5115 17.8424 70.6361 18.1237L71.5763 20.2558L69.9378 21.5967C69.4152 22.0305 68.983 22.5628 68.6656 23.1633L50.9167 36.0648C50.7057 36.2182 50.5363 36.4217 50.4238 36.6571C50.3113 36.8924 50.2593 37.152 50.2724 37.4125L51.153 54.7254L50.3184 61.3539H45.4333C45.0178 61.3539 44.6193 61.519 44.3255 61.8128C44.0317 62.1066 43.8667 62.5051 43.8667 62.9206H40.7333V58.2206H47C47.4155 58.2206 47.814 58.0556 48.1078 57.7618C48.4016 57.4679 48.5667 57.0695 48.5667 56.6539V53.5206C48.5667 53.3614 48.5422 53.2024 48.4948 53.0508L40.6615 27.9841C40.5614 27.6661 40.3625 27.3882 40.0937 27.191C39.8248 26.9937 39.5001 26.8873 39.1667 26.8873V23.754H36.0333V26.8873H26.6333V23.754H23.5V26.8873C23.0845 26.8873 22.686 27.0523 22.3922 27.3462C22.0984 27.64 21.9333 28.0384 21.9333 28.454V47.254H15.6667V37.854C15.6667 34.3932 12.8608 31.5873 9.4 31.5873H7.83333V34.7206H9.4C11.1304 34.7206 12.5333 36.1236 12.5333 37.854V47.254H6.26667V45.6873H7.83333C8.24884 45.6873 8.64733 45.5222 8.94113 45.2284C9.23494 44.9346 9.4 44.5361 9.4 44.1206V39.4206C9.4 39.0051 9.23494 38.6066 8.94113 38.3128C8.64733 38.019 8.24884 37.854 7.83333 37.854H1.56667C1.15116 37.854 0.752673 38.019 0.458866 38.3128C0.165059 38.6066 0 39.0051 0 39.4206L0 44.1206C0 44.5361 0.165059 44.9346 0.458866 45.2284C0.752673 45.5222 1.15116 45.6873 1.56667 45.6873H3.13333V47.254H1.56667C1.15116 47.254 0.752673 47.419 0.458866 47.7128C0.165059 48.0066 0 48.4051 0 48.8206L0 75.454C0 75.8695 0.165059 76.2679 0.458866 76.5618C0.752673 76.8556 1.15116 77.0206 1.56667 77.0206H11.6529C12.2923 78.8151 13.3573 80.4278 14.7564 81.7206H0V84.854H94V81.7206H72.98C74.1731 80.6246 75.1257 79.2928 75.7775 77.8096C76.4293 76.3264 76.7662 74.7241 76.7667 73.104ZM3.13333 40.9873H6.26667V42.554H3.13333V40.9873ZM73.6333 73.104C73.6333 77.8627 69.7754 81.7206 65.0167 81.7206C60.2579 81.7206 56.4 77.8627 56.4 73.104C56.4 68.3452 60.2579 64.4873 65.0167 64.4873C69.7735 64.4934 73.6273 68.3472 73.6333 73.104ZM75.0623 9.11306L80.3138 4.52018L84.6329 25.6341C84.6934 25.9351 84.8417 26.2114 85.059 26.4283L88.6514 30.0206H79.3515L78.3525 27.7709L75.0102 20.2511L73.6915 17.2838L75.0623 9.11306ZM71.929 24.0201L72.9021 23.2246L74.7533 27.3921L73.8323 27.6553C73.3534 27.7964 72.8396 27.7601 72.3852 27.5532C71.9309 27.3462 71.5663 26.9824 71.3583 26.5285C71.1617 26.1062 71.1111 25.6305 71.2147 25.1763C71.3184 24.7221 71.5702 24.3153 71.9306 24.0201H71.929ZM68.3129 27.2911C68.3711 27.4816 68.4392 27.6683 68.518 27.8512C68.9395 28.7606 69.6141 29.5294 70.461 30.0657L61.6011 38.2724C61.3414 38.5127 61.1714 38.8343 61.1192 39.1842L59.4957 49.7761C58.7051 49.2095 57.7693 48.8802 56.7981 48.8267C55.8269 48.7731 54.8605 48.9977 54.0124 49.4739L53.4341 38.1003L68.3129 27.2911ZM51.7 64.4873C52.0819 64.4874 52.4506 64.3479 52.7369 64.0952C53.0232 63.8424 53.2073 63.4938 53.2545 63.1149L54.2848 54.8617V54.8349L54.4133 53.8075C54.4743 53.3087 54.711 52.8479 55.081 52.5077C55.451 52.1676 55.9301 51.9705 56.4323 51.9516C56.9344 51.9328 57.4268 52.0934 57.8211 52.4048C58.2154 52.7162 58.4859 53.1579 58.5839 53.6506L59.5617 58.5244C59.5723 58.5886 59.5891 58.6513 59.6113 58.7124L60.7604 62.1594C56.2471 63.9166 53.2727 68.2608 53.2667 73.104C53.2667 73.3685 53.2888 73.6272 53.3058 73.8873H47V64.4873H51.7ZM43.8667 66.0539V70.7539H40.7333V66.0539H43.8667ZM43.8904 48.8206H31.3333V36.2873H39.9737L43.8904 48.8206ZM23.5 50.3873C23.9155 50.3873 24.314 50.2222 24.6078 49.9284C24.9016 49.6346 25.0667 49.2361 25.0667 48.8206V30.0206H38.0154L38.9945 33.154H29.7667C29.3512 33.154 28.9527 33.319 28.6589 33.6128C28.3651 33.9066 28.2 34.3051 28.2 34.7206V50.3873C28.2 50.8028 28.3651 51.2013 28.6589 51.4951C28.9527 51.7889 29.3512 51.9539 29.7667 51.9539H44.8695L45.4333 53.7586V55.0873H17.2333C16.8518 55.0872 16.4834 55.2265 16.1974 55.4789L5.67603 64.7489H3.13333V50.3873H23.5ZM3.13333 73.8873V67.8822H6.26667C6.64819 67.8824 7.0166 67.7431 7.30263 67.4906L17.8269 58.2206H37.6V73.8873H34.4293C34.4461 73.6272 34.4682 73.3685 34.4682 73.104C34.4682 66.6146 29.2076 61.3539 22.7182 61.3539C16.2289 61.3539 10.9682 66.6146 10.9682 73.104C10.9682 73.3685 10.9904 73.6272 11.0072 73.8873H3.13333ZM14.1 73.104C14.1 68.3452 17.9579 64.4873 22.7167 64.4873C27.4754 64.4873 31.3333 68.3452 31.3333 73.104C31.3333 77.8627 27.4754 81.7206 22.7167 81.7206C17.9599 81.7145 14.1061 77.8605 14.1 73.104ZM30.68 81.7206C32.0797 80.4285 33.1442 78.8155 33.782 77.0206H39.1667C39.5822 77.0206 39.9807 76.8556 40.2745 76.5618C40.5683 76.2679 40.7333 75.8695 40.7333 75.454V73.8873H43.8667V75.454C43.8667 75.8695 44.0317 76.2679 44.3255 76.5618C44.6193 76.8556 45.0178 77.0206 45.4333 77.0206H53.9513C54.5905 78.8152 55.6554 80.428 57.0549 81.7206H30.68Z" fill="black"/>
<path d="M6.26666 53.5206H9.4V56.654H6.26666V53.5206Z" fill="black"/>
</svg>
