<svg width="124" height="70" viewBox="0 0 124 70" fill="none" xmlns="http://www.w3.org/2000/svg">
<path d="M17.8802 67.5724C23.4928 67.5724 28.0427 63.0225 28.0427 57.41C28.0427 51.7974 23.4928 47.2476 17.8802 47.2476C12.2677 47.2476 7.7178 51.7974 7.7178 57.41C7.7178 63.0225 12.2677 67.5724 17.8802 67.5724Z" fill="#958B95"/>
<path d="M38.2051 67.5724C43.8176 67.5724 48.3675 63.0225 48.3675 57.41C48.3675 51.7974 43.8176 47.2476 38.2051 47.2476C32.5925 47.2476 28.0427 51.7974 28.0427 57.41C28.0427 63.0225 32.5925 67.5724 38.2051 67.5724Z" fill="#958B95"/>
<path d="M104.29 67.5724C109.903 67.5724 114.453 63.0225 114.453 57.41C114.453 51.7974 109.903 47.2476 104.29 47.2476C98.6778 47.2476 94.1279 51.7974 94.1279 57.41C94.1279 63.0225 98.6778 67.5724 104.29 67.5724Z" fill="#958B95"/>
<path d="M80.7121 47.2474H8.40463L13.7725 40.6033H75.3443L80.7121 47.2474Z" fill="#958B95"/>
<path d="M122.048 29.9654L117.591 17.4593C117.173 16.2841 116.401 15.2673 115.381 14.5483C114.362 13.8293 113.144 13.4433 111.897 13.4434H88.3793V56.0984H94.2119C94.8552 51.1055 99.1223 47.2477 104.29 47.2477C109.458 47.2477 113.725 51.1055 114.369 56.0984H114.453V48.6385H120.726C121.113 48.6385 121.483 48.485 121.757 48.2117C122.03 47.9384 122.184 47.5678 122.184 47.1813V30.7489C122.184 30.4819 122.138 30.2169 122.048 29.9654Z" fill="#85FF00"/>
<path d="M122.048 29.9654L117.591 17.4593C117.173 16.2841 116.401 15.2673 115.381 14.5483C114.362 13.8293 113.144 13.4433 111.897 13.4434H88.3793V56.0984H94.2119C94.8552 51.1055 99.1223 47.2477 104.29 47.2477C109.458 47.2477 113.725 51.1055 114.369 56.0984H114.453V48.6385H120.726C121.113 48.6385 121.483 48.485 121.757 48.2117C122.03 47.9384 122.184 47.5678 122.184 47.1813V30.7489C122.184 30.4819 122.138 30.2169 122.048 29.9654Z" fill="#85FF00"/>
<path d="M122.048 29.9654L117.591 17.4593C117.173 16.2841 116.401 15.2673 115.381 14.5483C114.362 13.8293 113.144 13.4433 111.897 13.4434H108.199L112.361 25.1216C112.45 25.3731 112.496 25.638 112.496 25.9049V33.5156C112.496 39.193 107.893 43.7945 102.217 43.7945H88.3795V56.0981H94.2122C94.8556 51.1052 99.1225 47.2474 104.291 47.2474C109.459 47.2474 113.726 51.1052 114.369 56.0981H114.453V48.6383H120.727C121.113 48.6383 121.484 48.4848 121.757 48.2115C122.03 47.9382 122.184 47.5675 122.184 47.181V30.7486C122.184 30.4817 122.138 30.2168 122.048 29.9654Z" fill="#6CCF00"/>
<path d="M79.2723 58.9086H56.6937C55.1415 58.9086 53.8833 57.6505 53.8833 56.0983V47.2476H82.0827V56.0983C82.0827 57.6505 80.8243 58.9086 79.2723 58.9086Z" fill="#D3CED5"/>
<path d="M17.8802 61.5177C20.1488 61.5177 21.9879 59.6786 21.9879 57.41C21.9879 55.1413 20.1488 53.3022 17.8802 53.3022C15.6116 53.3022 13.7725 55.1413 13.7725 57.41C13.7725 59.6786 15.6116 61.5177 17.8802 61.5177Z" fill="#D3CED5"/>
<path d="M38.2051 61.5177C40.4737 61.5177 42.3128 59.6786 42.3128 57.41C42.3128 55.1413 40.4737 53.3022 38.2051 53.3022C35.9364 53.3022 34.0974 55.1413 34.0974 57.41C34.0974 59.6786 35.9364 61.5177 38.2051 61.5177Z" fill="#D3CED5"/>
<path d="M104.29 61.5177C106.559 61.5177 108.398 59.6786 108.398 57.41C108.398 55.1413 106.559 53.3022 104.29 53.3022C102.022 53.3022 100.183 55.1413 100.183 57.41C100.183 59.6786 102.022 61.5177 104.29 61.5177Z" fill="#D3CED5"/>
<path d="M82.0827 47.2476H88.3795V56.0983H82.0827V47.2476Z" fill="#B4ACB7"/>
<path d="M110.597 20.709H96.2686C96.1032 20.709 95.9445 20.7747 95.8276 20.8916C95.7106 21.0086 95.6449 21.1672 95.6449 21.3326V27.6428C95.6449 27.9451 95.8617 28.2037 96.1591 28.2568L113.86 31.4127C114.332 31.4967 114.718 31.0405 114.557 30.5895L111.184 21.1234C111.141 21.0021 111.061 20.8972 110.956 20.823C110.851 20.7488 110.725 20.709 110.597 20.709Z" fill="#D5DFF4"/>
<path d="M120.726 56.0983H114.453V48.6384H120.726C121.113 48.6384 121.483 48.792 121.757 49.0652C122.03 49.3385 122.184 49.7092 122.184 50.0957V54.6408C122.184 54.8322 122.146 55.0217 122.073 55.1985C122 55.3754 121.892 55.536 121.757 55.6714C121.622 55.8067 121.461 55.9141 121.284 55.9873C121.107 56.0606 120.918 56.0983 120.726 56.0983Z" fill="#D3CED5"/>
<path d="M28.0426 57.41C28.0426 51.7975 23.4929 47.2476 17.8802 47.2476C12.2675 47.2476 7.71779 51.7973 7.71779 57.41H3.10605C2.76402 57.41 2.43599 57.2741 2.19414 57.0323C1.95228 56.7904 1.81641 56.4624 1.81641 56.1203V48.5372C1.81641 48.1952 1.95228 47.8671 2.19414 47.6253C2.43599 47.3834 2.76402 47.2476 3.10605 47.2476H53.8833V56.5296H48.3297C47.8834 51.3294 43.5211 47.2476 38.2051 47.2476C32.5924 47.2476 28.0426 51.7973 28.0426 57.41Z" fill="#B4ACB7"/>
<path d="M75.3443 40.6033H14.8517C7.6524 40.6033 1.81641 34.7673 1.81641 27.568V21.5177C1.81641 14.3184 7.6524 8.48242 14.8517 8.48242H75.3443C82.5433 8.48242 88.3795 14.3184 88.3795 21.5177V27.568C88.3795 34.7673 82.5433 40.6033 75.3443 40.6033Z" fill="#85FF00"/>
<path d="M75.8035 8.49072C77.6765 10.8064 78.6963 13.6958 78.6918 16.6742C78.6918 27.215 70.147 35.7598 59.6062 35.7598H5.16417C5.01038 35.7598 4.85732 35.7572 4.70474 35.7518C7.09441 38.7109 10.7519 40.6036 14.8517 40.6036H75.3443C82.5433 40.6036 88.3796 34.7676 88.3796 27.5683V21.518C88.3796 14.4725 82.7901 8.73267 75.8035 8.49072Z" fill="#6CCF00"/>
<path d="M62.1242 2.42773H69.2896V8.48242H62.1242V2.42773Z" fill="#958B95"/>
<path d="M76.2958 22.6841H53.3486C53.2664 22.6841 53.1876 22.6514 53.1295 22.5933C53.0715 22.5352 53.0388 22.4564 53.0388 22.3743V16.0578C53.0389 15.9757 53.0715 15.8969 53.1296 15.8388C53.1877 15.7808 53.2664 15.7481 53.3486 15.748H76.2958C76.378 15.7481 76.4567 15.7808 76.5148 15.8388C76.5729 15.8969 76.6055 15.9757 76.6056 16.0578V22.3743C76.6056 22.5455 76.4668 22.6841 76.2958 22.6841Z" fill="#85FF00"/>
<path d="M17.8802 51.4854C14.6136 51.4854 11.9561 54.143 11.9561 57.4096C11.9561 60.6762 14.6136 63.3337 17.8802 63.3337C21.1468 63.3337 23.8044 60.6762 23.8044 57.4096C23.8044 54.143 21.1468 51.4854 17.8802 51.4854ZM17.8802 59.7009C16.6167 59.7009 15.5889 58.6731 15.5889 57.4096C15.5889 56.1461 16.6167 55.1183 17.8802 55.1183C19.1437 55.1183 20.1715 56.1461 20.1715 57.4096C20.1715 58.6731 19.1437 59.7009 17.8802 59.7009ZM38.2051 51.4854C34.9384 51.4854 32.2809 54.143 32.2809 57.4096C32.2809 60.6762 34.9384 63.3337 38.2051 63.3337C41.4717 63.3337 44.1292 60.6762 44.1292 57.4096C44.1292 54.143 41.4717 51.4854 38.2051 51.4854ZM38.2051 59.7009C36.9416 59.7009 35.9137 58.6731 35.9137 57.4096C35.9137 56.1461 36.9416 55.1183 38.2051 55.1183C39.4686 55.1183 40.4964 56.1461 40.4964 57.4096C40.4964 58.6731 39.4686 59.7009 38.2051 59.7009ZM104.29 63.3337C107.557 63.3337 110.214 60.6762 110.214 57.4096C110.214 54.143 107.557 51.4854 104.29 51.4854C101.024 51.4854 98.3661 54.143 98.3661 57.4096C98.3661 60.6762 101.024 63.3337 104.29 63.3337ZM104.29 55.1183C105.554 55.1183 106.582 56.1461 106.582 57.4096C106.582 58.6731 105.554 59.7009 104.29 59.7009C103.027 59.7009 101.999 58.6731 101.999 57.4096C101.999 56.1461 103.027 55.1183 104.29 55.1183ZM110.597 18.8923H96.2685C94.9232 18.8923 93.8288 19.987 93.8288 21.3324V27.6428C93.8288 28.8271 94.6747 29.8375 95.8404 30.0451L113.541 33.2005C115.382 33.5294 116.897 31.7406 116.268 29.9794L112.895 20.5121C112.725 20.0385 112.413 19.6288 112.002 19.339C111.59 19.0491 111.1 18.8931 110.597 18.8923ZM97.4616 26.644V22.5251H109.755L112.157 29.2638L97.4616 26.644Z" fill="black"/>
<path d="M122.184 38.8309C123.187 38.8309 124 38.0179 124 37.0145V30.7487C124 30.2735 123.919 29.8051 123.759 29.3556L119.303 16.8495C118.189 13.7258 115.213 11.6267 111.897 11.6267H88.3798C88.111 11.6264 87.8455 11.6859 87.6026 11.8009C87.3596 11.9159 87.1453 12.0835 86.9751 12.2915C84.2519 8.86605 80.0502 6.66626 75.3445 6.66626H71.1063V4.24439H71.1879C72.1913 4.24439 73.0043 3.43136 73.0043 2.42798C73.0043 1.4246 72.1913 0.611572 71.1879 0.611572H60.2265C59.2231 0.611572 58.4101 1.4246 58.4101 2.42798C58.4101 3.43136 59.2231 4.24439 60.2265 4.24439H60.3081V6.66626H39.0164C38.013 6.66626 37.2 7.47928 37.2 8.48267C37.2 9.48605 38.013 10.2991 39.0164 10.2991H75.3445C81.5307 10.2991 86.5634 15.3317 86.5634 21.5177V27.568C86.5634 33.7482 81.5404 38.7769 75.3625 38.7869H27.3708V10.2991H30.5396C31.543 10.2991 32.356 9.48605 32.356 8.48267C32.356 7.47928 31.543 6.66626 30.5396 6.66626H27.2674C27.1421 6.31213 26.91 6.00555 26.6033 5.78871C26.2965 5.57188 25.9301 5.45545 25.5544 5.45545C25.1788 5.45545 24.8123 5.57188 24.5056 5.78871C24.1988 6.00555 23.9668 6.31213 23.8414 6.66626H16.5647C16.4362 6.30352 16.196 5.99091 15.8785 5.77347C15.5611 5.55603 15.1828 5.44497 14.7981 5.45631C14.4135 5.46765 14.0424 5.6008 13.7383 5.83656C13.4342 6.07233 13.2128 6.39855 13.106 6.76822C5.73645 7.63501 0 13.919 0 21.5177V27.568C0 34.2422 4.42549 39.9024 10.4964 41.7682L7.53712 45.431H3.10581C1.3933 45.431 0 46.8243 0 48.5371V56.1205C0 57.833 1.3933 59.2263 3.10581 59.2263H6.03895C6.91687 64.9724 11.8926 69.3887 17.8802 69.3887C22.1606 69.3887 25.9237 67.132 28.0426 63.7457C30.1615 67.132 33.9247 69.3887 38.2051 69.3887C44.4952 69.3887 49.6683 64.5152 50.1473 58.3459H52.6504C53.4418 59.7639 54.9574 60.7249 56.6934 60.7249H58.4333V61.0882C58.4333 62.0916 59.2463 62.9046 60.2497 62.9046C61.2531 62.9046 62.0661 62.0916 62.0661 61.0882V60.7249H73.8996V61.0882C73.8996 62.0916 74.7127 62.9046 75.716 62.9046C76.7194 62.9046 77.5325 62.0916 77.5325 61.0882V60.7249H79.2721C81.1788 60.7249 82.8199 59.5656 83.5273 57.9146H92.3221C92.5876 64.2863 97.8544 69.3885 104.29 69.3885C110.726 69.3885 115.993 64.2863 116.258 57.9146H120.726C122.532 57.9146 124 56.4462 124 54.6407V50.0956C124 49.5722 123.877 49.0772 123.658 48.6381C123.883 48.1856 124.001 47.6866 124 47.1808V45.4909C124 44.4875 123.187 43.6744 122.184 43.6744C121.18 43.6744 120.367 44.4875 120.367 45.4909V46.8217H114.453C114.214 46.8216 113.978 46.8686 113.758 46.9599C113.537 47.0511 113.337 47.1849 113.169 47.3536C113 47.5223 112.866 47.7225 112.775 47.9429C112.683 48.1633 112.637 48.3995 112.637 48.6381V48.8248C110.478 46.7255 107.532 45.4308 104.291 45.4308C98.7672 45.4308 94.1049 49.1883 92.7261 54.2815H90.1962V15.2596H111.897C113.681 15.2596 115.282 16.3886 115.881 18.0692L120.337 30.574C120.357 30.6305 120.367 30.6896 120.367 30.7489V37.0148C120.367 37.2533 120.414 37.4895 120.505 37.7098C120.597 37.9302 120.731 38.1304 120.899 38.2991C121.068 38.4677 121.268 38.6015 121.489 38.6928C121.709 38.784 121.945 38.831 122.184 38.8309ZM63.9406 6.66626V4.24439H67.4732V6.66626H63.9406ZM116.269 50.4547H120.367V54.2818H116.269V50.4547ZM104.29 49.0639C108.892 49.0639 112.636 52.8078 112.636 57.4096C112.636 62.0117 108.892 65.7557 104.29 65.7557C99.6883 65.7557 95.9443 62.0117 95.9443 57.4096C95.9443 52.8078 99.6883 49.0639 104.29 49.0639ZM16.6681 38.7871V34.5178H23.7378V38.7871H16.6681ZM16.6681 22.4084H23.7378V24.8303H16.6681V22.4084ZM16.6681 28.4631H23.7378V30.885H16.6681V28.4631ZM23.738 18.7756H16.6681V16.3538H23.7378L23.738 18.7756ZM23.738 12.7209H16.6681V10.2991H23.7378L23.738 12.7209ZM3.63281 27.568V21.5177C3.63281 15.95 7.7098 11.3167 13.0353 10.4461V38.6399C7.7098 37.7694 3.63281 33.1359 3.63281 27.568ZM14.6412 42.4182C14.8115 42.4206 73.9592 42.4197 74.4765 42.4197L76.9093 45.431H12.207L14.6412 42.4182ZM46.7899 49.0639H52.0672V54.7129H49.8778C49.3774 52.548 48.2888 50.6054 46.7899 49.0639ZM29.6203 49.0639C29.0248 49.6761 28.4959 50.3499 28.0426 51.0738C27.5895 50.3498 27.0606 49.6761 26.465 49.0639H29.6203ZM3.63281 49.0639H9.2954C7.59597 50.8115 6.42378 53.0745 6.03895 55.5932H3.63281V49.0639ZM17.8802 65.7557C13.2782 65.7557 9.5342 62.0117 9.5342 57.4096C9.5342 52.8078 13.2782 49.0639 17.8802 49.0639C22.4823 49.0639 26.2262 52.8078 26.2262 57.4096C26.2262 62.0117 22.4823 65.7557 17.8802 65.7557ZM38.2051 65.7557C33.603 65.7557 29.8591 62.0117 29.8591 57.4096C29.8591 52.8078 33.603 49.0639 38.2051 49.0639C42.8069 49.0639 46.5509 52.8078 46.5509 57.4096C46.5509 62.0117 42.8069 65.7557 38.2051 65.7557ZM56.6937 57.0921C56.4302 57.0918 56.1775 56.987 55.9912 56.8007C55.8049 56.6143 55.7001 56.3617 55.6997 56.0982V49.0639H58.4333V57.0919H56.6937V57.0921ZM62.0661 57.0921V49.0639H73.8996V57.0919H62.0661V57.0921ZM79.2721 57.0921H77.5325V49.0639H80.266V56.0982C80.2658 56.3617 80.161 56.6144 79.9747 56.8008C79.7883 56.9871 79.5356 57.0919 79.2721 57.0921ZM83.8991 49.0639H86.5631V54.2818H83.8991V49.0639ZM86.5631 45.431H81.5797L78.8158 42.0101C81.8734 41.2751 84.5658 39.5919 86.5631 37.2899V45.431Z" fill="black"/>
<path d="M78.422 16.0578C78.422 14.8854 77.4683 13.9319 76.2961 13.9319H53.3488C52.1764 13.9319 51.2229 14.8856 51.2229 16.0578V22.3743C51.2229 23.5467 52.1766 24.5005 53.3488 24.5005H62.2376C63.241 24.5005 64.054 23.6874 64.054 22.6841C64.054 21.6807 63.241 20.8677 62.2376 20.8677H54.8555V17.5645H74.7892V20.8677H70.7139C69.7105 20.8677 68.8975 21.6807 68.8975 22.6841C68.8975 23.6874 69.7105 24.5005 70.7139 24.5005H76.2958C77.4683 24.5005 78.4218 23.5467 78.4218 22.3743V16.0578H78.422ZM64.8222 26.9223C63.8188 26.9223 63.0058 27.7354 63.0058 28.7387C63.0058 29.7421 63.8188 30.5552 64.8222 30.5552H76.6054C77.6087 30.5552 78.4218 29.7421 78.4218 28.7387C78.4218 27.7354 77.6087 26.9223 76.6054 26.9223H64.8222Z" fill="black"/>
</svg>
