<svg width="115" height="62" viewBox="0 0 115 62" fill="none" xmlns="http://www.w3.org/2000/svg">
<path d="M112.687 30.8619V50.8226C112.687 52.0936 111.656 53.1238 110.386 53.1238H83.6285V14.3741C83.6285 12.9669 84.7692 11.8262 86.1765 11.8262H103.518C104.559 11.8262 105.496 12.4601 105.883 13.4273L107.511 17.4927L112.522 30.0067C112.631 30.2786 112.687 30.5689 112.687 30.8619Z" fill="#85FF00"/>
<path d="M112.522 30.0065L107.51 17.4925L105.883 13.4271C105.694 12.9545 105.367 12.5494 104.946 12.264C104.524 11.9787 104.027 11.8262 103.518 11.8262H100.059C101.101 11.8262 102.037 12.4603 102.424 13.4271L104.052 17.4925L109.063 30.0065C109.172 30.2786 109.228 30.5689 109.228 30.8619V50.8226C109.228 52.0936 108.198 53.1238 106.927 53.1238H110.385C111.656 53.1238 112.687 52.0936 112.687 50.8226V30.8619C112.687 30.5689 112.631 30.2786 112.522 30.0065Z" fill="#BCDF95"/>
<path d="M77.156 44.0745H18.1942V26.458L32.9758 5.51807H77.156V44.0745Z" fill="#85FF00"/>
<path d="M72.7673 5.51807H77.1558V44.0748H72.7673V5.51807Z" fill="#75E000"/>
<path d="M77.156 18.4058H83.6297V34.5109H77.156V18.4058Z" fill="#6B6B6B"/>
<path d="M83.6295 49.6871H22.0048L18.1942 44.0747H83.6295V49.6871Z" fill="#EFECEF"/>
<path d="M80.3926 44.0747H83.6294V49.6869H80.3926V44.0747Z" fill="#D3CED5"/>
<path d="M112.687 30.8619V32.4749H101.133C99.4906 32.4749 98.1586 31.1431 98.1586 29.5001V20.4647C98.1586 18.8231 99.4895 17.4924 101.131 17.4924H107.51L112.522 30.0064C112.631 30.2785 112.687 30.5689 112.687 30.8619Z" fill="#90D8F9"/>
<path d="M112.522 30.0064L108.014 18.7509L107.511 17.4924H104.052L109.063 30.0064C109.172 30.2785 109.228 30.5689 109.228 30.8619V32.4749H112.687V30.8619C112.687 30.5689 112.631 30.2785 112.522 30.0064Z" fill="#75CEF9"/>
<path d="M31.2714 7.93237H14.652L6.12671 15.0671L2.02396 27.0714V39.1232H18.1941V26.458L31.2714 7.93237Z" fill="#6B6B6B"/>
<path d="M13.8058 26.458V39.1232H18.1944V26.458L31.2715 7.93237H26.8831L13.8058 26.458Z" fill="#4D5961"/>
<path d="M38.9297 60.3285C43.418 60.3285 47.0566 56.69 47.0566 52.2016C47.0566 47.7132 43.418 44.0747 38.9297 44.0747C34.4413 44.0747 30.8027 47.7132 30.8027 52.2016C30.8027 56.69 34.4413 60.3285 38.9297 60.3285Z" fill="#6B6B6B"/>
<path d="M38.9297 44.0747C38.3799 44.0747 37.8433 44.1301 37.3243 44.2339C41.0436 44.9794 43.846 48.2627 43.846 52.2016C43.846 56.1405 41.0438 59.4241 37.3243 60.1693C37.8433 60.2733 38.3799 60.3285 38.9297 60.3285C43.4181 60.3285 47.0566 56.69 47.0566 52.2014C47.0566 47.7132 43.4181 44.0747 38.9297 44.0747Z" fill="#4D5961"/>
<path d="M98.4361 60.3285C102.924 60.3285 106.563 56.69 106.563 52.2016C106.563 47.7132 102.924 44.0747 98.4361 44.0747C93.9477 44.0747 90.3091 47.7132 90.3091 52.2016C90.3091 56.69 93.9477 60.3285 98.4361 60.3285Z" fill="#6B6B6B"/>
<path d="M98.4362 44.0747C97.8864 44.0747 97.3498 44.1301 96.8308 44.2339C100.55 44.9794 103.353 48.2627 103.353 52.2016C103.353 56.1405 100.55 59.4241 96.8308 60.1693C97.3498 60.2733 97.8864 60.3285 98.4362 60.3285C102.925 60.3285 106.563 56.69 106.563 52.2014C106.563 47.7132 102.925 44.0747 98.4362 44.0747Z" fill="#4D5961"/>
<path d="M114.072 29.3857L107.433 12.8063C106.789 11.1965 105.252 10.1562 103.518 10.1562H100.17C99.2471 10.1562 98.4996 10.9037 98.4996 11.8262C98.4996 12.7487 99.2471 13.4961 100.17 13.4961H103.518C103.879 13.4961 104.199 13.7128 104.333 14.0479L105.044 15.8227H101.131C98.5717 15.8227 96.4889 17.9055 96.4889 20.4652V29.5006C96.4889 32.0616 98.5724 34.1451 101.133 34.1451H111.017V50.8228C111.017 50.9902 110.95 51.1507 110.832 51.269C110.713 51.3873 110.553 51.4539 110.385 51.4541H108.202C107.818 46.4006 103.586 42.4049 98.4361 42.4049C93.286 42.4049 89.0543 46.4003 88.6706 51.4541H85.2984C85.2984 51.4316 85.2998 13.2303 85.2984 14.3743C85.2987 14.1415 85.3912 13.9184 85.5558 13.7538C85.7204 13.5892 85.9436 13.4966 86.1764 13.4964H93.4922C94.4146 13.4964 95.1621 12.7489 95.1621 11.8264C95.1621 10.9039 94.4146 10.1564 93.4922 10.1564H86.1764C83.8507 10.1564 81.9585 12.0486 81.9585 14.3743V16.7359H78.8257V2.27445C78.8257 1.35197 78.0782 0.604492 77.1557 0.604492C76.2332 0.604492 75.4858 1.35197 75.4858 2.27445V3.84822H64.136V2.27445C64.136 1.35197 63.3886 0.604492 62.4661 0.604492C61.5436 0.604492 60.7961 1.35197 60.7961 2.27445V3.84822H49.4464V2.27445C49.4464 1.35197 48.6989 0.604492 47.7765 0.604492C46.854 0.604492 46.1065 1.35197 46.1065 2.27445V3.84822H34.7566V2.27445C34.7566 1.35197 34.0091 0.604492 33.0866 0.604492C32.1641 0.604492 31.4166 1.35197 31.4166 2.27445V4.83083L30.406 6.26276H14.6799C14.2787 6.25776 13.8889 6.39573 13.5801 6.65197L5.05489 13.7867C4.81018 13.9965 4.64185 14.2483 4.54655 14.5273L0.443797 26.5316C0.386961 26.7061 0.356711 26.8881 0.354065 27.0716L0.354065 39.1233C0.354065 40.0458 1.10154 40.7933 2.02402 40.7933H6.77049C7.69298 40.7933 8.44045 40.0458 8.44045 39.1233C8.44045 38.2008 7.69298 37.4534 6.77049 37.4534H3.69398V28.6792L16.5242 28.1924V37.4531H13.4477C12.5252 37.4531 11.7777 38.2006 11.7777 39.1231C11.7777 40.0456 12.5252 40.7931 13.4477 40.7931H16.5242V44.0744C16.5259 44.4087 16.6262 44.735 16.8125 45.0125L20.6229 50.6247C20.776 50.8501 20.982 51.0347 21.2228 51.1623C21.4636 51.2899 21.732 51.3566 22.0045 51.3566H29.1713C29.1464 51.6375 29.1335 51.9193 29.1326 52.2013C29.1326 54.6733 30.0548 56.9327 31.5709 58.6583H2.02402C1.10154 58.6583 0.354065 59.4058 0.354065 60.3283C0.354065 61.2507 1.10154 61.9982 2.02402 61.9982H112.395C113.318 61.9982 114.065 61.2507 114.065 60.3283C114.065 59.4058 113.318 58.6583 112.395 58.6583H105.795C106.774 57.5449 107.488 56.2234 107.882 54.7936H110.385C112.575 54.7936 114.356 53.012 114.356 50.8224V30.8617C114.357 30.356 114.26 29.855 114.072 29.3857ZM88.9899 54.7938C89.3838 56.2236 90.0976 57.5452 91.0774 58.6585H46.2884C47.8045 56.9329 48.7268 54.6735 48.7268 52.2016C48.7268 51.9168 48.7119 51.6356 48.688 51.3568H57.9407C58.8632 51.3568 59.6107 50.6093 59.6107 49.6868C59.6107 48.7643 58.8632 48.0169 57.9407 48.0169H47.7858C47.3944 47.1937 46.8905 46.4289 46.2884 45.7446H81.9587V48.0169H64.6177C63.6952 48.0169 62.9477 48.7643 62.9477 49.6868C62.9477 50.6093 63.6952 51.3568 64.6177 51.3568H81.9587V53.1238C81.9587 54.0463 82.7062 54.7938 83.6287 54.7938H88.9899ZM78.8257 36.1809H81.9585V42.4049H78.8257V36.1809ZM81.9585 20.0755V32.8407H78.8257V20.0755H81.9585ZM75.4858 7.18814V42.4049H64.136V7.18814H75.4858ZM60.7961 7.18814V42.4049H49.4464V7.18814H60.7961ZM46.1065 7.18814V42.4049H34.7566V7.18814H46.1065ZM6.86757 18.0631L14.1533 24.9405L4.39047 25.3108L6.86757 18.0631ZM13.5454 11.0364L15.5839 21.6979L8.63929 15.1425L13.5454 11.0364ZM19.8641 26.9883L31.4169 10.622V42.4047H19.8641V26.9883ZM19.0964 22.2846L16.6716 9.60246H28.0487L19.0964 22.2846ZM22.8892 48.0171L21.3463 45.7448H31.5707C30.9687 46.4292 30.4647 47.1939 30.0733 48.0171H22.8892ZM32.4725 52.2018C32.4725 48.6414 35.3693 45.7448 38.9297 45.7448C42.49 45.7448 45.3866 48.6414 45.3866 52.2018C45.3866 55.7621 42.49 58.6587 38.9297 58.6587C35.3693 58.6587 32.4725 55.7621 32.4725 52.2018ZM91.9792 52.2018C91.9792 48.6414 94.8758 45.7448 98.4361 45.7448C101.996 45.7448 104.893 48.6414 104.893 52.2018C104.893 55.7621 101.996 58.6587 98.4361 58.6587C94.8758 58.6587 91.9792 55.7621 91.9792 52.2018ZM99.8286 29.5004V20.465C99.829 20.1196 99.9663 19.7885 100.211 19.5443C100.455 19.3001 100.786 19.1628 101.131 19.1624H106.38L110.971 30.6272C110.985 30.6611 110.994 30.696 111.002 30.7315C111.004 30.7421 111.006 30.753 111.007 30.764C111.01 30.7775 111.01 30.7913 111.011 30.8049H101.133C100.788 30.8045 100.456 30.6669 100.211 30.4224C99.9667 30.1778 99.8291 29.8462 99.8286 29.5004Z" fill="black"/>
<path d="M38.9296 50.1572C38.7103 50.1572 38.4932 50.2004 38.2905 50.2843C38.0879 50.3682 37.9038 50.4912 37.7487 50.6463C37.5937 50.8014 37.4706 50.9855 37.3867 51.1881C37.3028 51.3907 37.2596 51.6079 37.2597 51.8272V52.576C37.2597 53.4985 38.0071 54.246 38.9296 54.246C39.8521 54.246 40.5996 53.4985 40.5996 52.576V51.8272C40.5996 51.3843 40.4237 50.9595 40.1105 50.6464C39.7973 50.3332 39.3725 50.1572 38.9296 50.1572ZM98.4361 50.1572C98.2168 50.1572 97.9996 50.2004 97.797 50.2843C97.5944 50.3682 97.4103 50.4912 97.2552 50.6463C97.1001 50.8014 96.9771 50.9855 96.8932 51.1881C96.8093 51.3907 96.7661 51.6079 96.7661 51.8272V52.576C96.7661 53.4985 97.5136 54.246 98.4361 54.246C99.3586 54.246 100.106 53.4985 100.106 52.576V51.8272C100.106 51.3843 99.9301 50.9595 99.6169 50.6464C99.3037 50.3332 98.879 50.1572 98.4361 50.1572Z" fill="black"/>
</svg>
