<svg width="107" height="65" viewBox="0 0 107 65" fill="none" xmlns="http://www.w3.org/2000/svg">
<path d="M33.6829 57.528L52.8232 55.1629L44.7567 52.1399L29.9551 52.6881L33.6829 57.528Z" fill="#788D9A"/>
<path d="M28.749 53.8785H45.8531L59.9028 56.9015H91.9808L86.0758 43.7445L30.1117 42.7264L14.0414 41.4734V50.1821H25.8357C25.8513 50.1664 27.1984 51.999 28.749 53.8785Z" fill="#263B47"/>
<path d="M38.6012 53.8941H15.0596L18.944 46.0469C19.4452 45.0288 20.479 44.3866 21.6067 44.3866H32.0697C33.1974 44.3866 34.2155 45.0288 34.7324 46.0469L38.6012 53.8941Z" fill="#85FF00"/>
<path d="M36.0951 53.8942H17.5657C18.944 50.0568 22.5779 47.3314 26.8225 47.3314C31.0829 47.3314 34.7167 50.0725 36.0951 53.8942Z" fill="#263B47"/>
<path d="M96.8364 64.968C101.153 64.968 104.652 61.4688 104.652 57.1522C104.652 52.8356 101.153 49.3363 96.8364 49.3363C92.5198 49.3363 89.0205 52.8356 89.0205 57.1522C89.0205 61.4688 92.5198 64.968 96.8364 64.968Z" fill="black"/>
<path d="M96.8364 61.6318C99.3105 61.6318 101.316 59.6262 101.316 57.1521C101.316 54.6781 99.3105 52.6725 96.8364 52.6725C94.3624 52.6725 92.3568 54.6781 92.3568 57.1521C92.3568 59.6262 94.3624 61.6318 96.8364 61.6318Z" fill="#85FF00"/>
<path d="M98.575 57.1521C98.575 58.1076 97.8075 58.8751 96.8521 58.8751C95.8966 58.8751 95.1292 58.1076 95.1292 57.1521C95.1292 56.1967 95.8966 55.4292 96.8521 55.4292C97.7919 55.4292 98.575 56.1967 98.575 57.1521Z" fill="#788D9A"/>
<path d="M34.6383 57.1521C34.6381 58.1787 34.4357 59.1952 34.0426 60.1436C33.6496 61.092 33.0736 61.9537 32.3475 62.6794C31.6215 63.4052 30.7595 63.9809 29.811 64.3735C28.8625 64.7662 27.8459 64.9682 26.8193 64.968C25.7927 64.9678 24.7762 64.7654 23.8278 64.3723C22.8794 63.9793 22.0178 63.4033 21.292 62.6772C20.5662 61.9512 19.9906 61.0893 19.5979 60.1407C19.2052 59.1922 19.0032 58.1756 19.0034 57.149C19.0038 55.0757 19.8279 53.0875 21.2942 51.6217C22.7605 50.1559 24.7491 49.3327 26.8224 49.3331C28.8957 49.3335 30.884 50.1576 32.3497 51.6239C33.8155 53.0903 34.6387 55.0788 34.6383 57.1521Z" fill="black"/>
<path d="M31.3022 57.1521C31.3022 58.0381 31.0394 58.9042 30.5472 59.6409C30.055 60.3775 29.3554 60.9517 28.5368 61.2908C27.7183 61.6298 26.8176 61.7185 25.9486 61.5457C25.0796 61.3728 24.2814 60.9462 23.655 60.3197C23.0285 59.6932 22.6018 58.895 22.429 58.0261C22.2561 57.1571 22.3448 56.2564 22.6839 55.4378C23.0229 54.6193 23.5971 53.9197 24.3338 53.4274C25.0705 52.9352 25.9365 52.6725 26.8225 52.6725C29.2973 52.6881 31.3022 54.693 31.3022 57.1521Z" fill="#85FF00"/>
<path d="M28.5611 57.1521C28.5611 58.1076 27.7936 58.8751 26.8382 58.8751C25.8827 58.8751 25.1152 58.1076 25.1152 57.1521C25.1152 56.1967 25.8827 55.4292 26.8382 55.4292C27.778 55.4292 28.5611 56.1967 28.5611 57.1521Z" fill="#788D9A"/>
<path d="M99.8907 41.4576L106.61 48.0988V50.7772H99.8907V41.4576Z" fill="#85FF00"/>
<path d="M102.412 36.6022C101.606 36.6733 100.855 37.0441 100.308 37.6413C99.7613 38.2385 99.458 39.019 99.458 39.8288C99.458 40.6386 99.7613 41.419 100.308 42.0162C100.855 42.6135 101.606 42.9842 102.412 43.0554V36.6022Z" fill="#85FF00"/>
<path d="M102.412 36.6022H103.274V43.0397H102.412V36.6022Z" fill="#788D9A"/>
<path d="M98.5312 33.5975L98.536 33.6069L98.5411 33.6162C98.7719 34.0432 98.8867 34.5288 98.8753 34.9958L98.875 35.008V35.0202V51.0435C98.875 52.7624 97.4745 54.1629 95.7556 54.1629H68.1886C66.4697 54.1629 65.0692 52.7624 65.0692 51.0435V10.8364C65.0692 9.11758 66.4697 7.71705 68.1886 7.71705L83.3348 7.71705L83.3365 7.71705C83.9101 7.71604 84.4727 7.8738 84.9621 8.17287C85.4515 8.47194 85.8485 8.90064 86.1093 9.41148L86.1104 9.41373L98.5312 33.5975Z" fill="#85FF00" stroke="black" stroke-width="2"/>
<path d="M92.0121 25.5754L84.6662 11.275C84.2276 10.4135 83.3504 9.88098 82.3793 9.88098H69.8019C68.3922 9.88098 67.2332 11.0244 67.2332 12.4497V26.8911C67.2332 28.473 68.5175 29.7418 70.0838 29.7418H89.459C91.6049 29.7261 92.9832 27.4706 92.0121 25.5754Z" fill="#EFF3F5"/>
<path d="M85.1048 12.1365L84.6662 11.275C84.2276 10.4135 83.3505 9.88098 82.3794 9.88098H69.8019C68.4862 9.88098 67.4212 10.8678 67.2645 12.1365H85.1048Z" fill="#85FF00"/>
<path d="M66.3833 36.6556H97.4677V45.7981H66.3833V36.6556Z" fill="#69C900"/>
<path d="M96.1387 42.1411H93.8833C93.3351 42.1411 92.8965 42.5797 92.8965 43.1279C92.8965 43.6761 93.3351 44.1147 93.8833 44.1147H96.1387C96.6869 44.1147 97.1255 43.6761 97.1255 43.1279C97.1215 42.8674 97.0162 42.6188 96.832 42.4346C96.6478 42.2504 96.3992 42.1452 96.1387 42.1411Z" fill="#FBD984"/>
<path d="M7.36646 31.9478H63.1005V42.6662H7.36646V31.9478Z" fill="#85FF00" stroke="black" stroke-width="2"/>
<path d="M8.19495 33.4069H62.272V35.4431H8.19495V33.4069ZM60.4452 6.73267H63.1863V30.9478H60.4452V6.73267Z" fill="#BFC1C1"/>
<path d="M50.0761 30.3585H14.6211C13.8865 30.3585 13.2539 29.9983 13.1417 29.509L6.87708 1.50964H57.8201L51.5555 29.509C51.4433 29.9983 50.8209 30.3585 50.0761 30.3585Z" fill="#85FF00"/>
<path d="M50.0761 30.8682H14.6211C13.509 30.8682 12.5499 30.3178 12.3867 29.5838L6.12208 1.58445C6.09147 1.43494 6.15269 1.29223 6.29553 1.1767C6.43837 1.06116 6.65263 1 6.87709 1H57.8201C58.0446 1 58.2589 1.06116 58.4017 1.1767C58.5445 1.29223 58.616 1.43494 58.5751 1.58445L52.3106 29.5906C52.2269 29.9457 51.956 30.2693 51.5466 30.5035C51.1371 30.7376 50.6158 30.8669 50.0761 30.8682ZM7.76475 2.01939L13.9069 29.4343C13.9579 29.6721 14.264 29.8488 14.6313 29.8488H50.0863C50.4536 29.8488 50.7495 29.6721 50.8005 29.4343L56.9427 2.01939H7.76475Z" fill="black" stroke="black"/>
<g opacity="0.4">
<path d="M16.7842 28.7412C16.6668 28.7426 16.5508 28.7239 16.4475 28.6868C15.8557 28.4965 15.4068 28.1295 15.2537 27.7082C15.1925 27.4907 15.1517 27.3004 15.1109 27.1101L13.9069 21.7141C13.8457 21.4355 14.1314 21.1773 14.5497 21.1365C14.968 21.1025 15.3557 21.286 15.417 21.5646L16.6311 26.9674C16.6719 27.1441 16.7025 27.3208 16.7535 27.4907C16.7944 27.5926 16.9372 27.715 17.1208 27.7693C17.278 27.8196 17.4048 27.9039 17.4804 28.0086C17.556 28.1132 17.5758 28.2319 17.5366 28.345C17.4974 28.4582 17.4015 28.5591 17.2647 28.6311C17.128 28.7031 16.9585 28.7419 16.7842 28.7412ZM23.865 28.8431H20.8245C20.4062 28.8431 20.0593 28.612 20.0593 28.3334C20.0593 28.0548 20.4062 27.8237 20.8245 27.8237H23.865C24.2833 27.8237 24.6302 28.0548 24.6302 28.3334C24.6302 28.612 24.2833 28.8431 23.865 28.8431Z" fill="white"/>
</g>
<path d="M60.1771 5.19989H4.91818C3.38775 5.19989 2.1532 4.37078 2.1532 3.35818C2.1532 2.33879 3.39795 1.51648 4.91818 1.51648H60.1771C61.7075 1.51648 62.942 2.34559 62.942 3.35818C62.942 4.37078 61.7075 5.19989 60.1771 5.19989Z" fill="#85FF00"/>
<path d="M60.177 5.70976H4.91814C3.99657 5.695 3.1202 5.44078 2.47624 5.00142C1.83228 4.56206 1.4718 3.97238 1.4718 3.35836C1.4718 2.74434 1.83228 2.15466 2.47624 1.7153C3.1202 1.27593 3.99657 1.02172 4.91814 1.00696H60.177C61.0986 1.02172 61.975 1.27593 62.6189 1.7153C63.2629 2.15466 63.6234 2.74434 63.6234 3.35836C63.6234 3.97238 63.2629 4.56206 62.6189 5.00142C61.975 5.44078 61.0986 5.695 60.177 5.70976ZM4.91814 2.01956C3.81623 2.01956 2.91838 2.6176 2.91838 3.35156C2.91838 4.08553 3.81623 4.68357 4.91814 4.68357H60.177C61.2789 4.68357 62.1768 4.08553 62.1768 3.35156C62.1768 2.6176 61.2789 2.01956 60.177 2.01956H4.91814Z" fill="black" stroke="black"/>
</svg>
