<svg width="115" height="63" viewBox="0 0 115 63" fill="none" xmlns="http://www.w3.org/2000/svg">
<path d="M112.451 31.236V51.1966C112.451 52.4676 111.421 53.4978 110.15 53.4978H83.3926V14.7481C83.3926 13.3409 84.5333 12.2002 85.9406 12.2002H103.282C104.323 12.2002 105.26 12.8341 105.647 13.8014L107.275 17.8667L112.286 30.3807C112.395 30.6526 112.451 30.9429 112.451 31.236Z" fill="#85FF00"/>
<path d="M112.286 30.3805L107.275 17.8665L105.647 13.8011C105.458 13.3285 105.131 12.9234 104.71 12.638C104.288 12.3527 103.791 12.2002 103.282 12.2002H99.823C100.865 12.2002 101.801 12.8343 102.189 13.8011L103.816 17.8665L108.827 30.3805C108.936 30.6526 108.992 30.9429 108.992 31.236V51.1966C108.992 52.4676 107.962 53.4978 106.691 53.4978H110.15C111.421 53.4978 112.451 52.4676 112.451 51.1966V31.236C112.451 30.9429 112.395 30.6526 112.286 30.3805Z" fill="#BCDF95"/>
<path d="M76.9201 44.4486H17.9583V26.832L32.7399 5.89209H76.9201V44.4486Z" fill="#85FF00"/>
<path d="M72.5314 5.89209H76.9199V44.4488H72.5314V5.89209Z" fill="#75E000"/>
<path d="M76.9201 18.7798H83.3938V34.8849H76.9201V18.7798Z" fill="#6B6B6B"/>
<path d="M83.3936 50.0611H21.7689L17.9583 44.4487H83.3936V50.0611Z" fill="#EFECEF"/>
<path d="M80.1567 44.4487H83.3935V50.0609H80.1567V44.4487Z" fill="#D3CED5"/>
<path d="M112.451 31.2359V32.8489H100.898C99.2547 32.8489 97.9227 31.5171 97.9227 29.8741V20.8388C97.9227 19.1971 99.2536 17.8665 100.895 17.8665H107.275L112.286 30.3805C112.395 30.6526 112.451 30.9429 112.451 31.2359Z" fill="#90D8F9"/>
<path d="M112.286 30.3805L107.779 19.1249L107.275 17.8665H103.816L108.827 30.3805C108.936 30.6526 108.992 30.9429 108.992 31.2359V32.8489H112.451V31.2359C112.451 30.9429 112.395 30.6525 112.286 30.3805Z" fill="#75CEF9"/>
<path d="M31.0355 8.3064H14.4161L5.89081 15.4411L1.78806 27.4455V39.4972H17.9582V26.832L31.0355 8.3064Z" fill="#6B6B6B"/>
<path d="M13.5699 26.832V39.4972H17.9585V26.832L31.0356 8.3064H26.6472L13.5699 26.832Z" fill="#4D5961"/>
<path d="M38.6937 60.7026C43.1821 60.7026 46.8207 57.064 46.8207 52.5756C46.8207 48.0873 43.1821 44.4487 38.6937 44.4487C34.2054 44.4487 30.5668 48.0873 30.5668 52.5756C30.5668 57.064 34.2054 60.7026 38.6937 60.7026Z" fill="#6B6B6B"/>
<path d="M38.6938 44.4487C38.144 44.4487 37.6074 44.5042 37.0884 44.6079C40.8077 45.3534 43.6101 48.6368 43.6101 52.5756C43.6101 56.5145 40.8079 59.7981 37.0884 60.5434C37.6074 60.6473 38.144 60.7026 38.6938 60.7026C43.1822 60.7026 46.8207 57.0641 46.8207 52.5754C46.8207 48.0872 43.1822 44.4487 38.6938 44.4487Z" fill="#4D5961"/>
<path d="M98.2002 60.7026C102.689 60.7026 106.327 57.064 106.327 52.5756C106.327 48.0873 102.689 44.4487 98.2002 44.4487C93.7118 44.4487 90.0732 48.0873 90.0732 52.5756C90.0732 57.064 93.7118 60.7026 98.2002 60.7026Z" fill="#6B6B6B"/>
<path d="M98.2003 44.4487C97.6506 44.4487 97.1139 44.5042 96.5949 44.6079C100.314 45.3534 103.117 48.6368 103.117 52.5756C103.117 56.5145 100.314 59.7981 96.5949 60.5434C97.1139 60.6473 97.6506 60.7026 98.2003 60.7026C102.689 60.7026 106.327 57.0641 106.327 52.5754C106.327 48.0872 102.689 44.4487 98.2003 44.4487Z" fill="#4D5961"/>
<path d="M113.836 29.7597L107.198 13.1804C106.553 11.5705 105.016 10.5302 103.282 10.5302H99.9336C99.0111 10.5302 98.2637 11.2777 98.2637 12.2002C98.2637 13.1227 99.0111 13.8702 99.9336 13.8702H103.282C103.643 13.8702 103.963 14.0868 104.097 14.4219L104.808 16.1967H100.896C98.3358 16.1967 96.253 18.2795 96.253 20.8392V29.8746C96.253 32.4357 98.3365 34.5191 100.898 34.5191H110.781V51.1969C110.781 51.3642 110.714 51.5247 110.596 51.643C110.477 51.7614 110.317 51.8279 110.15 51.8281H107.966C107.582 46.7746 103.35 42.7789 98.2002 42.7789C93.0501 42.7789 88.8184 46.7744 88.4347 51.8281H85.0625C85.0625 51.8056 85.0639 13.6043 85.0625 14.7483C85.0628 14.5156 85.1553 14.2924 85.3199 14.1278C85.4845 13.9632 85.7077 13.8706 85.9405 13.8704H93.2563C94.1787 13.8704 94.9262 13.1229 94.9262 12.2004C94.9262 11.2779 94.1787 10.5305 93.2563 10.5305H85.9405C83.6148 10.5305 81.7226 12.4226 81.7226 14.7483V17.1099H78.5898V2.64848C78.5898 1.72599 77.8423 0.978516 76.9198 0.978516C75.9973 0.978516 75.2499 1.72599 75.2499 2.64848V4.22224H63.9001V2.64848C63.9001 1.72599 63.1527 0.978516 62.2302 0.978516C61.3077 0.978516 60.5602 1.72599 60.5602 2.64848V4.22224H49.2105V2.64848C49.2105 1.72599 48.463 0.978516 47.5406 0.978516C46.6181 0.978516 45.8706 1.72599 45.8706 2.64848V4.22224H34.5207V2.64848C34.5207 1.72599 33.7732 0.978516 32.8507 0.978516C31.9282 0.978516 31.1807 1.72599 31.1807 2.64848V5.20485L30.1701 6.63678H14.444C14.0428 6.63178 13.653 6.76976 13.3442 7.026L4.81899 14.1607C4.57428 14.3705 4.40595 14.6223 4.31065 14.9013L0.207897 26.9056C0.15106 27.0801 0.12081 27.2621 0.118164 27.4456L0.118164 39.4974C0.118164 40.4198 0.865638 41.1673 1.78812 41.1673H6.53459C7.45708 41.1673 8.20455 40.4198 8.20455 39.4974C8.20455 38.5749 7.45708 37.8274 6.53459 37.8274H3.45808V29.0532L16.2883 28.5665V37.8272H13.2118C12.2893 37.8272 11.5418 38.5746 11.5418 39.4971C11.5418 40.4196 12.2893 41.1671 13.2118 41.1671H16.2883V44.4484C16.29 44.7827 16.3903 45.109 16.5766 45.3865L20.387 50.9987C20.5401 51.2242 20.7461 51.4087 20.9869 51.5363C21.2277 51.6639 21.4961 51.7306 21.7686 51.7306H28.9354C28.9105 52.0115 28.8976 52.2934 28.8967 52.5754C28.8967 55.0474 29.8189 57.3067 31.335 59.0323H1.78812C0.865638 59.0323 0.118164 59.7798 0.118164 60.7023C0.118164 61.6248 0.865638 62.3722 1.78812 62.3722H112.16C113.082 62.3722 113.829 61.6248 113.829 60.7023C113.829 59.7798 113.082 59.0323 112.16 59.0323H105.559C106.538 57.9189 107.252 56.5974 107.646 55.1676H110.149C112.339 55.1676 114.12 53.3861 114.12 51.1964V31.2357C114.121 30.7301 114.024 30.229 113.836 29.7597ZM88.754 55.1678C89.1479 56.5976 89.8617 57.9192 90.8415 59.0325H46.0525C47.5686 57.3069 48.4909 55.0476 48.4909 52.5756C48.4909 52.2908 48.476 52.0096 48.4521 51.7308H57.7048C58.6273 51.7308 59.3748 50.9833 59.3748 50.0609C59.3748 49.1384 58.6273 48.3909 57.7048 48.3909H47.5499C47.1585 47.5677 46.6546 46.803 46.0525 46.1186H81.7228V48.3909H64.3818C63.4593 48.3909 62.7118 49.1384 62.7118 50.0609C62.7118 50.9833 63.4593 51.7308 64.3818 51.7308H81.7228V53.4978C81.7228 54.4203 82.4703 55.1678 83.3928 55.1678H88.754ZM78.5898 36.5549H81.7226V42.7789H78.5898V36.5549ZM81.7226 20.4496V33.2147H78.5898V20.4496H81.7226ZM75.2499 7.56216V42.7789H63.9001V7.56216H75.2499ZM60.5602 7.56216V42.7789H49.2105V7.56216H60.5602ZM45.8706 7.56216V42.7789H34.5207V7.56216H45.8706ZM6.63167 18.4372L13.9174 25.3145L4.15457 25.6848L6.63167 18.4372ZM13.3095 11.4104L15.348 22.0719L8.40339 15.5165L13.3095 11.4104ZM19.6282 27.3623L31.181 10.996V42.7787H19.6282V27.3623ZM18.8605 22.6586L16.4357 9.97648H27.8128L18.8605 22.6586ZM22.6533 48.3911L21.1104 46.1189H31.3348C30.7328 46.8032 30.2288 47.5679 29.8374 48.3911H22.6533ZM32.2366 52.5758C32.2366 49.0155 35.1334 46.1189 38.6938 46.1189C42.2541 46.1189 45.1507 49.0155 45.1507 52.5758C45.1507 56.1362 42.2541 59.0328 38.6938 59.0328C35.1334 59.0328 32.2366 56.1362 32.2366 52.5758ZM91.7433 52.5758C91.7433 49.0155 94.6399 46.1189 98.2002 46.1189C101.761 46.1189 104.657 49.0155 104.657 52.5758C104.657 56.1362 101.761 59.0328 98.2002 59.0328C94.6399 59.0328 91.7433 56.1362 91.7433 52.5758ZM99.5927 29.8744V20.839C99.5931 20.4937 99.7304 20.1625 99.9746 19.9183C100.219 19.6741 100.55 19.5368 100.895 19.5364H106.145L110.735 31.0013C110.749 31.0351 110.759 31.0701 110.766 31.1055C110.768 31.1162 110.77 31.1271 110.771 31.138C110.774 31.1516 110.774 31.1654 110.775 31.179H100.898C100.552 31.1785 100.22 31.041 99.9754 30.7964C99.7308 30.5519 99.5932 30.2203 99.5927 29.8744Z" fill="black"/>
<path d="M38.6937 50.5313C38.4744 50.5312 38.2573 50.5744 38.0546 50.6583C37.852 50.7422 37.6679 50.8652 37.5128 51.0203C37.3578 51.1754 37.2347 51.3595 37.1508 51.5621C37.0669 51.7647 37.0237 51.9819 37.0238 52.2012V52.95C37.0238 53.8725 37.7712 54.62 38.6937 54.62C39.6162 54.62 40.3637 53.8725 40.3637 52.95V52.2012C40.3637 51.7583 40.1877 51.3336 39.8746 51.0204C39.5614 50.7072 39.1366 50.5313 38.6937 50.5313ZM98.2002 50.5313C97.9809 50.5312 97.7637 50.5744 97.5611 50.6583C97.3585 50.7422 97.1743 50.8652 97.0193 51.0203C96.8642 51.1754 96.7412 51.3595 96.6573 51.5621C96.5734 51.7647 96.5302 51.9819 96.5302 52.2012V52.95C96.5302 53.8725 97.2777 54.62 98.2002 54.62C99.1227 54.62 99.8701 53.8725 99.8701 52.95V52.2012C99.8701 51.7583 99.6942 51.3336 99.381 51.0204C99.0678 50.7072 98.6431 50.5313 98.2002 50.5313Z" fill="black"/>
</svg>
