<svg width="94" height="61" viewBox="0 0 94 61" fill="none" xmlns="http://www.w3.org/2000/svg">
<path d="M53.302 43.9355H85.7837V24.2437L81.1349 11.2421C80.6653 9.92852 79.8616 8.75991 78.8029 7.85144C77.7442 6.94296 76.4671 6.32596 75.0974 6.06123L53.302 1.84802V43.9355Z" fill="#74DE00"/>
<path d="M76.8264 11.242C76.3567 9.9284 75.553 8.75979 74.4943 7.85131C73.4356 6.94284 72.1585 6.32584 70.7888 6.0611L53.3021 2.68085V1.8479L75.0976 6.0611C76.4673 6.32584 77.7444 6.94284 78.8031 7.85131C79.8618 8.75979 80.6655 9.9284 81.1351 11.242L85.7838 24.2436V43.9354H81.4751V24.2438L76.8264 11.242Z" fill="#54A000"/>
<path d="M53.302 1.84802H1.10903V37.6007H53.302V1.84802Z" fill="#74DE00"/>
<path d="M29.5169 6.77734H6.82085V32.671H29.5169V6.77734ZM48.1186 6.77734H34.3104V32.671H48.1186V6.77734Z" fill="#54A000"/>
<path d="M92.1746 52.0244H74.9667V55.2311H92.1746V52.0244Z" fill="#74DE00"/>
<path d="M92.1746 52.0244H87.9208V55.2311H92.1746V52.0244Z" fill="#54A000"/>
<path d="M89.3761 48.8179H77.7654V52.0245H89.3761V48.8179Z" fill="#74DE00"/>
<path d="M89.3761 48.8179H85.0674V52.0245H89.3761V48.8179Z" fill="#54A000"/>
<path d="M92.1746 55.2311H74.9667L74.1685 59.4143H92.9728L92.1746 55.2311Z" fill="#494A47"/>
<path d="M92.1746 55.2311L92.9728 59.4143H88.6643L87.866 55.2311H92.1746Z" fill="#333331"/>
<path d="M46.2427 52.0244H29.0348V55.2311H46.2427V52.0244Z" fill="#54A000"/>
<path d="M43.4442 48.0791H31.8335V52.0246H43.4442V48.0791Z" fill="#54A000"/>
<path d="M46.2427 55.2311H29.0348L28.2366 59.4143H47.0409L46.2427 55.2311Z" fill="#333331"/>
<path d="M60.1401 37.6006C63.6475 37.6006 66.491 40.444 66.491 43.9515V48.0789H5.74204V53.8153H1.10903V37.6006H60.1401Z" fill="#494A47"/>
<path d="M57.6858 59.3971C52.402 59.3971 48.1186 55.1138 48.1186 49.83C48.1186 44.5462 52.402 40.2628 57.6858 40.2628C62.9696 40.2628 67.2529 44.5462 67.2529 49.83C67.2529 55.1138 62.9696 59.3971 57.6858 59.3971Z" fill="#494A47"/>
<path d="M62.9442 49.83C62.9442 45.2873 59.7772 41.4871 55.5313 40.5094C56.2378 40.346 56.9605 40.2633 57.6856 40.2628C62.9693 40.2628 67.2527 44.5461 67.2527 49.83C67.2527 55.1138 62.9695 59.3971 57.6856 59.3971C56.9443 59.3971 56.224 59.31 55.5313 59.1505C59.7772 58.173 62.9442 54.3726 62.9442 49.83Z" fill="#333331"/>
<path d="M57.6858 53.8153C55.4848 53.8153 53.7005 52.031 53.7005 49.83C53.7005 47.629 55.4848 45.8447 57.6858 45.8447C59.8868 45.8447 61.6711 47.629 61.6711 49.83C61.6711 52.031 59.8868 53.8153 57.6858 53.8153Z" fill="#CCCCC5"/>
<path d="M17.6383 59.3971C12.3546 59.3971 8.07121 55.1138 8.07121 49.83C8.07121 44.5462 12.3546 40.2628 17.6383 40.2628C22.9221 40.2628 27.2055 44.5462 27.2055 49.83C27.2055 55.1138 22.9221 59.3971 17.6383 59.3971Z" fill="#494A47"/>
<path d="M78.0933 14.3164L81.8762 24.6816H69.0811C67.6507 24.6816 66.491 25.8412 66.491 27.2718V29.1127H57.6858V6.36584L72.0937 9.18913C73.4505 9.45497 74.7158 10.0666 75.7668 10.9649C76.8179 11.8632 77.6193 13.0176 78.0933 14.3164Z" fill="#68C0E0"/>
<path d="M17.6383 53.8153C15.4373 53.8153 13.6531 52.031 13.6531 49.83C13.6531 47.629 15.4373 45.8447 17.6383 45.8447C19.8394 45.8447 21.6236 47.629 21.6236 49.83C21.6236 52.031 19.8394 53.8153 17.6383 53.8153Z" fill="#CCCCC5"/>
<path d="M1.10902 0.923584H53.3021C53.3073 0.923584 53.3119 0.925063 53.3171 0.925063C53.3705 0.925803 53.4243 0.930055 53.4776 0.940406L53.4872 0.942254L53.4892 0.942623L75.2728 5.15361C78.3653 5.75143 80.9451 7.96506 82.0054 10.9309L86.654 23.9324C86.6897 24.0323 86.7079 24.1375 86.7079 24.2435V43.9353C86.7079 44.1805 86.6106 44.4156 86.4372 44.5889C86.2639 44.7622 86.0288 44.8596 85.7837 44.8596H84.495V47.8934H89.3761C89.6213 47.8934 89.8563 47.9908 90.0297 48.1642C90.203 48.3375 90.3004 48.5726 90.3004 48.8177V51.1001H92.1748C92.42 51.1001 92.655 51.1975 92.8284 51.3708C93.0017 51.5442 93.0991 51.7793 93.0991 52.0244V55.1434L93.8808 59.2411C93.9063 59.3748 93.902 59.5124 93.8682 59.6442C93.8343 59.776 93.7718 59.8987 93.6851 60.0035C93.5983 60.1083 93.4895 60.1927 93.3664 60.2507C93.2433 60.3086 93.1089 60.3386 92.9728 60.3386H74.1685C74.0325 60.3385 73.8981 60.3085 73.775 60.2505C73.6519 60.1926 73.5432 60.1082 73.4564 60.0034C73.3697 59.8986 73.3072 59.7759 73.2733 59.6441C73.2395 59.5124 73.2351 59.3748 73.2605 59.2411L74.0423 55.1434V52.0244C74.0423 51.7793 74.1396 51.5442 74.313 51.3708C74.4863 51.1975 74.7214 51.1001 74.9665 51.1001H76.841V48.8177C76.841 48.5726 76.9383 48.3375 77.1117 48.1642C77.285 47.9908 77.5201 47.8934 77.7652 47.8934H82.6465V44.8596H67.4152V45.912C67.919 47.1567 68.1777 48.487 68.177 49.8298C68.177 55.6148 63.4706 60.3212 57.6858 60.3212C51.9008 60.3212 47.1944 55.6148 47.1944 49.8298C47.1954 49.5538 47.2073 49.278 47.23 49.0029H44.3685V51.0999H46.2429C46.488 51.0999 46.7231 51.1973 46.8965 51.3706C47.0698 51.544 47.1672 51.7791 47.1672 52.0242V55.1433L47.9489 59.2409C47.9744 59.3746 47.9701 59.5122 47.9363 59.644C47.9024 59.7758 47.8399 59.8985 47.7532 60.0033C47.6664 60.1082 47.5576 60.1926 47.4345 60.2505C47.3114 60.3084 47.177 60.3384 47.0409 60.3384H28.2366C28.1006 60.3384 27.9662 60.3083 27.8431 60.2503C27.72 60.1924 27.6112 60.108 27.5245 60.0032C27.4378 59.8984 27.3753 59.7757 27.3414 59.6439C27.3075 59.5122 27.3032 59.3746 27.3286 59.2409L28.1104 55.1433V52.0244C28.1104 51.7793 28.2077 51.5442 28.3811 51.3708C28.5544 51.1975 28.7895 51.1001 29.0346 51.1001H30.909V49.0031H28.0941C28.1168 49.2782 28.1287 49.554 28.1298 49.83C28.1298 55.615 23.4234 60.3214 17.6383 60.3214C11.8533 60.3214 7.14693 55.615 7.14693 49.83C7.148 49.554 7.1599 49.2782 7.18261 49.0031H6.66631V53.8153C6.66631 54.0604 6.56893 54.2955 6.39559 54.4688C6.22226 54.6422 5.98717 54.7395 5.74203 54.7395H1.10902C0.86389 54.7395 0.6288 54.6422 0.455465 54.4688C0.282131 54.2955 0.18475 54.0604 0.18475 53.8153V1.84786C0.18475 1.60272 0.282131 1.36763 0.455465 1.1943C0.6288 1.02096 0.86389 0.923584 1.10902 0.923584ZM75.286 58.4902H91.8556L91.4101 56.1555H75.7315L75.286 58.4902ZM75.891 52.9487V54.3068H91.2504V52.9487H75.891ZM78.6897 49.7422V51.1003H88.4519V49.7422H78.6897ZM84.8594 43.0113V24.404L80.2648 11.5533C79.4234 9.1997 77.3761 7.44303 74.9222 6.9687L54.2264 2.96807V36.6765H60.1401C63.8327 36.6765 66.8897 39.4426 67.3526 43.0114H84.8594V43.0113ZM57.6858 58.4729C62.4513 58.4729 66.3285 54.5957 66.3285 49.83C66.3285 45.0643 62.4513 41.1871 57.6858 41.1871C52.92 41.1871 49.0429 45.0643 49.0429 49.83C49.0429 54.5957 52.92 58.4729 57.6858 58.4729ZM29.3541 58.4902H45.9237L45.4782 56.1555H29.7996L29.3541 58.4902ZM29.9591 52.9487V54.3068H45.3185V52.9487H29.9591ZM42.5198 51.1001V49.0031H32.7576V51.1001H42.5198ZM17.6383 58.4729C22.4041 58.4729 26.2812 54.5957 26.2812 49.83C26.2812 45.0643 22.4041 41.1871 17.6383 41.1871C12.8726 41.1871 8.99547 45.0643 8.99547 49.83C8.99547 54.5957 12.8728 58.4729 17.6383 58.4729ZM2.03329 52.891H4.81776V48.0789C4.81776 47.8337 4.91514 47.5986 5.08847 47.4253C5.26181 47.252 5.4969 47.1546 5.74203 47.1546H7.4939C8.67992 42.6615 12.7778 39.3386 17.6383 39.3386C22.4989 39.3386 26.5969 42.6615 27.7828 47.1546H47.5413C48.7274 42.6615 52.8252 39.3386 57.6858 39.3386C60.7518 39.3386 63.5144 40.6608 65.4345 42.7648C64.8916 40.3416 62.7247 38.5247 60.1401 38.5247H2.03329V52.891ZM2.03329 36.6763H52.3779V2.77213H2.03329V36.6763Z" fill="black"/>
<path d="M29.5169 33.5956H6.82084C6.57571 33.5956 6.34061 33.4982 6.16728 33.3248C5.99394 33.1515 5.89657 32.9164 5.89657 32.6713V6.77742C5.89657 6.53229 5.99394 6.2972 6.16728 6.12386C6.34061 5.95053 6.57571 5.85315 6.82084 5.85315H29.5169C29.762 5.85315 29.9971 5.95053 30.1705 6.12386C30.3438 6.2972 30.4412 6.53229 30.4412 6.77742V32.6711C30.4412 32.7925 30.4173 32.9127 30.3709 33.0249C30.3244 33.137 30.2564 33.2389 30.1705 33.3248C30.0847 33.4106 29.9828 33.4787 29.8707 33.5252C29.7585 33.5716 29.6383 33.5956 29.5169 33.5956ZM11.5141 7.7017H7.74511V31.7468H11.5141V7.7017ZM17.2446 7.7017H13.3627V31.7468H17.2446V7.7017ZM22.9751 7.7017H19.0931V31.7468H22.9751V7.7017ZM28.5926 7.7017H24.8236V31.7468H28.5926V7.7017ZM48.1186 33.5956H34.3104C34.0652 33.5956 33.8301 33.4982 33.6568 33.3248C33.4835 33.1515 33.3861 32.9164 33.3861 32.6713V6.77742C33.3861 6.53229 33.4835 6.2972 33.6568 6.12386C33.8301 5.95053 34.0652 5.85315 34.3104 5.85315H48.1186C48.3638 5.85315 48.5989 5.95053 48.7722 6.12386C48.9455 6.2972 49.0429 6.53229 49.0429 6.77742V32.6711C49.0429 32.7925 49.019 32.9127 48.9726 33.0249C48.9262 33.137 48.8581 33.2389 48.7723 33.3248C48.6864 33.4106 48.5845 33.4787 48.4724 33.5252C48.3602 33.5716 48.24 33.5956 48.1186 33.5956ZM47.1944 7.7017H35.2346V31.7468H47.1944V7.7017ZM57.6858 44.9205C60.393 44.9205 62.5953 47.123 62.5953 49.83C62.5953 52.537 60.3928 54.7396 57.6858 54.7396C54.9786 54.7396 52.776 52.537 52.776 49.83C52.776 47.123 54.9786 44.9205 57.6858 44.9205ZM57.6858 52.891C59.3737 52.891 60.7468 51.5179 60.7468 49.83C60.7468 48.1421 59.3737 46.769 57.6858 46.769C55.9979 46.769 54.6246 48.1421 54.6246 49.83C54.6246 51.5179 55.9979 52.891 57.6858 52.891ZM56.7615 29.1128V6.36594C56.7615 6.22949 56.7917 6.09475 56.85 5.97137C56.9083 5.84799 56.9931 5.73904 57.0985 5.65234C57.2038 5.56564 57.3271 5.50335 57.4594 5.46993C57.5917 5.43651 57.7297 5.43279 57.8636 5.45904L72.2715 8.28232C75.3298 8.88162 77.8933 11.0723 78.9616 13.9999L82.7445 24.365C82.7955 24.5047 82.812 24.6546 82.7927 24.802C82.7734 24.9494 82.7189 25.09 82.6336 25.2118C82.5484 25.3337 82.4351 25.4331 82.3032 25.5018C82.1714 25.5705 82.0249 25.6063 81.8762 25.6063H69.0811C68.1626 25.6063 67.4152 26.3535 67.4152 27.2722V29.1132C67.4152 29.3583 67.3178 29.5934 67.1445 29.7668C66.9712 29.9401 66.7361 30.0375 66.4909 30.0375H57.6858C57.4406 30.0373 57.2056 29.9398 57.0323 29.7664C56.859 29.593 56.7616 29.358 56.7615 29.1128ZM58.61 28.1886H65.5667V27.2719C65.5667 25.334 67.1433 23.7574 69.0811 23.7574H80.5551L77.2251 14.6334C76.3772 12.3103 74.3428 10.5716 71.9159 10.0961L58.61 7.48874V28.1886Z" fill="black"/>
<path d="M37.9272 17.3061C38.051 17.3036 38.1741 17.3259 38.2891 17.3716C38.4042 17.4173 38.509 17.4854 38.5974 17.5721C38.6858 17.6588 38.7561 17.7622 38.804 17.8764C38.8519 17.9905 38.8766 18.1131 38.8766 18.2369C38.8766 18.3607 38.8519 18.4833 38.8039 18.5975C38.756 18.7116 38.6857 18.815 38.5973 18.9017C38.5089 18.9884 38.404 19.0565 38.289 19.1022C38.1739 19.1478 38.0508 19.1701 37.927 19.1676C37.6834 19.1627 37.4514 19.0625 37.2808 18.8884C37.1103 18.7144 37.0147 18.4804 37.0148 18.2367C37.0148 17.9931 37.1104 17.7591 37.281 17.5851C37.4516 17.4111 37.6836 17.3109 37.9272 17.3061ZM17.6383 44.9204C20.3455 44.9204 22.5479 47.1229 22.5479 49.8299C22.5479 52.537 20.3453 54.7395 17.6383 54.7395C14.9313 54.7395 12.7288 52.537 12.7288 49.8299C12.7288 47.1229 14.9313 44.9204 17.6383 44.9204ZM17.6383 52.891C19.3262 52.891 20.6993 51.5179 20.6993 49.8299C20.6993 48.142 19.3262 46.7689 17.6383 46.7689C15.9504 46.7689 14.5773 48.142 14.5773 49.8299C14.5773 51.5179 15.9506 52.891 17.6383 52.891Z" fill="black"/>
</svg>
