<svg width="92" height="61" viewBox="0 0 92 61" fill="none" xmlns="http://www.w3.org/2000/svg">
<path d="M53.1481 43.9359H85.6298V24.2441L80.981 11.2425C80.5114 9.92889 79.7077 8.76028 78.649 7.8518C77.5903 6.94333 76.3132 6.32633 74.9435 6.06159L53.1481 1.84839V43.9359Z" fill="#74DE00"/>
<path d="M76.6725 11.242C76.2029 9.9284 75.3991 8.75979 74.3405 7.85131C73.2818 6.94284 72.0047 6.32584 70.635 6.0611L53.1483 2.68085V1.8479L74.9438 6.0611C76.3134 6.32584 77.5905 6.94284 78.6492 7.85131C79.7079 8.75979 80.5117 9.9284 80.9813 11.242L85.63 24.2436V43.9354H81.3212V24.2438L76.6725 11.242Z" fill="#54A000"/>
<path d="M53.1481 1.84839H0.955143V37.6011H53.1481V1.84839Z" fill="#74DE00"/>
<path d="M29.363 6.77734H6.66693V32.671H29.363V6.77734ZM47.9647 6.77734H34.1565V32.671H47.9647V6.77734Z" fill="#54A000"/>
<path d="M46.0889 52.0244H28.8809V55.2311H46.0889V52.0244Z" fill="#54A000"/>
<path d="M43.2904 48.0791H31.6797V52.0246H43.2904V48.0791Z" fill="#54A000"/>
<path d="M46.0889 55.231H28.881L28.0828 59.4142H46.8871L46.0889 55.231Z" fill="#333331"/>
<path d="M59.9862 37.6006C63.4936 37.6006 66.337 40.444 66.337 43.9515V48.0789H5.58813V53.8153H0.955111V37.6006H59.9862Z" fill="#494A47"/>
<path d="M57.532 59.3972C52.2482 59.3972 47.9648 55.1139 47.9648 49.8301C47.9648 44.5463 52.2482 40.2629 57.532 40.2629C62.8158 40.2629 67.0991 44.5463 67.0991 49.8301C67.0991 55.1139 62.8158 59.3972 57.532 59.3972Z" fill="#494A47"/>
<path d="M62.7903 49.8301C62.7903 45.2875 59.6234 41.4872 55.3774 40.5095C56.0839 40.3461 56.8066 40.2634 57.5317 40.2629C62.8154 40.2629 67.0989 44.5462 67.0989 49.8301C67.0989 55.114 62.8156 59.3972 57.5317 59.3972C56.7905 59.3972 56.0701 59.3102 55.3774 59.1506C59.6234 58.1731 62.7903 54.3727 62.7903 49.8301Z" fill="#333331"/>
<path d="M57.5319 53.8153C55.3309 53.8153 53.5467 52.031 53.5467 49.83C53.5467 47.629 55.3309 45.8447 57.5319 45.8447C59.7329 45.8447 61.5172 47.629 61.5172 49.83C61.5172 52.031 59.7329 53.8153 57.5319 53.8153Z" fill="#CCCCC5"/>
<path d="M17.4845 59.3972C12.2007 59.3972 7.91735 55.1139 7.91735 49.8301C7.91735 44.5463 12.2007 40.2629 17.4845 40.2629C22.7683 40.2629 27.0516 44.5463 27.0516 49.8301C27.0516 55.1139 22.7683 59.3972 17.4845 59.3972Z" fill="#494A47"/>
<path d="M77.9394 14.3166L81.7223 24.6817H68.9272C67.4968 24.6817 66.337 25.8413 66.337 27.2719V29.1129H57.5319V6.36597L71.9398 9.18925C73.2966 9.4551 74.5618 10.0668 75.6129 10.965C76.664 11.8633 77.4654 13.0177 77.9394 14.3166Z" fill="#68C0E0"/>
<path d="M17.4844 53.8153C15.2834 53.8153 13.4992 52.031 13.4992 49.83C13.4992 47.629 15.2834 45.8447 17.4844 45.8447C19.6855 45.8447 21.4697 47.629 21.4697 49.83C21.4697 52.031 19.6855 53.8153 17.4844 53.8153Z" fill="#CCCCC5"/>
<path d="M0.955132 0.923584H53.1483C53.1534 0.923584 53.1581 0.925063 53.1632 0.925063C53.2167 0.925803 53.2704 0.930055 53.3237 0.940406L53.3333 0.942254L53.3353 0.942623L75.1189 5.15361C78.2114 5.75143 80.7912 7.96506 81.8515 10.9309L86.5001 23.9324C86.5358 24.0323 86.554 24.1375 86.554 24.2435V43.9353C86.554 44.1805 86.4567 44.4156 86.2833 44.5889C86.11 44.7622 85.8749 44.8596 85.6298 44.8596H84.3412V47.8934C98.3623 47.8934 64.4216 47.8934 82.4926 47.8934V44.8596H67.2613V45.912C67.7651 47.1567 68.0238 48.487 68.0231 49.8298C68.0231 55.6148 63.3167 60.3212 57.5319 60.3212C51.7469 60.3212 47.0405 55.6148 47.0405 49.8298C47.0415 49.5538 47.0534 49.278 47.0762 49.0029H44.2146V51.0999H46.089C46.3342 51.0999 46.5693 51.1973 46.7426 51.3706C46.9159 51.544 47.0133 51.7791 47.0133 52.0242V55.1433L47.7951 59.2409C47.8206 59.3746 47.8162 59.5122 47.7824 59.644C47.7485 59.7758 47.686 59.8985 47.5993 60.0033C47.5126 60.1082 47.4037 60.1926 47.2806 60.2505C47.1575 60.3084 47.0231 60.3384 46.887 60.3384H28.0827C27.9467 60.3384 27.8123 60.3083 27.6892 60.2503C27.5661 60.1924 27.4574 60.108 27.3706 60.0032C27.2839 59.8984 27.2214 59.7757 27.1875 59.6439C27.1537 59.5122 27.1493 59.3746 27.1747 59.2409L27.9565 55.1433V52.0244C27.9565 51.7793 28.0538 51.5442 28.2272 51.3708C28.4005 51.1975 28.6356 51.1001 28.8807 51.1001H30.7552V49.0031H27.9402C27.9629 49.2782 27.9748 49.554 27.9759 49.83C27.9759 55.615 23.2695 60.3214 17.4845 60.3214C11.6994 60.3214 6.99303 55.615 6.99303 49.83C6.9941 49.554 7.006 49.2782 7.02871 49.0031H6.51241V53.8153C6.51241 54.0604 6.41503 54.2955 6.2417 54.4688C6.06836 54.6422 5.83327 54.7395 5.58814 54.7395H0.955132C0.709999 54.7395 0.474909 54.6422 0.301575 54.4688C0.12824 54.2955 0.0308609 54.0604 0.0308609 53.8153V1.84786C0.0308609 1.60272 0.12824 1.36763 0.301575 1.1943C0.474909 1.02096 0.709999 0.923584 0.955132 0.923584ZM84.7055 43.0113V24.404L80.1109 11.5533C79.2695 9.1997 77.2222 7.44303 74.7683 6.9687L54.0725 2.96807V36.6765H59.9862C63.6789 36.6765 66.7358 39.4426 67.1987 43.0114L84.7055 43.0113ZM57.5319 58.4729C62.2974 58.4729 66.1746 54.5957 66.1746 49.83C66.1746 45.0643 62.2974 41.1871 57.5319 41.1871C52.7662 41.1871 48.889 45.0643 48.889 49.83C48.889 54.5957 52.7662 58.4729 57.5319 58.4729ZM29.2002 58.4902H45.7698L45.3243 56.1555H29.6457L29.2002 58.4902ZM29.8052 52.9487V54.3068H45.1646V52.9487H29.8052ZM42.3659 51.1001V49.0031H32.6037V51.1001H42.3659ZM17.4845 58.4729C22.2502 58.4729 26.1273 54.5957 26.1273 49.83C26.1273 45.0643 22.2502 41.1871 17.4845 41.1871C12.7187 41.1871 8.84158 45.0643 8.84158 49.83C8.84158 54.5957 12.7189 58.4729 17.4845 58.4729ZM1.8794 52.891H4.66387V48.0789C4.66387 47.8337 4.76124 47.5986 4.93458 47.4253C5.10791 47.252 5.34301 47.1546 5.58814 47.1546H7.34C8.52603 42.6615 12.6239 39.3386 17.4845 39.3386C22.345 39.3386 26.4431 42.6615 27.6289 47.1546H47.3874C48.5735 42.6615 52.6713 39.3386 57.5319 39.3386C60.5979 39.3386 63.3605 40.6608 65.2806 42.7648C64.7377 40.3416 62.5708 38.5247 59.9862 38.5247H1.8794V52.891ZM1.8794 36.6763H52.224V2.77213H1.8794V36.6763Z" fill="black"/>
<path d="M29.3631 33.5954H6.66703C6.4219 33.5954 6.1868 33.4981 6.01347 33.3247C5.84013 33.1514 5.74276 32.9163 5.74276 32.6712V6.7773C5.74276 6.53217 5.84013 6.29708 6.01347 6.12374C6.1868 5.95041 6.4219 5.85303 6.66703 5.85303H29.3631C29.6082 5.85303 29.8433 5.95041 30.0167 6.12374C30.19 6.29708 30.2874 6.53217 30.2874 6.7773V32.671C30.2874 32.7924 30.2635 32.9126 30.2171 33.0247C30.1706 33.1369 30.1025 33.2388 30.0167 33.3247C29.9309 33.4105 29.829 33.4786 29.7168 33.5251C29.6047 33.5715 29.4845 33.5954 29.3631 33.5954ZM11.3603 7.70157H7.5913V31.7467H11.3603V7.70157ZM17.0908 7.70157H13.2088V31.7467H17.0908V7.70157ZM22.8213 7.70157H18.9393V31.7467H22.8213V7.70157ZM28.4388 7.70157H24.6698V31.7467H28.4388V7.70157ZM47.9648 33.5954H34.1566C33.9114 33.5954 33.6763 33.4981 33.503 33.3247C33.3297 33.1514 33.2323 32.9163 33.2323 32.6712V6.7773C33.2323 6.53217 33.3297 6.29708 33.503 6.12374C33.6763 5.95041 33.9114 5.85303 34.1566 5.85303H47.9648C48.21 5.85303 48.445 5.95041 48.6184 6.12374C48.7917 6.29708 48.8891 6.53217 48.8891 6.7773V32.671C48.8891 32.7924 48.8652 32.9126 48.8188 33.0247C48.7724 33.1369 48.7043 33.2388 48.6184 33.3247C48.5326 33.4105 48.4307 33.4786 48.3186 33.5251C48.2064 33.5715 48.0862 33.5954 47.9648 33.5954ZM47.0405 7.70157H35.0808V31.7467H47.0405V7.70157ZM57.532 44.9204C60.2392 44.9204 62.4415 47.1229 62.4415 49.8299C62.4415 52.5369 60.239 54.7395 57.532 54.7395C54.8248 54.7395 52.6222 52.5369 52.6222 49.8299C52.6222 47.1229 54.8248 44.9204 57.532 44.9204ZM57.532 52.8909C59.2199 52.8909 60.593 51.5178 60.593 49.8299C60.593 48.142 59.2199 46.7689 57.532 46.7689C55.8441 46.7689 54.4708 48.142 54.4708 49.8299C54.4708 51.5178 55.8441 52.8909 57.532 52.8909ZM56.6077 29.1127V6.36581C56.6077 6.22937 56.6379 6.09462 56.6962 5.97124C56.7545 5.84787 56.8393 5.73892 56.9447 5.65222C57.05 5.56552 57.1733 5.50323 57.3056 5.46981C57.4379 5.43639 57.5759 5.43267 57.7098 5.45892L72.1177 8.2822C75.176 8.8815 77.7395 11.0722 78.8078 13.9998L82.5907 24.3649C82.6417 24.5046 82.6582 24.6545 82.6389 24.8019C82.6196 24.9493 82.5651 25.0899 82.4798 25.2117C82.3946 25.3335 82.2813 25.433 82.1494 25.5017C82.0176 25.5704 81.8711 25.6062 81.7224 25.6062H68.9273C68.0088 25.6062 67.2614 26.3534 67.2614 27.2721V29.1131C67.2614 29.3582 67.164 29.5933 66.9907 29.7666C66.8174 29.94 66.5823 30.0374 66.3371 30.0374H57.532C57.2868 30.0372 57.0518 29.9397 56.8785 29.7663C56.7052 29.5929 56.6078 29.3579 56.6077 29.1127ZM58.4562 28.1884H65.4129V27.2717C65.4129 25.3339 66.9895 23.7573 68.9273 23.7573H80.4012L77.0713 14.6332C76.2233 12.3102 74.189 10.5714 71.7621 10.096L58.4562 7.48862V28.1884Z" fill="black"/>
<path d="M37.7734 17.3061C37.8972 17.3036 38.0202 17.3259 38.1353 17.3716C38.2504 17.4173 38.3552 17.4854 38.4436 17.5721C38.532 17.6588 38.6022 17.7622 38.6502 17.8764C38.6981 17.9905 38.7228 18.1131 38.7228 18.2369C38.7228 18.3607 38.6981 18.4833 38.6501 18.5975C38.6021 18.7116 38.5319 18.815 38.4435 18.9017C38.355 18.9884 38.2502 19.0565 38.1351 19.1022C38.02 19.1478 37.897 19.1701 37.7732 19.1676C37.5296 19.1627 37.2976 19.0625 37.127 18.8884C36.9564 18.7144 36.8609 18.4804 36.8609 18.2367C36.8609 17.9931 36.9565 17.7591 37.1271 17.5851C37.2977 17.4111 37.5298 17.3109 37.7734 17.3061ZM17.4845 44.9204C20.1917 44.9204 22.3941 47.1229 22.3941 49.8299C22.3941 52.537 20.1915 54.7395 17.4845 54.7395C14.7775 54.7395 12.575 52.537 12.575 49.8299C12.575 47.1229 14.7775 44.9204 17.4845 44.9204ZM17.4845 52.891C19.1724 52.891 20.5455 51.5179 20.5455 49.8299C20.5455 48.142 19.1724 46.7689 17.4845 46.7689C15.7966 46.7689 14.4235 48.142 14.4235 49.8299C14.4235 51.5179 15.7968 52.891 17.4845 52.891Z" fill="black"/>
<path d="M90.4135 53.3172L88.6157 47.9236H77.8287L76.0309 53.3172M83.2221 53.3172V47.9236" stroke="black" stroke-width="3" stroke-miterlimit="10" stroke-linecap="round" stroke-linejoin="round"/>
</svg>
