<svg width="120" height="94" viewBox="0 0 120 94" fill="none" xmlns="http://www.w3.org/2000/svg">
<path d="M22.5227 67.4244V68.8161H27.1199V67.4244C27.1201 67.1224 27.0608 66.8233 26.9454 66.5442C26.83 66.265 26.6607 66.0114 26.4473 65.7977C26.2338 65.584 25.9803 65.4145 25.7014 65.2988C25.4224 65.1831 25.1233 65.1235 24.8213 65.1234C24.7853 65.1234 24.7517 65.1234 24.7181 65.1258C24.1268 65.1532 23.5688 65.4073 23.16 65.8354C22.7511 66.2634 22.5229 66.8325 22.5227 67.4244Z" fill="#999999"/>
<path d="M43.2724 51.037L40.4507 53.182L46.2068 60.5769L49.0045 58.3983L43.2748 51.0394L43.2724 51.037Z" fill="#D4E1F4"/>
<path d="M23.2976 59.5641L54.2592 36.127L35.5104 11.3607L48.4359 1.43689L51.639 5.66699L43.1764 12.0757L61.942 36.8661L24.7181 65.1235H12.9491L8.80541 59.5641H23.2976Z" fill="#6ED300"/>
<path d="M50.6386 57.1263L59.7394 68.8161H49.9979L44.5729 61.8483L50.6386 57.1263Z" fill="#6D7486"/>
<path d="M68.0196 68.8162V72.2401H78.7352V77.274H22.5226V68.8162H68.0196Z" fill="#898890"/>
<path d="M96.1378 74.162C94.7274 75.0863 93.5811 76.3609 92.8112 77.8612C92.0413 79.3614 91.6741 81.0359 91.7456 82.7207C91.8171 84.4054 92.3247 86.0428 93.2189 87.4724C94.1131 88.9021 95.3632 90.0751 96.8468 90.8766C98.3304 91.6782 99.9967 92.0808 101.683 92.045C103.368 92.0093 105.016 91.5364 106.465 90.6727C107.913 89.809 109.112 88.5841 109.945 87.1178C110.778 85.6515 111.215 83.9941 111.215 82.3079C111.215 82.0511 111.206 81.7968 111.187 81.5425H110.402C110.177 81.5425 109.954 81.4981 109.746 81.4119C109.537 81.3257 109.348 81.1994 109.189 81.0401C109.03 80.8807 108.903 80.6916 108.817 80.4835C108.731 80.2753 108.686 80.0522 108.687 79.8269V77.7347C108.687 76.8091 108.322 75.921 107.67 75.2638C107.018 74.6067 106.133 74.2339 105.207 74.2268L96.1378 74.162Z" fill="#6D7486"/>
<path d="M99.101 53.897L96.8864 58.5038L117.307 63.4489V61.8461C117.307 60.8908 116.988 59.963 116.401 59.2094C115.814 58.4559 114.992 57.9196 114.066 57.6856L99.101 53.897Z" fill="#6ED300"/>
<path d="M96.8864 58.5037L117.307 63.4488V74.3899C117.082 74.2993 116.841 74.2528 116.597 74.2532H113.037V72.1465C113.037 70.772 112.491 69.4538 111.519 68.4818C110.547 67.5099 109.228 66.9639 107.854 66.9639H96.0034C95.8218 66.9636 95.6438 67.0152 95.4904 67.1125C95.337 67.2098 95.2145 67.3489 95.1373 67.5133L90.5833 77.274H78.7351V58.5037H96.8864Z" fill="#85FF00"/>
<path d="M113.037 74.2533V81.5426H116.597C116.85 81.5427 117.1 81.493 117.333 81.3964C117.566 81.2999 117.778 81.1583 117.956 80.9798C118.135 80.8014 118.276 80.5895 118.373 80.3563C118.47 80.123 118.519 79.8731 118.519 79.6207V76.1776C118.52 75.7925 118.404 75.4162 118.188 75.0975C117.972 74.7788 117.665 74.5323 117.307 74.3901C117.082 74.2994 116.841 74.253 116.597 74.2533H113.037Z" fill="#898890"/>
<path d="M34.0876 77.2738C32.975 79.1163 32.5041 81.2753 32.7482 83.4138C32.9924 85.5522 33.9381 87.5495 35.4374 89.0936C36.9367 90.6378 38.9052 91.6419 41.0355 91.949C43.1658 92.2562 45.3378 91.849 47.2122 90.7913C49.0867 89.7335 50.558 88.0846 51.3963 86.1023C52.2345 84.1199 52.3926 81.9158 51.8458 79.8341C51.299 77.7524 50.078 75.9105 48.3737 74.596C46.6694 73.2816 44.5777 72.5687 42.4254 72.5687C40.747 72.5625 39.0957 72.9931 37.6339 73.818C36.1721 74.6429 34.95 75.8338 34.0876 77.2738Z" fill="#6D7486"/>
<path d="M87.0203 42.6343H78.7352V58.5037H87.0203V42.6343Z" fill="#55D8D8"/>
<path d="M87.0202 42.6343V58.5037H96.8865L99.1011 53.8969L96.3754 45.0384C96.1619 44.3427 95.7309 43.7337 95.1457 43.301C94.5605 42.8683 93.852 42.6346 93.1242 42.6343H87.0202Z" fill="#7CE5E9"/>
<path d="M74.817 72.2402V83.6517C74.817 83.9062 74.7159 84.1503 74.5359 84.3303C74.3559 84.5103 74.1118 84.6114 73.8573 84.6114H57.8318C57.5773 84.6114 57.3332 84.5103 57.1532 84.3303C56.9732 84.1503 56.8721 83.9062 56.8721 83.6517V72.2402H74.817Z" fill="#CCD3DF"/>
<path d="M54.2407 36.1677L41.512 19.3716L29.5295 28.4525L42.2582 45.2486L54.2407 36.1677Z" fill="#85FF00"/>
<path d="M24.6845 29.6775L25.8434 31.2059L38.5625 48.0087L42.2719 45.2014L29.5528 28.3986L28.3939 26.8678L24.6845 29.6775Z" fill="#6ED300"/>
<path d="M38.5411 48.0599L25.8124 31.264L14.4605 39.867L27.1892 56.6629L38.5411 48.0599Z" fill="#85FF00"/>
<path d="M9.61882 41.0818L10.7753 42.6102L23.4944 59.413L26.8079 56.908L27.2062 56.6057L14.4872 39.8029L13.3283 38.2721L9.61882 41.0818Z" fill="#6ED300"/>
<path d="M23.4944 59.413L10.7753 42.6102L1.43933 49.6788L8.80541 59.5642H23.2976L26.8079 56.9081L23.4944 59.413Z" fill="#85FF00"/>
<path d="M44.9664 82.3078C44.9669 80.3582 44.3819 78.4533 43.2872 76.84C42.1924 75.2267 40.6383 73.9794 38.8264 73.2598C40.3036 72.6722 41.9023 72.4552 43.4828 72.6277C45.0632 72.8003 46.5774 73.3572 47.8931 74.2498C49.2087 75.1424 50.2858 76.3435 51.0303 77.7483C51.7748 79.153 52.164 80.7187 52.164 82.3085C52.164 83.8984 51.7748 85.4641 51.0303 86.8688C50.2858 88.2736 49.2087 89.4747 47.8931 90.3673C46.5774 91.2599 45.0632 91.8168 43.4828 91.9893C41.9023 92.1619 40.3036 91.9449 38.8264 91.3573C40.6381 90.6368 42.1918 89.3891 43.2865 87.7757C44.3812 86.1623 44.9664 84.2575 44.9664 82.3078ZM103.831 82.3078C103.832 80.3582 103.247 78.4533 102.152 76.84C101.057 75.2267 99.5029 73.9794 97.6909 73.2598C99.1682 72.6722 100.767 72.4552 102.347 72.6277C103.928 72.8003 105.442 73.3572 106.758 74.2498C108.073 75.1424 109.15 76.3435 109.895 77.7483C110.639 79.153 111.029 80.7187 111.029 82.3085C111.029 83.8984 110.639 85.4641 109.895 86.8688C109.15 88.2736 108.073 89.4747 106.758 90.3673C105.442 91.2599 103.928 91.8168 102.347 91.9893C100.767 92.1619 99.1682 91.9449 97.6909 91.3573C99.5026 90.6368 101.056 89.3891 102.151 87.7757C103.246 86.1623 103.831 84.2575 103.831 82.3078Z" fill="#596070"/>
<path d="M101.477 80.0068C101.021 80.0068 100.575 80.142 100.197 80.3952C99.8177 80.6484 99.5225 81.0083 99.3482 81.4293C99.1739 81.8503 99.1285 82.3136 99.2175 82.7605C99.3066 83.2074 99.5262 83.6178 99.8486 83.9398C100.171 84.2619 100.582 84.4811 101.029 84.5697C101.476 84.6583 101.939 84.6123 102.36 84.4376C102.78 84.2629 103.14 83.9673 103.393 83.5882C103.646 83.2091 103.78 82.7635 103.78 82.3078C103.78 82.0055 103.72 81.7061 103.604 81.4269C103.488 81.1476 103.319 80.8939 103.105 80.6802C102.891 80.4665 102.637 80.2971 102.358 80.1816C102.078 80.066 101.779 80.0066 101.477 80.0068ZM42.4255 80.0068C41.9698 80.0068 41.5244 80.142 41.1455 80.3952C40.7667 80.6484 40.4715 81.0083 40.2972 81.4293C40.1229 81.8503 40.0775 82.3136 40.1665 82.7605C40.2556 83.2074 40.4752 83.6178 40.7976 83.9398C41.12 84.2619 41.5306 84.4811 41.9776 84.5697C42.4246 84.6583 42.8878 84.6123 43.3086 84.4376C43.7295 84.2629 44.0891 83.9673 44.3419 83.5882C44.5947 83.2091 44.7294 82.7635 44.7289 82.3078C44.7288 82.0055 44.6691 81.7061 44.5533 81.4269C44.4374 81.1476 44.2677 80.8939 44.0538 80.6802C43.8399 80.4665 43.586 80.2971 43.3066 80.1816C43.0272 80.066 42.7278 80.0066 42.4255 80.0068Z" fill="#9B9BA3"/>
<path d="M95.1373 67.5133C95.2146 67.3489 95.3371 67.2099 95.4905 67.1125C95.6439 67.0152 95.8218 66.9637 96.0035 66.9639H107.854C109.229 66.9639 110.547 67.5099 111.519 68.4818C112.491 69.4538 113.037 70.772 113.037 72.1465V81.5425H110.402C110.177 81.5425 109.954 81.4981 109.746 81.4119C109.537 81.3257 109.348 81.1994 109.189 81.0401C109.03 80.8808 108.903 80.6916 108.817 80.4835C108.731 80.2753 108.687 80.0522 108.687 79.8269V77.7347C108.687 76.8091 108.322 75.921 107.67 75.2639C107.018 74.6067 106.133 74.2339 105.208 74.2268L92.0134 74.1332L95.1373 67.5133Z" fill="#6ED300"/>
<path d="M116.597 74.2532H113.229V63.7655C113.228 63.3915 113.179 63.0192 113.082 62.658L117.307 63.4497V74.3909C117.082 74.3001 116.841 74.2537 116.597 74.2541V74.2532Z" fill="#6ED300"/>
<path d="M115.4 78.0971C115.4 77.712 115.285 77.3357 115.069 77.017C114.853 76.6983 114.546 76.4518 114.188 76.3096V74.2533H116.597C116.841 74.2529 117.082 74.2993 117.307 74.3901C117.665 74.5323 117.972 74.7788 118.188 75.0975C118.404 75.4162 118.52 75.7925 118.519 76.1776V79.6207C118.519 79.8731 118.47 80.123 118.373 80.3563C118.276 80.5895 118.135 80.8014 117.956 80.9798C117.778 81.1583 117.566 81.2999 117.333 81.3964C117.1 81.493 116.85 81.5427 116.597 81.5426H115.4L115.4 78.0971Z" fill="#BCBBC4"/>
<path d="M97.94 56.3121C97.3421 56.1608 96.7933 55.8581 96.3463 55.4331C95.8993 55.0082 95.5692 54.4754 95.3878 53.8859L93.2562 46.9579C93.0427 46.2622 92.6117 45.6532 92.0265 45.2205C91.4413 44.7878 90.7328 44.5541 90.005 44.5538H87.0202V42.6343H93.1242C93.852 42.6346 94.5605 42.8683 95.1457 43.301C95.7309 43.7337 96.1619 44.3427 96.3754 45.0384L99.1011 53.8969L97.94 56.3121Z" fill="#A6FFFF"/>
<path d="M109.987 59.6051L97.94 56.3122L99.101 53.897L114.066 57.6856C114.992 57.9196 115.814 58.4559 116.401 59.2094C116.988 59.963 117.307 60.8908 117.307 61.8461V63.4489L113.082 62.6571C112.884 61.9191 112.493 61.2471 111.949 60.7107C111.405 60.1742 110.728 59.7925 109.987 59.6051Z" fill="#6ED300"/>
<path d="M42.9876 79.5792C43.7281 79.5792 44.4518 79.7988 45.0674 80.2102C45.683 80.6216 46.1627 81.2063 46.446 81.8904C46.7292 82.5745 46.8032 83.3272 46.6586 84.0534C46.514 84.7795 46.1572 85.4464 45.6335 85.9698C45.1098 86.4932 44.4426 86.8495 43.7164 86.9936C42.9902 87.1378 42.2375 87.0633 41.5536 86.7797C40.8697 86.496 40.2853 86.0159 39.8743 85.4C39.4633 84.7842 39.2441 84.0603 39.2446 83.3198C39.2461 82.3278 39.641 81.3768 40.3427 80.6756C41.0444 79.9743 41.9956 79.58 42.9876 79.5792ZM42.9876 84.1836C43.1585 84.1836 43.3255 84.133 43.4675 84.038C43.6096 83.9431 43.7203 83.8082 43.7857 83.6504C43.851 83.4926 43.8682 83.3189 43.8348 83.1513C43.8015 82.9838 43.7192 82.8299 43.5984 82.7091C43.4776 82.5883 43.3237 82.506 43.1562 82.4727C42.9886 82.4393 42.8149 82.4564 42.6571 82.5218C42.4993 82.5872 42.3644 82.6979 42.2694 82.84C42.1745 82.982 42.1239 83.149 42.1239 83.3198C42.1239 83.5489 42.2149 83.7686 42.3769 83.9306C42.5389 84.0926 42.7586 84.1836 42.9876 84.1836ZM102.039 79.5792C102.779 79.5792 103.503 79.7988 104.118 80.2102C104.734 80.6216 105.214 81.2063 105.497 81.8904C105.78 82.5745 105.854 83.3272 105.71 84.0534C105.565 84.7795 105.208 85.4464 104.685 85.9698C104.161 86.4932 103.494 86.8495 102.767 86.9936C102.041 87.1378 101.289 87.0633 100.605 86.7797C99.9207 86.496 99.3363 86.0159 98.9253 85.4C98.5143 84.7842 98.2952 84.0603 98.2956 83.3198C98.2971 82.3278 98.692 81.3768 99.3937 80.6756C100.095 79.9743 101.047 79.58 102.039 79.5792ZM102.039 84.1836C102.209 84.1836 102.376 84.133 102.519 84.038C102.661 83.9431 102.771 83.8082 102.837 83.6504C102.902 83.4926 102.919 83.3189 102.886 83.1513C102.853 82.9838 102.77 82.8299 102.649 82.7091C102.529 82.5883 102.375 82.506 102.207 82.4727C102.04 82.4393 101.866 82.4564 101.708 82.5218C101.55 82.5872 101.415 82.6979 101.32 82.84C101.226 82.982 101.175 83.149 101.175 83.3198C101.175 83.5489 101.266 83.7686 101.428 83.9306C101.59 84.0926 101.81 84.1836 102.039 84.1836Z" fill="black"/>
<path fill-rule="evenodd" clip-rule="evenodd" d="M8.75939 42.3312L0.570802 48.5311C0.267903 48.7604 0.0678964 49.1001 0.0143685 49.4762C-0.0391595 49.8523 0.0581399 50.2343 0.285046 50.5389L11.7951 65.984C11.9291 66.1637 12.1032 66.3097 12.3035 66.4102C12.5039 66.5108 12.725 66.5631 12.9492 66.5632H21.186C21.1187 66.8454 21.0842 67.1344 21.0831 67.4245V77.274C21.0831 77.6558 21.2347 78.022 21.5047 78.2919C21.7747 78.5619 22.1409 78.7136 22.5227 78.7136H31.8435C31.2711 80.396 31.1081 82.1907 31.3679 83.9487C31.6277 85.7068 32.303 87.3775 33.3376 88.8224C34.3723 90.2673 35.7365 91.4447 37.3171 92.257C38.8978 93.0692 40.6493 93.4929 42.4265 93.4929C44.2036 93.4929 45.9551 93.0692 47.5358 92.257C49.1164 91.4447 50.4806 90.2673 51.5153 88.8224C52.5499 87.3775 53.2252 85.7068 53.485 83.9487C53.7448 82.1907 53.5818 80.396 53.0094 78.7136H55.4327V83.6515C55.4334 84.2876 55.6865 84.8975 56.1363 85.3473C56.5861 85.7972 57.196 86.0502 57.8321 86.0509H73.8575C74.4937 86.0502 75.1036 85.7972 75.5534 85.3473C76.0032 84.8975 76.2562 84.2876 76.2569 83.6515V78.7136L90.9073 78.673C90.3874 80.1819 90.1967 81.7846 90.348 83.3733C90.4992 84.962 90.9889 86.4999 91.7841 87.8836C92.5793 89.2672 93.6615 90.4646 94.9581 91.3951C96.2546 92.3256 97.7354 92.9677 99.3008 93.2781C100.866 93.5886 102.48 93.5603 104.033 93.1951C105.587 92.8298 107.044 92.1362 108.307 91.1607C109.57 90.1853 110.61 88.9507 111.356 87.54C112.102 86.1293 112.538 84.5751 112.633 82.9821H116.597C117.489 82.9811 118.343 82.6266 118.973 81.9964C119.603 81.3662 119.958 80.5118 119.959 79.6206V76.1774C119.961 75.6833 119.853 75.195 119.643 74.7475C119.434 74.3 119.128 73.9045 118.747 73.5895V61.846C118.747 60.5703 118.322 59.331 117.538 58.3246C116.754 57.3183 115.656 56.6025 114.419 56.2907L100.239 52.7008L97.7515 44.6149C97.4507 43.6229 96.8381 42.7543 96.0045 42.1381C95.1709 41.522 94.1609 41.1911 93.1243 41.1946H78.7352C78.3534 41.1946 77.9873 41.3462 77.7173 41.6162C77.4473 41.8862 77.2956 42.2524 77.2956 42.6342V67.1318H76.8541V70.0111H77.2956V70.8004H69.4593V68.8162C69.4593 68.4344 69.3076 68.0682 69.0376 67.7982C68.7676 67.5282 68.4014 67.3765 68.0196 67.3765H60.4431L51.7754 56.2446C51.5409 55.9434 51.1963 55.7477 50.8175 55.7005C50.4387 55.6533 50.0566 55.7585 49.7553 55.993L49.2572 56.3807L45.3059 51.3058L62.8135 38.0154C63.1173 37.7847 63.3171 37.4429 63.3691 37.065C63.4211 36.6872 63.3211 36.3041 63.0908 35.9999L45.1939 12.3572L52.5091 6.81729C52.8135 6.58679 53.0138 6.24483 53.066 5.86664C53.1183 5.48845 53.0181 5.10499 52.7877 4.80062L49.5845 0.570519C49.4699 0.419165 49.3265 0.291977 49.1625 0.196276C48.9985 0.100576 48.8172 0.0382538 48.6291 0.0128975C48.4409 -0.0124588 48.2496 -0.000348799 48.0662 0.0485315C47.8827 0.0974118 47.7107 0.182096 47.5601 0.29771L34.6347 10.2215C34.3332 10.453 34.1355 10.7944 34.0847 11.1711C34.0339 11.5478 34.1341 11.9294 34.3636 12.2324L39.5242 19.0481L29.8326 26.3847L29.5428 26.0008C29.4286 25.85 29.2859 25.7232 29.1228 25.6276C28.9596 25.532 28.7792 25.4695 28.5919 25.4436C28.4046 25.4177 28.214 25.429 28.031 25.4768C27.8481 25.5246 27.6763 25.608 27.5256 25.7222L23.8162 28.5319C23.6654 28.6461 23.5387 28.7888 23.4431 28.952C23.3476 29.1152 23.2851 29.2957 23.2593 29.483C23.2335 29.6704 23.2449 29.8609 23.2927 30.0439C23.3406 30.2268 23.4241 30.3986 23.5383 30.5493L23.8263 30.9298L14.7665 37.7882L14.4764 37.4043C14.3623 37.2535 14.2196 37.1267 14.0565 37.0311C13.8933 36.9355 13.713 36.873 13.5257 36.8471C13.3384 36.8212 13.1478 36.8325 12.9649 36.8802C12.7819 36.928 12.6102 37.0113 12.4595 37.1255L8.75003 39.9351C8.44603 40.1656 8.24594 40.5073 8.19371 40.8852C8.14148 41.2631 8.24138 41.6463 8.47146 41.9506L8.75939 42.3312ZM94.2923 44.4577C94.6301 44.7077 94.8782 45.0601 94.9999 45.4623L97.5593 53.7819L95.9812 57.0648H88.4599V44.0745H93.1248C93.545 44.0733 93.9545 44.2077 94.2923 44.4577ZM99.8888 55.5812L113.713 59.0809C114.29 59.2265 114.808 59.5493 115.193 60.0041C115.578 60.4589 115.81 61.0228 115.858 61.6166L98.955 57.5233L99.8888 55.5812ZM116.597 80.1028H114.476V75.6928H116.597C116.657 75.6925 116.716 75.7036 116.771 75.7257C116.861 75.7613 116.939 75.8235 116.995 75.904C117.05 75.9846 117.079 76.0798 117.08 76.1774V79.6206C117.08 79.7484 117.029 79.871 116.938 79.9614C116.848 80.0519 116.725 80.1027 116.597 80.1028ZM107.123 88.3837C105.588 89.8103 103.572 90.6045 101.477 90.6073C99.7253 90.6078 98.0188 90.0541 96.6014 89.0257C95.1839 87.9972 94.1283 86.5466 93.5855 84.8816C93.0427 83.2166 93.0407 81.4226 93.5797 79.7563C94.1187 78.0901 95.171 76.6371 96.5861 75.6054L105.197 75.6664C105.742 75.6723 106.263 75.8927 106.647 76.2798C107.03 76.6669 107.246 77.1896 107.247 77.7347V79.8269C107.248 80.5504 107.497 81.2517 107.953 81.8135C108.409 82.3754 109.044 82.7638 109.751 82.9139C109.596 85.0034 108.657 86.957 107.123 88.3837ZM89.6569 75.8343H80.1749V59.9433H96.7137L115.868 64.5813V72.8135H114.476V72.1465C114.474 70.3908 113.776 68.7076 112.534 67.4661C111.293 66.2246 109.61 65.5263 107.854 65.5242H102.928C102.546 65.5242 102.18 65.6759 101.91 65.9459C101.64 66.2159 101.489 66.582 101.489 66.9639C101.489 67.3457 101.64 67.7118 101.91 67.9818C102.18 68.2518 102.546 68.4035 102.928 68.4035H107.854C108.846 68.4046 109.798 68.7993 110.5 69.501C111.201 70.2027 111.596 71.1541 111.597 72.1465V80.1028H110.402C110.329 80.1028 110.259 80.0737 110.207 80.0219C110.155 79.9702 110.126 79.9001 110.126 79.8269V77.7347C110.123 76.4303 109.606 75.1796 108.688 74.2536C107.769 73.3276 106.523 72.8007 105.218 72.7871L94.2772 72.7094L96.3092 68.4035H98.9291C99.3109 68.4035 99.6771 68.2518 99.9471 67.9818C100.217 67.7118 100.369 67.3457 100.369 66.9639C100.369 66.582 100.217 66.2159 99.9471 65.9459C99.6771 65.6759 99.3109 65.5242 98.9291 65.5242H96.0028C95.5485 65.5254 95.1037 65.6552 94.72 65.8985C94.3363 66.1419 94.0293 66.4888 93.8345 66.8993L89.6569 75.8343ZM85.5806 57.064H80.1749V44.0738H85.5806V57.064ZM77.2956 75.8343H76.2567V73.6797H77.2956V75.8343ZM11.6341 41.3606L13.0497 40.289L25.1884 56.3267L25.0571 56.426L23.7728 57.3971L11.6341 41.3606ZM27.4853 54.5879L16.5048 40.082L25.5644 33.2217L36.5461 47.7293L27.4853 54.5879ZM26.7021 29.9554L28.1156 28.8848L40.2562 44.9225L38.843 45.9924L26.7021 29.9554ZM42.4816 53.4465L43.0117 53.0441L46.9845 58.1478L46.4586 58.5572L42.4816 53.4465ZM43.3215 61.1372C43.2281 61.3016 43.168 61.4827 43.1446 61.6703C43.1212 61.858 43.1348 62.0484 43.185 62.2307C43.2353 62.413 43.3209 62.5836 43.4371 62.7328L47.0524 67.3765H28.5571C28.5456 66.4202 28.1668 65.5049 27.4992 64.82L40.1878 55.1877L44.1866 60.3248L43.689 60.7123C43.5398 60.8284 43.4149 60.9728 43.3215 61.1372ZM46.5934 62.1003L50.3869 59.1467L56.7942 67.3765H50.7017L46.5934 62.1003ZM73.3774 83.1716H58.3117V73.6797H73.3774V83.1716ZM46.5576 89.5051C45.3001 90.2272 43.8755 90.6072 42.4255 90.6073C40.9551 90.6072 39.5116 90.2155 38.2418 89.4741C36.9719 88.7328 35.9218 87.6674 35.1989 86.387C34.476 85.1065 34.1062 83.6571 34.1273 82.1868C34.1485 80.7165 34.5598 79.2783 35.3193 78.0192C36.0685 76.7778 37.13 75.7544 38.3978 75.0508C39.6657 74.3473 41.0958 73.9882 42.5456 74.0093C43.9954 74.0304 45.4144 74.431 46.6613 75.1711C47.9081 75.9113 48.9393 76.9652 49.6521 78.2279C50.3649 79.4906 50.7345 80.9179 50.724 82.3679C50.7135 83.8178 50.3233 85.2397 49.5923 86.492C48.8613 87.7442 47.815 88.7831 46.5576 89.5051ZM33.3141 75.8343H23.9623V70.2558H66.58V70.8004H56.8721C56.4903 70.8004 56.1241 70.9521 55.8542 71.2221C55.5842 71.4921 55.4325 71.8583 55.4325 72.2401V75.8343H51.5369C50.504 74.3797 49.1379 73.1935 47.5528 72.375C45.9676 71.5564 44.2095 71.1292 42.4255 71.1292C40.6415 71.1292 38.8834 71.5564 37.2982 72.375C35.7131 73.1935 34.347 74.3797 33.3141 75.8343ZM25.41 66.8C25.5688 66.9513 25.6637 67.1576 25.6752 67.3765L23.9661 67.3756C23.9768 67.163 24.0662 66.962 24.2171 66.8117C24.3679 66.6615 24.5693 66.5729 24.7819 66.5632H24.8213C25.0406 66.564 25.2512 66.6488 25.41 66.8ZM24.2337 63.6839H13.6714L11.6744 61.0045H23.2977C23.6113 61.0045 23.9163 60.9021 24.1665 60.713L47.3536 43.1611C47.658 42.9306 47.8584 42.5887 47.9107 42.2105C47.963 41.8322 47.863 41.4487 47.6325 41.1443C47.402 40.8399 47.0601 40.6395 46.6819 40.5871C46.3036 40.5348 45.9201 40.6349 45.6157 40.8654L42.5507 43.1853L31.5695 28.6785L41.2611 21.3417L52.2425 35.8488L48.6987 38.5286C48.5461 38.642 48.4174 38.7845 48.3202 38.9479C48.223 39.1113 48.1591 39.2924 48.1322 39.4806C48.1053 39.6688 48.116 39.8605 48.1636 40.0446C48.2112 40.2287 48.2948 40.4015 48.4096 40.5531C48.5243 40.7047 48.668 40.832 48.8322 40.9278C48.9965 41.0236 49.1781 41.0858 49.3666 41.111C49.555 41.1362 49.7466 41.1239 49.9302 41.0746C50.1139 41.0254 50.286 40.9402 50.4365 40.8241L55.1275 37.273C55.4316 37.0426 55.6317 36.7009 55.684 36.323C55.7363 35.9451 55.6364 35.5619 55.4064 35.2576L42.6878 18.4552L37.5212 11.6316L48.1631 3.46152L49.6224 5.38846L42.3074 10.9291C42.0034 11.1595 41.8033 11.5012 41.751 11.8791C41.6987 12.257 41.7986 12.6402 42.0286 12.9446L59.9265 36.5887L24.2337 63.6839ZM20.7136 58.1246H9.52815L3.44742 49.9643L10.4968 44.6269L20.7136 58.1246Z" fill="black"/>
<path d="M70.12 62.67L70.12 61.74C70.12 61.06 69.78 60.77 69.24 60.77C68.7 60.77 68.36 61.06 68.36 61.74L68.36 62.67L70.12 62.67ZM69.24 59.03C70.4 59.03 71.48 59.82 71.48 61.61L71.48 62.67L74 62.67L74 64.38L66.98 64.38L66.98 61.61C66.98 59.89 67.95 59.03 69.24 59.03ZM69.71 55.6798C69.71 56.2398 70.05 56.6698 70.67 56.7698L70.67 54.6298C70.06 54.6298 69.71 55.1098 69.71 55.6798ZM72.15 53.0098C73.24 53.2798 74.08 54.2698 74.08 55.6598C74.08 57.2998 72.98 58.4798 71.21 58.4798C69.44 58.4798 68.34 57.3198 68.34 55.6598C68.34 54.0298 69.42 52.8798 71.12 52.8798C71.28 52.8798 71.45 52.8898 71.62 52.9098L71.62 56.7798C72.35 56.7198 72.69 56.2698 72.69 55.7198C72.69 55.2398 72.45 54.9698 72.15 54.8298L72.15 53.0098ZM72.06 51.7077L69.84 51.7077L69.84 52.3877L68.42 52.3877L68.42 51.7077L67.06 51.7077L67.06 49.9977L68.42 49.9977L68.42 48.8777L69.84 48.8777L69.84 49.9977L72.08 49.9977C72.41 49.9977 72.55 49.8577 72.55 49.4777L72.55 48.8677L74 48.8677L74 49.7377C74 50.8977 73.51 51.7077 72.06 51.7077ZM71.41 46.2052L74 46.2052L74 47.9152L68.42 47.9152L68.42 46.2052L69.35 46.2052C68.76 45.8152 68.36 45.2052 68.36 44.4552L70.17 44.4552L70.17 44.9252C70.17 45.7352 70.45 46.2052 71.41 46.2052ZM71.21 38.1778C72.98 38.1778 74.08 39.4578 74.08 41.0978C74.08 42.7378 72.98 43.9778 71.21 43.9778C69.44 43.9778 68.34 42.7078 68.34 41.0778C68.34 39.4378 69.44 38.1778 71.21 38.1778ZM71.21 42.2378C72.15 42.2378 72.6 41.7178 72.6 41.0978C72.6 40.4878 72.15 39.9178 71.21 39.9178C70.26 39.9178 69.82 40.4778 69.82 41.0778C69.82 41.6978 70.26 42.2378 71.21 42.2378ZM74 37.2706L66.6 37.2706L66.6 35.5606L74 35.5606L74 37.2706Z" fill="black"/>
</svg>
