<svg width="121" height="94" viewBox="0 0 121 94" fill="none" xmlns="http://www.w3.org/2000/svg">
<path d="M22.9947 67.8982V69.2898H27.5919V67.8982C27.5921 67.5961 27.5329 67.297 27.4174 67.0179C27.302 66.7388 27.1328 66.4852 26.9193 66.2715C26.7059 66.0578 26.4524 65.8883 26.1734 65.7726C25.8944 65.6569 25.5954 65.5973 25.2933 65.5972C25.2573 65.5972 25.2237 65.5972 25.1901 65.5996C24.5989 65.627 24.0409 65.8811 23.632 66.3091C23.2232 66.7372 22.995 67.3063 22.9947 67.8982Z" fill="#999999"/>
<path d="M43.7445 51.5105L40.9228 53.6555L46.6789 61.0504L49.4766 58.8718L43.7469 51.5129L43.7445 51.5105Z" fill="#D4E1F4"/>
<path d="M23.7697 60.0379L54.7312 36.6008L35.9825 11.8345L48.9079 1.91064L52.1111 6.14074L43.6485 12.5495L62.414 37.3398L25.1901 65.5972H13.4212L9.27745 60.0379H23.7697Z" fill="#6ED300"/>
<path d="M51.1106 57.6001L60.2114 69.2899H50.47L45.045 62.3221L51.1106 57.6001Z" fill="#6D7486"/>
<path d="M68.4916 69.2898V72.7137H79.2072V77.7476H22.9947V69.2898H68.4916Z" fill="#898890"/>
<path d="M96.6098 74.6357C95.1994 75.56 94.0532 76.8347 93.2833 78.3349C92.5134 79.8352 92.1462 81.5096 92.2176 83.1944C92.2891 84.8792 92.7968 86.5165 93.691 87.9462C94.5852 89.3758 95.8352 90.5488 97.3188 91.3504C98.8025 92.1519 100.469 92.5545 102.155 92.5188C103.841 92.483 105.488 92.0102 106.937 91.1465C108.385 90.2828 109.584 89.0578 110.417 87.5916C111.25 86.1253 111.688 84.4679 111.687 82.7816C111.687 82.5249 111.678 82.2706 111.659 82.0162H110.874C110.649 82.0163 110.426 81.9719 110.218 81.8857C110.009 81.7995 109.82 81.6731 109.661 81.5138C109.502 81.3545 109.375 81.1654 109.289 80.9572C109.203 80.7491 109.159 80.526 109.159 80.3007V78.2084C109.159 77.2829 108.794 76.3947 108.142 75.7376C107.49 75.0805 106.605 74.7077 105.679 74.7005L96.6098 74.6357Z" fill="#6D7486"/>
<path d="M99.5731 54.3706L97.3585 58.9774L117.78 63.9225V62.3197C117.779 61.3645 117.46 60.4366 116.873 59.6831C116.286 58.9295 115.464 58.3933 114.538 58.1592L99.5731 54.3706Z" fill="#6ED300"/>
<path d="M97.3585 58.9773L117.78 63.9224V74.8636C117.554 74.7729 117.313 74.7265 117.069 74.7268H113.509V72.6201C113.509 71.2456 112.963 69.9274 111.991 68.9555C111.019 67.9835 109.701 67.4375 108.326 67.4375H96.4755C96.2938 67.4373 96.1159 67.4888 95.9624 67.5862C95.809 67.6835 95.6865 67.8225 95.6093 67.987L91.0553 77.7476H79.2072V58.9773H97.3585Z" fill="#85FF00"/>
<path d="M113.509 74.7268V82.0161H117.069C117.322 82.0162 117.572 81.9665 117.805 81.8699C118.038 81.7734 118.25 81.6318 118.428 81.4533C118.607 81.2749 118.748 81.063 118.845 80.8298C118.942 80.5966 118.991 80.3466 118.991 80.0942V76.6511C118.992 76.266 118.876 75.8897 118.66 75.571C118.444 75.2523 118.137 75.0058 117.78 74.8636C117.554 74.7729 117.313 74.7265 117.069 74.7268H113.509Z" fill="#898890"/>
<path d="M34.5597 77.7475C33.4471 79.5899 32.9761 81.749 33.2203 83.8874C33.4645 86.0258 34.4101 88.0231 35.9094 89.5673C37.4087 91.1115 39.3773 92.1155 41.5076 92.4227C43.6378 92.7298 45.8098 92.3227 47.6843 91.2649C49.5587 90.2071 51.03 88.5583 51.8683 86.5759C52.7066 84.5936 52.8647 82.3894 52.3179 80.3077C51.771 78.226 50.5501 76.3841 48.8458 75.0697C47.1415 73.7552 45.0498 73.0423 42.8975 73.0423C41.219 73.0362 39.5678 73.4667 38.106 74.2916C36.6442 75.1165 35.4221 76.3075 34.5597 77.7475Z" fill="#6D7486"/>
<path d="M87.4923 43.1079H79.2073V58.9774H87.4923V43.1079Z" fill="#55D8D8"/>
<path d="M87.4923 43.1079V58.9774H97.3585L99.5731 54.3706L96.8474 45.5121C96.6339 44.8163 96.2029 44.2074 95.6178 43.7746C95.0326 43.3419 94.3241 43.1082 93.5963 43.1079H87.4923Z" fill="#7CE5E9"/>
<path d="M75.2891 72.7139V84.1253C75.2891 84.3798 75.1879 84.624 75.008 84.8039C74.828 84.9839 74.5839 85.085 74.3293 85.085H58.3039C58.0493 85.085 57.8052 84.9839 57.6252 84.8039C57.4453 84.624 57.3441 84.3798 57.3441 84.1253V72.7139H75.2891Z" fill="#CCD3DF"/>
<path d="M54.7127 36.6413L41.984 19.8452L30.0015 28.9261L42.7302 45.7222L54.7127 36.6413Z" fill="#85FF00"/>
<path d="M25.1565 30.1512L26.3154 31.6796L39.0345 48.4824L42.744 45.6752L30.0249 28.8724L28.866 27.3416L25.1565 30.1512Z" fill="#6ED300"/>
<path d="M39.0131 48.5334L26.2844 31.7375L14.9325 40.3405L27.6612 57.1364L39.0131 48.5334Z" fill="#85FF00"/>
<path d="M10.0909 41.5555L11.2474 43.0839L23.9665 59.8867L27.28 57.3818L27.6783 57.0795L14.9592 40.2767L13.8003 38.7458L10.0909 41.5555Z" fill="#6ED300"/>
<path d="M23.9664 59.8868L11.2473 43.084L1.91138 50.1525L9.27746 60.038H23.7697L27.28 57.3819L23.9664 59.8868Z" fill="#85FF00"/>
<path d="M45.4384 82.7816C45.439 80.8319 44.854 78.927 43.7592 77.3138C42.6644 75.7005 41.1104 74.4532 39.2984 73.7335C40.7757 73.1459 42.3744 72.9289 43.9548 73.1015C45.5353 73.2741 47.0495 73.831 48.3651 74.7235C49.6807 75.6161 50.7578 76.8172 51.5023 78.222C52.2468 79.6268 52.6361 81.1924 52.6361 82.7823C52.6361 84.3721 52.2468 85.9378 51.5023 87.3426C50.7578 88.7473 49.6807 89.9485 48.3651 90.841C47.0495 91.7336 45.5353 92.2905 43.9548 92.4631C42.3744 92.6357 40.7757 92.4187 39.2984 91.8311C41.1101 91.1106 42.6639 89.8629 43.7585 88.2495C44.8532 86.6361 45.4384 84.7313 45.4384 82.7816ZM104.303 82.7816C104.304 80.8319 103.719 78.927 102.624 77.3138C101.529 75.7005 99.975 74.4532 98.163 73.7335C99.6403 73.1459 101.239 72.9289 102.819 73.1015C104.4 73.2741 105.914 73.831 107.23 74.7235C108.545 75.6161 109.622 76.8172 110.367 78.222C111.111 79.6268 111.501 81.1924 111.501 82.7823C111.501 84.3721 111.111 85.9378 110.367 87.3426C109.622 88.7473 108.545 89.9485 107.23 90.841C105.914 91.7336 104.4 92.2905 102.819 92.4631C101.239 92.6357 99.6403 92.4187 98.163 91.8311C99.9747 91.1106 101.528 89.8629 102.623 88.2495C103.718 86.6361 104.303 84.7313 104.303 82.7816Z" fill="#596070"/>
<path d="M101.949 80.4805C101.493 80.4805 101.047 80.6156 100.669 80.8688C100.29 81.122 99.9945 81.4819 99.8203 81.9029C99.646 82.324 99.6005 82.7872 99.6896 83.2341C99.7787 83.681 99.9983 84.0914 100.321 84.4135C100.643 84.7355 101.054 84.9547 101.501 85.0433C101.948 85.1319 102.411 85.086 102.832 84.9112C103.253 84.7365 103.612 84.4409 103.865 84.0618C104.118 83.6827 104.252 83.2371 104.252 82.7815C104.252 82.4791 104.192 82.1798 104.076 81.9005C103.96 81.6212 103.791 81.3675 103.577 81.1538C103.363 80.9402 103.109 80.7707 102.83 80.6552C102.55 80.5396 102.251 80.4803 101.949 80.4805ZM42.8975 80.4805C42.4419 80.4805 41.9964 80.6156 41.6176 80.8688C41.2387 81.122 40.9435 81.4819 40.7692 81.9029C40.595 82.324 40.5495 82.7872 40.6386 83.2341C40.7276 83.681 40.9473 84.0914 41.2696 84.4135C41.592 84.7355 42.0027 84.9547 42.4496 85.0433C42.8966 85.1319 43.3598 85.086 43.7807 84.9112C44.2015 84.7365 44.5611 84.4409 44.8139 84.0618C45.0667 83.6827 45.2014 83.2371 45.2009 82.7815C45.2008 82.4791 45.1411 82.1798 45.0253 81.9005C44.9095 81.6212 44.7398 81.3675 44.5259 81.1538C44.312 80.9402 44.0581 80.7707 43.7787 80.6552C43.4993 80.5396 43.1999 80.4803 42.8975 80.4805Z" fill="#9B9BA3"/>
<path d="M95.6094 67.987C95.6866 67.8225 95.8091 67.6835 95.9625 67.5862C96.1159 67.4889 96.2939 67.4373 96.4756 67.4375H108.326C109.701 67.4375 111.019 67.9835 111.991 68.9555C112.963 69.9274 113.509 71.2456 113.509 72.6202V82.0161H110.874C110.649 82.0161 110.426 81.9718 110.218 81.8856C110.01 81.7994 109.82 81.673 109.661 81.5137C109.502 81.3544 109.375 81.1653 109.289 80.9571C109.203 80.7489 109.159 80.5259 109.159 80.3006V78.2083C109.159 77.2828 108.794 76.3946 108.142 75.7375C107.49 75.0804 106.605 74.7076 105.68 74.7004L92.4854 74.6068L95.6094 67.987Z" fill="#6ED300"/>
<path d="M117.069 74.7268H113.701V64.2391C113.7 63.8651 113.651 63.4928 113.554 63.1316L117.78 63.9234V74.8645C117.554 74.7738 117.313 74.7273 117.069 74.7278V74.7268Z" fill="#6ED300"/>
<path d="M115.872 78.5706C115.872 78.1855 115.757 77.8092 115.541 77.4905C115.325 77.1718 115.018 76.9253 114.66 76.7831V74.7268H117.069C117.313 74.7264 117.554 74.7728 117.78 74.8636C118.137 75.0058 118.444 75.2523 118.66 75.571C118.876 75.8897 118.992 76.266 118.991 76.6511V80.0942C118.991 80.3466 118.942 80.5966 118.845 80.8298C118.748 81.063 118.607 81.2749 118.428 81.4533C118.25 81.6318 118.038 81.7734 117.805 81.8699C117.572 81.9665 117.322 82.0162 117.069 82.0161H115.872L115.872 78.5706Z" fill="#BCBBC4"/>
<path d="M98.4121 56.7858C97.8142 56.6344 97.2653 56.3317 96.8183 55.9068C96.3714 55.4818 96.0413 54.949 95.8598 54.3595L93.7282 47.4316C93.5147 46.7358 93.0837 46.1269 92.4986 45.6941C91.9134 45.2614 91.2049 45.0277 90.4771 45.0274H87.4923V43.1079H93.5963C94.3241 43.1082 95.0326 43.3419 95.6178 43.7746C96.2029 44.2074 96.6339 44.8163 96.8474 45.5121L99.5731 54.3706L98.4121 56.7858Z" fill="#A6FFFF"/>
<path d="M110.459 60.0787L98.412 56.7858L99.5731 54.3706L114.538 58.1592C115.464 58.3933 116.286 58.9295 116.873 59.6831C117.46 60.4366 117.779 61.3645 117.78 62.3197V63.9225L113.554 63.1307C113.356 62.3927 112.965 61.7208 112.421 61.1843C111.877 60.6478 111.2 60.2661 110.459 60.0787Z" fill="#6ED300"/>
<path d="M43.4597 80.053C44.2001 80.053 44.9239 80.2726 45.5395 80.684C46.155 81.0954 46.6348 81.6801 46.918 82.3642C47.2013 83.0483 47.2752 83.801 47.1306 84.5271C46.986 85.2532 46.6293 85.9202 46.1056 86.4436C45.5819 86.9669 44.9147 87.3232 44.1885 87.4674C43.4622 87.6116 42.7095 87.5371 42.0256 87.2534C41.3417 86.9697 40.7573 86.4896 40.3463 85.8738C39.9353 85.2579 39.7162 84.534 39.7167 83.7936C39.7181 82.8016 40.113 81.8506 40.8147 81.1493C41.5164 80.4481 42.4677 80.0538 43.4597 80.053ZM43.4597 84.6574C43.6305 84.6574 43.7975 84.6067 43.9396 84.5118C44.0816 84.4169 44.1923 84.282 44.2577 84.1242C44.3231 83.9663 44.3402 83.7926 44.3069 83.6251C44.2735 83.4575 44.1913 83.3036 44.0705 83.1828C43.9497 83.062 43.7958 82.9798 43.6282 82.9464C43.4607 82.9131 43.287 82.9302 43.1291 82.9956C42.9713 83.061 42.8364 83.1717 42.7415 83.3137C42.6466 83.4558 42.5959 83.6228 42.5959 83.7936C42.5959 84.0227 42.6869 84.2424 42.8489 84.4044C43.0109 84.5664 43.2306 84.6574 43.4597 84.6574ZM102.511 80.053C103.251 80.053 103.975 80.2726 104.59 80.684C105.206 81.0954 105.686 81.6801 105.969 82.3642C106.252 83.0483 106.326 83.801 106.182 84.5271C106.037 85.2532 105.68 85.9202 105.157 86.4436C104.633 86.9669 103.966 87.3232 103.239 87.4674C102.513 87.6116 101.761 87.5371 101.077 87.2534C100.393 86.9697 99.8083 86.4896 99.3973 85.8738C98.9863 85.2579 98.7672 84.534 98.7677 83.7936C98.7691 82.8016 99.164 81.8506 99.8657 81.1493C100.567 80.4481 101.519 80.0538 102.511 80.053ZM102.511 84.6574C102.682 84.6574 102.849 84.6067 102.991 84.5118C103.133 84.4169 103.243 84.282 103.309 84.1242C103.374 83.9663 103.391 83.7926 103.358 83.6251C103.325 83.4575 103.242 83.3036 103.121 83.1828C103.001 83.062 102.847 82.9798 102.679 82.9464C102.512 82.9131 102.338 82.9302 102.18 82.9956C102.022 83.061 101.887 83.1717 101.792 83.3137C101.698 83.4558 101.647 83.6228 101.647 83.7936C101.647 84.0227 101.738 84.2424 101.9 84.4044C102.062 84.5664 102.282 84.6574 102.511 84.6574Z" fill="black"/>
<path fill-rule="evenodd" clip-rule="evenodd" d="M9.23144 42.8048L1.04285 49.0048C0.739949 49.234 0.539942 49.5737 0.486414 49.9498C0.432886 50.3259 0.530186 50.7079 0.757092 51.0126L12.2671 66.4576C12.4011 66.6373 12.5752 66.7833 12.7756 66.8838C12.976 66.9844 13.197 67.0368 13.4212 67.0368H21.658C21.5908 67.319 21.5562 67.608 21.5551 67.8982V77.7476C21.5551 78.1294 21.7068 78.4956 21.9768 78.7656C22.2467 79.0355 22.6129 79.1872 22.9947 79.1872H32.3156C31.7432 80.8696 31.5801 82.6643 31.8399 84.4223C32.0998 86.1804 32.775 87.8511 33.8097 89.2961C34.8443 90.741 36.2085 91.9184 37.7892 92.7306C39.3698 93.5429 41.1214 93.9666 42.8985 93.9666C44.6756 93.9666 46.4272 93.5429 48.0078 92.7306C49.5885 91.9184 50.9527 90.741 51.9873 89.2961C53.022 87.8511 53.6972 86.1804 53.9571 84.4223C54.2169 82.6643 54.0538 80.8696 53.4814 79.1872H55.9048V84.1251C55.9055 84.7613 56.1585 85.3712 56.6083 85.821C57.0581 86.2708 57.668 86.5238 58.3042 86.5245H74.3296C74.9657 86.5238 75.5756 86.2708 76.0254 85.821C76.4753 85.3712 76.7283 84.7613 76.729 84.1251V79.1872L91.3793 79.1467C90.8595 80.6555 90.6688 82.2582 90.82 83.8469C90.9712 85.4356 91.4609 86.9735 92.2561 88.3572C93.0513 89.7409 94.1336 90.9382 95.4301 91.8687C96.7267 92.7992 98.2074 93.4413 99.7728 93.7518C101.338 94.0623 102.952 94.0339 104.505 93.6687C106.059 93.3035 107.516 92.6098 108.779 91.6344C110.043 90.6589 111.082 89.4243 111.828 88.0136C112.574 86.6029 113.01 85.0487 113.105 83.4557H117.069C117.961 83.4547 118.815 83.1002 119.445 82.47C120.075 81.8398 120.43 80.9854 120.431 80.0942V76.6511C120.433 76.157 120.325 75.6686 120.115 75.2211C119.906 74.7737 119.6 74.3782 119.219 74.0631V62.3196C119.22 61.0439 118.794 59.8046 118.01 58.7983C117.226 57.7919 116.128 57.0761 114.891 56.7643L100.711 53.1744L98.2235 45.0885C97.9228 44.0965 97.3101 43.2279 96.4766 42.6118C95.643 41.9956 94.6329 41.6647 93.5963 41.6682H79.2073C78.8255 41.6682 78.4593 41.8199 78.1893 42.0899C77.9193 42.3598 77.7677 42.726 77.7677 43.1078V67.6054H77.3262V70.4847H77.7677V71.2741H69.9313V69.2898C69.9313 68.908 69.7796 68.5418 69.5096 68.2718C69.2397 68.0019 68.8735 67.8502 68.4917 67.8502H60.9152L52.2474 56.7183C52.0129 56.4171 51.6683 56.2214 51.2895 56.1742C50.9107 56.127 50.5287 56.2321 50.2274 56.4666L49.7293 56.8543L45.778 51.7794L63.2855 38.489C63.5893 38.2584 63.7892 37.9166 63.8412 37.5387C63.8932 37.1608 63.7931 36.7777 63.5629 36.4736L45.6659 12.8308L52.9812 7.29092C53.2855 7.06042 53.4858 6.71847 53.5381 6.34027C53.5903 5.96208 53.4902 5.57862 53.2597 5.27425L50.0566 1.04415C49.9419 0.892798 49.7985 0.76561 49.6345 0.669909C49.4706 0.574209 49.2893 0.511887 49.1011 0.48653C48.913 0.461174 48.7217 0.473284 48.5382 0.522164C48.3548 0.571045 48.1828 0.655729 48.0322 0.771343L35.1068 10.6952C34.8052 10.9266 34.6075 11.268 34.5567 11.6447C34.5059 12.0215 34.6062 12.403 34.8356 12.7061L39.9962 19.5217L30.3047 26.8583L30.0148 26.4744C29.9007 26.3236 29.758 26.1968 29.5948 26.1012C29.4316 26.0056 29.2513 25.9431 29.0639 25.9172C28.8766 25.8914 28.686 25.9027 28.5031 25.9505C28.3201 25.9983 28.1484 26.0816 27.9977 26.1958L24.2882 29.0055C24.1375 29.1197 24.0107 29.2625 23.9152 29.4257C23.8196 29.5889 23.7571 29.7693 23.7313 29.9566C23.7055 30.144 23.7169 30.3346 23.7648 30.5175C23.8127 30.7005 23.8961 30.8722 24.0104 31.0229L24.2983 31.4034L15.2385 38.2618L14.9484 37.8779C14.8343 37.7272 14.6916 37.6004 14.5285 37.5048C14.3654 37.4092 14.185 37.3466 13.9977 37.3207C13.8104 37.2949 13.6199 37.3061 13.4369 37.3539C13.254 37.4016 13.0822 37.485 12.9315 37.5991L9.22208 40.4088C8.91808 40.6392 8.71799 40.981 8.66575 41.3589C8.61352 41.7368 8.71342 42.12 8.94351 42.4242L9.23144 42.8048ZM94.7643 44.9314C95.1021 45.1814 95.3503 45.5337 95.4719 45.936L98.0313 54.2556L96.4533 57.5384H88.9319V44.5482H93.5968C94.0171 44.547 94.4265 44.6813 94.7643 44.9314ZM100.361 56.0549L114.185 59.5546C114.762 59.7001 115.28 60.0229 115.665 60.4777C116.05 60.9325 116.282 61.4964 116.33 62.0902L99.427 57.9969L100.361 56.0549ZM117.069 80.5765H114.948V76.1664H117.069C117.129 76.1661 117.188 76.1773 117.243 76.1993C117.333 76.235 117.412 76.2971 117.467 76.3777C117.522 76.4582 117.551 76.5535 117.552 76.6511V80.0942C117.552 80.222 117.501 80.3446 117.41 80.4351C117.32 80.5255 117.197 80.5763 117.069 80.5765ZM107.595 88.8573C106.061 90.2839 104.044 91.0782 101.949 91.0809C100.197 91.0814 98.4908 90.5278 97.0734 89.4993C95.656 88.4708 94.6003 87.0203 94.0575 85.3553C93.5148 83.6903 93.5127 81.8962 94.0517 80.23C94.5907 78.5637 95.6431 77.1108 97.0581 76.0791L105.669 76.14C106.214 76.1459 106.735 76.3663 107.119 76.7535C107.502 77.1406 107.718 77.6633 107.719 78.2083V80.3005C107.72 81.024 107.969 81.7253 108.425 82.2871C108.881 82.849 109.516 83.2374 110.224 83.3876C110.068 85.477 109.129 87.4307 107.595 88.8573ZM90.129 76.308H80.6469V60.4169H97.1858L116.34 65.0549V73.2872H114.948V72.6201C114.946 70.8644 114.248 69.1812 113.006 67.9397C111.765 66.6982 110.082 65.9999 108.326 65.9979H103.4C103.018 65.9979 102.652 66.1495 102.382 66.4195C102.112 66.6895 101.961 67.0557 101.961 67.4375C101.961 67.8193 102.112 68.1855 102.382 68.4555C102.652 68.7254 103.018 68.8771 103.4 68.8771H108.326C109.318 68.8782 110.27 69.2729 110.972 69.9746C111.673 70.6763 112.068 71.6278 112.069 72.6201V80.5765H110.874C110.801 80.5764 110.731 80.5473 110.679 80.4956C110.627 80.4438 110.598 80.3737 110.598 80.3005V78.2083C110.595 76.9039 110.078 75.6533 109.16 74.7272C108.241 73.8012 106.995 73.2743 105.69 73.2608L94.7492 73.183L96.7813 68.8771H99.4011C99.7829 68.8771 100.149 68.7254 100.419 68.4555C100.689 68.1855 100.841 67.8193 100.841 67.4375C100.841 67.0557 100.689 66.6895 100.419 66.4195C100.149 66.1495 99.7829 65.9979 99.4011 65.9979H96.4749C96.0205 65.9991 95.5758 66.1288 95.1921 66.3722C94.8084 66.6155 94.5014 66.9625 94.3065 67.3729L90.129 76.308ZM86.0527 57.5377H80.6469V44.5475H86.0527V57.5377ZM77.7677 76.308H76.7287V74.1533H77.7677V76.308ZM12.1061 41.8342L13.5218 40.7627L25.6604 56.8003L25.5292 56.8997L24.2448 57.8707L12.1061 41.8342ZM27.9574 55.0615L16.9769 40.5556L26.0364 33.6953L37.0181 48.2029L27.9574 55.0615ZM27.1742 30.4291L28.5877 29.3585L40.7283 45.3961L39.315 46.466L27.1742 30.4291ZM42.9537 53.9201L43.4837 53.5177L47.4566 58.6215L46.9306 59.0308L42.9537 53.9201ZM43.7936 61.6108C43.7001 61.7752 43.64 61.9564 43.6166 62.144C43.5933 62.3316 43.6068 62.522 43.6571 62.7043C43.7073 62.8866 43.7929 63.0572 43.9091 63.2064L47.5245 67.8502H29.0292C29.0176 66.8938 28.6389 65.9785 27.9713 65.2936L40.6599 55.6614L44.6587 60.7984L44.161 61.1859C44.0118 61.302 43.887 61.4464 43.7936 61.6108ZM47.0655 62.574L50.8589 59.6203L57.2662 67.8502H51.1737L47.0655 62.574ZM73.8495 83.6453H58.7838V74.1533H73.8495V83.6453ZM47.0296 89.9788C45.7722 90.7008 44.3475 91.0808 42.8975 91.0809C41.4271 91.0808 39.9836 90.6891 38.7138 89.9478C37.444 89.2064 36.3939 88.141 35.671 86.8606C34.948 85.5802 34.5782 84.1307 34.5994 82.6604C34.6205 81.1902 35.0319 79.7519 35.7913 78.4928C36.5406 77.2514 37.602 76.228 38.8699 75.5245C40.1377 74.8209 41.5678 74.4618 43.0176 74.4829C44.4675 74.504 45.8865 74.9046 47.1333 75.6448C48.3802 76.3849 49.4113 77.4388 50.1242 78.7015C50.837 79.9642 51.2065 81.3916 51.196 82.8415C51.1855 84.2915 50.7954 85.7134 50.0644 86.9656C49.3334 88.2179 48.287 89.2567 47.0296 89.9788ZM33.7862 76.308H24.4344V70.7294H67.052V71.2741H57.3442C56.9624 71.2741 56.5962 71.4258 56.3262 71.6957C56.0562 71.9657 55.9045 72.3319 55.9045 72.7137V76.308H52.0089C50.9761 74.8533 49.61 73.6671 48.0248 72.8486C46.4397 72.03 44.6816 71.6029 42.8975 71.6029C41.1135 71.6029 39.3554 72.03 37.7703 72.8486C36.1851 73.6671 34.819 74.8533 33.7862 76.308ZM25.8821 67.2736C26.0409 67.4249 26.1357 67.6312 26.1473 67.8502L24.4382 67.8492C24.4488 67.6366 24.5383 67.4356 24.6891 67.2854C24.84 67.1352 25.0413 67.0465 25.254 67.0368H25.2933C25.5126 67.0376 25.7233 67.1224 25.8821 67.2736ZM24.7057 64.1575H14.1434L12.1464 61.4782H23.7697C24.0833 61.4781 24.3884 61.3757 24.6385 61.1866L47.8256 43.6347C48.1301 43.4043 48.3305 43.0623 48.3828 42.6841C48.4351 42.3059 48.335 41.9224 48.1045 41.6179C47.8741 41.3135 47.5321 41.1131 47.1539 41.0608C46.7757 41.0085 46.3922 41.1086 46.0877 41.339L43.0228 43.659L32.0416 29.1521L41.7331 21.8153L52.7146 36.3224L49.1707 39.0023C49.0181 39.1157 48.8895 39.2582 48.7922 39.4216C48.695 39.585 48.6311 39.766 48.6042 39.9542C48.5774 40.1425 48.588 40.3342 48.6356 40.5182C48.6832 40.7023 48.7668 40.8751 48.8816 41.0267C48.9964 41.1783 49.14 41.3057 49.3043 41.4014C49.4686 41.4972 49.6501 41.5595 49.8386 41.5847C50.0271 41.6099 50.2186 41.5975 50.4023 41.5482C50.5859 41.499 50.758 41.4139 50.9086 41.2977L55.5996 37.7467C55.9036 37.5162 56.1038 37.1745 56.156 36.7966C56.2083 36.4187 56.1085 36.0355 55.8784 35.7312L43.1598 18.9289L37.9932 12.1053L48.6352 3.93516L50.0945 5.8621L42.7795 11.4027C42.4755 11.6332 42.2753 11.9749 42.223 12.3528C42.1708 12.7307 42.2706 13.1139 42.5007 13.4182L60.3986 37.0624L24.7057 64.1575ZM21.1856 58.5982H10.0002L3.91946 50.4379L10.9688 45.1005L21.1856 58.5982Z" fill="black"/>
<path d="M66.452 62.2236C66.452 59.9836 67.872 58.5436 69.962 58.5436C72.042 58.5436 73.472 59.9836 73.472 62.2236L73.472 64.8536L66.452 64.8536L66.452 62.2236ZM71.992 63.1436L71.992 62.3336C71.992 61.0436 71.252 60.2836 69.962 60.2836C68.672 60.2836 67.912 61.0436 67.912 62.3336L67.912 63.1436L71.992 63.1436ZM73.472 57.588L67.892 57.588L67.892 55.878L73.472 55.878L73.472 57.588ZM67.312 56.728C67.312 57.338 66.902 57.748 66.392 57.748C65.872 57.748 65.462 57.338 65.462 56.728C65.462 56.128 65.872 55.718 66.392 55.718C66.902 55.718 67.312 56.128 67.312 56.728ZM69.182 52.1788C69.182 52.7388 69.522 53.1688 70.142 53.2688L70.142 51.1288C69.532 51.1288 69.182 51.6088 69.182 52.1788ZM71.622 49.5088C72.712 49.7788 73.552 50.7688 73.552 52.1588C73.552 53.7988 72.452 54.9788 70.682 54.9788C68.912 54.9788 67.812 53.8188 67.812 52.1588C67.812 50.5288 68.892 49.3788 70.592 49.3788C70.752 49.3788 70.922 49.3888 71.092 49.4088L71.092 53.2788C71.822 53.2188 72.162 52.7688 72.162 52.2188C72.162 51.7388 71.922 51.4688 71.622 51.3288L71.622 49.5088ZM71.852 43.9467C72.822 43.9467 73.552 44.8067 73.552 46.2067C73.552 47.6967 72.722 48.6967 71.642 48.7767L71.642 47.0867C72.032 47.0467 72.292 46.6967 72.292 46.2267C72.292 45.7867 72.092 45.5567 71.842 45.5567C70.942 45.5567 71.592 48.5967 69.542 48.5967C68.592 48.5967 67.812 47.7867 67.812 46.3267C67.812 44.8867 68.612 44.0867 69.712 43.9767L69.712 45.5567C69.332 45.6067 69.082 45.8967 69.082 46.3767C69.082 46.7767 69.242 46.9967 69.512 46.9967C70.402 46.9967 69.772 43.9767 71.852 43.9467ZM69.182 40.4405C69.182 41.0005 69.522 41.4305 70.142 41.5305L70.142 39.3905C69.532 39.3905 69.182 39.8705 69.182 40.4405ZM71.622 37.7705C72.712 38.0405 73.552 39.0305 73.552 40.4205C73.552 42.0605 72.452 43.2405 70.682 43.2405C68.912 43.2405 67.812 42.0805 67.812 40.4205C67.812 38.7905 68.892 37.6405 70.592 37.6405C70.752 37.6405 70.922 37.6505 71.092 37.6705L71.092 41.5405C71.822 41.4805 72.162 41.0305 72.162 40.4805C72.162 40.0005 71.922 39.7305 71.622 39.5905L71.622 37.7705ZM73.472 36.7384L66.072 36.7384L66.072 35.0284L73.472 35.0284L73.472 36.7384Z" fill="black"/>
</svg>
