<svg width="107" height="70" viewBox="0 0 107 70" fill="none" xmlns="http://www.w3.org/2000/svg">
<path d="M41.0082 48.0488H65.6793V55.0977H41.0082V48.0488ZM26.3587 24.386H3.96317C3.44252 24.386 2.94321 24.5929 2.57506 24.961C2.20691 25.3292 2.00005 25.8285 2 26.3492V48.9857H35.2316L28.0332 25.6223C27.9229 25.2643 27.7008 24.9511 27.3994 24.7285C27.098 24.506 26.7333 24.386 26.3587 24.386Z" fill="#D9E7EC"/>
<path d="M15.573 16.2155L16.1716 13.718C16.2782 13.2733 16.2879 12.811 16.1999 12.3622C16.1119 11.9135 15.9283 11.489 15.6617 11.1175L9.55634 2.61186C9.42044 2.42251 9.2414 2.26824 9.03403 2.16184C8.82665 2.05544 8.59692 1.99996 8.36384 2H7.45381C6.55617 2 5.86863 2.79858 6.00221 3.68629L9.11694 24.386H25.4627V21.3749C25.4627 19.5225 23.961 18.0209 22.1087 18.0209H16.9969C16.0503 18.0209 15.3524 17.1361 15.573 16.2155ZM34.2103 11.8853L31.2471 14.1847C31.1301 14.2755 31.0321 14.3885 30.9588 14.5171C30.8854 14.6458 30.8381 14.7877 30.8196 14.9346C30.8011 15.0816 30.8117 15.2307 30.8508 15.3736C30.8899 15.5164 30.9568 15.6502 31.0476 15.7672L34.9865 20.8434C35.2657 21.2033 35.4172 21.6458 35.4173 22.1013V32.3443H42.9819V24.0607C42.9819 22.3065 42.3984 20.602 41.3233 19.2159L35.793 12.0853C35.7022 11.9682 35.5892 11.8702 35.4606 11.7968C35.3319 11.7234 35.19 11.6761 35.043 11.6575C34.8961 11.6389 34.7469 11.6495 34.604 11.6886C34.4611 11.7277 34.3273 11.7945 34.2103 11.8853Z" fill="#60B800"/>
<path d="M50.6305 25.9583V36.6339C50.6305 37.7396 50.9709 38.8185 51.6055 39.724L61.6314 54.0315H76.9064L99.9847 39.2011C100.524 38.8543 100.968 38.3775 101.276 37.8146C101.583 37.2516 101.744 36.6204 101.744 35.979V25.0381L50.6305 25.9583Z" fill="#85FF00"/>
<path d="M93.9636 25.1779V32.5427C93.9636 34.2381 93.5378 35.9062 92.7253 37.3941C91.9128 38.8821 90.7396 40.1421 89.3134 41.0586L69.1259 54.0315H76.9064L99.9847 39.2011C100.524 38.8543 100.968 38.3775 101.276 37.8146C101.583 37.2516 101.744 36.6204 101.744 35.979V25.0381L93.9636 25.1779Z" fill="#417C00"/>
<path d="M50.6305 24.2642V28.9033H103.519C103.851 28.9033 104.169 28.7716 104.403 28.537C104.638 28.3025 104.77 27.9844 104.77 27.6527V24.264C104.77 23.9323 104.638 23.6143 104.403 23.3797C104.169 23.1452 103.851 23.0134 103.519 23.0134H51.8811C51.5494 23.0135 51.2314 23.1454 50.9969 23.3799C50.7623 23.6145 50.6306 23.9326 50.6305 24.2642Z" fill="#60B800"/>
<path d="M93.9636 28.9033H103.519C103.851 28.9033 104.169 28.7716 104.403 28.537C104.638 28.3025 104.77 27.9844 104.77 27.6527V24.264C104.77 23.9323 104.638 23.6143 104.403 23.3797C104.169 23.1452 103.851 23.0134 103.519 23.0134H93.9636V28.9033Z" fill="#537983"/>
<path d="M20.6689 31.9896L11.3895 42.4067C11.2209 42.596 11.0142 42.7474 10.7829 42.8511C10.5517 42.9548 10.3011 43.0084 10.0477 43.0084H2V57.5804C2 58.0719 2.19526 58.5434 2.54284 58.8909C2.89041 59.2385 3.36182 59.4338 3.85337 59.4338H43.0079C44.2432 59.4338 45.2447 58.4323 45.2447 57.197V32.9149C45.2447 32.4133 45.0454 31.9323 44.6908 31.5776C44.3361 31.2229 43.8551 31.0237 43.3535 31.0237H22.8227C22.4159 31.0237 22.0137 31.1097 21.6425 31.2762C21.2713 31.4427 20.9395 31.6858 20.6689 31.9896Z" fill="#85FF00"/>
<path d="M43.3532 31.0237H37.1259C37.3742 31.0237 37.6202 31.0726 37.8496 31.1677C38.0791 31.2627 38.2876 31.402 38.4632 31.5777C38.6388 31.7533 38.7781 31.9618 38.8732 32.1913C38.9682 32.4208 39.0171 32.6667 39.0171 32.9151V57.1972C39.0171 58.4325 38.0156 59.434 36.7803 59.434H43.0077C44.243 59.434 45.2445 58.4325 45.2445 57.1972V32.9151C45.2445 32.6667 45.1956 32.4208 45.1006 32.1913C45.0055 31.9618 44.8662 31.7533 44.6906 31.5777C44.515 31.402 44.3065 31.2627 44.077 31.1677C43.8476 31.0726 43.6016 31.0237 43.3532 31.0237Z" fill="#417C00"/>
<path d="M35.9626 58.8875C37.7183 53.0891 34.4411 46.9653 28.6427 45.2096C22.8443 43.4539 16.7205 46.7311 14.9647 52.5295C13.209 58.3279 16.4863 64.4517 22.2847 66.2075C28.083 67.9632 34.2069 64.6859 35.9626 58.8875Z" fill="#60B800"/>
<path d="M25.4627 44.7396C24.6495 44.7401 23.8389 44.8308 23.0458 45.0101C27.9407 46.1114 31.5986 50.4817 31.5986 55.7093C31.5986 60.9369 27.9409 65.3074 23.0458 66.4085C23.8389 66.5878 24.6495 66.6785 25.4627 66.679C31.5211 66.679 36.4323 61.7677 36.4323 55.7093C36.4323 49.6509 31.5211 44.7396 25.4627 44.7396Z" fill="#537983"/>
<path d="M28.9049 57.1336C29.6921 55.2332 28.7896 53.0545 26.8892 52.2673C24.9888 51.4801 22.8101 52.3826 22.0229 54.283C21.2357 56.1834 22.1382 58.3621 24.0386 59.1493C25.939 59.9365 28.1177 59.034 28.9049 57.1336Z" fill="#D9E7EC"/>
<path d="M81.405 58.6172C83.0099 52.7753 79.575 46.7385 73.7331 45.1336C67.8911 43.5287 61.8543 46.9636 60.2494 52.8055C58.6446 58.6475 62.0794 64.6843 67.9214 66.2892C73.7633 67.894 79.8001 64.4592 81.405 58.6172Z" fill="#60B800"/>
<path d="M70.8238 44.7396C69.9929 44.7396 69.1848 44.835 68.4067 45.0101C73.3016 46.1114 76.9596 50.4817 76.9596 55.7093C76.9596 60.9369 73.3018 65.3074 68.4067 66.4085C69.1999 66.5878 70.0106 66.6785 70.8238 66.679C76.8822 66.679 81.7934 61.7677 81.7934 55.7093C81.7934 49.6509 76.8822 44.7396 70.8238 44.7396Z" fill="#537983"/>
<path d="M74.2657 57.1326C75.0528 55.2322 74.1504 53.0535 72.25 52.2663C70.3496 51.4791 68.1708 52.3816 67.3837 54.282C66.5965 56.1824 67.4989 58.3612 69.3994 59.1483C71.2998 59.9355 73.4785 59.0331 74.2657 57.1326Z" fill="#D9E7EC"/>
<path d="M59.8715 55.0981H45.2439M57.4397 48.049H45.2439M2 30.4789V26.3495C2 25.2639 2.87881 24.3851 3.96234 24.3851H26.3587C27.1279 24.3851 27.8061 24.8876 28.0336 25.6217L29.6982 31.0228M2 43.0077V37.7162" stroke="black" stroke-width="3" stroke-miterlimit="10" stroke-linecap="round" stroke-linejoin="round"/>
<path d="M25.4627 24.386V21.3749C25.4627 19.5225 23.961 18.0209 22.1087 18.0209H16.9969C16.0503 18.0209 15.3524 17.1361 15.573 16.2155L16.1716 13.718C16.2782 13.2733 16.2879 12.811 16.1999 12.3622C16.1119 11.9135 15.9283 11.489 15.6617 11.1175L9.55634 2.61186C9.42044 2.42251 9.2414 2.26824 9.03403 2.16184C8.82665 2.05544 8.59692 1.99996 8.36384 2H7.45381C6.55617 2 5.86863 2.79858 6.00221 3.68629L9.11694 24.386M32.7275 13.035L28.6663 7.79728M42.9817 31.0228V24.0605C42.9817 22.307 42.3986 20.6011 41.3233 19.2157L35.7919 12.0859C35.7013 11.9687 35.5885 11.8706 35.4599 11.7971C35.3313 11.7236 35.1895 11.6762 35.0426 11.6576C34.8957 11.639 34.7465 11.6495 34.6037 11.6886C34.4608 11.7276 34.3271 11.7945 34.2101 11.8853L31.2469 14.1847C31.1299 14.2755 31.0319 14.3884 30.9586 14.517C30.8853 14.6457 30.8381 14.7875 30.8196 14.9345C30.8012 15.0814 30.8119 15.2305 30.8512 15.3733C30.8904 15.5161 30.9575 15.6497 31.0484 15.7666L34.9855 20.843C35.2659 21.2021 35.418 21.6447 35.4177 22.1002V31.0228M50.6305 28.9031V36.6348C50.6305 37.739 50.9716 38.8184 51.6065 39.7241L60.4029 52.2797M101.744 28.9033V35.9793C101.744 37.282 101.081 38.4958 99.9846 39.2009L80.934 51.4423" stroke="black" stroke-width="3" stroke-miterlimit="10" stroke-linecap="round" stroke-linejoin="round"/>
<path d="M64.5484 23.0134H51.8813C51.5496 23.0134 51.2315 23.1452 50.997 23.3797C50.7624 23.6143 50.6307 23.9324 50.6307 24.264V28.9033H103.519C103.851 28.9033 104.169 28.7716 104.403 28.537C104.638 28.3025 104.77 27.9844 104.77 27.6527V24.264C104.77 23.9324 104.638 23.6143 104.403 23.3797C104.169 23.1452 103.851 23.0134 103.519 23.0134H71.7857M35.7837 59.4344H43.0086C44.243 59.4344 45.2439 58.4336 45.2439 57.197V32.9149C45.2439 31.8706 44.3981 31.0228 43.3539 31.0228H22.8227C21.9997 31.0228 21.216 31.3744 20.6681 31.9906L11.3899 42.4061C11.2215 42.5956 11.0148 42.7473 10.7835 42.851C10.5521 42.9548 10.3014 43.0082 10.0479 43.0078H2V57.5816C2 58.6052 2.82919 59.4344 3.85275 59.4344H15.1429" stroke="black" stroke-width="3" stroke-miterlimit="10" stroke-linecap="round" stroke-linejoin="round"/>
<path d="M35.9626 58.8875C37.7183 53.0891 34.4411 46.9653 28.6427 45.2096C22.8443 43.4539 16.7205 46.7311 14.9647 52.5295C13.209 58.3279 16.4863 64.4517 22.2847 66.2075C28.083 67.9632 34.2069 64.6859 35.9626 58.8875Z" stroke="black" stroke-width="3" stroke-miterlimit="10" stroke-linecap="round" stroke-linejoin="round"/>
<path d="M28.9049 57.1336C29.6921 55.2332 28.7896 53.0545 26.8892 52.2673C24.9888 51.4801 22.8101 52.3826 22.0229 54.283C21.2357 56.1834 22.1382 58.3621 24.0386 59.1493C25.939 59.9365 28.1177 59.034 28.9049 57.1336Z" stroke="black" stroke-width="3" stroke-miterlimit="10" stroke-linecap="round" stroke-linejoin="round"/>
<path d="M25.9333 9.91788L31.3989 5.67786" stroke="black" stroke-width="3" stroke-miterlimit="10" stroke-linecap="round" stroke-linejoin="round"/>
<path d="M81.405 58.6172C83.0099 52.7753 79.575 46.7385 73.7331 45.1336C67.8911 43.5287 61.8543 46.9636 60.2494 52.8055C58.6446 58.6475 62.0794 64.6843 67.9214 66.2892C73.7633 67.894 79.8001 64.4592 81.405 58.6172Z" stroke="black" stroke-width="3" stroke-miterlimit="10" stroke-linecap="round" stroke-linejoin="round"/>
<path d="M74.2657 57.1326C75.0528 55.2322 74.1504 53.0535 72.25 52.2663C70.3496 51.4791 68.1708 52.3816 67.3837 54.282C66.5965 56.1824 67.4989 58.3612 69.3994 59.1483C71.2998 59.9355 73.4785 59.0331 74.2657 57.1326Z" stroke="black" stroke-width="3" stroke-miterlimit="10" stroke-linecap="round" stroke-linejoin="round"/>
</svg>
