<svg width="105" height="81" viewBox="0 0 105 81" fill="none" xmlns="http://www.w3.org/2000/svg">
<path d="M103.067 63.0683V66.561C103.064 67.4865 102.695 68.3733 102.041 69.0277C101.387 69.6821 100.5 70.051 99.5743 70.0538H90.8424C90.8424 67.7379 89.9225 65.5169 88.2849 63.8794C86.6474 62.2418 84.4264 61.3219 82.1106 61.3219C79.7947 61.3219 77.5737 62.2418 75.9362 63.8794C74.2986 65.5169 73.3787 67.7379 73.3787 70.0538H64.6468V26.3943H75.125V42.1117H102.788C102.977 42.7404 103.071 43.3937 103.067 44.0502V49.0972H94.3352C93.872 49.0972 93.4278 49.2812 93.1003 49.6087C92.7728 49.9363 92.5888 50.3805 92.5888 50.8436V54.3364C92.5888 54.7995 92.7728 55.2437 93.1003 55.5713C93.4278 55.8988 93.872 56.0828 94.3352 56.0828H103.067V63.0683ZM57.6613 59.5755H64.6468V70.0538H57.6613V59.5755ZM57.6613 59.5755V70.0538H50.6758C50.6758 67.7379 49.7558 65.5169 48.1183 63.8794C46.4807 62.2418 44.2597 61.3219 41.9439 61.3219C39.628 61.3219 37.4071 62.2418 35.7695 63.8794C34.132 65.5169 33.212 67.7379 33.212 70.0538H26.2265C26.2265 67.7379 25.3065 65.5169 23.669 63.8794C22.0314 62.2418 19.8105 61.3219 17.4946 61.3219C15.1788 61.3219 12.9578 62.2418 11.3202 63.8794C9.68269 65.5169 8.76273 67.7379 8.76273 70.0538H3.5236C3.06043 70.0538 2.61623 69.8698 2.28872 69.5423C1.96121 69.2148 1.77722 68.7706 1.77722 68.3074V54.3364H45.4366L48.9294 50.8436H57.6613V59.5755ZM57.6613 33.3799V50.8436H50.6758V33.3799C50.6758 32.4535 51.0438 31.5651 51.6988 30.9101C52.3538 30.2551 53.2422 29.8871 54.1685 29.8871C55.0949 29.8871 55.9833 30.2551 56.6383 30.9101C57.2933 31.5651 57.6613 32.4535 57.6613 33.3799ZM47.183 21.1552V28.1407L41.385 28.9615C40.9759 30.571 40.3346 32.1123 39.4815 33.537L43.0092 38.2348L38.0669 43.177L33.3692 39.6493C31.9444 40.5025 30.4031 41.1437 28.7937 41.5529L27.9729 47.3509H20.9874L20.1666 41.5529C18.5571 41.1437 17.0158 40.5025 15.5911 39.6493L10.8933 43.177L5.95106 38.2348L9.47874 33.537C8.6256 32.1123 7.98437 30.571 7.57519 28.9615L1.77722 28.1407V21.1552L7.57519 20.3344C7.98437 18.725 8.6256 17.1836 9.47874 15.7589L5.95106 11.0612L10.8933 6.11891L15.5911 9.64659C17.0158 8.79345 18.5571 8.15221 20.1666 7.74304L20.9874 1.94507H27.9729L28.7937 7.74304C30.4031 8.15221 31.9444 8.79345 33.3692 9.64659L38.0669 6.11891L43.0092 11.0612L39.4815 15.7589C40.3346 17.1836 40.9759 18.725 41.385 20.3344L47.183 21.1552ZM33.212 24.648C33.212 22.921 32.6999 21.2327 31.7404 19.7968C30.7809 18.3608 29.4172 17.2417 27.8217 16.5808C26.2261 15.9199 24.4704 15.7469 22.7766 16.0839C21.0828 16.4208 19.5269 17.2524 18.3057 18.4736C17.0846 19.6948 16.2529 21.2506 15.916 22.9445C15.5791 24.6383 15.752 26.394 16.4129 27.9895C17.0738 29.5851 18.193 30.9488 19.6289 31.9083C21.0649 32.8677 22.7531 33.3799 24.4801 33.3799C26.796 33.3799 29.0169 32.4599 30.6545 30.8223C32.292 29.1848 33.212 26.9638 33.212 24.648Z" fill="#85FF00"/>
<path d="M73.3787 47.3508H80.3642V50.8436H73.3787V47.3508ZM15.7483 68.3074H19.241V71.8001H15.7483V68.3074ZM40.1976 68.3074H43.6903V71.8001H40.1976V68.3074ZM80.3642 68.3074H83.857V71.8001H80.3642V68.3074Z" fill="black"/>
<path d="M99.5744 71.8004C100.963 71.7962 102.293 71.2429 103.274 70.2613C104.256 69.2797 104.809 67.9495 104.813 66.5612V44.0504C104.808 42.436 104.361 40.8539 103.521 39.4749L94.0383 25.4166C93.8756 25.1821 93.6591 24.9901 93.4069 24.8564C93.1547 24.7227 92.8742 24.6513 92.5889 24.6482H64.6468C64.1837 24.6482 63.7395 24.8322 63.4119 25.1597C63.0844 25.4872 62.9004 25.9314 62.9004 26.3946V57.8294H59.4077V33.3801C59.4077 31.9906 58.8557 30.658 57.8732 29.6755C56.8907 28.6929 55.5581 28.1409 54.1686 28.1409C52.7791 28.1409 51.4465 28.6929 50.4639 29.6755C49.4814 30.658 48.9294 31.9906 48.9294 33.3801V49.0975C48.4664 49.1009 48.0225 49.2822 47.6895 49.6039L44.7207 52.5902H1.77726C1.31409 52.5902 0.869895 52.7742 0.542386 53.1017C0.214876 53.4292 0.0308838 53.8734 0.0308838 54.3366V68.3076C0.0336478 69.2331 0.402521 70.1199 1.05694 70.7743C1.71136 71.4287 2.59815 71.7976 3.52364 71.8004H7.17356C7.50525 73.7511 8.3833 75.5677 9.70581 77.0395H0.0308838V80.5323H104.813V77.0395H89.8994C91.2219 75.5677 92.1 73.7511 92.4317 71.8004H99.5744ZM101.321 54.3366H94.3352V50.8438H101.321V54.3366ZM76.8715 28.1409H91.6633L99.9062 40.3656H76.8715V28.1409ZM59.4077 61.3221H62.9004V68.3076H59.4077V61.3221ZM52.4222 33.3801C52.4222 32.9169 52.6062 32.4727 52.9337 32.1452C53.2612 31.8177 53.7054 31.6337 54.1686 31.6337C54.6317 31.6337 55.0759 31.8177 55.4034 32.1452C55.7309 32.4727 55.9149 32.9169 55.9149 33.3801V49.0975H52.4222V33.3801ZM7.17356 68.3076H3.52364V56.083H45.4367C45.8997 56.0795 46.3436 55.8982 46.6766 55.5765L49.6454 52.5902H55.9149V68.3076H52.265C51.8546 65.8671 50.5925 63.6509 48.703 62.0527C46.8135 60.4544 44.4187 59.5774 41.9439 59.5774C39.4691 59.5774 37.0743 60.4544 35.1848 62.0527C33.2953 63.6509 32.0333 65.8671 31.6228 68.3076H27.8157C27.4053 65.8671 26.1433 63.6509 24.2537 62.0527C22.3642 60.4544 19.9695 59.5774 17.4947 59.5774C15.0198 59.5774 12.6251 60.4544 10.7356 62.0527C8.84604 63.6509 7.58402 65.8671 7.17356 68.3076ZM17.4947 77.0395C16.113 77.0395 14.7625 76.6298 13.6137 75.8622C12.465 75.0947 11.5696 74.0037 11.0409 72.7272C10.5122 71.4508 10.3738 70.0462 10.6434 68.6912C10.9129 67.3361 11.5782 66.0914 12.5552 65.1145C13.5321 64.1376 14.7768 63.4722 16.1318 63.2027C17.4869 62.9332 18.8915 63.0715 20.1679 63.6002C21.4443 64.1289 22.5353 65.0243 23.3029 66.173C24.0705 67.3218 24.4802 68.6724 24.4802 70.054C24.4802 71.9067 23.7442 73.6835 22.4342 74.9935C21.1241 76.3035 19.3473 77.0395 17.4947 77.0395ZM25.2835 77.0395C26.606 75.5677 27.4841 73.7511 27.8157 71.8004H31.6228C31.9545 73.7511 32.8326 75.5677 34.1551 77.0395H25.2835ZM41.9439 77.0395C40.5623 77.0395 39.2117 76.6298 38.063 75.8622C36.9142 75.0947 36.0189 74.0037 35.4902 72.7272C34.9614 71.4508 34.8231 70.0462 35.0926 68.6912C35.3622 67.3361 36.0275 66.0914 37.0044 65.1145C37.9814 64.1376 39.2261 63.4722 40.5811 63.2027C41.9362 62.9332 43.3407 63.0715 44.6172 63.6002C45.8936 64.1289 46.9846 65.0243 47.7522 66.173C48.5197 67.3218 48.9294 68.6724 48.9294 70.054C48.9294 71.9067 48.1935 73.6835 46.8834 74.9935C45.5734 76.3035 43.7966 77.0395 41.9439 77.0395ZM49.7328 77.0395C51.0553 75.5677 51.9333 73.7511 52.265 71.8004H71.7895C72.1212 73.7511 72.9992 75.5677 74.3218 77.0395H49.7328ZM82.1106 77.0395C80.729 77.0395 79.3784 76.6298 78.2296 75.8622C77.0809 75.0947 76.1855 74.0037 75.6568 72.7272C75.1281 71.4508 74.9898 70.0462 75.2593 68.6912C75.5288 67.3361 76.1942 66.0914 77.1711 65.1145C78.148 64.1376 79.3927 63.4722 80.7478 63.2027C82.1028 62.9332 83.5074 63.0715 84.7838 63.6002C86.0603 64.1289 87.1513 65.0243 87.9188 66.173C88.6864 67.3218 89.0961 68.6724 89.0961 70.054C89.0961 71.9067 88.3601 73.6835 87.0501 74.9935C85.7401 76.3035 83.9633 77.0395 82.1106 77.0395ZM82.1106 59.5757C79.6369 59.5807 77.2444 60.4596 75.3559 62.0574C73.4674 63.6551 72.2042 65.8689 71.7895 68.3076H66.3932V28.1409H73.3787V42.112C73.3787 42.5751 73.5627 43.0193 73.8902 43.3468C74.2177 43.6743 74.6619 43.8583 75.1251 43.8583H101.303C101.303 43.9282 101.321 43.9806 101.321 44.0504V47.3511H94.3352C93.4097 47.3539 92.523 47.7227 91.8685 48.3772C91.2141 49.0316 90.8452 49.9184 90.8425 50.8438V54.3366C90.8452 55.2621 91.2141 56.1489 91.8685 56.8033C92.523 57.4577 93.4097 57.8266 94.3352 57.8294H101.321V61.3221H96.0816V64.8149H101.321V66.5612C101.321 67.0244 101.137 67.4686 100.809 67.7961C100.482 68.1236 100.038 68.3076 99.5744 68.3076H92.4317C92.017 65.8689 90.7538 63.6551 88.8653 62.0574C86.9767 60.4596 84.5843 59.5807 82.1106 59.5757Z" fill="black"/>
<path d="M1.52928 29.8697L6.21306 30.5385C6.52976 31.5231 6.92574 32.4803 7.3971 33.4008L4.56098 37.1835C4.30883 37.5198 4.18644 37.9358 4.21627 38.3551C4.24611 38.7743 4.42617 39.1688 4.7234 39.466L9.66215 44.4048C9.95937 44.702 10.3538 44.8821 10.7731 44.9119C11.1924 44.9417 11.6084 44.8193 11.9447 44.5672L15.7273 41.7311C16.6479 42.2024 17.6051 42.5984 18.5896 42.9151L19.2585 47.5989C19.3182 48.0149 19.5258 48.3954 19.8434 48.6706C20.161 48.9458 20.5672 49.0973 20.9874 49.0973H27.9729C28.3932 49.0973 28.7993 48.9458 29.1169 48.6706C29.4345 48.3954 29.6421 48.0149 29.7018 47.5989L30.3707 42.9151C31.3552 42.5984 32.3124 42.2024 33.233 41.7311L37.0156 44.5672C37.352 44.8193 37.7679 44.9417 38.1872 44.9119C38.6065 44.8821 39.0009 44.702 39.2982 44.4048L44.2369 39.466C44.5341 39.1688 44.7142 38.7743 44.744 38.3551C44.7739 37.9358 44.6515 37.5198 44.3993 37.1835L41.5632 33.4008C42.0346 32.4803 42.4306 31.5231 42.7473 30.5385L47.431 29.8697C47.847 29.81 48.2275 29.6023 48.5028 29.2847C48.778 28.9672 48.9295 28.561 48.9294 28.1408V21.1553C48.9295 20.735 48.778 20.3288 48.5028 20.0113C48.2275 19.6937 47.847 19.486 47.431 19.4263L42.7473 18.7575C42.4306 17.773 42.0346 16.8157 41.5632 15.8952L44.3993 12.1125C44.6515 11.7762 44.7739 11.3602 44.744 10.9409C44.7142 10.5217 44.5341 10.1272 44.2369 9.83L39.2982 4.89125C39.0009 4.59401 38.6065 4.41395 38.1872 4.38412C37.7679 4.35429 37.352 4.47668 37.0156 4.72883L33.233 7.56495C32.3124 7.09359 31.3552 6.69761 30.3707 6.3809L29.7018 1.69712C29.6421 1.28114 29.4345 0.900621 29.1169 0.62539C28.7993 0.35016 28.3932 0.198674 27.9729 0.19873H20.9874C20.5672 0.198674 20.161 0.35016 19.8434 0.62539C19.5258 0.900621 19.3182 1.28114 19.2585 1.69712L18.5896 6.3809C17.6051 6.69761 16.6479 7.09359 15.7273 7.56495L11.9447 4.72883C11.6084 4.47668 11.1924 4.35429 10.7731 4.38412C10.3538 4.41395 9.95937 4.59401 9.66215 4.89125L4.7234 9.83C4.42617 10.1272 4.24611 10.5217 4.21627 10.9409C4.18644 11.3602 4.30883 11.7762 4.56098 12.1125L7.3971 15.8952C6.92574 16.8157 6.52976 17.773 6.21306 18.7575L1.52928 19.4263C1.11329 19.486 0.732773 19.6937 0.457543 20.0113C0.182312 20.3288 0.0308278 20.735 0.0308838 21.1553V28.1408C0.0308278 28.561 0.182312 28.9672 0.457543 29.2847C0.732773 29.6023 1.11329 29.81 1.52928 29.8697ZM3.52364 22.6694L7.82496 22.0546C8.16739 22.0059 8.48762 21.8565 8.74506 21.6255C9.00249 21.3945 9.18553 21.0922 9.27096 20.7571C9.63793 19.3109 10.2114 17.9252 10.9737 16.6426C11.1503 16.3452 11.2347 16.002 11.216 15.6566C11.1974 15.3112 11.0766 14.9791 10.8689 14.7024L8.2633 11.2271L11.0575 8.4329L14.5328 11.0385C14.8095 11.2462 15.1416 11.367 15.487 11.3856C15.8324 11.4043 16.1756 11.3199 16.473 11.1433C17.7556 10.381 19.1413 9.80752 20.5875 9.44056C20.9227 9.35512 21.2249 9.17208 21.4559 8.91465C21.6869 8.65722 21.8363 8.33698 21.885 7.99456L22.5015 3.69148H26.4588L27.0735 7.99281C27.1223 8.33524 27.2717 8.65547 27.5027 8.9129C27.7337 9.17033 28.0359 9.35337 28.3711 9.43881C29.8173 9.80578 31.203 10.3792 32.4855 11.1415C32.783 11.3182 33.1262 11.4025 33.4716 11.3839C33.817 11.3652 34.1491 11.2444 34.4258 11.0367L37.9011 8.43115L40.6953 11.2254L38.0897 14.7006C37.882 14.9773 37.7612 15.3094 37.7425 15.6548C37.7239 16.0003 37.8082 16.3435 37.9849 16.6409C38.7472 17.9234 39.3206 19.3092 39.6876 20.7553C39.773 21.0905 39.9561 21.3927 40.2135 21.6237C40.4709 21.8548 40.7912 22.0041 41.1336 22.0529L45.4367 22.6694V26.6266L41.1354 27.2414C40.7929 27.2901 40.4727 27.4395 40.2153 27.6705C39.9578 27.9015 39.7748 28.2038 39.6894 28.5389C39.3224 29.9851 38.7489 31.3708 37.9866 32.6534C37.81 32.9508 37.7256 33.294 37.7443 33.6394C37.7629 33.9849 37.8838 34.317 38.0914 34.5936L40.697 38.0689L37.9028 40.8631L34.4345 38.2593C34.1578 38.0516 33.8257 37.9308 33.4803 37.9121C33.1349 37.8935 32.7917 37.9778 32.4943 38.1545C31.2117 38.9168 29.826 39.4902 28.3798 39.8572C28.0447 39.9426 27.7424 40.1257 27.5114 40.3831C27.2804 40.6405 27.131 40.9608 27.0823 41.3032L26.4588 45.6045H22.5015L21.8868 41.3032C21.838 40.9608 21.6887 40.6405 21.4576 40.3831C21.2266 40.1257 20.9244 39.9426 20.5892 39.8572C19.1431 39.4902 17.7573 38.9168 16.4748 38.1545C16.1773 37.9778 15.8342 37.8935 15.4887 37.9121C15.1433 37.9308 14.8112 38.0516 14.5345 38.2593L11.0593 40.8649L8.26505 38.0707L10.8689 34.6024C11.0766 34.3257 11.1974 33.9936 11.216 33.6482C11.2347 33.3027 11.1503 32.9595 10.9737 32.6621C10.2114 31.3796 9.63793 29.9938 9.27096 28.5477C9.18553 28.2125 9.00249 27.9103 8.74506 27.6792C8.48762 27.4482 8.16739 27.2989 7.82496 27.2501L3.52364 26.6266V22.6694Z" fill="black"/>
<path d="M24.4801 35.1261C26.5525 35.1261 28.5784 34.5116 30.3015 33.3602C32.0247 32.2088 33.3677 30.5724 34.1608 28.6577C34.9539 26.7431 35.1614 24.6362 34.757 22.6036C34.3527 20.5711 33.3548 18.704 31.8894 17.2386C30.424 15.7732 28.5569 14.7752 26.5243 14.3709C24.4917 13.9666 22.3849 14.1741 20.4703 14.9672C18.5556 15.7603 16.9191 17.1033 15.7678 18.8264C14.6164 20.5496 14.0019 22.5754 14.0019 24.6478C14.0046 27.426 15.1095 30.0896 17.0739 32.054C19.0384 34.0185 21.702 35.1233 24.4801 35.1261ZM24.4801 17.6623C25.8617 17.6623 27.2123 18.072 28.3611 18.8396C29.5098 19.6072 30.4052 20.6982 30.9339 21.9746C31.4626 23.251 31.6009 24.6556 31.3314 26.0107C31.0619 27.3657 30.3966 28.6104 29.4196 29.5873C28.4427 30.5643 27.198 31.2296 25.8429 31.4991C24.4879 31.7687 23.0833 31.6303 21.8069 31.1016C20.5305 30.5729 19.4395 29.6775 18.6719 28.5288C17.9043 27.38 17.4946 26.0295 17.4946 24.6478C17.4946 22.7952 18.2306 21.0184 19.5406 19.7084C20.8507 18.3983 22.6275 17.6623 24.4801 17.6623ZM22.7337 7.18408H26.2265V10.6768H22.7337V7.18408ZM10.8968 13.5339L13.3662 11.0645L15.8356 13.5339L13.3662 16.0033L10.8968 13.5339ZM7.01636 22.9015H10.5091V26.3942H7.01636V22.9015ZM10.8968 35.7618L13.3662 33.2924L15.8356 35.7618L13.3662 38.2312L10.8968 35.7618ZM22.7337 38.6189H26.2265V42.1116H22.7337V38.6189ZM33.1247 35.7618L35.5941 33.2924L38.0634 35.7618L35.5941 38.2312L33.1247 35.7618ZM38.4511 22.9015H41.9439V26.3942H38.4511V22.9015ZM33.1247 13.5339L35.5941 11.0645L38.0634 13.5339L35.5941 16.0033L33.1247 13.5339Z" fill="black"/>
</svg>
