<svg width="98" height="89" viewBox="0 0 98 89" fill="none" xmlns="http://www.w3.org/2000/svg">
<path d="M35.3028 16.9429H12.4914C9.79599 16.9429 7.60324 19.1358 7.60324 21.831V23.7192H4.34447C4.0222 23.7192 3.70717 23.8147 3.4392 23.9938C3.17124 24.1728 2.96239 24.4273 2.83906 24.725C2.71573 25.0228 2.68346 25.3504 2.74634 25.6665C2.80921 25.9825 2.96441 26.2729 3.19229 26.5008L8.08045 31.3889C8.39859 31.707 8.81571 31.8661 9.23263 31.8661C9.64955 31.8661 10.0667 31.707 10.3848 31.3889L15.273 26.5008C15.5009 26.2729 15.656 25.9825 15.7189 25.6665C15.7818 25.3504 15.7495 25.0228 15.6262 24.725C15.5029 24.4273 15.294 24.1728 15.0261 23.9938C14.7581 23.8147 14.4431 23.7192 14.1208 23.7192H10.862V21.831C10.862 20.9326 11.593 20.2016 12.4914 20.2016H35.3028C35.7349 20.2016 36.1494 20.03 36.455 19.7244C36.7605 19.4188 36.9322 19.0044 36.9322 18.5723C36.9322 18.1401 36.7605 17.7257 36.455 17.4201C36.1494 17.1145 35.7349 16.9429 35.3028 16.9429Z" fill="#555A6E"/>
<path d="M84.1844 68.9712H77.6668C72.2674 68.9712 67.8905 73.3481 67.8905 78.7475C67.8905 84.1469 72.2674 88.5238 77.6668 88.5238H84.1844C89.5837 88.5238 93.9607 84.1469 93.9607 78.7475C93.9607 73.3481 89.5837 68.9712 84.1844 68.9712Z" fill="#463C4B"/>
<path d="M86.4431 78.7475C86.4431 83.5945 82.5138 87.5238 77.6668 87.5238C72.8198 87.5238 68.8905 83.5945 68.8905 78.7475C68.8905 73.9005 72.8198 69.9712 77.6668 69.9712C82.5138 69.9712 86.4431 73.9005 86.4431 78.7475Z" fill="#555A6E" stroke="black" stroke-width="2"/>
<path d="M77.6668 82.0063C79.4666 82.0063 80.9256 80.5473 80.9256 78.7475C80.9256 76.9478 79.4666 75.4888 77.6668 75.4888C75.8671 75.4888 74.4081 76.9478 74.4081 78.7475C74.4081 80.5473 75.8671 82.0063 77.6668 82.0063Z" fill="#E6E6EB"/>
<path d="M25.5265 68.9712H19.0089C13.6096 68.9712 9.23261 73.3481 9.23261 78.7475C9.23261 84.1469 13.6096 88.5238 19.0089 88.5238H25.5265C30.9258 88.5238 35.3028 84.1469 35.3028 78.7475C35.3028 73.3481 30.9258 68.9712 25.5265 68.9712Z" fill="#463C4B"/>
<path d="M67.8905 77.7475H38.9139C39.3243 77.0928 39.5616 76.3185 39.5616 75.4888V33.1247C39.5616 32.295 39.3243 31.5207 38.9139 30.866H67.8905C69.1381 30.866 70.1493 31.8772 70.1493 33.1247V75.4888C70.1493 76.7364 69.1381 77.7475 67.8905 77.7475Z" fill="#85FF00" stroke="black" stroke-width="2"/>
<path d="M18.4217 30.866H18.4217H35.3028C36.5504 30.866 37.5616 31.8772 37.5616 33.1247V75.4888C37.5616 76.7364 36.5504 77.7475 35.3028 77.7475H7.19365L16.2069 32.6817L16.2069 32.6817C16.3093 32.1697 16.5859 31.7089 16.9897 31.3779C17.3935 31.0469 17.8996 30.8659 18.4217 30.866Z" fill="#74DE00" stroke="black" stroke-width="2"/>
<path d="M20.3668 67.3419C19.0171 67.3419 17.9227 66.2475 17.9227 64.8978V38.8276C17.9227 37.4779 19.0171 36.3835 20.3668 36.3835C21.7166 36.3835 22.8109 37.4779 22.8109 38.8276V64.8978C22.8109 66.2475 21.7166 67.3419 20.3668 67.3419ZM31.2293 67.3419C29.8796 67.3419 28.7852 66.2475 28.7852 64.8978V38.8276C28.7852 37.4779 29.8796 36.3835 31.2293 36.3835C32.5791 36.3835 33.6734 37.4779 33.6734 38.8276V64.8978C33.6734 66.2475 32.5791 67.3419 31.2293 67.3419Z" fill="#85FF00"/>
<path d="M58.1142 68.9712H51.5967C46.1973 68.9712 41.8203 73.3481 41.8203 78.7475C41.8203 84.1469 46.1973 88.5238 51.5967 88.5238H58.1142C63.5136 88.5238 67.8905 84.1469 67.8905 78.7475C67.8905 73.3481 63.5136 68.9712 58.1142 68.9712Z" fill="#463C4B"/>
<path d="M93.9607 77.7477H41.8203C40.5728 77.7477 39.5616 76.7365 39.5616 75.4889V60.1951H96.2195V75.4889C96.2195 76.7365 95.2083 77.7477 93.9607 77.7477Z" fill="#74DE00" stroke="black" stroke-width="2"/>
<path d="M83.5742 38.0129H43.4497C40.75 38.0129 38.5616 40.2014 38.5616 42.9011V59.195H97.2195C97.2195 57.0567 96.683 54.9525 95.6589 53.0754L89.2958 41.4096C88.7351 40.3817 87.9079 39.5238 86.9011 38.9261C85.8943 38.3284 84.745 38.0129 83.5742 38.0129Z" fill="#463C4B"/>
<path d="M50.9864 38.0129H43.4497C40.75 38.0129 38.5616 40.2014 38.5616 42.9011V59.195H64.6317C64.6318 57.0567 64.0952 54.9525 63.0712 53.0754L56.708 41.4096C56.1474 40.3817 55.3202 39.5238 54.3134 38.9261C53.3066 38.3284 52.1573 38.0129 50.9864 38.0129Z" fill="#555A6E"/>
<path d="M61.373 77.7477H41.8203C40.5728 77.7477 39.5616 76.7365 39.5616 75.4889V60.1951H63.6317V75.4889C63.6317 76.7365 62.6205 77.7477 61.373 77.7477Z" fill="#85FF00" stroke="black" stroke-width="2"/>
<path d="M74.408 73.8593C76.2078 73.8593 77.6668 72.4003 77.6668 70.6006C77.6668 68.8008 76.2078 67.3418 74.408 67.3418C72.6083 67.3418 71.1493 68.8008 71.1493 70.6006C71.1493 72.4003 72.6083 73.8593 74.408 73.8593Z" fill="#85FF00"/>
<path d="M87.4431 73.8593C89.2429 73.8593 90.7019 72.4003 90.7019 70.6006C90.7019 68.8008 89.2429 67.3418 87.4431 67.3418C85.6434 67.3418 84.1844 68.8008 84.1844 70.6006C84.1844 72.4003 85.6434 73.8593 87.4431 73.8593Z" fill="#85FF00"/>
<path d="M60.373 78.7475C60.373 83.5945 56.4437 87.5238 51.5967 87.5238C46.7496 87.5238 42.8203 83.5945 42.8203 78.7475C42.8203 73.9005 46.7496 69.9712 51.5967 69.9712C56.4437 69.9712 60.373 73.9005 60.373 78.7475Z" fill="#555A6E" stroke="black" stroke-width="2"/>
<path d="M51.5966 82.0063C53.3964 82.0063 54.8554 80.5473 54.8554 78.7475C54.8554 76.9478 53.3964 75.4888 51.5966 75.4888C49.7969 75.4888 48.3379 76.9478 48.3379 78.7475C48.3379 80.5473 49.7969 82.0063 51.5966 82.0063Z" fill="#E6E6EB"/>
<path d="M27.7852 78.7475C27.7852 83.5945 23.856 87.5238 19.0089 87.5238C14.1619 87.5238 10.2326 83.5945 10.2326 78.7475C10.2326 73.9005 14.1619 69.9712 19.0089 69.9712C23.856 69.9712 27.7852 73.9005 27.7852 78.7475Z" fill="#555A6E" stroke="black" stroke-width="2"/>
<path d="M19.0089 82.0063C20.8087 82.0063 22.2677 80.5473 22.2677 78.7475C22.2677 76.9478 20.8087 75.4888 19.0089 75.4888C17.2092 75.4888 15.7502 76.9478 15.7502 78.7475C15.7502 80.5473 17.2092 82.0063 19.0089 82.0063Z" fill="#E6E6EB"/>
<path d="M88.418 41.8884C88.4181 41.8884 88.4181 41.8885 88.4181 41.8885L88.425 41.9011H39.6914C40.1326 40.2383 41.648 39.0129 43.4497 39.0129H83.5741C84.5654 39.013 85.5383 39.28 86.3907 39.786C87.243 40.292 87.9434 41.0182 88.418 41.8884Z" fill="#74DE00" stroke="black" stroke-width="2"/>
<path d="M55.8304 41.8885L55.8372 41.9011H39.6914C40.1326 40.2383 41.648 39.0129 43.4497 39.0129H50.9864C50.9864 39.0129 50.9864 39.0129 50.9864 39.0129C51.9777 39.013 52.9506 39.28 53.803 39.786C54.6553 40.292 55.3556 41.0182 55.8303 41.8884C55.8303 41.8884 55.8303 41.8885 55.8304 41.8885Z" fill="#85FF00" stroke="black" stroke-width="2"/>
<path d="M14.4442 36.2974L5.97799 78.628C5.97799 78.628 5.97799 78.628 5.97799 78.6281C5.87445 79.1456 5.59483 79.6112 5.18668 79.9458C4.77852 80.2805 4.26704 80.4633 3.73926 80.4634H2.08568C1.91877 80.4634 1.75868 80.3971 1.64064 80.279C1.52261 80.161 1.4563 80.0009 1.4563 79.834V42.2291L7.38806 36.2974H14.4442Z" fill="#85FF00" stroke="black" stroke-width="2"/>
<path d="M54.8554 28.3485H41.8203C38.2208 28.3485 35.3028 25.4305 35.3028 21.8309V18.5722C35.3028 11.3731 41.1388 5.53708 48.3379 5.53708C55.5369 5.53708 61.373 11.3731 61.373 18.5722V21.8309C61.373 25.4305 58.4549 28.3485 54.8554 28.3485ZM48.3379 5.53708C46.538 5.53708 45.0791 4.07817 45.0791 2.27831C45.0791 1.84617 45.2508 1.43173 45.5563 1.12616C45.8619 0.820593 46.2764 0.648926 46.7085 0.648926H49.9673C50.3994 0.648926 50.8139 0.820593 51.1194 1.12616C51.425 1.43173 51.5967 1.84617 51.5967 2.27831C51.5967 4.07817 50.1377 5.53708 48.3379 5.53708Z" fill="#463C4B"/>
<path d="M40.191 20.2016C39.7588 20.2016 39.3444 20.0299 39.0388 19.7244C38.7333 19.4188 38.5616 19.0044 38.5616 18.5722C38.5616 13.1814 42.9473 8.7959 48.3379 8.7959C48.77 8.7959 49.1845 8.96757 49.4901 9.27313C49.7956 9.5787 49.9673 9.99314 49.9673 10.4253C49.9673 10.8574 49.7956 11.2719 49.4901 11.5774C49.1845 11.883 48.77 12.0547 48.3379 12.0547C44.7441 12.0547 41.8204 14.9784 41.8204 18.5722C41.8204 19.0044 41.6487 19.4188 41.3431 19.7244C41.0376 20.0299 40.6231 20.2016 40.191 20.2016Z" fill="#555A6E"/>
<path d="M50.5105 6.08029H46.1655C46.0214 6.08029 45.8833 6.02306 45.7814 5.92119C45.6795 5.81932 45.6223 5.68116 45.6223 5.53709C45.6223 5.39303 45.6795 5.25486 45.7814 5.153C45.8833 5.05113 46.0214 4.9939 46.1655 4.9939H50.5105C50.6545 4.9939 50.7927 5.05113 50.8946 5.153C50.9964 5.25486 51.0537 5.39303 51.0537 5.53709C51.0537 5.68116 50.9964 5.81932 50.8946 5.92119C50.7927 6.02306 50.6545 6.08029 50.5105 6.08029Z" fill="#74DE00"/>
</svg>
