<svg width="112" height="69" viewBox="0 0 112 69" fill="none" xmlns="http://www.w3.org/2000/svg">
<path d="M64.2982 1H2.10527V34.7527H64.2982V1Z" fill="#74DE00" stroke="black" stroke-width="2"/>
<path d="M36.0446 4.92896H8.13031V30.8226H36.0446V4.92896ZM58.9231 4.92896H41.9401V30.8226H58.9231V4.92896Z" fill="#54A000"/>
<path d="M36.0448 31.747H8.13051C7.82901 31.747 7.53986 31.6497 7.32668 31.4763C7.11349 31.303 6.99373 31.0679 6.99373 30.8228V4.92891C6.99373 4.68378 7.11349 4.44869 7.32668 4.27535C7.53986 4.10202 7.82901 4.00464 8.13051 4.00464H36.0448C36.3463 4.00464 36.6354 4.10202 36.8486 4.27535C37.0618 4.44869 37.1815 4.68378 37.1815 4.92891V30.8226C37.1816 30.944 37.1522 31.0642 37.0951 31.1764C37.038 31.2885 36.9542 31.3904 36.8487 31.4763C36.7431 31.5621 36.6178 31.6302 36.4798 31.6767C36.3419 31.7231 36.1941 31.747 36.0448 31.747ZM13.9028 5.85318H9.26728V29.8983H13.9028V5.85318ZM20.9509 5.85318H16.1764V29.8983H20.9509V5.85318ZM27.9989 5.85318H23.2244V29.8983H27.9989V5.85318ZM34.908 5.85318H30.2724V29.8983H34.908V5.85318ZM58.9233 31.747H41.9403C41.6388 31.747 41.3497 31.6497 41.1365 31.4763C40.9233 31.303 40.8035 31.0679 40.8035 30.8228V4.92891C40.8035 4.68378 40.9233 4.44869 41.1365 4.27535C41.3497 4.10202 41.6388 4.00464 41.9403 4.00464H58.9233C59.2248 4.00464 59.514 4.10202 59.7272 4.27535C59.9403 4.44869 60.0601 4.68378 60.0601 4.92891V30.8226C60.0601 30.944 60.0308 31.0642 59.9736 31.1764C59.9165 31.2885 59.8328 31.3904 59.7272 31.4763C59.6217 31.5621 59.4963 31.6302 59.3584 31.6767C59.2205 31.7231 59.0726 31.747 58.9233 31.747ZM57.7865 5.85318H43.0771V29.8983H57.7865V5.85318Z" fill="black"/>
<path d="M46.3886 15.4577C46.5409 15.4552 46.6922 15.4775 46.8337 15.5232C46.9753 15.5689 47.1042 15.637 47.2129 15.7237C47.3217 15.8104 47.408 15.9138 47.467 16.028C47.526 16.1422 47.5563 16.2647 47.5563 16.3885C47.5563 16.5124 47.5259 16.6349 47.4669 16.7491C47.4079 16.8632 47.3215 16.9666 47.2128 17.0533C47.104 17.14 46.9751 17.2081 46.8335 17.2538C46.692 17.2994 46.5407 17.3217 46.3884 17.3192C46.0888 17.3143 45.8034 17.2141 45.5936 17.0401C45.3838 16.866 45.2663 16.632 45.2664 16.3884C45.2664 16.1447 45.384 15.9107 45.5938 15.7367C45.8036 15.5627 46.089 15.4625 46.3886 15.4577Z" fill="black"/>
<path d="M38.3164 61.528L57.4567 59.1629L49.3902 56.1399L34.5886 56.6881L38.3164 61.528Z" fill="#788D9A"/>
<path d="M33.3825 57.8785H50.4866L64.5364 60.9015H96.6143L90.7094 47.7445L34.7452 46.7264L18.6749 45.4734V54.1821H30.4692C30.4849 54.1664 31.8319 55.999 33.3825 57.8785Z" fill="#263B47"/>
<path d="M43.2347 57.8942H19.6931L23.5776 50.047C24.0788 49.0289 25.1125 48.3867 26.2403 48.3867H36.7032C37.8309 48.3867 38.8491 49.0289 39.3659 50.047L43.2347 57.8942Z" fill="#85FF00"/>
<path d="M40.7286 57.8941H22.1992C23.5776 54.0567 27.2114 51.3313 31.4561 51.3313C35.7164 51.3313 39.3503 54.0723 40.7286 57.8941Z" fill="#263B47"/>
<path d="M101.47 68.9682C105.787 68.9682 109.286 65.4689 109.286 61.1523C109.286 56.8357 105.787 53.3364 101.47 53.3364C97.1533 53.3364 93.6541 56.8357 93.6541 61.1523C93.6541 65.4689 97.1533 68.9682 101.47 68.9682Z" fill="black"/>
<path d="M101.47 65.6316C103.944 65.6316 105.95 63.626 105.95 61.152C105.95 58.678 103.944 56.6724 101.47 56.6724C98.996 56.6724 96.9904 58.678 96.9904 61.152C96.9904 63.626 98.996 65.6316 101.47 65.6316Z" fill="#85FF00"/>
<path d="M103.209 61.1521C103.209 62.1076 102.441 62.8751 101.486 62.8751C100.53 62.8751 99.7627 62.1076 99.7627 61.1521C99.7627 60.1967 100.53 59.4292 101.486 59.4292C102.425 59.4292 103.209 60.1967 103.209 61.1521Z" fill="#788D9A"/>
<path d="M39.2718 61.152C39.2716 62.1786 39.0692 63.1951 38.6762 64.1435C38.2831 65.0919 37.7071 65.9535 36.9811 66.6793C36.255 67.4051 35.3931 67.9807 34.4446 68.3734C33.496 68.7661 32.4794 68.9681 31.4528 68.9679C30.4262 68.9677 29.4097 68.7653 28.4613 68.3722C27.513 67.9792 26.6513 67.4032 25.9255 66.6771C25.1998 65.951 24.6241 65.0891 24.2314 64.1406C23.8388 63.1921 23.6368 62.1755 23.637 61.1489C23.6374 59.0756 24.4614 57.0873 25.9277 55.6216C27.3941 54.1558 29.3827 53.3326 31.456 53.333C33.5293 53.3334 35.5175 54.1574 36.9833 55.6238C38.449 57.0901 39.2723 59.0787 39.2718 61.152Z" fill="black"/>
<path d="M35.9357 61.152C35.9357 62.038 35.673 62.9041 35.1808 63.6408C34.6885 64.3774 33.9889 64.9516 33.1704 65.2906C32.3518 65.6297 31.4511 65.7184 30.5821 65.5456C29.7132 65.3727 28.915 64.9461 28.2885 64.3196C27.662 63.6931 27.2354 62.8949 27.0625 62.0259C26.8897 61.157 26.9784 60.2563 27.3174 59.4377C27.6565 58.6192 28.2307 57.9195 28.9673 57.4273C29.704 56.9351 30.5701 56.6724 31.4561 56.6724C33.9308 56.688 35.9357 58.6929 35.9357 61.152Z" fill="#85FF00"/>
<path d="M33.1947 61.1521C33.1947 62.1076 32.4272 62.8751 31.4717 62.8751C30.5163 62.8751 29.7488 62.1076 29.7488 61.1521C29.7488 60.1967 30.5163 59.4292 31.4717 59.4292C32.4115 59.4292 33.1947 60.1967 33.1947 61.1521Z" fill="#788D9A"/>
<path d="M104.524 45.4575L111.244 52.0987V54.777H104.524V45.4575Z" fill="#85FF00"/>
<path d="M107.046 40.6021C106.239 40.6732 105.489 41.0439 104.942 41.6412C104.395 42.2384 104.092 43.0189 104.092 43.8286C104.092 44.6384 104.395 45.4189 104.942 46.0161C105.489 46.6133 106.239 46.9841 107.046 47.0552V40.6021Z" fill="#85FF00"/>
<path d="M107.046 40.6021H107.907V47.0396H107.046V40.6021Z" fill="#788D9A"/>
<path d="M103.165 37.5975L103.17 37.6069L103.175 37.6162C103.405 38.0432 103.52 38.5288 103.509 38.9958L103.509 39.008V39.0202V55.0435C103.509 56.7624 102.108 58.1629 100.389 58.1629H72.8221C71.1033 58.1629 69.7028 56.7624 69.7028 55.0435V14.8364C69.7028 13.1176 71.1033 11.717 72.8221 11.717L87.9683 11.717L87.9701 11.717C88.5436 11.716 89.1062 11.8738 89.5956 12.1729C90.085 12.4719 90.4821 12.9006 90.7428 13.4115L90.744 13.4137L103.165 37.5975Z" fill="#85FF00" stroke="black" stroke-width="2"/>
<path d="M96.6457 29.5753L89.2997 15.2749C88.8611 14.4134 87.984 13.8809 87.0129 13.8809H74.4354C73.0258 13.8809 71.8667 15.0243 71.8667 16.4496V30.891C71.8667 32.4729 73.1511 33.7416 74.7174 33.7416H94.0926C96.2384 33.726 97.6168 31.4705 96.6457 29.5753Z" fill="#EFF3F5"/>
<path d="M89.7383 16.1363L89.2997 15.2749C88.8612 14.4134 87.984 13.8809 87.0129 13.8809H74.4355C73.1198 13.8809 72.0547 14.8676 71.8981 16.1363H89.7383Z" fill="#85FF00"/>
<path d="M71.0168 40.6555H102.101V49.798H71.0168V40.6555Z" fill="#69C900"/>
<path d="M100.772 46.1411H98.5168C97.9686 46.1411 97.53 46.5797 97.53 47.1279C97.53 47.6761 97.9686 48.1147 98.5168 48.1147H100.772C101.32 48.1147 101.759 47.6761 101.759 47.1279C101.755 46.8674 101.65 46.6188 101.466 46.4346C101.281 46.2504 101.033 46.1452 100.772 46.1411Z" fill="#FBD984"/>
<path d="M2 35.9478H67.7341V46.6662H2V35.9478Z" fill="#85FF00" stroke="black" stroke-width="2"/>
<path d="M12.8285 37.4069H66.9056V39.4431H12.8285V37.4069ZM65.0788 10.7327H67.8198V34.9478H65.0788V10.7327Z" fill="#BFC1C1"/>
<path d="M61.1053 58.3936L59.3076 53H48.5206L46.7228 58.3936M53.914 58.3936V53" stroke="black" stroke-width="3" stroke-miterlimit="10" stroke-linecap="round" stroke-linejoin="round"/>
<path d="M16.1053 56.3936L14.3076 51H3.5206L1.72282 56.3936M8.91397 56.3936V51" stroke="black" stroke-width="3" stroke-miterlimit="10" stroke-linecap="round" stroke-linejoin="round"/>
<rect x="8.10535" y="47" width="2" height="5" fill="black"/>
<rect x="53.1053" y="47" width="2" height="5" fill="black"/>
</svg>
