<svg width="116" height="58" viewBox="0 0 116 58" fill="none" xmlns="http://www.w3.org/2000/svg">
<path d="M84.8176 2.37451C82.8318 2.37451 81.222 3.98436 81.222 5.97009V11.3635H88.4134V5.97009C88.4131 3.98436 86.8033 2.37451 84.8176 2.37451Z" fill="#74DE00"/>
<path d="M96.572 23.2552L92.8284 12.0244C92.5898 11.3085 92.1319 10.6858 91.5196 10.2446C90.9074 9.80335 90.1719 9.56591 89.4172 9.56592H72.2328V41.9266H97.4023V28.3718C97.4023 26.6328 97.122 24.905 96.572 23.2552Z" fill="#74DE00"/>
<path d="M72.2328 41.9267V33.0617C72.8231 32.988 73.4206 32.9375 74.0306 32.9375C80.065 32.9375 85.2233 36.658 87.3579 41.9267H72.2328Z" fill="#54A000"/>
<path d="M90.2109 50.9157H77.6262V41.9265H93.8067V47.3199C93.8067 49.3058 92.1969 50.9157 90.2109 50.9157Z" fill="#74DE00"/>
<path d="M88.4131 47.3199C88.4131 48.5639 88.2386 49.7642 87.9417 50.9154H77.6262V41.9263H87.3579C88.033 43.5931 88.4131 45.4111 88.4131 47.3199Z" fill="#54A000"/>
<path d="M74.0306 50.9154H9.30913C7.3234 50.9154 5.71356 49.3056 5.71356 47.3198V27.5439H74.0306V50.9154Z" fill="#74DE00"/>
<path d="M9.30935 50.9154C7.32362 50.9154 5.71377 49.3056 5.71377 47.3198V27.5439H11.1071V31.1395C11.1074 31.6162 11.2969 32.0733 11.634 32.4104C11.9711 32.7475 12.4282 32.937 12.9049 32.9373H21.8941C28.6535 32.9373 34.421 37.5354 35.9185 44.1192C36.108 44.9443 36.8227 45.5221 37.6602 45.5221H58.2648C59.0917 45.5221 59.8185 44.9567 59.9942 44.1773C61.4443 37.6724 67.3488 32.9496 74.0309 32.9481V50.9156H9.30935V50.9154Z" fill="#54A000"/>
<path d="M74.0306 31.1396H5.71355C3.72782 31.1396 2.11796 29.5297 2.11796 27.544V5.97009C2.11796 3.98436 3.72782 2.37451 5.71355 2.37451H70.435C72.4208 2.37451 74.0306 3.98436 74.0306 5.97009V31.1396Z" fill="#74DE00"/>
<path d="M74.0306 56.3091C69.066 56.3091 65.0414 52.2846 65.0414 47.32C65.0414 42.3554 69.066 38.3308 74.0306 38.3308C78.9952 38.3308 83.0198 42.3554 83.0198 47.32C83.0198 52.2846 78.9952 56.3091 74.0306 56.3091Z" fill="#74DE00"/>
<path d="M21.8938 56.3091C16.9293 56.3091 12.9047 52.2846 12.9047 47.32C12.9047 42.3554 16.9293 38.3308 21.8938 38.3308C26.8584 38.3308 30.883 42.3554 30.883 47.32C30.883 52.2846 26.8584 56.3091 21.8938 56.3091Z" fill="#74DE00"/>
<path d="M9.30933 31.1396H5.71375C3.72802 31.1396 2.11818 29.5297 2.11818 27.544V5.97009C2.11818 3.98436 3.72802 2.37451 5.71375 2.37451H9.30933V31.1396Z" fill="#54A000"/>
<path d="M74.0306 25.7461H9.30913V31.1395H74.0306V25.7461Z" fill="#54A000"/>
<path d="M5.7135 31.1395H9.30907V25.7461H2.11792V27.5439C2.11792 29.5296 3.72777 31.1395 5.7135 31.1395Z" fill="#C9C5C9"/>
<path d="M89.4172 9.56592C90.1719 9.56588 90.9075 9.80332 91.5197 10.2446C92.1319 10.6859 92.5897 11.3087 92.8282 12.0246L96.5718 23.2554C97.1218 24.9053 97.4022 26.633 97.4023 28.372V34.7354L86.6154 31.1398C86.6154 28.161 84.2006 25.7465 81.222 25.7465L74.0306 9.56614H89.4172V9.56592Z" fill="#A5E3F0"/>
<path d="M86.6154 31.1396C86.6154 28.1608 84.2006 25.7462 81.222 25.7462H74.0306V9.56592H79.424V18.5551C79.424 19.5605 80.2495 20.35 81.2552 20.3529C85.801 20.3666 89.6772 23.1958 91.2487 27.1868C91.7719 28.5154 93.1097 29.342 94.5376 29.342H97.4023V34.7354H86.6154V31.1396Z" fill="#7AD7EE"/>
<path d="M21.912 47.3201H21.8946" stroke="black" stroke-width="3" stroke-miterlimit="10" stroke-linecap="round" stroke-linejoin="round"/>
<path d="M74.0306 56.3091C69.066 56.3091 65.0414 52.2846 65.0414 47.32C65.0414 42.3554 69.066 38.3308 74.0306 38.3308C78.9952 38.3308 83.0198 42.3554 83.0198 47.32C83.0198 52.2846 78.9952 56.3091 74.0306 56.3091Z" stroke="black" stroke-width="3" stroke-miterlimit="10" stroke-linecap="round" stroke-linejoin="round"/>
<path d="M74.0485 47.3199H74.0306M30.883 50.9157H65.0417M93.8067 41.9265V47.3199C93.8067 49.3056 92.1969 50.9155 90.2112 50.9155H83.0198M12.9049 50.9157H9.30933C7.3236 50.9157 5.71375 49.3058 5.71375 47.3201V31.1398M5.71375 31.1398H74.0306M5.71375 31.1398C3.72801 31.1398 2.11795 29.5297 2.11795 27.544V5.97009C2.11795 3.98436 3.72779 2.37451 5.71352 2.37451H70.435C72.4208 2.37451 74.0306 3.98436 74.0306 5.97009V13.1615M74.0306 31.1398V20.3526M74.0306 31.1398V38.331M113.583 49.5113L111.785 44.1177H100.998L99.2001 49.5113M106.391 49.5113V44.1177M102.796 44.1177V41.9263M102.796 41.9263H106.391C108.377 41.9263 109.987 42.1317 109.987 44.1175M102.796 41.9263L81.222 41.9265M74.0306 9.56589H89.4172C90.1719 9.56592 90.9074 9.80337 91.5196 10.2446C92.1318 10.6858 92.5897 11.3085 92.8284 12.0244L96.572 23.2552C97.122 24.905 97.4023 26.6327 97.4023 28.3718V41.9265" stroke="black" stroke-width="3" stroke-miterlimit="10" stroke-linecap="round" stroke-linejoin="round"/>
<path d="M86.6154 41.9265V31.1396C86.6154 28.1608 84.2006 25.7462 81.222 25.7462H74.0306M88.4131 9.56589V5.97009C88.4131 3.98436 86.8033 2.37451 84.8176 2.37451C82.8318 2.37451 81.222 3.98436 81.222 5.97009V9.56567M9.30934 2.37451V31.1396M36.2764 38.331H59.6481M93.8067 34.7352H97.4023M29.7688 42.982C30.502 44.3102 30.8854 45.803 30.883 47.3201C30.883 52.2847 26.8584 56.3093 21.8939 56.3093C16.9293 56.3093 12.9047 52.2847 12.9047 47.3201C12.9047 42.3556 16.9293 38.331 21.8939 38.331C22.5095 38.331 23.1108 38.3929 23.6919 38.5108" stroke="black" stroke-width="3" stroke-miterlimit="10" stroke-linecap="round" stroke-linejoin="round"/>
</svg>
