<svg width="114" height="82" viewBox="0 0 114 82" fill="none" xmlns="http://www.w3.org/2000/svg">
<path fill-rule="evenodd" clip-rule="evenodd" d="M14.5906 18.3316C15.012 18.8553 14.9073 20.3679 14.9438 21.067L14.9365 37.7469H8.66693L8.54271 20.4994L1.81763 8.85904L5.60033 2.52124C5.87557 2.64546 6.14594 2.81109 6.28477 3.08146L14.5906 18.3316Z" fill="#5B3616"/>
<path fill-rule="evenodd" clip-rule="evenodd" d="M11.697 37.7469H8.66693L8.54271 20.4994L1.81763 8.85903L3.90993 5.35156L11.3536 19.0282C11.7749 19.5519 11.6702 21.0645 11.7067 21.7636L11.697 37.7469Z" fill="#7B5C41"/>
<path fill-rule="evenodd" clip-rule="evenodd" d="M16.6829 20L56.0031 20.5383C58.4876 20.5724 60.4435 22.616 60.4849 25.1029L60.6773 36.9381L89.0415 61.9313L90.0231 65.127C90.7075 67.3703 88.1037 69.3871 85.763 69.3871H14.9974L5.81467 69.3457V37.7663H14.9974L14.7636 21.9267C14.7417 20.872 15.6258 20 16.6829 20Z" fill="#54A000"/>
<path fill-rule="evenodd" clip-rule="evenodd" d="M74.8533 69.3896H14.9974L5.81467 69.3482V37.7664H14.9974L14.7636 21.9268C14.7563 21.3958 14.9706 20.911 15.3287 20.5603L43.2228 20.9403C45.7072 20.9744 47.6631 23.018 47.7045 25.5049L47.897 37.3401L76.2612 62.3406L77.2428 65.5314C77.7372 67.1731 76.4804 68.6905 74.8533 69.3896Z" fill="#85FF00"/>
<path fill-rule="evenodd" clip-rule="evenodd" d="M24.1461 54.2271C31.1537 54.2271 36.8436 59.9096 36.8436 66.9246C36.8436 73.9322 31.1537 79.6221 24.1461 79.6221C17.1311 79.6221 11.4485 73.9322 11.4485 66.9246C11.4485 59.9096 17.1311 54.2271 24.1461 54.2271Z" fill="#755239"/>
<path fill-rule="evenodd" clip-rule="evenodd" d="M19.2843 78.6551C14.6783 76.7504 11.4485 72.2126 11.4485 66.9246C11.4485 62.0166 14.2302 57.7613 18.3052 55.6495C21.8394 58.419 24.1047 62.7327 24.1047 67.5725C24.1047 71.9495 22.2535 75.893 19.2843 78.6551Z" fill="#8F725F"/>
<path fill-rule="evenodd" clip-rule="evenodd" d="M24.1461 60.0193C27.958 60.0193 31.0514 63.1054 31.0514 66.9246C31.0514 70.7365 27.958 73.8299 24.1461 73.8299C20.3268 73.8299 17.2334 70.7365 17.2334 66.9246C17.2334 63.1054 20.3268 60.0193 24.1461 60.0193Z" fill="#54A000"/>
<path fill-rule="evenodd" clip-rule="evenodd" d="M22.5165 73.635C19.4914 72.9043 17.2334 70.1763 17.2334 66.9246C17.2334 63.8726 19.2161 61.2907 21.949 60.3724C23.3155 62.4014 24.1095 64.8396 24.1095 67.4702C24.112 69.7062 23.5323 71.8058 22.5165 73.635Z" fill="#85FF00"/>
<path fill-rule="evenodd" clip-rule="evenodd" d="M60.6432 54.0736C67.6654 54.0736 73.3602 59.7708 73.3602 66.7906C73.3602 73.8129 67.663 79.5076 60.6432 79.5076C53.621 79.5076 47.9262 73.8104 47.9262 66.7906C47.9238 59.7708 53.621 54.0736 60.6432 54.0736Z" fill="#755239"/>
<path fill-rule="evenodd" clip-rule="evenodd" d="M55.7741 78.5431C51.1609 76.631 47.9238 72.0884 47.9238 66.7906C47.9238 61.8753 50.7127 57.6152 54.795 55.4961C58.3292 58.2728 60.6091 62.5938 60.6091 67.441C60.6091 71.8253 58.7433 75.7761 55.7741 78.5431Z" fill="#8F725F"/>
<path fill-rule="evenodd" clip-rule="evenodd" d="M60.6432 59.8755C64.4624 59.8755 67.5607 62.9762 67.5607 66.793C67.5607 70.6122 64.46 73.7105 60.6432 73.7105C56.8191 73.7105 53.7257 70.6098 53.7257 66.793C53.7233 62.9737 56.8166 59.8755 60.6432 59.8755Z" fill="#54A000"/>
<path fill-rule="evenodd" clip-rule="evenodd" d="M59.0137 73.5181C55.9836 72.7873 53.7257 70.052 53.7257 66.793C53.7257 63.741 55.7011 61.1445 58.4486 60.2335C59.815 62.2625 60.6091 64.708 60.6091 67.3386C60.6091 69.5819 60.0294 71.6888 59.0137 73.5181Z" fill="#85FF00"/>
<path fill-rule="evenodd" clip-rule="evenodd" d="M21.9295 25.8848H45.1153C47.7874 25.8848 52.0061 28.0599 52.0061 30.7319V51.0996H44.7914C39.2598 37.6153 39.8347 39.4299 21.932 39.4299V25.8848H21.9295Z" fill="#C2E8FB"/>
<path fill-rule="evenodd" clip-rule="evenodd" d="M109.553 68.1668C110.678 68.727 111.397 69.8572 111.424 71.1141C111.458 72.3636 110.795 73.5303 109.704 74.1441L82.3335 74.8895C81.1521 74.9236 80.1389 74.2415 79.6468 73.1625C75.3721 63.8409 79.0744 52.3515 86.0748 44.4403C86.7105 43.7217 87.5874 43.3978 88.5397 43.5366C89.4848 43.6754 90.2374 44.2332 90.6466 45.1028L101.398 68.1644H109.553V68.1668Z" fill="#54A000"/>
<path fill-rule="evenodd" clip-rule="evenodd" d="M109.553 68.1668C110.678 68.727 111.397 69.8572 111.424 71.114C111.458 72.3636 110.795 73.5303 109.704 74.1441L87.8724 74.7384C87.127 74.49 86.5254 73.9249 86.1746 73.1649C82.2117 64.5132 85.1175 53.9908 91.1533 46.1964L101.4 68.1668H107.933H109.553Z" fill="#85FF00"/>
<path fill-rule="evenodd" clip-rule="evenodd" d="M23.1718 33.0289V31.3579L27.315 26.6984H28.7983L23.1718 33.0289ZM23.0816 36.2952V34.4465L30.0138 26.6497H30.7396L31.2511 27.1051L23.0816 36.2952ZM45.6609 46.2111H43.4663L50.8807 37.8784H51.0391C51.363 38.2852 51.687 38.6798 52.0061 39.0719L45.6609 46.2111ZM43.4444 44.6498H43.0718C42.8656 44.2662 42.6446 43.8908 42.4092 43.5245L49.887 35.1139H50.6055C50.8125 35.3769 51.0196 35.6327 51.2266 35.8933L43.4444 44.6498Z" fill="white"/>
<path d="M98.4727 65.9236L95.5035 67.67C94.6948 68.1401 93.6524 67.8698 93.1774 67.0635C92.7 66.2549 92.9777 65.2124 93.7839 64.7374L97.0283 62.8327L95.6959 59.9731L92.4442 61.8852C92.2519 61.999 92.039 62.0736 91.8176 62.1048C91.5963 62.1359 91.3711 62.1229 91.1548 62.0665C90.9386 62.0101 90.7356 61.9115 90.5577 61.7762C90.3797 61.641 90.2303 61.4719 90.1181 61.2787C89.6407 60.47 89.9184 59.4275 90.7246 58.9598L94.254 56.8822L92.8047 53.7742L89.4897 55.7203C88.681 56.1904 87.6385 55.92 87.1635 55.1138C86.6934 54.3051 86.9638 53.2626 87.77 52.7877L91.3603 50.6808L89.0951 45.8336C88.7565 45.0956 87.8309 45.025 87.3414 45.5779C81.1278 52.5928 77.0601 63.4611 81.1887 72.4709C81.3957 72.9191 81.7952 73.2162 82.2945 73.2016L109.153 72.4709C109.346 72.3954 110.12 71.3456 109.458 70.2958C109.356 70.1375 109.229 69.9913 109.085 69.8744H101.393C100.757 69.8744 100.144 69.509 99.8537 68.8879L98.4727 65.9236ZM110.486 66.7445C113.986 68.6711 113.986 73.6766 110.542 75.63C110.271 75.7811 109.977 75.859 109.68 75.8517L82.3797 76.597C80.5018 76.6457 78.8796 75.5692 78.1002 73.8763C77.6906 72.9752 77.3423 72.0475 77.0577 71.0996H74.4076C71.2046 81.3662 58.1417 84.6886 50.4423 76.9892C48.7952 75.3421 47.5703 73.3216 46.8715 71.0996H37.9299C34.8024 81.4344 21.6835 84.8323 13.9574 77.1061C12.3011 75.4498 11.0369 73.377 10.3452 71.0728L5.8025 71.046C4.86474 71.046 4.11209 70.286 4.11209 69.3483H4.10479V37.7738C4.10479 36.8287 4.87204 36.0688 5.8098 36.0688H6.95704L6.84743 20.9696L0.351308 9.71647C0.1906 9.44401 0.109928 9.13177 0.118545 8.81555C0.127161 8.49934 0.224716 8.19195 0.400023 7.92864L4.14863 1.65174C4.5968 0.891787 5.54918 0.616548 6.33105 0.989216C6.93268 1.26445 7.44175 1.65174 7.78032 2.27285L16.0253 17.4207C16.2129 17.6911 16.3371 17.9931 16.4248 18.3195C16.493 18.3195 16.5709 18.3122 16.6391 18.3122C29.7166 18.3122 42.9305 18.6703 56.0226 18.8432C59.4546 18.8919 62.1266 21.6881 62.1826 25.086L62.3701 36.1613L79.4715 51.2337C80.9 48.3757 82.694 45.7155 84.8082 43.32C86.9687 40.8818 90.8488 41.5029 92.1958 44.3892L102.489 66.4619H109.56C109.899 66.4619 110.218 66.5642 110.486 66.7445ZM39.5911 27.5899V38.9137C42.0634 40.3435 43.4152 43.3126 45.9216 49.402H50.2913V30.7394C50.2913 30.1377 49.7189 29.4898 48.9248 28.9296C47.7581 28.1088 46.2455 27.5899 45.1129 27.5899H39.5911ZM36.1811 37.8761V27.5875H23.6297V37.7226C27.8118 37.7056 33.3361 37.4961 36.1811 37.8761ZM21.9295 24.1775H45.1153C48.4231 24.1775 53.7038 26.8227 53.7038 30.7369V51.1046C53.7038 52.0423 52.9438 52.8096 51.9988 52.8096H44.7914C44.0241 52.8096 43.3835 52.3054 43.1619 51.6161C38.7776 40.9354 38.6119 40.9354 27.5707 41.0864C25.7001 41.1059 23.581 41.1351 21.9295 41.1351C20.9845 41.1351 20.2245 40.3751 20.2245 39.4301V25.8825C20.2245 24.9447 20.9845 24.1775 21.9295 24.1775ZM60.6359 58.1755C65.4002 58.1755 69.2584 62.0362 69.2584 66.7932C69.2584 71.5575 65.3978 75.4157 60.6359 75.4157C55.8789 75.4157 52.0134 71.5551 52.0134 66.7932C52.0109 62.0362 55.8789 58.1755 60.6359 58.1755ZM64.3236 63.1128C61.05 59.8343 55.4234 62.1677 55.4234 66.7932C55.4234 71.426 61.05 73.7521 64.3236 70.4809C66.3599 68.4422 66.3599 65.1418 64.3236 63.1128ZM60.6359 52.376C68.9418 52.376 75.5426 59.3715 75.0311 67.6895H76.3294C75.7423 63.2565 76.4609 58.7138 78.0271 54.5097L59.5495 38.2146C59.3722 38.0579 59.2296 37.8657 59.131 37.6505C59.0325 37.4353 58.98 37.2018 58.9771 36.9651L58.7774 25.1298C58.7579 23.5758 57.5425 22.2581 55.9812 22.2362L16.6756 21.7076C16.5709 21.7076 16.4613 21.7977 16.4613 21.9074H16.454C16.454 25.9677 16.5514 30.0744 16.6342 34.1567L16.7024 37.7738C16.7024 38.714 15.9352 39.4715 14.9974 39.4715H7.51239V67.6627L9.7557 67.67C9.33432 59.4251 15.9011 52.5295 24.1388 52.5295C32.3837 52.5295 38.9481 59.4348 38.5218 67.692H46.2407C45.7365 59.3715 52.33 52.376 60.6359 52.376ZM68.423 59.011C64.1214 54.7095 57.1479 54.7095 52.8464 59.011C48.5522 63.3052 48.5522 70.2787 52.8464 74.5802C57.1479 78.8818 64.1214 78.8818 68.423 74.5802C72.7245 70.2787 72.7245 63.3052 68.423 59.011ZM11.3438 43.7608C10.3987 43.7608 9.63879 43.0009 9.63879 42.0558C9.63879 41.1156 10.3987 40.3508 11.3438 40.3508H17.0678C18.0056 40.3508 18.7728 41.118 18.7728 42.0558C18.7728 43.0009 18.0056 43.7608 17.0678 43.7608H11.3438ZM11.3438 54.0616C10.3987 54.0616 9.63879 53.2943 9.63879 52.3566C9.63879 51.4115 10.3987 50.6515 11.3438 50.6515H17.0678C18.0056 50.6515 18.7728 51.4115 18.7728 52.3566C18.7728 53.2967 18.0056 54.0616 17.0678 54.0616H11.3438ZM11.3438 48.91C10.3987 48.91 9.63879 48.1427 9.63879 47.205C9.63879 46.2672 10.3987 45.4999 11.3438 45.4999H17.0678C18.0056 45.4999 18.7728 46.2672 18.7728 47.205C18.7728 48.1427 18.0056 48.91 17.0678 48.91H11.3438ZM24.1388 58.3144C28.8958 58.3144 32.7491 62.175 32.7491 66.9247C32.7491 71.6817 28.8958 75.5424 24.1388 75.5424C19.3817 75.5424 15.5284 71.6817 15.5284 66.9247C15.5284 62.175 19.3817 58.3144 24.1388 58.3144ZM27.8192 63.2516C24.5528 59.9853 18.9409 62.3065 18.9409 66.9247C18.9409 71.5502 24.5553 73.8714 27.8192 70.6051C29.8481 68.5737 29.8481 65.2806 27.8192 63.2516ZM31.9136 59.1571C27.6194 54.8629 20.6605 54.8629 16.3639 59.1571C12.077 63.444 12.077 70.4054 16.3639 74.6996C20.6581 78.9938 27.617 78.9938 31.9136 74.6996C36.2005 70.4029 36.2005 63.444 31.9136 59.1571ZM13.2364 34.03C13.1536 29.9989 13.0147 25.8898 13.0561 21.9049H13.0488C13.0488 21.0914 13.2364 21.1109 13.2291 20.5312C13.2291 20.027 13.2973 19.4473 13.2632 19.3985C13.0147 19.0868 6.5113 7.05421 5.72942 5.61712L3.78327 8.86884L10.0115 19.647H10.0041C10.1503 19.8954 10.2331 20.1853 10.2331 20.4971L10.35 36.0468H13.2291L13.2364 34.03Z" fill="black"/>
</svg>
