<svg width="140" height="66" viewBox="0 0 140 66" fill="none" xmlns="http://www.w3.org/2000/svg">
<path d="M60.3329 27.0669C61.5577 26.0743 62.9019 25.2388 64.3341 24.58C67.4953 23.0177 70.9732 22.2027 74.4993 22.198C87.4755 22.198 97.9648 32.7954 97.9648 45.7748" fill="#F98E00"/>
<path d="M99.7033 45.7714H96.2279C96.2279 33.7274 86.4804 23.9348 74.4993 23.9348C71.2738 23.9348 67.9403 24.7153 65.1131 26.133C63.7978 26.7362 62.5621 27.5 61.4345 28.4069L59.2298 25.7249C60.52 24.6637 62.0344 23.7219 63.6084 23.001C66.8565 21.3721 70.7432 20.4545 74.4993 20.4545C88.398 20.4545 99.7033 31.8098 99.7033 45.7714Z" fill="black"/>
<path d="M63.3423 31.0485L60.3313 27.065C61.5561 26.0724 62.9002 25.237 64.3325 24.5782C67.4936 23.0158 70.9715 22.2008 74.4976 22.1962C87.4738 22.1962 97.9631 32.7935 97.9631 45.7729V57.1944H72.2398L63.3423 31.0485Z" fill="#F98E00"/>
<path d="M99.7033 58.9346H70.9948L61.786 31.8695L57.938 26.7861L59.2298 25.7249C60.52 24.6637 62.0343 23.7219 63.6084 23.001C66.8564 21.3721 70.7432 20.4545 74.4993 20.4545C88.3963 20.4545 99.7033 31.8098 99.7033 45.7714V58.9346ZM73.4848 55.4559H96.2278V45.7714C96.2278 33.7274 86.4804 23.9348 74.4993 23.9348C71.2738 23.9348 67.9402 24.7153 65.1131 26.133C64.3019 26.5071 63.5116 26.9474 62.7826 27.4231L64.9889 30.4874L73.4848 55.4559Z" fill="black"/>
<path d="M74.4445 63.9598C84.4888 63.9598 92.6314 55.8173 92.6314 45.7729C92.6314 35.7285 84.4888 27.5859 74.4445 27.5859C64.4001 27.5859 56.2575 35.7285 56.2575 45.7729C56.2575 55.8173 64.4001 63.9598 74.4445 63.9598Z" fill="#32569D"/>
<path d="M74.4444 65.7002C63.4584 65.7002 54.5206 56.7639 54.5206 45.7731C54.5206 34.7822 63.4584 25.8459 74.4444 25.8459C85.4321 25.8459 94.3699 34.7822 94.3699 45.7731C94.3699 56.7639 85.4321 65.7002 74.4444 65.7002ZM74.4444 29.323C65.3744 29.323 57.996 36.6981 57.996 45.7714C57.996 54.8448 65.376 62.2198 74.4444 62.2198C83.5145 62.2198 90.8945 54.8448 90.8945 45.7714C90.8945 36.6981 83.5145 29.323 74.4444 29.323Z" fill="#191F23"/>
<path d="M120.862 63.9195C127.669 63.9195 133.187 58.4016 133.187 51.5949C133.187 44.7882 127.669 39.2703 120.862 39.2703C114.056 39.2703 108.538 44.7882 108.538 51.5949C108.538 58.4016 114.056 63.9195 120.862 63.9195Z" fill="#32569D"/>
<path d="M120.863 65.6485C119.016 65.6527 117.188 65.2919 115.481 64.587C113.775 63.882 112.225 62.8468 110.92 61.5408C109.61 60.2376 108.571 58.6873 107.864 56.9798C107.157 55.2723 106.796 53.4415 106.801 51.5934C106.801 47.8341 108.264 44.3021 110.92 41.646C116.402 36.1626 125.323 36.1626 130.807 41.646C132.117 42.9493 133.157 44.4996 133.864 46.2071C134.571 47.9146 134.931 49.7454 134.926 51.5934C134.931 53.4414 134.57 55.2721 133.864 56.9796C133.157 58.6871 132.118 60.2374 130.808 61.5408C129.503 62.8467 127.952 63.8818 126.245 64.5867C124.538 65.2916 122.709 65.6525 120.863 65.6485ZM120.864 41.0105C119.474 41.0089 118.097 41.2817 116.812 41.8133C115.527 42.3449 114.36 43.125 113.378 44.1086C112.392 45.0895 111.61 46.2562 111.078 47.5413C110.546 48.8263 110.274 50.2042 110.278 51.595C110.274 52.9858 110.546 54.3637 111.078 55.6487C111.61 56.9338 112.392 58.1005 113.378 59.0814C117.506 63.2068 124.222 63.2148 128.351 59.0814C132.479 54.956 132.479 48.234 128.351 44.1102C127.368 43.1263 126.201 42.346 124.916 41.814C123.632 41.2821 122.255 41.0091 120.864 41.0105Z" fill="#191F23"/>
<path d="M25.4267 63.9602C30.965 63.9602 35.4547 59.4705 35.4547 53.9321C35.4547 48.3938 30.965 43.9041 25.4267 43.9041C19.8883 43.9041 15.3986 48.3938 15.3986 53.9321C15.3986 59.4705 19.8883 63.9602 25.4267 63.9602Z" fill="#32569D"/>
<path d="M25.4266 65.7001C18.9386 65.7001 13.6617 60.4216 13.6617 53.9367C13.6617 47.4438 18.9402 42.1653 25.4266 42.1653C31.9147 42.1653 37.1932 47.4438 37.1932 53.9367C37.1916 60.42 31.9147 65.7001 25.4266 65.7001ZM25.4266 45.644C23.2286 45.6465 21.1214 46.5209 19.5673 48.0753C18.0132 49.6297 17.1393 51.7371 17.1371 53.9351C17.141 56.1319 18.0158 58.2374 19.5697 59.7902C21.1236 61.3429 23.2299 62.216 25.4266 62.2182C27.6237 62.2165 29.7303 61.3435 31.2846 59.7907C32.8389 58.238 33.7139 56.1321 33.7178 53.9351C33.7152 51.737 32.8409 49.6296 31.2865 48.0752C29.7322 46.5209 27.6248 45.6465 25.4266 45.644Z" fill="#191F23"/>
<path d="M137.398 34.6628V52.282C137.398 55.0043 135.13 57.1961 132.407 57.1961H132.331C132.331 57.1219 132.103 57.1219 131.802 57.1219C132.71 55.4559 133.163 53.5658 133.163 51.6014C133.162 48.3325 131.864 45.1975 129.552 42.886C127.241 40.5744 124.106 39.2756 120.837 39.2752C117.568 39.2761 114.433 40.575 112.122 42.8865C109.811 45.198 108.513 48.3327 108.512 51.6014C108.512 52.2804 108.588 52.9626 108.664 53.6432L108.889 54.5496C108.965 55.0043 109.117 55.4559 109.343 55.9107C109.494 56.3655 109.722 56.8187 109.947 57.1961H94.9747C95.3537 56.5929 95.7311 55.9107 96.0327 55.2317C97.318 52.3578 97.9986 49.1065 97.9986 45.7794C97.9986 33.0742 87.7915 22.5639 75.1637 22.1865L76.3733 7.82019H104.503L115.013 27.7828H130.591C134.374 27.7828 137.398 30.8825 137.398 34.6628Z" fill="#85FF00"/>
<path d="M132.407 58.9347C132.207 58.9347 132.01 58.9008 131.826 58.8331C131.282 58.7476 130.7 58.425 130.445 57.959C130.157 57.4413 129.992 56.8042 130.278 56.2865C131.029 54.9109 131.428 53.2901 131.428 51.6015C131.428 45.7618 126.676 41.0187 120.838 41.0187C118.032 41.0212 115.341 42.1369 113.357 44.1209C111.372 46.105 110.256 48.7953 110.252 51.6015C110.252 52.2127 110.322 52.8159 110.391 53.4352L110.523 53.9013C110.655 54.5464 110.751 54.8351 110.904 55.1399C111.091 55.6495 111.252 55.9882 111.436 56.2946C111.762 56.83 111.773 57.4993 111.465 58.0428C111.157 58.5944 110.578 58.9347 109.951 58.9347H94.9796C94.6693 58.9329 94.3651 58.8485 94.0983 58.6901C93.8315 58.5317 93.6118 58.305 93.4618 58.0334C93.3118 57.7618 93.2369 57.4551 93.2449 57.1449C93.2529 56.8348 93.3434 56.5323 93.5071 56.2688C93.8627 55.7092 94.1779 55.125 94.4506 54.5206C95.6359 51.8725 96.2649 48.8421 96.2649 45.7795C96.2649 34.0838 86.7755 24.2735 75.1137 23.9252C74.8775 23.9161 74.6456 23.8596 74.4317 23.7591C74.2178 23.6585 74.0263 23.5159 73.8687 23.3397C73.7118 23.1642 73.5922 22.9586 73.5174 22.7354C73.4425 22.5122 73.4139 22.2761 73.4332 22.0415L74.6444 7.6735C74.6812 7.23911 74.8794 6.83429 75.2001 6.53898C75.5208 6.24368 75.9406 6.07936 76.3765 6.07849H104.506C105.151 6.07849 105.743 6.43491 106.045 7.01227L116.065 26.0411H130.594C135.305 26.0411 139.137 29.9117 139.137 34.6644V52.2837C139.137 55.9479 136.119 58.9347 132.407 58.9347ZM97.8341 55.456H107.312C107.256 55.2521 107.211 55.0454 107.177 54.8367L106.982 54.0819C106.853 53.0723 106.777 52.3337 106.777 51.6031C106.777 43.8458 113.084 37.54 120.838 37.54C128.594 37.54 134.903 43.8458 134.903 51.6031C134.903 52.6385 134.79 53.6578 134.568 54.6415C135.242 54.0642 135.661 53.2159 135.661 52.2821V34.6628C135.661 31.8276 133.387 29.5198 130.594 29.5198H115.016C114.371 29.5198 113.779 29.1634 113.478 28.586L103.458 9.55719H77.9747L77.0458 20.5739C89.7172 21.8979 99.7388 32.8372 99.7388 45.7811C99.7388 49.1501 99.0824 52.4772 97.8341 55.456Z" fill="black"/>
<path d="M105.962 1.745H73.6364C73.2347 1.745 72.8368 1.82413 72.4657 1.97788C72.0945 2.13163 71.7572 2.35698 71.4731 2.64107C71.189 2.92516 70.9637 3.26242 70.8099 3.6336C70.6562 4.00479 70.5771 4.40262 70.5771 4.80438C70.5771 5.20614 70.6562 5.60397 70.8099 5.97515C70.9637 6.34633 71.189 6.6836 71.4731 6.96769C71.7572 7.25178 72.0945 7.47713 72.4657 7.63088C72.8368 7.78462 73.2347 7.86376 73.6364 7.86376H105.962C106.774 7.86376 107.552 7.54143 108.126 6.96769C108.699 6.39394 109.022 5.61578 109.022 4.80438C109.022 3.99298 108.699 3.21481 108.126 2.64107C107.552 2.06732 106.774 1.745 105.962 1.745Z" fill="#85FF00"/>
<path d="M105.962 9.59907H73.6364C72.3651 9.59694 71.1465 9.09121 70.2472 8.19258C69.348 7.29395 68.8415 6.07565 68.8385 4.80437C68.8389 3.53142 69.3443 2.31063 70.2438 1.40992C71.1433 0.5092 72.3634 0.00213575 73.6364 0H105.962C107.235 0.00213575 108.455 0.5092 109.355 1.40992C110.254 2.31063 110.76 3.53142 110.76 4.80437C110.758 6.07591 110.252 7.29471 109.352 8.19352C108.453 9.09233 107.234 9.59779 105.962 9.59907ZM73.6364 3.48031C72.9074 3.48031 72.3139 4.0738 72.3139 4.80437C72.3139 5.53495 72.9074 6.12038 73.6364 6.12038H105.962C106.691 6.12038 107.285 5.53495 107.285 4.80437C107.285 4.0738 106.691 3.48031 105.962 3.48031H73.6364Z" fill="black"/>
<path fill-rule="evenodd" clip-rule="evenodd" d="M120.863 46.3906C122.22 46.4244 123.511 46.9876 124.46 47.9599C125.408 48.9322 125.939 50.2367 125.939 51.595C125.939 52.9532 125.408 54.2577 124.46 55.23C123.511 56.2023 122.22 56.7655 120.863 56.7993C117.99 56.7993 115.658 54.4673 115.658 51.595C115.658 48.7227 117.99 46.3906 120.863 46.3906Z" fill="#89A8EC"/>
<path d="M120.862 58.5362C119.022 58.534 117.257 57.8019 115.955 56.5003C114.654 55.1987 113.922 53.434 113.92 51.5933C113.92 47.7662 117.034 44.6504 120.862 44.6504C124.691 44.6504 127.805 47.7646 127.805 51.5933C127.804 53.4341 127.072 55.1991 125.77 56.5008C124.468 57.8024 122.703 58.5344 120.862 58.5362ZM120.862 48.1307C118.951 48.1307 117.395 49.6838 117.395 51.5933C117.395 52.5129 117.76 53.3948 118.411 54.0451C119.061 54.6954 119.943 55.0607 120.862 55.0607C121.782 55.0607 122.664 54.6954 123.314 54.0451C123.965 53.3948 124.33 52.5129 124.33 51.5933C124.329 50.6745 123.963 49.7938 123.313 49.1446C122.662 48.4954 121.781 48.1307 120.862 48.1307ZM123.056 29.5357C122.828 29.5355 122.601 29.4903 122.391 29.4028C122.18 29.3152 121.988 29.187 121.827 29.0254C121.666 28.8638 121.538 28.672 121.451 28.461C121.363 28.25 121.319 28.0239 121.319 27.7956V18.2223C121.32 16.9126 121.841 15.6569 122.767 14.7307C123.693 13.8046 124.949 13.2838 126.259 13.2825C126.72 13.2825 127.163 13.4658 127.489 13.7922C127.816 14.1185 127.999 14.5611 127.999 15.0226C127.999 15.4841 127.816 15.9268 127.489 16.2531C127.163 16.5794 126.72 16.7628 126.259 16.7628C125.871 16.7624 125.499 16.9158 125.225 17.1895C124.95 17.4632 124.795 17.8346 124.794 18.2223V27.7956C124.794 28.2567 124.611 28.6988 124.285 29.025C123.959 29.3512 123.517 29.5349 123.056 29.5357Z" fill="black"/>
<path fill-rule="evenodd" clip-rule="evenodd" d="M74.4605 38.1481C76.4838 38.1489 78.4241 38.9531 79.8548 40.3838C81.2855 41.8145 82.0896 43.7547 82.0904 45.778C82.0904 49.9905 78.6714 53.4079 74.4605 53.4079C70.2497 53.4079 66.8306 49.9889 66.8306 45.778C66.8306 41.5671 70.248 38.1481 74.4605 38.1481Z" fill="#89A8EC"/>
<path d="M74.4605 55.1496C69.2949 55.1496 65.0921 50.9484 65.0921 45.7796C65.0921 40.6107 69.2949 36.4095 74.4605 36.4095C79.6261 36.4095 83.829 40.6107 83.829 45.7796C83.829 50.9484 79.6261 55.1496 74.4605 55.1496ZM74.4605 39.8898C72.8986 39.8911 71.4009 40.5119 70.2961 41.6161C69.1913 42.7203 68.5697 44.2176 68.5675 45.7796C68.5675 49.0309 71.2108 51.6693 74.4605 51.6693C77.7102 51.6693 80.3535 49.0293 80.3535 45.7796C80.3514 44.2176 79.7297 42.7203 78.6249 41.6161C77.5201 40.5119 76.0225 39.8911 74.4605 39.8898ZM128.852 36.3176H125.909C125.447 36.3176 125.005 36.1343 124.678 35.8079C124.352 35.4816 124.169 35.039 124.169 34.5774C124.169 34.1159 124.352 33.6733 124.678 33.347C125.005 33.0206 125.447 32.8373 125.909 32.8373H128.852C129.314 32.8373 129.756 33.0206 130.083 33.347C130.409 33.6733 130.592 34.1159 130.592 34.5774C130.592 35.039 130.409 35.4816 130.083 35.8079C129.756 36.1343 129.314 36.3176 128.852 36.3176ZM120.021 36.3176H118.058C117.609 36.2983 117.186 36.1065 116.875 35.7823C116.564 35.458 116.391 35.0264 116.391 34.5774C116.391 34.1285 116.564 33.6968 116.875 33.3726C117.186 33.0484 117.609 32.8566 118.058 32.8373H120.021C120.482 32.8373 120.925 33.0206 121.251 33.347C121.577 33.6733 121.761 34.1159 121.761 34.5774C121.761 35.039 121.577 35.4816 121.251 35.8079C120.925 36.1343 120.482 36.3176 120.021 36.3176Z" fill="black"/>
<path d="M114.039 25.9556L108.52 35.3224H95.4763C91.7121 27.7119 84.0193 22.4446 75.1556 22.1931L76.3958 7.83154H104.492L114.039 25.9556Z" fill="#E1F5FF"/>
<path d="M108.52 37.064H95.4746C94.8134 37.064 94.2086 36.6899 93.9167 36.0964C90.3187 28.8148 83.1097 24.1556 75.1056 23.9347C74.8686 23.926 74.6359 23.8697 74.4211 23.7691C74.2064 23.6685 74.0141 23.5257 73.8557 23.3492C73.6977 23.1729 73.5776 22.9659 73.5029 22.7412C73.4283 22.5165 73.4007 22.2788 73.4219 22.0429L74.6621 7.68302C74.6993 7.24952 74.898 6.84581 75.2188 6.55189C75.5396 6.25797 75.9591 6.09529 76.3942 6.09607H104.49C105.135 6.09607 105.727 6.45249 106.027 7.02985L115.576 25.1491C115.857 25.6748 115.842 26.3199 115.537 26.8376L110.018 36.2077C109.864 36.4677 109.645 36.6833 109.382 36.8334C109.12 36.9835 108.823 37.063 108.52 37.064ZM96.5293 33.5837H107.527L112.049 25.9022L103.44 9.57316H77.9892L77.0393 20.5721C85.2337 21.4043 92.5104 26.2506 96.5293 33.5837Z" fill="#191F23"/>
<path d="M114.039 25.9556L108.52 35.3224H95.4763C91.7121 27.7119 84.0193 22.4446 75.1556 22.1931L76.3958 7.83154H104.492L114.039 25.9556Z" fill="#E1F5FF"/>
<path d="M108.52 37.064H95.4746C94.8134 37.064 94.2086 36.6899 93.9167 36.0964C90.3187 28.8148 83.1097 24.1556 75.1056 23.9347C74.8686 23.926 74.6359 23.8697 74.4211 23.7691C74.2064 23.6685 74.0141 23.5257 73.8557 23.3492C73.6977 23.1729 73.5776 22.9659 73.5029 22.7412C73.4283 22.5165 73.4007 22.2788 73.4219 22.0429L74.6621 7.68302C74.6993 7.24952 74.898 6.84581 75.2188 6.55189C75.5396 6.25797 75.9591 6.09529 76.3942 6.09607H104.49C105.135 6.09607 105.727 6.45249 106.027 7.02985L115.576 25.1491C115.857 25.6748 115.842 26.3199 115.537 26.8376L110.018 36.2077C109.864 36.4677 109.645 36.6833 109.382 36.8334C109.12 36.9835 108.823 37.063 108.52 37.064ZM96.5293 33.5837H107.527L112.049 25.9022L103.44 9.57316H77.9892L77.0393 20.5721C85.2337 21.4043 92.5104 26.2506 96.5293 33.5837Z" fill="#191F23"/>
<path d="M85.9466 25.2041C82.6642 23.3034 78.9528 22.2674 75.1606 22.1931L76.4153 7.83154H85.6128L85.9466 25.2041Z" fill="#B3DEF4"/>
<path d="M85.9481 26.9474C85.6465 26.9474 85.3465 26.8716 85.0756 26.7104C82.0439 24.964 78.6212 24.0094 75.1233 23.9348C74.8852 23.9293 74.6508 23.8751 74.4345 23.7754C74.2182 23.6757 74.0246 23.5327 73.8657 23.3553C73.7069 23.1778 73.5861 22.9697 73.5109 22.7437C73.4356 22.5177 73.4075 22.2787 73.4283 22.0415L74.6831 7.68155C74.7206 7.24819 74.9194 6.8447 75.2401 6.55085C75.5609 6.257 75.9802 6.09419 76.4152 6.09461H85.6126C86.5593 6.09461 87.3318 6.85905 87.3512 7.80089L87.685 25.1734C87.6963 25.8008 87.3705 26.3878 86.8303 26.7007C86.5577 26.862 86.2529 26.9474 85.9481 26.9474ZM77.0473 20.5642C79.4987 20.8109 81.8985 21.4222 84.1547 22.3721L83.908 9.5733H78.0069L77.0473 20.5642Z" fill="#191F23"/>
<path d="M103.196 30.9875C102.877 30.9865 102.563 30.8973 102.291 30.7298C102.018 30.5623 101.797 30.3229 101.651 30.0378C101.506 29.7528 101.442 29.4333 101.467 29.1143C101.491 28.7953 101.603 28.4892 101.79 28.2297L105.414 23.2398C105.547 23.0541 105.716 22.8966 105.911 22.7764C106.105 22.6561 106.321 22.5756 106.547 22.5393C106.773 22.503 107.004 22.5118 107.226 22.565C107.448 22.6182 107.658 22.7149 107.843 22.8495C108.62 23.4188 108.791 24.5042 108.228 25.2767L104.604 30.2666C104.444 30.4901 104.233 30.6721 103.988 30.7975C103.743 30.9228 103.472 30.988 103.196 30.9875Z" fill="black"/>
<path d="M110.378 32.3033C110.017 32.3033 109.654 32.1936 109.341 31.9549L104.412 28.2891C104.229 28.1535 104.075 27.983 103.957 27.7875C103.84 27.592 103.763 27.3753 103.73 27.1498C103.696 26.9244 103.708 26.6945 103.764 26.4735C103.819 26.2525 103.918 26.0447 104.054 25.8619C104.189 25.6766 104.359 25.52 104.555 25.4015C104.751 25.2829 104.969 25.2047 105.195 25.1715C105.422 25.1383 105.653 25.1507 105.875 25.2081C106.096 25.2654 106.304 25.3666 106.486 25.5055L111.415 29.1713C112.186 29.7406 112.346 30.834 111.771 31.5985C111.433 32.0565 110.909 32.3033 110.378 32.3033ZM74.4863 31.9114C74.0252 31.9105 73.5832 31.7268 73.2573 31.4006C72.9314 31.0744 72.7482 30.6323 72.7478 30.1712V27.5827C72.7377 27.3481 72.7751 27.1139 72.8579 26.8942C72.9408 26.6744 73.0672 26.4737 73.2296 26.3041C73.3921 26.1346 73.5871 25.9996 73.8031 25.9074C74.0191 25.8152 74.2515 25.7677 74.4863 25.7677C74.7211 25.7677 74.9535 25.8152 75.1695 25.9074C75.3855 25.9996 75.5805 26.1346 75.743 26.3041C75.9054 26.4737 76.0318 26.6744 76.1147 26.8942C76.1975 27.1139 76.235 27.3481 76.2248 27.5827V30.1712C76.2244 30.6323 76.0412 31.0744 75.7153 31.4006C75.3894 31.7268 74.9474 31.9105 74.4863 31.9114ZM62.7165 37.4205C62.3246 37.4205 61.9294 37.285 61.6037 37.0125L59.6006 35.3401C59.4254 35.1942 59.2806 35.0152 59.1746 34.8133C59.0686 34.6114 59.0034 34.3905 58.9829 34.1634C58.9624 33.9363 58.9869 33.7074 59.055 33.4898C59.123 33.2721 59.2334 33.0701 59.3797 32.8951C59.5255 32.7192 59.7046 32.5738 59.9068 32.4674C60.109 32.361 60.3302 32.2957 60.5578 32.2751C60.7853 32.2546 61.0147 32.2793 61.2327 32.3478C61.4507 32.4162 61.6529 32.5272 61.8278 32.6742L63.8309 34.3466C64.5679 34.9578 64.6663 36.0529 64.0518 36.7915C63.8896 36.9886 63.6857 37.1472 63.4548 37.256C63.2239 37.3648 62.9717 37.4209 62.7165 37.4205ZM56.538 50.4402C56.1056 50.4382 55.6894 50.2749 55.3709 49.9823C55.0525 49.6897 54.8546 49.2888 54.8161 48.858C54.7776 48.4272 54.9012 47.9976 55.1626 47.6531C55.4241 47.3086 55.8047 47.0741 56.23 46.9954L58.9846 46.4954C59.9313 46.2487 60.8344 46.9373 61.0053 47.8872C61.0467 48.1118 61.0433 48.3423 60.9952 48.5656C60.9472 48.7888 60.8555 49.0003 60.7254 49.188C60.5953 49.3756 60.4294 49.5357 60.2372 49.659C60.045 49.7823 59.8303 49.8664 59.6055 49.9064L56.8509 50.4063C56.7482 50.4295 56.6433 50.4408 56.538 50.4402ZM65.3033 63.1277C64.9977 63.1273 64.6975 63.0464 64.4331 62.8931C64.1688 62.7397 63.9495 62.5194 63.7974 62.2543C63.6453 61.9892 63.5657 61.6887 63.5668 61.383C63.5679 61.0774 63.6495 60.7775 63.8035 60.5134L65.3049 57.925C65.537 57.5263 65.9179 57.2362 66.3638 57.1184C66.8098 57.0006 67.2843 57.0648 67.6829 57.2968C68.0816 57.5288 68.3717 57.9097 68.4895 58.3557C68.6073 58.8017 68.5431 59.2762 68.3111 59.6748L66.8096 62.2633C66.6553 62.5258 66.4352 62.7435 66.171 62.8951C65.9069 63.0467 65.6079 63.1269 65.3033 63.1277ZM80.7454 64.5453C80.3856 64.5444 80.0349 64.4322 79.7415 64.224C79.4481 64.0158 79.2264 63.7218 79.1068 63.3825L78.1053 60.5473C77.9529 60.1129 77.9788 59.6358 78.1774 59.2205C78.376 58.8052 78.7311 58.4855 79.1649 58.3314C80.0745 58.0088 81.0631 58.4846 81.3824 59.3926L82.3839 62.2278C82.4761 62.4899 82.5042 62.7704 82.4658 63.0456C82.4274 63.3208 82.3237 63.5828 82.1632 63.8097C82.0028 64.0367 81.7904 64.2219 81.5437 64.3498C81.297 64.4778 81.0233 64.5448 80.7454 64.5453ZM91.5959 53.5286C91.3927 53.5286 91.1863 53.4948 90.9863 53.419L88.3156 52.4174C87.8839 52.2549 87.5344 51.9278 87.3436 51.5078C87.1528 51.0879 87.1364 50.6094 87.298 50.1773C87.6334 49.2774 88.6365 48.8194 89.5348 49.1581L92.2056 50.1596C92.5851 50.3044 92.902 50.5773 93.1016 50.9311C93.3012 51.2849 93.3708 51.6973 93.2985 52.097C93.2262 52.4967 93.0164 52.8586 92.7055 53.12C92.3946 53.3814 92.0021 53.526 91.5959 53.5286ZM87.7592 39.5929C87.156 39.5929 86.5706 39.2784 86.2497 38.7188C86.0207 38.318 85.9599 37.8428 86.0805 37.3973C86.2011 36.9518 86.4933 36.5722 86.8932 36.3416L89.23 35.0014C89.6305 34.7737 90.1048 34.7137 90.5493 34.8346C90.9938 34.9554 91.3724 35.2473 91.6024 35.6465C91.8313 36.0473 91.8922 36.5224 91.7716 36.968C91.651 37.4135 91.3587 37.7931 90.9589 38.0237L88.622 39.3639C88.3479 39.5171 88.0511 39.5929 87.7592 39.5929ZM26.6071 65.7H4.41888C3.97032 65.6807 3.54655 65.4889 3.23598 65.1647C2.92542 64.8405 2.75204 64.4088 2.75204 63.9599C2.75204 63.5109 2.92542 63.0793 3.23598 62.755C3.54655 62.4308 3.97032 62.239 4.41888 62.2197H26.6087C27.0572 62.2392 27.4809 62.4312 27.7913 62.7556C28.1017 63.08 28.2749 63.5117 28.2747 63.9606C28.2745 64.4096 28.1009 64.8412 27.7902 65.1653C27.4795 65.4893 27.0556 65.6809 26.6071 65.7Z" fill="black"/>
<path d="M76.5329 65.7003H54.3431C53.8946 65.6809 53.4708 65.4891 53.1602 65.1649C52.8497 64.8407 52.6763 64.4091 52.6763 63.9601C52.6763 63.5111 52.8497 63.0795 53.1602 62.7553C53.4708 62.431 53.8946 62.2393 54.3431 62.2199H76.5329C76.9815 62.2393 77.4053 62.431 77.7158 62.7553C78.0264 63.0795 78.1998 63.5111 78.1998 63.9601C78.1998 64.4091 78.0264 64.8407 77.7158 65.1649C77.4053 65.4891 76.9815 65.6809 76.5329 65.7003ZM122.762 65.7003H100.573C100.124 65.6809 99.7002 65.4891 99.3897 65.1649C99.0791 64.8407 98.9057 64.4091 98.9057 63.9601C98.9057 63.5111 99.0791 63.0795 99.3897 62.7553C99.7002 62.431 100.124 62.2393 100.573 62.2199H122.762C123.224 62.2199 123.666 62.4033 123.993 62.7296C124.319 63.056 124.502 63.4986 124.502 63.9601C124.502 64.4216 124.319 64.8642 123.993 65.1906C123.666 65.5169 123.224 65.7003 122.762 65.7003ZM56.5639 44.3039H47.4357C46.9746 44.3031 46.5327 44.1194 46.2068 43.7932C45.8809 43.467 45.6976 43.0249 45.6972 42.5638V37.9981C45.6972 37.0385 46.4745 36.2579 47.4357 36.2579H58.0863C58.6895 36.2579 59.2475 36.5724 59.5652 37.0804C59.8813 37.5981 59.9103 38.2352 59.641 38.7787C58.9201 40.2124 58.4766 41.5365 58.2847 42.8186C58.1557 43.675 57.4251 44.3039 56.5639 44.3039ZM49.1727 40.8236H55.1479C55.2414 40.4672 55.3495 40.1027 55.4737 39.7366H49.1727V40.8236Z" fill="black"/>
<path d="M1.73856 23.564H47.4116V43.9039H1.73856V23.564Z" fill="#85FF00"/>
<path d="M47.4116 45.6439H1.73854C1.27743 45.6431 0.835481 45.4594 0.50958 45.1332C0.183678 44.807 0.000426161 44.3649 0 43.9038V23.5606C0 22.601 0.777344 21.8204 1.73854 21.8204H47.4116C47.8727 21.8213 48.3146 22.005 48.6405 22.3312C48.9664 22.6574 49.1497 23.0995 49.1501 23.5606V43.9038C49.1497 44.3649 48.9664 44.807 48.6405 45.1332C48.3146 45.4594 47.8727 45.6431 47.4116 45.6439ZM3.47547 42.1652H45.673V25.3007H3.47547V42.1652Z" fill="black"/>
<path d="M25.4267 57.8105C27.5688 57.8105 29.3053 56.074 29.3053 53.9319C29.3053 51.7898 27.5688 50.0532 25.4267 50.0532C23.2845 50.0532 21.548 51.7898 21.548 53.9319C21.548 56.074 23.2845 57.8105 25.4267 57.8105Z" fill="#89A8EC"/>
<path d="M25.4266 59.5555C23.9518 59.5305 22.5458 58.9271 21.5117 57.8753C20.4776 56.8236 19.8981 55.4076 19.8981 53.9326C19.8981 52.4576 20.4776 51.0417 21.5117 49.9899C22.5458 48.9382 23.9518 48.3348 25.4266 48.3098C28.5246 48.3098 31.0438 50.8386 31.0438 53.9367C31.0438 57.0348 28.523 59.5555 25.4266 59.5555ZM25.4266 51.7885C24.8759 51.8147 24.3565 52.0518 23.9761 52.4508C23.5957 52.8497 23.3834 53.3798 23.3834 53.931C23.3834 54.4823 23.5957 55.0123 23.9761 55.4113C24.3565 55.8102 24.8759 56.0474 25.4266 56.0736C25.9846 56.0582 26.5147 55.8258 26.904 55.4257C27.2933 55.0255 27.5111 54.4893 27.5111 53.931C27.5111 53.3727 27.2933 52.8365 26.904 52.4364C26.5147 52.0362 25.9846 51.8038 25.4266 51.7885ZM16.8467 39.0929C15.8984 39.0929 15.1211 38.3285 15.1098 37.3786L15.0582 33.4822L10.3603 33.558H10.3329C9.87134 33.5618 9.42719 33.3822 9.09813 33.0586C8.76906 32.735 8.58204 32.2939 8.57819 31.8323C8.57434 31.3708 8.75398 30.9267 9.0776 30.5976C9.40122 30.2686 9.84231 30.0815 10.3038 30.0777L16.7451 29.9761C17.1999 30.0615 17.6531 30.1454 17.9837 30.468C18.3143 30.7905 18.5046 31.2324 18.5095 31.6904L18.5821 37.3254C18.5877 37.7868 18.4103 38.2317 18.0887 38.5626C17.7671 38.8936 17.3275 39.0837 16.8661 39.0913L16.8467 39.0929ZM37.2754 39.151C36.8143 39.1501 36.3724 38.9665 36.0464 38.6403C35.7205 38.3141 35.5373 37.8719 35.5369 37.4108V33.5064H30.8599C30.4113 33.4871 29.9876 33.2953 29.677 32.9711C29.3664 32.6468 29.1931 32.2152 29.1931 31.7662C29.1931 31.3173 29.3664 30.8856 29.677 30.5614C29.9876 30.2372 30.4113 30.0454 30.8599 30.0261H37.2738C37.7349 30.0269 38.1769 30.2106 38.5028 30.5368C38.8287 30.863 39.0119 31.3051 39.0123 31.7662V37.4108C39.0128 37.6392 38.9681 37.8654 38.881 38.0765C38.7939 38.2876 38.6661 38.4795 38.5047 38.6411C38.3434 38.8028 38.1518 38.931 37.9409 39.0185C37.7299 39.106 37.5038 39.151 37.2754 39.151Z" fill="black"/>
</svg>
