<svg width="123" height="74" viewBox="0 0 123 74" fill="none" xmlns="http://www.w3.org/2000/svg">
<path d="M26.9563 59.5996C26.9563 65.3589 22.072 70.0996 15.9563 70.0996C9.84063 70.0996 4.9563 65.3589 4.9563 59.5996C4.9563 53.8403 9.84063 49.0996 15.9563 49.0996C22.072 49.0996 26.9563 53.8403 26.9563 59.5996Z" stroke="black" stroke-width="2"/>
<ellipse cx="15.9563" cy="59.5995" rx="10.08" ry="9.66" fill="#D9D9D9"/>
<ellipse cx="15.9563" cy="59.5996" rx="9.12" ry="8.74" fill="#85FF00"/>
<ellipse cx="15.9562" cy="59.5996" rx="5.28" ry="5.06" fill="#5A5A5A"/>
<path d="M15.9563 45.0996L15.9563 48.0996" stroke="black" stroke-linecap="round"/>
<path d="M19.7092 45.5938L18.9328 48.4915" stroke="black" stroke-linecap="round"/>
<path d="M12.9799 70.7078L12.5969 72.1373" stroke="black" stroke-linecap="round"/>
<path d="M23.2064 47.0425L21.7064 49.6406" stroke="black" stroke-linecap="round"/>
<path d="M10.2064 69.5591L8.70642 72.1572" stroke="black" stroke-linecap="round"/>
<path d="M26.2095 49.3469L24.0882 51.4682" stroke="black" stroke-linecap="round"/>
<path d="M7.8247 67.7317L5.70338 69.853" stroke="black" stroke-linecap="round"/>
<path d="M28.5138 52.3501L25.9157 53.8501" stroke="black" stroke-linecap="round"/>
<path d="M5.99713 65.3501L3.39906 66.8501" stroke="black" stroke-linecap="round"/>
<path d="M29.9623 55.8472L27.0645 56.6236" stroke="black" stroke-linecap="round"/>
<path d="M4.84821 62.5764L1.95043 63.3529" stroke="black" stroke-linecap="round"/>
<path d="M30.4563 59.6001L27.4563 59.6001" stroke="black" stroke-linecap="round"/>
<path d="M4.4563 59.6001L1.4563 59.6001" stroke="black" stroke-linecap="round"/>
<path d="M29.9622 63.353L27.0644 62.5766" stroke="black" stroke-linecap="round"/>
<path d="M4.84809 56.6238L1.95031 55.8473" stroke="black" stroke-linecap="round"/>
<path d="M28.5135 66.8501L25.9155 65.3501" stroke="black" stroke-linecap="round"/>
<path d="M5.99689 53.8501L3.39882 52.3501" stroke="black" stroke-linecap="round"/>
<path d="M26.2091 69.853L24.0878 67.7317" stroke="black" stroke-linecap="round"/>
<path d="M7.82433 51.4683L5.70301 49.3469" stroke="black" stroke-linecap="round"/>
<path d="M23.2061 72.1572L21.7061 69.5592" stroke="black" stroke-linecap="round"/>
<path d="M10.2061 49.6406L8.70605 47.0425" stroke="black" stroke-linecap="round"/>
<path d="M19.4563 72.0996L19.0733 70.6704" stroke="black" stroke-linecap="round"/>
<path d="M12.9797 48.4918L12.2032 45.594" stroke="black" stroke-linecap="round"/>
<path d="M51.4563 50.5996L15.4563 59.5996L52.4563 58.0996L51.4563 50.5996Z" fill="#85FF00" stroke="black" stroke-linejoin="round"/>
<path d="M104.697 30.6217V18.5338C104.697 17.5721 103.918 16.7925 102.956 16.7925H100.221C99.2596 16.7925 98.48 17.5721 98.48 18.5338V29.9388L104.697 30.6217Z" fill="#85FF00"/>
<path d="M101.15 30.2319V18.5336C101.15 17.5718 101.93 16.7922 102.891 16.7922H100.221C99.2596 16.7922 98.48 17.5718 98.48 18.5336V29.9385L101.15 30.2319Z" fill="#65C200"/>
<path d="M114.004 31.6438L82.4055 28.1732L75.9553 7.08386H43.3986V33.9774C51.5963 30.4136 61.4891 31.9822 68.1928 38.6858C73.9669 44.4598 75.93 52.6 74.0865 59.9851H94.4671C94.4248 59.5518 94.4033 59.1167 94.4029 58.6814C94.4029 51.2952 100.39 45.3077 107.777 45.3077C110.981 45.3077 113.921 46.4359 116.224 48.3149V34.1818C116.224 32.9098 115.279 31.83 114.004 31.6438Z" fill="#85FF00"/>
<path d="M114.004 31.6438L82.4057 28.1732V35.81C82.4057 38.2917 84.4176 40.3036 86.8994 40.3036H116.224V34.1818C116.224 32.9098 115.279 31.83 114.004 31.6438Z" fill="#85FF00"/>
<path d="M87.6297 35.8096V28.7466L82.4057 28.1729V35.8096C82.4057 38.2913 84.4176 40.3033 86.8994 40.3033H92.1233C89.6416 40.3034 87.6297 38.2915 87.6297 35.8096Z" fill="#65C200"/>
<path d="M75.9553 7.08386H43.3986V28.1732H82.4057L75.9553 7.08386Z" fill="#C4E2FF"/>
<path d="M43.3986 7.08386H48.6226V28.1732H43.3986V7.08386Z" fill="#B3DAFE"/>
<path d="M48.6226 32.4297V28.1732H43.3986V33.9776C45.0703 33.2506 46.8247 32.7308 48.6226 32.4297Z" fill="#65C200"/>
<path d="M68.1926 38.6856C59.6699 30.1629 45.9915 29.938 37.1967 38.0112C36.8041 38.3716 36.7973 38.9898 37.1741 39.3666L39.5785 41.771L41.9429 39.4067C42.0407 39.3088 42.1569 39.2311 42.2848 39.1782C42.4126 39.1252 42.5497 39.0979 42.6881 39.0979C42.8265 39.0979 42.9635 39.1252 43.0914 39.1782C43.2193 39.2311 43.3354 39.3088 43.4333 39.4067C43.594 39.5668 43.802 39.6708 44.0265 39.7032C44.251 39.7356 44.48 39.6948 44.6794 39.5867C45.6526 39.0634 46.6761 38.6396 47.7344 38.3216C48.1812 38.1874 48.489 37.7796 48.489 37.3129V37.3126C48.489 37.0331 48.6001 36.765 48.7977 36.5674C48.9953 36.3697 49.2634 36.2587 49.5429 36.2587H55.4664C55.7459 36.2587 56.0139 36.3697 56.2115 36.5674C56.4092 36.765 56.5202 37.0331 56.5202 37.3126V37.3129C56.5206 37.5399 56.5943 37.7607 56.7303 37.9424C56.8663 38.1242 57.0573 38.2572 57.2749 38.3216C58.3332 38.6395 59.3567 39.0633 60.3299 39.5867C60.5293 39.6948 60.7583 39.7356 60.9828 39.7032C61.2072 39.6708 61.4153 39.5668 61.576 39.4067C61.6738 39.3088 61.79 39.2311 61.9179 39.1782C62.0457 39.1252 62.1828 39.0979 62.3212 39.0979C62.4596 39.0979 62.5966 39.1252 62.7245 39.1782C62.8523 39.2311 62.9685 39.3088 63.0664 39.4067L67.2548 43.5951C67.3527 43.6929 67.4303 43.8091 67.4833 43.937C67.5363 44.0648 67.5635 44.2019 67.5635 44.3403C67.5635 44.4787 67.5363 44.6157 67.4833 44.7436C67.4303 44.8714 67.3527 44.9876 67.2548 45.0855C67.0947 45.2462 66.9907 45.4542 66.9583 45.6787C66.9258 45.9032 66.9667 46.1321 67.0747 46.3316C67.5981 47.3048 68.0219 48.3283 68.3398 49.3865C68.4043 49.6041 68.5373 49.7951 68.7191 49.931C68.9008 50.067 69.1216 50.1406 69.3485 50.1411H69.3489C69.4873 50.1411 69.6243 50.1683 69.7522 50.2213C69.88 50.2742 69.9962 50.3519 70.0941 50.4497C70.1919 50.5476 70.2696 50.6638 70.3225 50.7916C70.3755 50.9195 70.4027 51.0565 70.4027 51.1949V57.1184C70.4027 57.3979 70.2917 57.6659 70.0941 57.8635C69.8964 58.0612 69.6284 58.1722 69.3489 58.1722H69.3485C69.1216 58.1726 68.9008 58.2463 68.719 58.3823C68.5373 58.5183 68.4043 58.7093 68.3398 58.9269C68.2323 59.2835 68.1127 59.6363 67.9813 59.9848H74.0865C75.9299 52.6 73.9669 44.4598 68.1926 38.6856Z" fill="#85FF00"/>
<path d="M75.9553 7.08386H54.6183V28.1732H82.4057L75.9553 7.08386Z" fill="#EAF6FF"/>
<path d="M63.0664 68.9069L67.2548 64.7185C67.3527 64.6207 67.4303 64.5045 67.4833 64.3766C67.5363 64.2488 67.5635 64.1117 67.5635 63.9733C67.5635 63.8349 67.5363 63.6979 67.4833 63.57C67.4303 63.4421 67.3527 63.326 67.2548 63.2281C67.0947 63.0674 66.9907 62.8594 66.9583 62.6349C66.9258 62.4104 66.9667 62.1814 67.0747 61.982C67.5981 61.0088 68.0219 59.9853 68.3398 58.927C68.4741 58.4802 68.8819 58.1724 69.3486 58.1724H69.3489C69.4873 58.1724 69.6243 58.1451 69.7522 58.0921C69.8801 58.0392 69.9962 57.9616 70.0941 57.8637C70.192 57.7658 70.2696 57.6497 70.3225 57.5218C70.3755 57.3939 70.4028 57.2569 70.4028 57.1185V51.195C70.4028 50.9155 70.2917 50.6475 70.0941 50.4499C69.8965 50.2522 69.6284 50.1412 69.3489 50.1412H69.3486C69.1216 50.1408 68.9008 50.0671 68.719 49.9311C68.5373 49.7951 68.4043 49.6041 68.3398 49.3865C68.022 48.3282 67.5981 47.3047 67.0747 46.3315C66.9667 46.1321 66.9258 45.9031 66.9583 45.6786C66.9907 45.4542 67.0947 45.2461 67.2548 45.0854C67.3527 44.9876 67.4303 44.8714 67.4833 44.7435C67.5363 44.6157 67.5635 44.4786 67.5635 44.3402C67.5635 44.2018 67.5363 44.0648 67.4833 43.9369C67.4303 43.8091 67.3527 43.6929 67.2548 43.595L63.0664 39.4066C62.9685 39.3087 62.8524 39.2311 62.7245 39.1781C62.5966 39.1251 62.4596 39.0979 62.3212 39.0979C62.1828 39.0979 62.0457 39.1251 61.9179 39.1781C61.79 39.2311 61.6738 39.3087 61.576 39.4066C61.4153 39.5667 61.2073 39.6707 60.9828 39.7032C60.7583 39.7356 60.5293 39.6947 60.3299 39.5867C59.3567 39.0634 58.3332 38.6395 57.2749 38.3216C56.8281 38.1874 56.5202 37.7795 56.5202 37.3129V37.3125C56.5202 37.033 56.4092 36.765 56.2116 36.5673C56.0139 36.3697 55.7459 36.2587 55.4664 36.2587H49.5429C49.2634 36.2587 48.9954 36.3697 48.7977 36.5673C48.6001 36.765 48.4891 37.033 48.4891 37.3125V37.3129C48.4886 37.5398 48.415 37.7606 48.279 37.9424C48.143 38.1241 47.952 38.2571 47.7344 38.3216C46.6761 38.6394 45.6526 39.0633 44.6794 39.5867C44.48 39.6947 44.251 39.7356 44.0265 39.7032C43.802 39.6707 43.594 39.5667 43.4333 39.4066C43.3355 39.3087 43.2193 39.2311 43.0914 39.1781C42.9636 39.1251 42.8265 39.0979 42.6881 39.0979C42.5497 39.0979 42.4127 39.1251 42.2848 39.1781C42.1569 39.2311 42.0408 39.3087 41.9429 39.4066L37.7545 43.595C37.6566 43.6929 37.579 43.8091 37.526 43.9369C37.473 44.0648 37.4457 44.2018 37.4457 44.3402C37.4457 44.4786 37.473 44.6157 37.526 44.7435C37.579 44.8714 37.6566 44.9876 37.7545 45.0854C37.9146 45.2461 38.0186 45.4542 38.051 45.6786C38.0835 45.9031 38.0426 46.1321 37.9346 46.3315C37.4112 47.3047 36.9874 48.3282 36.6695 49.3865C36.5352 49.8333 36.1274 50.1412 35.6607 50.1412H35.6604C35.3809 50.1412 35.1128 50.2522 34.9152 50.4499C34.7176 50.6475 34.6065 50.9155 34.6065 51.195V57.1185C34.6065 57.2569 34.6338 57.3939 34.6868 57.5218C34.7397 57.6497 34.8173 57.7658 34.9152 57.8637C35.0131 57.9616 35.1292 58.0392 35.2571 58.0921C35.385 58.1451 35.522 58.1724 35.6604 58.1724H35.6607C35.8877 58.1728 36.1085 58.2465 36.2902 58.3824C36.472 58.5184 36.605 58.7094 36.6695 58.927C36.9873 59.9853 37.4112 61.0089 37.9346 61.982C38.0426 62.1814 38.0835 62.4104 38.051 62.6349C38.0186 62.8594 37.9146 63.0674 37.7545 63.2281C37.6566 63.326 37.579 63.4421 37.526 63.57C37.473 63.6979 37.4457 63.8349 37.4457 63.9733C37.4457 64.1117 37.473 64.2488 37.526 64.3766C37.579 64.5045 37.6566 64.6207 37.7545 64.7185L41.9429 68.9069C42.0408 69.0048 42.1569 69.0825 42.2848 69.1354C42.4127 69.1884 42.5497 69.2157 42.6881 69.2157C42.8265 69.2157 42.9636 69.1884 43.0914 69.1354C43.2193 69.0825 43.3355 69.0048 43.4333 68.9069C43.594 68.7468 43.802 68.6428 44.0265 68.6104C44.251 68.578 44.48 68.6188 44.6794 68.7269C45.6526 69.2502 46.6761 69.674 47.7344 69.9919C48.1812 70.1262 48.4891 70.534 48.4891 71.0007V71.001C48.4891 71.2805 48.6001 71.5486 48.7977 71.7462C48.9954 71.9439 49.2634 72.0549 49.5429 72.0549H55.4664C55.7459 72.0549 56.0139 71.9439 56.2116 71.7462C56.4092 71.5486 56.5202 71.2805 56.5202 71.001V71.0007C56.5207 70.7737 56.5943 70.5529 56.7303 70.3712C56.8663 70.1894 57.0573 70.0564 57.2749 69.9919C58.3332 69.6741 59.3567 69.2503 60.3299 68.7269C60.5293 68.6188 60.7583 68.578 60.9828 68.6104C61.2073 68.6428 61.4153 68.7468 61.576 68.9069C61.6738 69.0048 61.79 69.0825 61.9179 69.1354C62.0457 69.1884 62.1828 69.2157 62.3212 69.2157C62.4596 69.2157 62.5966 69.1884 62.7245 69.1354C62.8524 69.0825 62.9685 69.0048 63.0664 68.9069Z" fill="#5A5A5A"/>
<path d="M45.717 65.9946C39.1794 59.4569 39.1794 48.8572 45.717 42.3195C48.7255 39.3111 52.5944 37.6907 56.5317 37.4511C56.5248 37.4055 56.5211 37.3594 56.5204 37.3132V37.3129C56.5204 37.0334 56.4093 36.7653 56.2117 36.5677C56.0141 36.3701 55.746 36.259 55.4665 36.259H49.5431C49.2636 36.259 48.9955 36.3701 48.7979 36.5677C48.6002 36.7653 48.4892 37.0334 48.4892 37.3129V37.3132C48.4888 37.5402 48.4151 37.761 48.2791 37.9427C48.1432 38.1245 47.9521 38.2575 47.7345 38.322C46.6762 38.6398 45.6527 39.0637 44.6795 39.5871C44.4801 39.6951 44.2512 39.736 44.0267 39.7035C43.8022 39.6711 43.5941 39.5671 43.4335 39.407C43.3356 39.3091 43.2194 39.2315 43.0916 39.1785C42.9637 39.1255 42.8267 39.0982 42.6883 39.0982C42.5498 39.0982 42.4128 39.1255 42.2849 39.1785C42.1571 39.2315 42.0409 39.3091 41.9431 39.407L37.7546 43.5954C37.6568 43.6933 37.5791 43.8094 37.5261 43.9373C37.4732 44.0652 37.4459 44.2022 37.4459 44.3406C37.4459 44.479 37.4732 44.6161 37.5261 44.7439C37.5791 44.8718 37.6568 44.988 37.7546 45.0858C37.9147 45.2465 38.0187 45.4545 38.0512 45.679C38.0836 45.9035 38.0428 46.1325 37.9347 46.3319C37.4113 47.3051 36.9875 48.3286 36.6696 49.3869C36.6051 49.6045 36.4721 49.7954 36.2903 49.9314C36.1086 50.0674 35.8878 50.1411 35.6609 50.1416H35.6605C35.381 50.1416 35.113 50.2526 34.9153 50.4502C34.7177 50.6479 34.6067 50.9159 34.6067 51.1954V57.1189C34.6067 57.3984 34.7177 57.6664 34.9153 57.8641C35.113 58.0617 35.381 58.1727 35.6605 58.1727H35.6609C35.8879 58.1732 36.1086 58.2468 36.2904 58.3828C36.4721 58.5188 36.6051 58.7098 36.6696 58.9274C36.9874 59.9857 37.4113 61.0091 37.9347 61.9822C38.0428 62.1816 38.0836 62.4106 38.0512 62.6351C38.0187 62.8596 37.9147 63.0676 37.7546 63.2283C37.6568 63.3262 37.5791 63.4423 37.5261 63.5702C37.4732 63.6981 37.4459 63.8351 37.4459 63.9735C37.4459 64.1119 37.4732 64.249 37.5261 64.3768C37.5791 64.5047 37.6568 64.6209 37.7546 64.7187L41.9431 68.9071C42.0409 69.005 42.1571 69.0826 42.2849 69.1356C42.4128 69.1886 42.5498 69.2159 42.6883 69.2159C42.8267 69.2159 42.9637 69.1886 43.0916 69.1356C43.2194 69.0826 43.3356 69.005 43.4335 68.9071C43.5941 68.747 43.8022 68.643 44.0267 68.6106C44.2512 68.5782 44.4801 68.619 44.6795 68.7271C45.6527 69.2504 46.6762 69.6742 47.7345 69.9921C48.1813 70.1264 48.4892 70.5342 48.4892 71.0009V71.0012C48.4892 71.2807 48.6002 71.5488 48.7979 71.7464C48.9955 71.944 49.2636 72.0551 49.5431 72.0551H55.4665C55.746 72.0551 56.0141 71.944 56.2117 71.7464C56.4093 71.5488 56.5204 71.2807 56.5204 71.0012V71.0009C56.5204 70.954 56.5256 70.9084 56.5317 70.863C52.5944 70.6234 48.7255 69.0031 45.717 65.9946Z" fill="#3C3C3C"/>
<path d="M52.5047 63.633C57.7382 63.633 61.9808 59.3904 61.9808 54.1569C61.9808 48.9234 57.7382 44.6808 52.5047 44.6808C47.2712 44.6808 43.0286 48.9234 43.0286 54.1569C43.0286 59.3904 47.2712 63.633 52.5047 63.633Z" fill="white"/>
<path d="M52.5047 59.4037C55.4025 59.4037 57.7515 57.0547 57.7515 54.1569C57.7515 51.2592 55.4025 48.9102 52.5047 48.9102C49.607 48.9102 47.2579 51.2592 47.2579 54.1569C47.2579 57.0547 49.607 59.4037 52.5047 59.4037Z" fill="#89A8EC"/>
<path d="M52.2773 57.8669C50.2283 55.8179 50.2283 52.4958 52.2773 50.4468C52.8319 49.8906 53.5049 49.4665 54.246 49.2063C52.4021 48.5592 50.2688 48.9726 48.7946 50.4468C46.7456 52.4958 46.7456 55.8179 48.7946 57.8669C50.2688 59.3411 52.4021 59.7545 54.246 59.1074C53.5049 58.8472 52.8319 58.4232 52.2773 57.8669Z" fill="#718DD9"/>
<path d="M107.777 72.0549C115.163 72.0549 121.15 66.0673 121.15 58.6812C121.15 51.2951 115.163 45.3075 107.777 45.3075C100.39 45.3075 94.4029 51.2951 94.4029 58.6812C94.4029 66.0673 100.39 72.0549 107.777 72.0549Z" fill="#5A5A5A"/>
<path d="M97.8854 58.6812C97.8854 51.8857 102.955 46.2779 109.518 45.424C108.94 45.3476 108.359 45.3087 107.776 45.3075C100.39 45.3075 94.4027 51.2952 94.4027 58.6812C94.4027 66.0674 100.39 72.0549 107.776 72.0549C108.367 72.0549 108.947 72.0126 109.518 71.9384C102.955 71.0845 97.8854 65.4769 97.8854 58.6812Z" fill="#3C3C3C"/>
<path d="M107.777 65.8982C111.762 65.8982 114.993 62.6671 114.993 58.6813C114.993 54.6955 111.762 51.4644 107.777 51.4644C103.791 51.4644 100.56 54.6955 100.56 58.6813C100.56 62.6671 103.791 65.8982 107.777 65.8982Z" fill="white"/>
<path d="M107.777 61.9326C109.572 61.9326 111.028 60.477 111.028 58.6814C111.028 56.8858 109.572 55.4302 107.777 55.4302C105.981 55.4302 104.525 56.8858 104.525 58.6814C104.525 60.477 105.981 61.9326 107.777 61.9326Z" fill="#89A8EC"/>
<path d="M107.079 58.6814C107.079 57.3392 107.893 56.1875 109.053 55.6912C108.65 55.5186 108.215 55.4298 107.777 55.4302C105.981 55.4302 104.525 56.8857 104.525 58.6814C104.525 60.4771 105.981 61.9326 107.777 61.9326C108.23 61.9326 108.662 61.8393 109.053 61.6716C107.893 61.1753 107.079 60.0236 107.079 58.6814Z" fill="#718DD9"/>
<path d="M77.8589 7.08392H41.6859C40.7242 7.08392 39.9446 6.30433 39.9446 5.34259V3.95702C39.9446 2.99529 40.7242 2.2157 41.6859 2.2157H77.8589C78.8207 2.2157 79.6003 2.99529 79.6003 3.95702V5.34259C79.6003 6.30433 78.8207 7.08392 77.8589 7.08392Z" fill="#85FF00"/>
<path d="M46.9099 5.34259V3.95702C46.9099 2.99529 47.6895 2.2157 48.6512 2.2157H41.6859C40.7242 2.2157 39.9446 2.99529 39.9446 3.95702V5.34259C39.9446 6.30433 40.7242 7.08392 41.6859 7.08392H48.6512C47.6896 7.08392 46.9099 6.30433 46.9099 5.34259Z" fill="#65C200"/>
<path d="M60.1288 46.5331C55.9249 42.329 49.0844 42.329 44.8807 46.5331C40.6768 50.737 40.6768 57.5772 44.8807 61.7811C46.9827 63.8831 49.7437 64.9342 52.5047 64.9342C55.2658 64.9342 58.0268 63.8831 60.1288 61.7811C64.3327 57.5772 64.3327 50.737 60.1288 46.5331ZM46.7276 59.9343C43.5421 56.7487 43.5421 51.5655 46.7276 48.3799C48.3203 46.7871 50.4125 45.9908 52.5047 45.9908C54.5969 45.9908 56.6891 46.7871 58.2819 48.3799C61.4673 51.5655 61.4673 56.7487 58.2819 59.9343C55.0962 63.1199 49.9131 63.1199 46.7276 59.9343Z" fill="black"/>
<path d="M57.1382 49.5235C54.5833 46.9684 50.4259 46.9684 47.871 49.5235C45.3162 52.0783 45.3162 56.2356 47.871 58.7906C49.1485 60.068 50.8266 60.7068 52.5045 60.7068C54.1825 60.7068 55.8606 60.068 57.138 58.7906C59.6931 56.2356 59.6931 52.0783 57.1382 49.5235ZM55.2914 56.9436C53.7548 58.4801 51.2546 58.4801 49.7181 56.9436C48.1815 55.407 48.1815 52.9069 49.7181 51.3703C50.4863 50.602 51.4956 50.2179 52.5047 50.2179C53.5138 50.2179 54.5231 50.602 55.2914 51.3703C56.8277 52.9069 56.8277 55.407 55.2914 56.9436ZM114.898 56.918C115.214 56.7761 115.461 56.5144 115.584 56.1906C115.707 55.8669 115.696 55.5075 115.554 55.1915C114.181 52.1341 111.128 50.1583 107.777 50.1583C103.077 50.1583 99.2539 53.9818 99.2539 58.6813C99.2539 63.3807 103.077 67.2042 107.777 67.2042C111.015 67.2042 113.932 65.4069 115.391 62.5139C115.547 62.2046 115.574 61.8461 115.465 61.5171C115.357 61.1881 115.122 60.9157 114.813 60.7598C114.504 60.6039 114.145 60.5772 113.816 60.6856C113.487 60.794 113.215 61.0287 113.059 61.338C112.047 63.3452 110.023 64.5922 107.777 64.5922C104.518 64.5922 101.866 61.9405 101.866 58.6813C101.866 55.422 104.518 52.7703 107.777 52.7703C110.101 52.7703 112.219 54.1409 113.172 56.2619C113.314 56.5778 113.575 56.8244 113.899 56.9474C114.223 57.0705 114.582 57.0599 114.898 56.918Z" fill="black"/>
<path d="M107.776 54.124C105.263 54.124 103.219 56.1683 103.219 58.6812C103.219 61.1941 105.263 63.2385 107.776 63.2385C110.289 63.2385 112.334 61.1941 112.334 58.6812C112.334 56.1683 110.289 54.124 107.776 54.124ZM107.776 60.6266C106.704 60.6266 105.831 59.7541 105.831 58.6814C105.831 57.6088 106.704 56.7362 107.776 56.7362C108.849 56.7362 109.722 57.6088 109.722 58.6814C109.722 59.7541 108.849 60.6266 107.776 60.6266Z" fill="black"/>
<path d="M121.15 70.7493H116.121C119.945 68.0967 122.456 63.6778 122.456 58.6814C122.456 54.3281 120.55 50.4134 117.53 47.7227V34.1817C117.53 32.2758 116.095 30.629 114.192 30.3514C114.177 30.3492 114.162 30.3472 114.146 30.3455L106.003 29.4512V27.2099C106.003 26.4887 105.419 25.9039 104.697 25.9039C103.976 25.9039 103.391 26.4887 103.391 27.2099V29.1644L99.7858 28.7684V18.5338C99.7858 18.2938 99.981 18.0984 100.221 18.0984H102.956C103.196 18.0984 103.391 18.2938 103.391 18.5338V20.9412C103.391 21.6624 103.976 22.2472 104.697 22.2472C105.419 22.2472 106.003 21.6624 106.003 20.9412V18.5338C106.003 16.8746 104.67 15.5236 103.019 15.4896V7.8229L104.653 6.597C104.79 6.4941 104.906 6.36518 104.993 6.21761C105.081 6.07003 105.138 5.90669 105.162 5.73691C105.187 5.56712 105.177 5.39423 105.135 5.22809C105.092 5.06195 105.017 4.90582 104.914 4.76862C104.811 4.63141 104.682 4.51582 104.535 4.42844C104.387 4.34106 104.224 4.2836 104.054 4.25934C103.884 4.23509 103.711 4.24451 103.545 4.28708C103.379 4.32964 103.223 4.40451 103.086 4.50742L100.929 6.12511C100.767 6.24676 100.635 6.4045 100.545 6.58584C100.454 6.76719 100.407 6.96715 100.407 7.1699V15.4865H100.221C98.541 15.4865 97.1739 16.8536 97.1739 18.5338V28.4814L83.403 26.9689L77.7203 8.38987H77.8589C79.5393 8.38987 80.9062 7.02276 80.9062 5.34256V3.95698C80.9062 2.27678 79.5391 0.909668 77.8589 0.909668H41.6859C40.0057 0.909668 38.6386 2.27678 38.6386 3.95698V5.34256C38.6386 7.02276 40.0057 8.38987 41.6859 8.38987H42.0925V33.1355C39.9834 34.1476 38.0359 35.4666 36.3134 37.0494C36.0918 37.254 35.9136 37.501 35.7895 37.7759C35.6654 38.0507 35.5979 38.3477 35.5911 38.6492C35.5852 38.953 35.6405 39.255 35.7538 39.537C35.8671 39.819 36.036 40.0753 36.2505 40.2906L37.7315 41.7716L36.8309 42.6722C35.9562 43.5468 35.913 44.943 36.7015 45.8693C36.202 46.8213 35.7898 47.8167 35.4701 48.8433C34.2576 48.9402 33.3005 49.9582 33.3005 51.1954V57.1189C33.3005 58.3559 34.2574 59.3737 35.4702 59.4711C35.7899 60.4976 36.2021 61.493 36.7017 62.4451C35.9132 63.3713 35.9564 64.7675 36.8311 65.6422L41.0197 69.8307C41.8943 70.7052 43.2905 70.7486 44.2167 69.9601C44.7797 70.254 45.358 70.5174 45.9492 70.7493H11.6065C11.2602 70.7493 10.928 70.8869 10.6831 71.1318C10.4381 71.3767 10.3005 71.7089 10.3005 72.0553C10.3005 72.4017 10.4381 72.7338 10.6831 72.9788C10.928 73.2237 11.2602 73.3613 11.6065 73.3613H121.15C121.872 73.3613 122.456 72.7765 122.456 72.0553C122.456 71.334 121.872 70.7493 121.15 70.7493ZM83.7117 29.6305L113.834 32.9391C114.454 33.0388 114.918 33.5698 114.918 34.1818V38.9976H86.8995C85.1417 38.9976 83.7117 37.5677 83.7117 35.8098V29.6305ZM80.6405 26.8672H65.0506C64.7042 26.8672 64.3721 27.0048 64.1271 27.2497C63.8822 27.4947 63.7446 27.8269 63.7446 28.1732C63.7446 28.5196 63.8822 28.8518 64.1271 29.0967C64.3721 29.3416 64.7042 29.4792 65.0506 29.4792H81.0997V35.8098C81.0997 39.0077 83.7014 41.6096 86.8995 41.6096H114.918V45.8623C112.736 44.6401 110.277 43.9993 107.776 44.0015C99.6828 44.0015 93.0981 50.5856 93.0967 58.6791H75.6965C76.298 55.2689 76.1522 51.7457 75.2579 48.3945C74.1884 44.3874 72.0647 40.7109 69.1161 37.7622C64.7628 33.4089 58.9764 30.9431 52.8229 30.8192C50.0249 30.764 47.2855 31.1948 44.7045 32.0703V29.4789H58.898C59.2444 29.4789 59.5766 29.3413 59.8215 29.0963C60.0664 28.8514 60.204 28.5192 60.204 28.1729C60.204 27.8265 60.0664 27.4943 59.8215 27.2494C59.5766 27.0045 59.2444 26.8669 58.898 26.8669H55.9243V8.38987H74.9889L80.6405 26.8672ZM44.7046 26.8672V8.38987H53.3125V26.8672H44.7046ZM41.6859 5.77789C41.5705 5.77775 41.4598 5.73184 41.3782 5.65023C41.2966 5.56862 41.2507 5.45797 41.2505 5.34256V3.95698C41.2505 3.71703 41.4459 3.52165 41.6859 3.52165H77.8589C78.0989 3.52165 78.2943 3.71703 78.2943 3.95698V5.34256C78.2943 5.58251 78.0989 5.77789 77.8589 5.77789H41.6859ZM52.7705 33.431C58.246 33.5412 63.3953 35.7353 67.2692 39.6094C69.8934 42.2335 71.7833 45.5044 72.7344 49.0682C73.5704 52.2007 73.6735 55.5026 73.0412 58.6793H71.1153C71.4976 58.2494 71.7088 57.6942 71.7087 57.1189V51.1954C71.7087 49.9584 70.7519 48.9406 69.539 48.8433C69.2194 47.8167 68.8072 46.8213 68.3076 45.8693C69.0961 44.943 69.0529 43.5468 68.1782 42.6722L63.9896 38.4836C63.1148 37.6089 61.7186 37.5657 60.7926 38.3542C59.8405 37.8547 58.8451 37.4425 57.8186 37.1228C57.7214 35.9101 56.7034 34.9531 55.4662 34.9531H49.5429C48.3059 34.9531 47.2881 35.9099 47.1907 37.1228C46.1642 37.4425 45.1688 37.8546 44.2167 38.3542C43.2907 37.5659 41.8947 37.6088 41.0197 38.4836L39.5787 39.9245L38.3681 38.714C42.3413 35.197 47.4396 33.3255 52.7705 33.431ZM55.2275 70.7493H49.782C49.6833 69.8091 49.0364 69.0196 48.1101 68.7414C47.1361 68.4485 46.194 68.0584 45.2981 67.5769C44.4469 67.119 43.4316 67.2201 42.6974 67.8146L38.8468 63.964C39.4417 63.2299 39.5425 62.2147 39.0847 61.3635C38.6032 60.4676 38.2131 59.5254 37.9203 58.5513C37.642 57.6253 36.8527 56.9784 35.9123 56.8796V51.4342C36.8525 51.3354 37.642 50.6885 37.9201 49.7623C38.2129 48.7883 38.6031 47.8461 39.0847 46.9503C39.5425 46.0989 39.4415 45.0839 38.8468 44.3498L42.6974 40.4992C43.4317 41.094 44.4469 41.1947 45.2979 40.737C46.1939 40.2556 47.1361 39.8655 48.1101 39.5726C49.0362 39.2944 49.6831 38.505 49.7818 37.5647H55.2273C55.326 38.5048 55.9729 39.2944 56.8991 39.5724C57.8732 39.8653 58.8153 40.2554 59.7112 40.737C60.5624 41.1948 61.5774 41.0938 62.3117 40.4992L66.1623 44.3498C65.5676 45.0841 65.4668 46.0993 65.9244 46.9503C66.4059 47.8462 66.796 48.7883 67.0888 49.7623C67.3671 50.6885 68.1564 51.3353 69.0968 51.4342V56.8796C68.1566 56.9784 67.3671 57.6253 67.0888 58.5515C66.796 59.5255 66.4059 60.4676 65.9244 61.3635C65.4668 62.2147 65.5676 63.2297 66.1623 63.964L62.3117 67.8146C61.5775 67.2201 60.5624 67.119 59.7112 67.5768C58.8153 68.0582 57.8732 68.4483 56.8991 68.7412C55.9731 69.0196 55.3262 69.809 55.2275 70.7493ZM59.0603 70.7493C59.6515 70.5174 60.2298 70.254 60.7927 69.9601C61.7189 70.7488 63.1153 70.7054 63.9898 69.8307L68.1784 65.6422C69.053 64.7675 69.0962 63.3711 68.3078 62.4451C68.5044 62.0672 68.6874 61.6823 68.8565 61.2913H93.3339C94.0379 65.1971 96.2898 68.5698 99.4322 70.7493H59.0603ZM95.7089 58.6814C95.7089 52.0271 101.122 46.6135 107.777 46.6135C114.431 46.6135 119.845 52.0271 119.845 58.6814C119.845 65.3355 114.431 70.7491 107.777 70.7491C101.122 70.7493 95.7089 65.3357 95.7089 58.6814Z" fill="black"/>
<path d="M80.4286 56.4666C80.775 56.4666 81.1072 56.329 81.3521 56.0841C81.597 55.8392 81.7346 55.507 81.7346 55.1606V48.69C81.7346 47.9688 81.15 47.384 80.4286 47.384C79.7072 47.384 79.1226 47.9688 79.1226 48.69V55.1606C79.1226 55.507 79.2602 55.8392 79.5051 56.0841C79.75 56.329 80.0822 56.4666 80.4286 56.4666ZM85.0119 56.4666C85.3583 56.4666 85.6905 56.329 85.9354 56.0841C86.1803 55.8392 86.3179 55.507 86.3179 55.1606V48.69C86.3179 47.9688 85.7334 47.384 85.0119 47.384C84.2905 47.384 83.7059 47.9688 83.7059 48.69V55.1606C83.7059 55.507 83.8435 55.8392 84.0885 56.0841C84.3334 56.329 84.6656 56.4666 85.0119 56.4666ZM89.5953 56.4666C89.9416 56.4666 90.2738 56.329 90.5188 56.0841C90.7637 55.8392 90.9013 55.507 90.9013 55.1606V48.69C90.9013 47.9688 90.3167 47.384 89.5953 47.384C88.8738 47.384 88.2893 47.9688 88.2893 48.69V55.1606C88.2893 55.507 88.4269 55.8392 88.6718 56.0841C88.9167 56.329 89.2489 56.4666 89.5953 56.4666Z" fill="black"/>
</svg>
