<svg width="118" height="72" viewBox="0 0 118 72" fill="none" xmlns="http://www.w3.org/2000/svg">
<path d="M1.2793 59.3377H80.2998V34.8975C80.2998 31.429 77.488 28.6174 74.0197 28.6174H42.9855C1.2793 28.6174 1.2793 28.1732 1.2793 42.2216V59.3377Z" fill="#74DE00"/>
<path d="M68.6241 28.6174H74.0197C77.4882 28.6174 80.2998 31.4292 80.2998 34.8975V59.3378H74.9042V34.8975C74.9044 31.4292 72.0926 28.6174 68.6241 28.6174Z" fill="#56A400"/>
<path d="M33.7576 28.6165C36.5814 28.6146 39.6495 28.6174 42.9856 28.6174H37.5902C36.271 28.6174 34.9942 28.6169 33.7576 28.6165Z" fill="#F2A846"/>
<path d="M51.3488 45.8414H1.27937V53.2055H51.3488V45.8414Z" fill="#C7C7C0"/>
<path d="M35.5997 34.1296L35.5994 1.98241L50.9978 1.98218C55.5746 1.98218 59.5575 5.11319 60.6381 9.56064L67.0978 36.1507V39.8277C60.5165 42.7416 55.9115 49.3305 55.9115 56.9789C55.9115 57.809 55.9719 58.5358 56.077 59.3377H48.5726C48.9906 57.6645 49.2133 55.9715 49.2133 54.1705C49.2133 45.0875 43.5668 37.299 35.5997 34.1296Z" fill="#74DE00"/>
<path d="M40.9513 27.8615L40.951 7.77565H50.8911C52.0963 7.77327 53.2672 8.17713 54.2148 8.92204C55.1623 9.66695 55.8311 10.7094 56.1133 11.8812L59.6561 26.4643C60.2181 28.7777 58.4658 31.0069 56.0851 31.0069H44.0964C42.3596 31.0066 40.9513 29.5985 40.9513 27.8615Z" fill="#68C0E0"/>
<path d="M75.36 36.1508H88.3477L103.404 63.197L98.3028 66.6287L82.1725 45.9473H75.3598C72.6544 45.9473 70.4616 43.7542 70.4616 41.0491C70.4619 38.3438 72.6547 36.1508 75.36 36.1508Z" fill="#74DE00"/>
<path d="M103.404 63.197L98.303 66.6287L86.8551 51.951V36.1508H88.3477L103.404 63.197Z" fill="#56A400"/>
<path d="M116.314 70.1493L98.3031 66.6287L92.2508 58.7491V38.0327H104.283L111.976 60.8449L116.314 66.6285V70.1493Z" fill="#74DE00"/>
<path d="M110.919 66.6285L106.58 60.8449L98.8872 38.0327H104.283L111.976 60.8449L116.314 66.6285V70.1493L110.919 69.0947V66.6285Z" fill="#56A400"/>
<path d="M74.6617 69.942C67.5024 69.942 61.6987 64.1383 61.6987 56.9791C61.6987 49.8198 67.5024 44.0161 74.6617 44.0161C81.8209 44.0161 87.6246 49.8198 87.6246 56.9791C87.6246 64.1383 81.8209 69.942 74.6617 69.942Z" fill="#494A47"/>
<path d="M82.2295 56.9789C82.2295 50.7449 77.8284 45.5405 71.964 44.2988C72.8509 44.1107 73.7551 44.0159 74.6617 44.0157C81.8209 44.0157 87.6246 49.8194 87.6246 56.9787C87.6246 64.1379 81.8209 69.9416 74.6617 69.9416C73.7365 69.9416 72.8344 69.8428 71.964 69.6585C77.8284 68.4173 82.2295 63.2129 82.2295 56.9789Z" fill="#333331"/>
<path d="M74.6616 62.6171C71.5477 62.6171 69.0234 60.0928 69.0234 56.9789C69.0234 53.865 71.5477 51.3407 74.6616 51.3407C77.7755 51.3407 80.2998 53.865 80.2998 56.9789C80.2998 60.0928 77.7755 62.6171 74.6616 62.6171Z" fill="#C7C7C0"/>
<path d="M74.9044 56.9789C74.9044 54.8423 73.7158 52.9835 71.9639 52.027C72.7913 51.5754 73.719 51.3393 74.6616 51.3407C77.7755 51.3407 80.2998 53.865 80.2998 56.9789C80.2998 60.0928 77.7755 62.6171 74.6616 62.6171C73.6843 62.6171 72.7651 62.3682 71.9639 61.9307C73.7158 60.9743 74.9044 59.1155 74.9044 56.9789Z" fill="#929292"/>
<path d="M27.6548 69.9418C18.9445 69.9418 11.8835 62.8808 11.8835 54.1706C11.8835 45.4603 18.9445 38.3993 27.6548 38.3993C36.365 38.3993 43.426 45.4603 43.426 54.1706C43.426 62.8808 36.365 69.9418 27.6548 69.9418Z" fill="#494A47"/>
<path d="M38.0307 54.1706C38.0307 46.3805 32.3814 39.9143 24.9571 38.6338C25.848 38.4788 26.7505 38.4003 27.6548 38.3993C36.3649 38.3993 43.426 45.4604 43.426 54.1706C43.426 62.8807 36.3649 69.9418 27.6548 69.9418C26.7344 69.9418 25.8342 69.8585 24.9571 69.7074C32.3814 68.4268 38.0307 61.9606 38.0307 54.1706Z" fill="#333331"/>
<path d="M27.6548 61.0303C23.8663 61.0303 20.7951 57.9591 20.7951 54.1706C20.7951 50.3821 23.8663 47.3109 27.6548 47.3109C31.4433 47.3109 34.5145 50.3821 34.5145 54.1706C34.5145 57.9591 31.4433 61.0303 27.6548 61.0303Z" fill="#C7C7C0"/>
<path d="M29.1192 54.1706C29.1192 51.3401 27.4044 48.9105 24.9571 47.8625C25.8096 47.4976 26.7275 47.3099 27.6548 47.3109C31.4432 47.3109 34.5145 50.3822 34.5145 54.1706C34.5145 57.9591 31.4432 61.0303 27.6548 61.0303C26.7275 61.0314 25.8096 60.8437 24.9571 60.4787C27.4044 59.4308 29.1192 57.0012 29.1192 54.1706Z" fill="#929292"/>
<path d="M24.5013 28.6157H30.2883V4.87569C30.2883 3.27778 28.9927 1.98218 27.3948 1.98218H19.2907V7.76921H24.5013V28.6157Z" fill="#494A47"/>
<path d="M117.05 71.0426C116.918 71.1511 116.764 71.2291 116.598 71.271C116.433 71.3129 116.26 71.3177 116.092 71.2849L98.0809 67.7643C97.8042 67.7102 97.5568 67.557 97.385 67.3336L97.3714 67.3157V67.316L88.7642 56.2803C88.7755 56.5118 88.782 56.7444 88.782 56.9785C88.782 64.7646 82.4478 71.0988 74.6617 71.0988C68.0892 71.0988 62.5513 66.5849 60.9844 60.4947H43.3531C40.8423 66.7044 34.7538 71.0988 27.6548 71.0988C20.5557 71.0988 14.4673 66.7044 11.9564 60.4947H1.27935C0.972384 60.4947 0.677996 60.3727 0.46094 60.1557C0.243884 59.9386 0.121941 59.6442 0.121941 59.3373V42.2211C0.121941 35.344 0.121947 31.1929 5.63745 29.2176C8.95157 28.0306 14.3673 27.6422 23.3437 27.5169V8.92645H19.2904C18.9835 8.92645 18.6891 8.80451 18.472 8.58745C18.255 8.37039 18.133 8.076 18.133 7.76904V1.98201C18.133 1.67505 18.255 1.38066 18.472 1.1636C18.6891 0.946546 18.9835 0.824606 19.2904 0.824606H27.3946C29.6282 0.824606 31.4455 2.64173 31.4455 4.87553V27.4621C32.4133 27.4602 33.4119 27.4591 34.442 27.4586L34.4418 1.98224C34.4418 1.67528 34.5637 1.38089 34.7808 1.16383C34.9979 0.946777 35.2923 0.824838 35.5992 0.824838L50.9976 0.824606H50.9978C53.4822 0.819718 55.8958 1.6522 57.8489 3.18766C59.802 4.72313 61.1807 6.87198 61.7624 9.28733L66.1772 27.4595L74.0193 27.4598C78.1205 27.4598 81.457 30.7963 81.457 34.8972V34.9931H88.3478C88.554 34.9931 88.7565 35.0482 88.9343 35.1527C89.1121 35.2573 89.2587 35.4074 89.3591 35.5875L91.0931 38.7026V38.0324C91.0931 37.7255 91.2151 37.4311 91.4321 37.214C91.6492 36.997 91.9436 36.875 92.2505 36.875H104.282C104.525 36.875 104.761 36.951 104.958 37.0923C105.154 37.2336 105.302 37.433 105.379 37.6625L113.013 60.2986L117.24 65.934C117.391 66.1344 117.472 66.378 117.472 66.6285V70.1493C117.472 70.4951 117.317 70.8229 117.05 71.0426ZM74.6617 68.7845C81.1712 68.7845 86.4672 63.4884 86.4672 56.9789C86.4689 55.1811 86.0574 53.407 85.2644 51.7935L82.2887 47.9783C80.2297 46.2308 77.5675 45.1734 74.6617 45.1734C68.152 45.1734 62.8559 50.4695 62.8559 56.9789C62.8559 63.4884 68.152 68.7845 74.6617 68.7845ZM47.6469 58.1803C47.9057 56.9241 48.0417 55.6456 48.0529 54.363H44.5786C44.5648 55.6495 44.4041 56.9303 44.0997 58.1803H47.6469ZM44.4457 52.0482H47.9436C47.765 50.3209 47.3646 48.6238 46.7522 46.9989H42.9846C43.7338 48.5948 44.2269 50.2988 44.4457 52.0482ZM27.655 68.7845C35.7131 68.7845 42.2689 62.2287 42.2689 54.1706C42.2689 46.1125 35.7131 39.5567 27.655 39.5567C19.5969 39.5567 13.0411 46.1125 13.0411 54.1706C13.0411 62.2287 19.5969 68.7845 27.655 68.7845ZM2.43675 58.1803H11.2101C10.9057 56.9303 10.745 55.6495 10.7312 54.363H2.43675V58.1803ZM2.43675 52.0482H10.8641C11.0831 50.2988 11.5762 48.5948 12.3254 46.9989H2.43675V52.0482ZM29.1309 4.87576C29.1309 3.91858 28.3522 3.13965 27.3948 3.13965H20.4481V6.61187H24.5013C24.8083 6.61187 25.1027 6.73381 25.3197 6.95086C25.5368 7.16792 25.6587 7.46231 25.6587 7.76927V27.4584H29.1309V4.87576ZM34.4423 29.7736C18.7803 29.7804 10.5698 29.9102 6.418 31.3973C5.28652 31.8026 4.47796 32.2947 3.89741 32.9723H34.4423V29.7736ZM35.3673 35.2871H2.83027C2.47171 36.8903 2.43675 39.0935 2.43675 42.2215V44.684H13.6414C16.6891 40.1963 21.833 37.2422 27.6548 37.2422C33.4765 37.2422 38.6205 40.1965 41.6682 44.684H45.7112C45.3303 43.9618 44.9066 43.263 44.4425 42.5912C42.1726 39.3111 39.0372 36.7908 35.3673 35.2871ZM65.9404 36.2894L59.5133 9.83409C59.0532 7.92336 57.9626 6.22345 56.4175 5.00881C54.8725 3.79417 52.9631 3.13568 50.9978 3.13965L36.7568 3.13988L36.7571 33.3591C40.6224 35.0535 43.9261 37.7773 46.346 41.2739C48.9788 45.0785 50.3707 49.5382 50.3707 54.1706C50.3721 55.5155 50.2506 56.8576 50.0075 58.1803H54.796C54.7677 57.7731 54.7543 57.3803 54.7543 56.9789C54.7543 49.3646 59.1205 42.4246 65.9406 39.0903L65.9404 36.2894ZM79.1427 34.8975C79.1427 32.0727 76.8445 29.7748 74.0198 29.7748L66.7399 29.7746L68.2226 35.8773C68.2443 35.9668 68.2554 36.0585 68.2554 36.1505V39.8276C68.2554 40.0517 68.1903 40.2711 68.068 40.459C67.9457 40.6468 67.7715 40.7952 67.5665 40.8859C61.1895 43.7093 57.0689 50.0262 57.0689 56.9787C57.0689 57.3822 57.0844 57.7697 57.117 58.1801H60.5957C60.5621 57.7836 60.5411 57.3836 60.5411 56.9787C60.5411 50.8579 64.4568 45.6361 69.914 43.6817C69.5134 42.8618 69.3049 41.9614 69.3045 41.0489C69.3045 37.7097 72.0209 34.9931 75.36 34.9931H79.1427V34.8975ZM91.0934 43.4621L87.6674 37.3081H75.36C73.2973 37.3081 71.6193 38.9864 71.6193 41.0491C71.6193 41.7959 71.8413 42.4903 72.2207 43.0741C73.0267 42.9318 73.8435 42.8596 74.6619 42.8586C77.1634 42.8565 79.62 43.5233 81.7772 44.7901H82.1728C82.5295 44.7901 82.8661 44.9544 83.0853 45.2357L83.9806 46.3836C85.3107 47.5543 86.4098 48.9636 87.2214 50.5387L91.0934 55.503V43.4621ZM115.157 67.0143L111.05 61.5393C110.976 61.441 110.918 61.3312 110.879 61.2146L103.451 39.1898H93.4082V58.3558L98.9547 65.5766L115.157 68.7435V67.0143Z" fill="black"/>
<path d="M56.0853 32.1642H44.0967C41.7242 32.1642 39.7939 30.2341 39.7939 27.8617L39.7937 7.77583C39.7937 7.46886 39.9156 7.17447 40.1327 6.95742C40.3497 6.74036 40.6441 6.61842 40.9511 6.61842H50.8911C52.356 6.61542 53.7791 7.10622 54.9308 8.01159C56.0824 8.91695 56.8952 10.184 57.2381 11.6082L60.7809 26.1913C60.9557 26.9022 60.9657 27.6436 60.8103 28.3589C60.6549 29.0742 60.3381 29.7446 59.8842 30.3189C59.4333 30.8955 58.8567 31.3615 58.1984 31.6813C57.54 32.0011 56.8173 32.1663 56.0853 32.1642ZM58.5316 26.7376L54.9888 12.1548C54.7674 11.2353 54.2426 10.4173 53.4991 9.83277C52.7556 9.24826 51.8368 8.93136 50.8911 8.93323H42.1085L42.1087 27.8617C42.1087 28.9577 43.0006 29.8494 44.0967 29.8494H56.0853C56.4667 29.8505 56.8432 29.7644 57.1862 29.5977C57.5292 29.4311 57.8296 29.1883 58.0645 28.8878C58.301 28.5887 58.466 28.2394 58.5469 27.8668C58.6279 27.4941 58.6226 27.1079 58.5316 26.7376ZM74.6617 50.1832C78.4089 50.1832 81.4573 53.2318 81.4573 56.9788C81.4573 60.7258 78.4087 63.7744 74.6617 63.7744C70.9147 63.7744 67.8661 60.7258 67.8661 56.9788C67.8661 53.2318 70.9147 50.1832 74.6617 50.1832ZM74.6617 61.4598C77.1325 61.4598 79.1425 59.4496 79.1425 56.979C79.1425 54.5082 77.1323 52.4982 74.6617 52.4982C72.1911 52.4982 70.1809 54.5084 70.1809 56.979C70.1809 59.4496 72.1909 61.4598 74.6617 61.4598ZM27.655 46.1536C32.0756 46.1536 35.6722 49.7501 35.6722 54.1707C35.6722 58.5913 32.0756 62.1878 27.655 62.1878C23.2344 62.1878 19.6379 58.5913 19.6379 54.1707C19.6379 49.7501 23.2344 46.1536 27.655 46.1536ZM27.655 59.873C30.7992 59.873 33.3573 57.3149 33.3573 54.1707C33.3573 51.0265 30.7992 48.4684 27.655 48.4684C24.5108 48.4684 21.9527 51.0265 21.9527 54.1707C21.9527 57.3149 24.5108 59.873 27.655 59.873Z" fill="black"/>
<path d="M86.2753 40.6051C85.6316 40.6051 85.1098 40.0832 85.1098 39.4396C85.1098 38.7959 85.6316 38.274 86.2753 38.274C86.919 38.274 87.4408 38.7959 87.4408 39.4396C87.4408 40.0832 86.919 40.6051 86.2753 40.6051Z" fill="black"/>
<path d="M74.4145 41.7708C74.1054 41.7708 73.8089 41.648 73.5903 41.4295C73.3718 41.2109 73.249 40.9144 73.249 40.6053C73.249 40.2962 73.3718 39.9998 73.5903 39.7812C73.8089 39.5626 74.1054 39.4398 74.4145 39.4398C74.7236 39.4398 75.02 39.5626 75.2386 39.7812C75.4572 39.9998 75.58 40.2962 75.58 40.6053C75.58 40.9144 75.4572 41.2109 75.2386 41.4295C75.02 41.648 74.7236 41.7708 74.4145 41.7708ZM95.7337 58.6085C95.4246 58.6085 95.1281 58.4858 94.9095 58.2672C94.6909 58.0486 94.5682 57.7522 94.5682 57.443C94.5682 57.1339 94.6909 56.8375 94.9095 56.6189C95.1281 56.4003 95.4246 56.2775 95.7337 56.2775C96.0428 56.2775 96.3392 56.4003 96.5578 56.6189C96.7764 56.8375 96.8992 57.1339 96.8992 57.443C96.8992 57.7522 96.7764 58.0486 96.5578 58.2672C96.3392 58.4858 96.0428 58.6085 95.7337 58.6085Z" fill="black"/>
</svg>
