<svg width="152" height="58" viewBox="0 0 152 58" fill="none" xmlns="http://www.w3.org/2000/svg">
<path d="M20.9581 27.272V25.2826C20.9581 22.6599 18.832 20.5338 16.2094 20.5338C13.5867 20.5338 11.4606 22.6599 11.4606 25.2826V38.0952H6.7511V25.2826C6.7511 20.059 10.9857 15.8243 16.2094 15.8243C21.433 15.8243 25.6676 20.059 25.6676 25.2826V27.272H20.9581Z" fill="#85FF00"/>
<path d="M8.7134 25.2826V38.0952H6.7511V25.2826C6.7511 20.059 10.9857 15.8243 16.2094 15.8243C16.5407 15.8243 16.868 15.8415 17.1905 15.8748C12.4279 16.3656 8.7134 20.3903 8.7134 25.2826Z" fill="#6CCF00"/>
<path d="M16.1702 54.8348H2.04163L3.0577 51.9496C3.2196 51.4898 3.52021 51.0916 3.91804 50.8099C4.31588 50.5282 4.79133 50.3769 5.27879 50.377H12.9331C13.4205 50.377 13.896 50.5283 14.2938 50.8099C14.6916 51.0916 14.9922 51.4898 15.1542 51.9496L16.1702 54.8348Z" fill="#85FF00"/>
<path d="M4.78882 50.377V47.6275C4.78882 46.9772 5.31597 46.4501 5.9662 46.4501H12.2455C12.8958 46.4501 13.4229 46.9772 13.4229 47.6275V50.377H4.78882Z" fill="#85FF00"/>
<path d="M40.0709 29.606V43.7345L37.1856 42.7184C36.7258 42.5565 36.3276 42.2559 36.0459 41.8581C35.7643 41.4602 35.613 40.9848 35.613 40.4973V32.843C35.6131 32.3556 35.7643 31.8802 36.046 31.4823C36.3277 31.0845 36.7259 30.7839 37.1856 30.622L40.0709 29.606Z" fill="#85FF00"/>
<path d="M35.6131 40.9873H33.6486C32.9983 40.9873 32.4712 40.4602 32.4712 39.8099V33.5306C32.4712 32.8803 32.9983 32.3532 33.6486 32.3532H35.6131V40.9873Z" fill="#85FF00"/>
<path d="M5.96619 46.45V38.4877C5.96619 37.8374 6.49334 37.3103 7.14356 37.3103H11.0682C11.7184 37.3103 12.2455 37.8374 12.2455 38.4877V46.45H5.96619ZM25.6677 30.064C25.6677 32.4121 27.5712 34.3156 29.9192 34.3156H32.471V39.0251L29.9153 39.0242C24.9679 39.0225 20.9581 35.0114 20.9581 30.064V29.2791H25.6677V30.064Z" fill="#85FF00"/>
<path d="M20.1732 27.2036V28.8866C20.1732 29.5368 20.7004 30.064 21.3506 30.064H25.2752C25.9254 30.064 26.4526 29.5368 26.4526 28.8866V27.2036H20.1732Z" fill="#85FF00"/>
<path d="M22.9017 18.599C22.9017 18.599 21.6161 19.5049 21.1151 19.5065C20.2128 19.5093 18.6564 18.2768 17.7596 18.1768C16.4223 18.0275 12.4418 19.0078 12.4418 19.0078C12.4418 19.0078 10.6142 20.4532 10.4402 21.1686C10.2113 22.1106 9.10586 23.8836 9.10586 23.8836L8.70986 26.1171C8.94212 27.5931 8.13216 29.0358 6.7511 29.606V25.2825C6.7511 20.0589 10.9857 15.8243 16.2094 15.8243C18.8235 15.8243 21.1898 16.8848 22.9017 18.599Z" fill="#0641A9"/>
<path d="M5.02 51.9496L4.00392 54.8348H2.04163L3.0577 51.9496C3.21962 51.4898 3.52023 51.0916 3.91806 50.8099C4.31589 50.5282 4.79134 50.377 5.27879 50.377H7.24109C6.75363 50.377 6.27819 50.5282 5.88036 50.8099C5.48253 51.0916 5.18192 51.4898 5.02 51.9496Z" fill="#6CCF00"/>
<path d="M6.75112 47.6274V50.377H4.78882V47.6275C4.78882 46.9772 5.31597 46.4501 5.9662 46.4501H7.92849C7.27827 46.45 6.75112 46.9772 6.75112 47.6274Z" fill="#6CCF00"/>
<path d="M7.92848 38.4877V46.45H5.96619V38.4877C5.96619 37.8374 6.49334 37.3103 7.14356 37.3103H9.10586C8.45564 37.3103 7.92848 37.8374 7.92848 38.4877Z" fill="#6CCF00"/>
<path d="M17.1905 15.8747C12.4279 16.3656 8.7134 20.3902 8.7134 25.2825V26.0972L8.70986 26.1171C8.7112 26.1259 8.71206 26.1346 8.7134 26.1432V27.0979C8.54864 28.1976 7.82165 29.164 6.7511 29.606V25.2825C6.7511 20.0589 10.9857 15.8243 16.2094 15.8243C16.5407 15.8243 16.868 15.8415 17.1905 15.8747Z" fill="#2977FF"/>
<path d="M0.471802 54.8348H17.74M16.1702 54.8348H2.04164L3.05772 51.9496C3.21961 51.4898 3.52022 51.0916 3.91806 50.8099C4.31589 50.5282 4.79134 50.3769 5.2788 50.377H12.9331C13.4205 50.377 13.896 50.5283 14.2938 50.8099C14.6916 51.0916 14.9922 51.4898 15.1542 51.9496L16.1702 54.8348Z" stroke="black" stroke-width="2" stroke-miterlimit="10"/>
<path d="M40.0709 28.0361V38.3405M40.0709 39.5179V45.3043M40.0709 43.7346L37.1856 42.7185C36.7259 42.5566 36.3276 42.256 36.046 41.8582C35.7643 41.4603 35.613 40.9849 35.6131 40.4974V32.8431C35.6131 32.3557 35.7643 31.8802 36.046 31.4824C36.3277 31.0846 36.7259 30.784 37.1856 30.622L40.0709 29.606M4.78882 50.377V47.6275C4.78882 46.9772 5.31597 46.4501 5.9662 46.4501H12.2455C12.8958 46.4501 13.4229 46.9772 13.4229 47.6275V50.377H4.78882Z" stroke="black" stroke-width="2" stroke-miterlimit="10"/>
<path d="M35.613 40.9873H33.6485C32.9982 40.9873 32.4711 40.4602 32.4711 39.8099V33.5306C32.4711 32.8804 32.9982 32.3532 33.6485 32.3532H35.613M25.6677 27.2723V25.2826C25.6677 22.6704 24.6088 20.3062 22.8977 18.5943C21.1858 16.8832 18.8216 15.8243 16.2094 15.8243C10.9857 15.8243 6.75111 20.0589 6.75111 25.2826V32.5705M6.75111 33.7479V37.3107M5.96619 46.45V38.4877C5.96619 37.8374 6.49334 37.3103 7.14356 37.3103H11.0682C11.7184 37.3103 12.2455 37.8374 12.2455 38.4877V46.45H5.96619Z" stroke="black" stroke-width="2" stroke-miterlimit="10"/>
<path d="M20.9582 27.2721V25.2826C20.9582 22.66 18.8321 20.5339 16.2095 20.5339C13.5868 20.5339 11.4607 22.66 11.4607 25.2826V37.3103M32.4712 39.0251L29.9155 39.0243C24.968 39.0226 20.9582 35.0115 20.9582 30.064M25.6677 30.064C25.6677 32.4121 27.5712 34.3156 29.9193 34.3156H32.4711" stroke="black" stroke-width="2" stroke-miterlimit="10"/>
<path d="M20.1733 27.2036V28.8866C20.1733 29.5368 20.7005 30.064 21.3507 30.064H25.2753C25.9255 30.064 26.4527 29.5368 26.4527 28.8866V27.2036H20.1733Z" stroke="black" stroke-width="2" stroke-miterlimit="10"/>
<path d="M6.7511 29.606C8.13216 29.0358 8.94212 27.593 8.70986 26.1171L9.10586 23.8837C9.10586 23.8837 10.2113 22.1106 10.4402 21.1687C10.6142 20.4532 12.4418 19.0079 12.4418 19.0079C12.4418 19.0079 16.4223 18.0275 17.7596 18.1768C18.6564 18.2769 20.2128 19.5094 21.1151 19.5066C21.616 19.505 22.9017 18.599 22.9017 18.599" stroke="black" stroke-width="2" stroke-miterlimit="10"/>
<path d="M9.10583 43.6461V42.4687M9.10583 41.2914V40.114" stroke="white" stroke-width="2" stroke-miterlimit="10"/>
<path d="M121.171 1.82434C119.186 1.82434 117.576 3.43419 117.576 5.41992V10.8133H124.767V5.41992C124.767 3.43419 123.157 1.82434 121.171 1.82434Z" fill="#74DE00"/>
<path d="M132.926 22.705L129.182 11.4743C128.944 10.7583 128.486 10.1357 127.874 9.69441C127.261 9.25318 126.526 9.01574 125.771 9.01575H108.587V41.3764H133.756V27.8217C133.756 26.0826 133.476 24.3548 132.926 22.705Z" fill="#74DE00"/>
<path d="M108.587 41.3764V32.5115C109.177 32.4377 109.774 32.3872 110.384 32.3872C116.419 32.3872 121.577 36.1077 123.712 41.3764H108.587Z" fill="#54A000"/>
<path d="M126.565 50.3656H113.98V41.3765H130.161V46.7698C130.161 48.7558 128.551 50.3656 126.565 50.3656Z" fill="#74DE00"/>
<path d="M124.767 46.7698C124.767 48.0139 124.593 49.2142 124.296 50.3654H113.98V41.3762H123.712C124.387 43.043 124.767 44.861 124.767 46.7698Z" fill="#54A000"/>
<path d="M110.385 50.3654H45.663C43.6773 50.3654 42.0675 48.7555 42.0675 46.7698V26.9939H110.385V50.3654Z" fill="#74DE00"/>
<path d="M45.6633 50.3654C43.6775 50.3654 42.0677 48.7555 42.0677 46.7698V26.9939H47.461V30.5895C47.4613 31.0662 47.6509 31.5233 47.9879 31.8604C48.325 32.1975 48.7821 32.387 49.2588 32.3873H58.248C65.0074 32.3873 70.7749 36.9853 72.2724 43.5692C72.4619 44.3943 73.1766 44.972 74.0141 44.972H94.6187C95.4456 44.972 96.1725 44.4066 96.3481 43.6272C97.7982 37.1224 103.703 32.3996 110.385 32.398V50.3656H45.6633V50.3654Z" fill="#54A000"/>
<path d="M110.385 30.5894H42.0674C40.0817 30.5894 38.4719 28.9796 38.4719 26.9938V5.41992C38.4719 3.43419 40.0817 1.82434 42.0674 1.82434H106.789C108.775 1.82434 110.385 3.43419 110.385 5.41992V30.5894Z" fill="#74DE00"/>
<path d="M110.384 55.7591C105.42 55.7591 101.395 51.7345 101.395 46.7699C101.395 41.8054 105.42 37.7808 110.384 37.7808C115.349 37.7808 119.374 41.8054 119.374 46.7699C119.374 51.7345 115.349 55.7591 110.384 55.7591Z" fill="#74DE00"/>
<path d="M58.2478 55.7591C53.2832 55.7591 49.2586 51.7345 49.2586 46.7699C49.2586 41.8054 53.2832 37.7808 58.2478 37.7808C63.2124 37.7808 67.2369 41.8054 67.2369 46.7699C67.2369 51.7345 63.2124 55.7591 58.2478 55.7591Z" fill="#74DE00"/>
<path d="M45.6632 30.5894H42.0676C40.0819 30.5894 38.4721 28.9796 38.4721 26.9938V5.41992C38.4721 3.43419 40.0819 1.82434 42.0676 1.82434H45.6632V30.5894Z" fill="#54A000"/>
<path d="M110.385 25.1958H45.663V30.5892H110.385V25.1958Z" fill="#54A000"/>
<path d="M42.0674 30.5892H45.663V25.1958H38.4718V26.9936C38.4718 28.9793 40.0817 30.5892 42.0674 30.5892Z" fill="#C9C5C9"/>
<path d="M125.771 9.01575C126.526 9.0157 127.261 9.25315 127.874 9.69444C128.486 10.1357 128.944 10.7585 129.182 11.4745L132.926 22.7053C133.476 24.3551 133.756 26.0828 133.756 27.8219V34.1852L122.969 30.5897C122.969 27.6108 120.555 25.1963 117.576 25.1963L110.385 9.01597H125.771V9.01575Z" fill="#A5E3F0"/>
<path d="M122.969 30.5894C122.969 27.6106 120.555 25.1961 117.576 25.1961H110.385V9.01575H115.778V18.0049C115.778 19.0103 116.603 19.7998 117.609 19.8027C122.155 19.8164 126.031 22.6456 127.603 26.6366C128.126 27.9652 129.464 28.7919 130.892 28.7919H133.756V34.1852H122.969V30.5894Z" fill="#7AD7EE"/>
<path d="M58.2659 46.7699H58.2485" stroke="black" stroke-width="3" stroke-miterlimit="10" stroke-linecap="round" stroke-linejoin="round"/>
<path d="M110.384 55.7591C105.42 55.7591 101.395 51.7345 101.395 46.7699C101.395 41.8054 105.42 37.7808 110.384 37.7808C115.349 37.7808 119.374 41.8054 119.374 46.7699C119.374 51.7345 115.349 55.7591 110.384 55.7591Z" stroke="black" stroke-width="3" stroke-miterlimit="10" stroke-linecap="round" stroke-linejoin="round"/>
<path d="M110.402 46.7697H110.385M67.2369 50.3655H101.396M130.161 41.3764V46.7697C130.161 48.7555 128.551 50.3653 126.565 50.3653H119.374M49.2588 50.3655H45.6632C43.6775 50.3655 42.0676 48.7557 42.0676 46.7699V30.5896M42.0676 30.5896H110.385M42.0676 30.5896C40.0819 30.5896 38.4718 28.9796 38.4718 26.9938V5.41992C38.4718 3.43419 40.0817 1.82434 42.0674 1.82434H106.789C108.775 1.82434 110.385 3.43419 110.385 5.41992V12.6113M110.385 30.5896V19.8025M110.385 30.5896V37.7808M149.937 48.9611L148.139 43.5675H137.352L135.554 48.9611M142.745 48.9611V43.5675M139.15 43.5675V41.3761M139.15 41.3761H142.745C144.731 41.3761 146.341 41.5816 146.341 43.5673M139.15 41.3761L117.576 41.3764M110.385 9.01572H125.771C126.526 9.01575 127.261 9.2532 127.874 9.69443C128.486 10.1357 128.944 10.7583 129.182 11.4742L132.926 22.705C133.476 24.3549 133.756 26.0826 133.756 27.8216V41.3764" stroke="black" stroke-width="3" stroke-miterlimit="10" stroke-linecap="round" stroke-linejoin="round"/>
<path d="M122.969 41.3764V30.5894C122.969 27.6106 120.555 25.196 117.576 25.196H110.385M124.767 9.01572V5.41992C124.767 3.43419 123.157 1.82434 121.171 1.82434C119.186 1.82434 117.576 3.43419 117.576 5.41992V9.0155M45.6633 1.82434V30.5894M72.6303 37.7808H96.002M130.161 34.185H133.756M66.1227 42.4318C66.8559 43.76 67.2393 45.2528 67.2369 46.7699C67.2369 51.7345 63.2123 55.7591 58.2478 55.7591C53.2832 55.7591 49.2586 51.7345 49.2586 46.7699C49.2586 41.8054 53.2832 37.7808 58.2478 37.7808C58.8634 37.7808 59.4647 37.8427 60.0458 37.9606" stroke="black" stroke-width="3" stroke-miterlimit="10" stroke-linecap="round" stroke-linejoin="round"/>
</svg>
