<svg width="104" height="78" viewBox="0 0 104 78" fill="none" xmlns="http://www.w3.org/2000/svg">
<path d="M81.2479 26.0024V34.1282L84.4982 40.6288H102.375L100.75 26.0024H81.2479Z" fill="#7CD4F2"/>
<path d="M94.2491 40.6287V47.1293L102.375 48.7544V40.6287H94.2491Z" fill="#85FF00"/>
<path d="M84.4982 69.8815C82.7031 69.8815 81.2479 68.4263 81.2479 66.6312C81.2479 64.8361 82.7031 63.3809 84.4982 63.3809C86.2933 63.3809 87.7485 64.8361 87.7485 66.6312C87.7485 68.4263 86.2933 69.8815 84.4982 69.8815Z" fill="#6ACB00"/>
<path d="M75.3161 69.8816C76.6325 73.6682 80.2566 76.3822 84.4982 76.3822C88.7398 76.3822 92.3639 73.6682 93.6803 69.8816C94.0541 68.8577 94.2491 67.7689 94.2491 66.6313C94.2491 61.252 89.8774 56.8804 84.4982 56.8804C79.119 56.8804 74.7473 61.252 74.7473 66.6313C74.7473 67.7689 74.9423 68.8577 75.3161 69.8816ZM81.2479 66.6313C81.2479 64.8436 82.7105 63.381 84.4982 63.381C86.2859 63.381 87.7485 64.8436 87.7485 66.6313C87.7485 68.4189 86.2859 69.8816 84.4982 69.8816C82.7105 69.8816 81.2479 68.4189 81.2479 66.6313Z" fill="#666666"/>
<path d="M74.7473 56.8801V66.631C74.7473 61.2517 79.1189 56.8801 84.4982 56.8801C89.8774 56.8801 94.2491 61.2517 94.2491 66.631C94.2491 67.7686 94.0541 68.8574 93.6803 69.8813H102.375V48.7543L94.2491 47.1292V40.6286H84.4982L81.2479 34.128V26.0022H100.75C100.75 23.7595 99.8396 21.7281 98.377 20.2492C96.8981 18.7865 94.8667 17.8765 92.6239 17.8765H74.7473V56.8801Z" fill="#85FF00"/>
<path d="M74.7473 66.6313V56.8804H56.8544C58.977 59.6877 60.1241 63.1118 60.1209 66.6313C60.1209 67.7526 60.0072 68.8415 59.7959 69.8816H75.3161C74.9423 68.8577 74.7473 67.7689 74.7473 66.6313ZM1.61553 56.8804V69.8816H8.44116C8.22989 68.8415 8.11613 67.7526 8.11613 66.6313C8.11613 62.9747 9.33499 59.5944 11.3827 56.8804H1.61553Z" fill="#7CD4F2"/>
<path d="M53.0515 69.8816C53.4253 68.8577 53.6203 67.7689 53.6203 66.6313C53.6203 61.252 49.2487 56.8804 43.8694 56.8804C38.4902 56.8804 34.1185 61.252 34.1185 66.6313C34.1185 72.0105 38.4902 76.3822 43.8694 76.3822C48.1111 76.3822 51.7352 73.6682 53.0515 69.8816ZM40.6191 66.6313C40.6191 64.8436 42.0818 63.381 43.8694 63.381C45.6571 63.381 47.1197 64.8436 47.1197 66.6313C47.1197 68.4189 45.6571 69.8816 43.8694 69.8816C42.0818 69.8816 40.6191 68.4189 40.6191 66.6313Z" fill="#666666"/>
<path d="M43.8695 69.8815C42.0744 69.8815 40.6191 68.4263 40.6191 66.6312C40.6191 64.8361 42.0744 63.3809 43.8695 63.3809C45.6645 63.3809 47.1198 64.8361 47.1198 66.6312C47.1198 68.4263 45.6645 69.8815 43.8695 69.8815Z" fill="#6ACB00"/>
<path d="M24.3676 69.8815C22.5725 69.8815 21.1173 68.4263 21.1173 66.6312C21.1173 64.8361 22.5725 63.3809 24.3676 63.3809C26.1627 63.3809 27.6179 64.8361 27.6179 66.6312C27.6179 68.4263 26.1627 69.8815 24.3676 69.8815Z" fill="#6ACB00"/>
<path d="M15.1855 69.8816C16.5019 73.6682 20.126 76.3822 24.3676 76.3822C29.7469 76.3822 34.1185 72.0105 34.1185 66.6313C34.1185 61.252 29.7469 56.8804 24.3676 56.8804C18.9884 56.8804 14.6167 61.252 14.6167 66.6313C14.6167 67.7689 14.8118 68.8577 15.1855 69.8816ZM21.1173 66.6313C21.1173 64.8436 22.58 63.381 24.3676 63.381C26.1553 63.381 27.6179 64.8436 27.6179 66.6313C27.6179 68.4189 26.1553 69.8816 24.3676 69.8816C22.58 69.8816 21.1173 68.4189 21.1173 66.6313Z" fill="#666666"/>
<path d="M43.8694 56.8802C49.2487 56.8802 53.6203 61.2519 53.6203 66.6311C53.6203 67.7687 53.4253 68.8576 53.0515 69.8814H59.7959C60.0072 68.8413 60.1209 67.7525 60.1209 66.6311C60.1209 62.9746 58.9021 59.5942 56.8544 56.8802C53.8966 52.9311 49.1837 50.3796 43.8694 50.3796C40.3513 50.3843 36.9296 51.5306 34.1185 53.6462C31.3075 51.5306 27.8858 50.3843 24.3676 50.3796C19.0534 50.3796 14.3405 52.9311 11.3827 56.8802C9.26009 59.6876 8.11303 63.1117 8.11614 66.6311C8.11614 67.7525 8.2299 68.8413 8.44117 69.8814H15.1855C14.8118 68.8576 14.6167 67.7687 14.6167 66.6311C14.6167 61.2519 18.9884 56.8802 24.3676 56.8802C29.7469 56.8802 34.1185 61.2519 34.1185 66.6311C34.1185 61.2519 38.4902 56.8802 43.8694 56.8802ZM11.3664 50.3796V8.12573C11.3664 8.12573 1.61554 13.0012 1.61554 29.2527C1.61554 45.5042 11.3664 50.3796 11.3664 50.3796ZM64.9964 8.12573V50.3796C64.9964 50.3796 74.7473 45.5042 74.7473 29.2527C74.7473 13.0012 64.9964 8.12573 64.9964 8.12573Z" fill="#6ACB00"/>
<path d="M11.3664 8.12573V50.3796H64.9964V8.12573H11.3664ZM25.9928 33.6731C25.9928 31.6579 26.6266 29.6915 27.8292 28.0176L37.3688 14.6263L46.9085 28.0176C48.0994 29.6631 48.742 31.6418 48.7449 33.6731C48.7449 36.5009 47.4123 39.0361 45.3158 40.8888C43.2194 42.7414 40.3916 43.879 37.3688 43.879C31.3395 43.879 25.9928 39.3124 25.9928 33.6731Z" fill="#85FF00"/>
<path d="M27.8292 28.0175C26.6382 29.663 25.9957 31.6417 25.9928 33.673C25.9928 39.3123 31.3395 43.8789 37.3688 43.8789C40.3916 43.8789 43.2194 42.7413 45.3158 40.8886C47.4123 39.036 48.7449 36.5007 48.7449 33.673C48.7449 31.6578 48.1111 29.6914 46.9085 28.0175L37.3688 14.6262L27.8292 28.0175Z" fill="#7CD4F2"/>
<path d="M64.9964 1.62524H50.37V8.12585H64.9964V1.62524ZM25.9928 1.62524H11.3664V8.12585H25.9928V1.62524Z" fill="#6ACB00"/>
<path d="M64.9964 26.0025C64.0988 26.0025 63.3712 25.2749 63.3712 24.3773C63.3712 23.4798 64.0988 22.7522 64.9964 22.7522C65.8939 22.7522 66.6215 23.4798 66.6215 24.3773C66.6215 25.2749 65.8939 26.0025 64.9964 26.0025Z" fill="#252525"/>
<path d="M84.4982 61.7559C87.1862 61.7559 89.3737 63.9433 89.3737 66.6313C89.3737 69.3193 87.1862 71.5068 84.4982 71.5068C81.8102 71.5068 79.6228 69.3193 79.6228 66.6313C79.6228 63.9433 81.8102 61.7559 84.4982 61.7559ZM84.4982 68.2565C85.3937 68.2565 86.1234 67.5268 86.1234 66.6313C86.1234 65.7359 85.3937 65.0062 84.4982 65.0062C83.6027 65.0062 82.8731 65.7359 82.8731 66.6313C82.8731 67.5268 83.6027 68.2565 84.4982 68.2565ZM43.8694 61.7559C46.5574 61.7559 48.7449 63.9433 48.7449 66.6313C48.7449 69.3193 46.5574 71.5068 43.8694 71.5068C41.1814 71.5068 38.994 69.3193 38.994 66.6313C38.994 63.9433 41.1814 61.7559 43.8694 61.7559ZM43.8694 68.2565C44.7649 68.2565 45.4946 67.5268 45.4946 66.6313C45.4946 65.7359 44.7649 65.0062 43.8694 65.0062C42.974 65.0062 42.2443 65.7359 42.2443 66.6313C42.2443 67.5268 42.974 68.2565 43.8694 68.2565ZM24.3676 61.7559C27.0556 61.7559 29.2431 63.9433 29.2431 66.6313C29.2431 69.3193 27.0556 71.5068 24.3676 71.5068C21.6796 71.5068 19.4922 69.3193 19.4922 66.6313C19.4922 63.9433 21.6796 61.7559 24.3676 61.7559ZM24.3676 68.2565C25.2631 68.2565 25.9928 67.5268 25.9928 66.6313C25.9928 65.7359 25.2631 65.0062 24.3676 65.0062C23.4722 65.0062 22.7425 65.7359 22.7425 66.6313C22.7425 67.5268 23.4722 68.2565 24.3676 68.2565Z" fill="#252525"/>
<path d="M1.61553 55.2551H10.6302C11.6429 54.0207 12.8164 52.9275 14.1194 52.0048H11.3681C11.1162 52.0048 10.8659 51.9463 10.6416 51.8342C10.2061 51.6164 -0.00799641 46.3135 -0.00799641 29.2527C-0.00799641 14.9238 7.17842 8.90745 9.74291 7.21242V1.62515C9.74291 1.19413 9.91412 0.780771 10.2189 0.475996C10.5237 0.171221 10.937 0 11.3681 0H25.9944C26.4254 0 26.8388 0.171221 27.1436 0.475996C27.4483 0.780771 27.6196 1.19413 27.6196 1.62515V6.5006H48.7465V1.62515C48.7465 1.19413 48.9177 0.780771 49.2225 0.475996C49.5273 0.171221 49.9406 0 50.3717 0H64.998C65.429 0 65.8424 0.171221 66.1472 0.475996C66.4519 0.780771 66.6232 1.19413 66.6232 1.62515V7.21242C68.2077 8.25901 71.5392 10.96 73.873 16.2515H92.6239C93.9066 16.2501 95.177 16.5015 96.3624 16.9915C97.5479 17.4814 98.6251 18.2003 99.5325 19.1069C101.333 20.915 102.353 23.3566 102.375 25.9081L104 40.5426V69.8815C104 70.3125 103.829 70.7258 103.524 71.0306C103.219 71.3354 102.806 71.5066 102.375 71.5066H94.7366C92.8856 75.4281 88.9267 78.0072 84.4998 78.0072C80.0729 78.0072 76.101 75.4216 74.2598 71.5066H54.1079C53.193 73.4489 51.745 75.0912 49.9326 76.2421C48.1202 77.3931 46.018 78.0052 43.8711 78.0072C39.7302 78.0072 36.111 75.7759 34.1202 72.4606C32.1294 75.7759 28.5101 78.0072 24.3693 78.0072C22.2217 78.0058 20.1189 77.394 18.3058 76.243C16.4928 75.092 15.0443 73.4494 14.1292 71.5066H1.61715C1.18614 71.5066 0.772773 71.3354 0.467998 71.0306C0.163223 70.7258 -0.00799641 70.3125 -0.00799641 69.8815V56.8803C-0.00799641 56.4492 0.163223 56.0359 0.467998 55.7311C0.772773 55.4263 1.18451 55.2551 1.61553 55.2551ZM99.2968 27.6276H82.873V33.7446L85.5025 39.0036H100.56L99.2968 27.6276ZM100.751 42.2539H95.8759V45.7967L100.751 46.7718V42.2539ZM76.8519 69.3468C77.9765 72.5825 81.0496 74.7569 84.4998 74.7569C87.95 74.7569 91.0215 72.5841 92.1543 69.324C92.4682 68.461 92.6277 67.5495 92.6256 66.6312C92.6256 62.1506 88.9804 58.5054 84.4998 58.5054C80.0193 58.5054 76.3741 62.1506 76.3741 66.6312C76.3741 67.564 76.5317 68.4692 76.8519 69.3468ZM76.3741 56.8803V58.6842C77.4308 57.5988 78.6942 56.7362 80.0899 56.1472C81.4855 55.5582 82.985 55.2549 84.4998 55.2551C90.7729 55.2551 95.8759 60.3581 95.8759 66.6312C95.8759 67.1821 95.8141 67.7216 95.7361 68.2563H100.75V50.0871L93.9306 48.7236C93.5623 48.65 93.2309 48.4511 92.9927 48.1608C92.7545 47.8704 92.6242 47.5065 92.6239 47.131V42.2555H84.4982C84.1964 42.2557 83.9005 42.1717 83.6438 42.013C83.3872 41.8542 83.1799 41.627 83.0453 41.3568L79.6244 34.5133V26.004C79.6244 25.573 79.7956 25.1597 80.1004 24.8549C80.4051 24.5501 80.8185 24.3789 81.2495 24.3789H98.8954C98.6157 23.2581 98.0424 22.2321 97.2345 21.4065C96.0104 20.1864 94.3522 19.502 92.6239 19.5034H76.3724V56.8819L76.3741 56.8803ZM24.3676 3.2503H12.9916V6.5006H24.3676V3.2503ZM63.3712 3.2503H51.9952V6.5006H63.3712V3.2503ZM66.6215 11.3468V17.8767C66.6215 18.3077 66.4503 18.721 66.1455 19.0258C65.8408 19.3306 65.4274 19.5018 64.9964 19.5018C64.5654 19.5018 64.152 19.3306 63.8472 19.0258C63.5425 18.721 63.3712 18.3077 63.3712 17.8767V9.7509H12.9916V32.503C12.9916 32.934 12.8204 33.3474 12.5156 33.6522C12.2108 33.9569 11.7974 34.1282 11.3664 34.1282C10.9354 34.1282 10.5221 33.9569 10.2173 33.6522C9.9125 33.3474 9.74128 32.934 9.74128 32.503V11.3484C7.11341 13.817 3.24068 19.1621 3.24068 29.2527C3.24068 39.3433 7.11504 44.6933 9.74128 47.1586V40.6288C9.74128 40.1977 9.9125 39.7844 10.2173 39.4796C10.5221 39.1748 10.9354 39.0036 11.3664 39.0036C11.7974 39.0036 12.2108 39.1748 12.5156 39.4796C12.8204 39.7844 12.9916 40.1977 12.9916 40.6288V48.7545H63.3712V30.8779C63.3712 30.4468 63.5425 30.0335 63.8472 29.7287C64.152 29.4239 64.5654 29.2527 64.9964 29.2527C65.4274 29.2527 65.8408 29.4239 66.1455 29.7287C66.4503 30.0335 66.6215 30.4468 66.6215 30.8779V47.157C69.2494 44.6884 73.1221 39.3433 73.1221 29.2527C73.1221 19.1621 69.2478 13.8122 66.6215 11.3468ZM73.1221 43.8271C70.0912 49.572 65.9959 51.696 65.7228 51.8325C65.4969 51.9447 65.2483 52.0032 64.9964 52.0032H54.1193C55.4218 52.9259 56.5947 54.0191 57.6068 55.2535H73.1221V43.8271ZM61.6648 68.2547H73.2619C73.1839 67.7184 73.1221 67.1788 73.1221 66.6295V58.5038H59.7829C61.3295 61.5073 61.9826 64.8913 61.6648 68.2547ZM43.8694 74.7553C45.5517 74.7576 47.1929 74.2356 48.5647 73.2619C49.9366 72.2882 50.9709 70.9112 51.5239 69.3224C51.8378 68.4594 51.9973 67.5479 51.9952 66.6295C51.9952 62.149 48.35 58.5038 43.8694 58.5038C39.3889 58.5038 35.7437 62.149 35.7437 66.6295C35.7437 71.1101 39.3889 74.7553 43.8694 74.7553ZM16.7197 69.3452C17.2755 70.929 18.3103 72.3008 19.6807 73.2702C21.051 74.2396 22.6891 74.7586 24.3676 74.7553C28.8482 74.7553 32.4934 71.1101 32.4934 66.6295C32.4934 62.149 28.8482 58.5038 24.3676 58.5038C19.8871 58.5038 16.2419 62.149 16.2419 66.6295C16.2419 67.5624 16.3995 68.4676 16.7197 69.3452ZM9.83716 68.2547H13.1313C13.0533 67.7184 12.9916 67.1788 12.9916 66.6295C12.9916 60.3565 18.0946 55.2535 24.3676 55.2535C28.5085 55.2535 32.1277 57.4848 34.1185 60.8001C36.1093 57.4848 39.7286 55.2535 43.8694 55.2535C50.1425 55.2535 55.2455 60.3565 55.2455 66.6295C55.2455 67.1805 55.1837 67.72 55.1057 68.2547H58.3999C58.8285 64.5504 57.809 60.8238 55.5543 57.8537C54.2018 56.0305 52.4395 54.551 50.4097 53.5347C48.3799 52.5184 46.1395 51.9937 43.8694 52.0032C40.6988 52.0032 37.6646 53.0205 35.092 54.9463C34.8111 55.1568 34.4695 55.2705 34.1185 55.2705C33.7675 55.2705 33.426 55.1568 33.1451 54.9463C30.6178 53.0357 27.5359 52.0023 24.3676 52.0032C22.0969 51.994 19.8557 52.519 17.8253 53.5359C15.795 54.5528 14.0322 56.033 12.6796 57.857C10.427 60.8268 9.40865 64.5519 9.83716 68.2547ZM3.24068 68.2547H6.57224C6.25415 64.8913 6.90728 61.5072 8.45416 58.5038H3.24068V68.2547Z" fill="#252525"/>
<path d="M46.3933 42.1077C43.9008 44.3029 40.6918 45.5109 37.3705 45.5043C30.3238 45.5043 24.3693 40.0877 24.3693 33.6732C24.37 31.3038 25.1178 28.995 26.5063 27.0751L36.046 13.6838C36.6554 12.8274 38.0839 12.8274 38.6933 13.6838L48.2297 27.0702C49.6211 28.9908 50.3707 31.3016 50.3717 33.6732C50.3717 36.8439 48.9594 39.8406 46.3933 42.1077ZM45.5856 28.9619L37.3688 17.4282L29.1488 28.9668C28.1477 30.3611 27.6179 31.9879 27.6179 33.6732C27.6179 38.3244 32.0839 42.254 37.3688 42.254C39.8976 42.2605 42.3414 41.342 44.24 39.6716C46.0975 38.0302 47.1197 35.9013 47.1197 33.6748C47.1197 31.9895 46.5899 30.3611 45.5856 28.9619Z" fill="#252525"/>
<path d="M37.3688 39.0037C33.7838 39.0037 30.8682 36.0882 30.8682 32.5031C30.8682 32.0721 31.0395 31.6587 31.3442 31.3539C31.649 31.0491 32.0624 30.8779 32.4934 30.8779C32.9244 30.8779 33.3378 31.0491 33.6425 31.3539C33.9473 31.6587 34.1185 32.0721 34.1185 32.5031C34.1185 34.2956 35.5763 35.7534 37.3688 35.7534C37.7999 35.7534 38.2132 35.9246 38.518 36.2294C38.8228 36.5341 38.994 36.9475 38.994 37.3785C38.994 37.8095 38.8228 38.2229 38.518 38.5277C38.2132 38.8325 37.7999 39.0037 37.3688 39.0037Z" fill="#252525"/>
</svg>
