<svg width="102" height="70" viewBox="0 0 102 70" fill="none" xmlns="http://www.w3.org/2000/svg">
<path d="M79.7671 7.94031L73.4148 34.9374L76.5909 49.23L84.5313 17.4687L79.7671 7.94031Z" fill="#85FF00"/>
<path d="M84.5313 17.4688L90.8835 34.9376V34.4135C90.8899 33.8426 91.0178 33.2797 91.2587 32.7621C91.4997 32.2446 91.8482 31.7843 92.281 31.412C93.2145 30.6022 94.4119 30.1616 95.6477 30.1734C96.6507 30.1646 97.634 30.4519 98.4745 30.9991L86.4211 5.14543C86.2196 4.72793 85.9367 4.35488 85.5891 4.04817C85.2415 3.74147 84.8361 3.50728 84.3968 3.35935C83.9575 3.21143 83.493 3.15274 83.0307 3.18675C82.5684 3.22075 82.1175 3.34675 81.7045 3.55736C81.0125 4.04177 80.4662 4.70622 80.1247 5.47879C79.7832 6.25136 79.6596 7.10262 79.7671 7.94043L84.5313 17.4688Z" fill="#595959"/>
<path d="M90.8835 34.9375V39.7017L91.1059 39.9082C91.6023 39.3444 92.2131 38.8927 92.8977 38.5833C93.5822 38.2739 94.3248 38.1138 95.076 38.1137C96.3938 38.1075 97.6668 38.5919 98.6472 39.4725C99.6276 40.3531 100.245 41.5669 100.38 42.8779H100.412V34.4135C100.402 33.7295 100.22 33.059 99.8808 32.4648C99.542 31.8705 99.0582 31.3717 98.4745 31.015V30.9991C97.634 30.4518 96.6507 30.1646 95.6477 30.1733C94.412 30.1616 93.2145 30.6022 92.281 31.412C91.8482 31.7843 91.4997 32.2446 91.2588 32.7621C91.0178 33.2796 90.8899 33.8426 90.8835 34.4135V34.9375Z" fill="#85FF00"/>
<path d="M36.8893 47.769V60.3465H41.6535L42.4634 60.0448C41.9252 58.6187 41.6507 57.1066 41.6535 55.5823C41.6535 52.2129 42.992 48.9814 45.3746 46.5989C47.7571 44.2163 50.9886 42.8778 54.358 42.8778C57.7275 42.8778 60.9589 44.2163 63.3415 46.5989C65.724 48.9814 67.0625 52.2129 67.0625 55.5823C67.0653 57.1066 66.7908 58.6187 66.2526 60.0448L67.0625 60.3465H71.8267V47.769C71.8267 40.6545 68.8253 36.8114 64.2358 34.9375H63.8864L63.8546 34.7787C60.8008 33.7351 57.5837 33.251 54.358 33.3494C44.7343 33.3494 36.9528 36.2714 36.8893 47.642V47.769Z" fill="#7BED00"/>
<path d="M28.9489 58.7584C28.9489 55.8102 27.7778 52.9826 25.693 50.8979C23.6083 48.8132 20.7808 47.642 17.8325 47.642C14.8842 47.642 12.0567 48.8132 9.97195 50.8979C7.88721 52.9826 6.71602 55.8102 6.71602 58.7584H9.89215L10.051 58.7743C10.4154 56.9793 11.3893 55.3656 12.8074 54.2064C14.2256 53.0473 16.0009 52.4141 17.8325 52.4141C19.6641 52.4141 21.4394 53.0473 22.8575 54.2064C24.2757 55.3656 25.2495 56.9793 25.614 58.7743L25.7728 58.7584H28.9489Z" fill="#6E6E6E"/>
<path d="M9.89216 15.8809V31.7615H14.6564V19.057L9.89216 15.8809Z" fill="#595959"/>
<path d="M32.1251 7.94036V47.642H36.8893C36.9528 36.2715 44.7343 33.3494 54.358 33.3494C57.5837 33.251 60.8008 33.7352 63.8546 34.7787L57.5341 6.35229H33.7131C33.292 6.35229 32.888 6.51961 32.5902 6.81743C32.2924 7.11525 32.1251 7.51918 32.1251 7.94036Z" fill="#64E1DC"/>
<path d="M41.6535 55.5825C41.6535 58.9519 42.992 62.1834 45.3745 64.5659C47.7571 66.9485 50.9885 68.287 54.358 68.287C57.7275 68.287 60.9589 66.9485 63.3415 64.5659C65.724 62.1834 67.0625 58.9519 67.0625 55.5825C67.0625 52.213 65.724 48.9816 63.3415 46.599C60.9589 44.2164 57.7275 42.8779 54.358 42.8779C50.9885 42.8779 47.7571 44.2164 45.3745 46.599C42.992 48.9816 41.6535 52.213 41.6535 55.5825Z" fill="#383838"/>
<path d="M78.179 53.9945V60.3468H97.2358C98.0774 60.3442 98.8838 60.0088 99.4789 59.4137C100.074 58.8186 100.409 58.0122 100.412 57.1706V43.4497C100.412 43.2592 100.396 43.0686 100.38 42.878C100.245 41.5671 99.6276 40.3533 98.6472 39.4727C97.6668 38.5921 96.3938 38.1077 95.076 38.1138C94.3248 38.114 93.5822 38.2741 92.8977 38.5835C92.2131 38.8929 91.6023 39.3445 91.1059 39.9083C91.0265 39.9877 90.9471 40.083 90.8677 40.1783L78.179 53.9945Z" fill="#5CB100"/>
<path d="M27.3609 31.7614H9.89218L1.95185 38.1137V61.9346H5.12798L6.71605 58.7585C6.71605 55.8102 7.88724 52.9827 9.97198 50.898C12.0567 48.8132 14.8842 47.6421 17.8325 47.6421C20.7808 47.6421 23.6083 48.8132 25.693 50.898C27.7778 52.9827 28.949 55.8102 28.949 58.7585L30.537 60.3466H36.8893V47.6421H32.1251V7.9404C32.1251 7.51922 32.2924 7.11529 32.5902 6.81747C32.8881 6.51965 33.292 6.35233 33.7132 6.35233H58.3282C58.96 6.35233 59.5659 6.10136 60.0126 5.65463C60.4593 5.2079 60.7103 4.60201 60.7103 3.97023C60.7103 3.33846 60.4593 2.73257 60.0126 2.28584C59.5659 1.8391 58.96 1.58813 58.3282 1.58813H30.537C29.6955 1.59065 28.8891 1.92608 28.294 2.52118C27.6989 3.11628 27.3634 3.92268 27.3609 4.76427V31.7614Z" fill="#7BED00"/>
<path d="M80.4468 4.78811C80.7338 4.26153 81.1718 3.8329 81.7045 3.55736C82.1175 3.34675 82.5684 3.22075 83.0307 3.18675C83.493 3.15274 83.9575 3.21143 84.3968 3.35935C84.8361 3.50728 85.2415 3.74147 85.5891 4.04817C85.9367 4.35488 86.2196 4.72793 86.4211 5.14543L98.4745 30.9991C97.634 30.4519 96.6507 30.1646 95.6477 30.1734C95.1808 30.1787 94.7166 30.2465 94.2677 30.375L83.2449 6.73349C82.9828 6.19777 82.5882 5.73788 82.0985 5.39743C81.6088 5.05698 81.0402 4.84724 80.4468 4.78811Z" fill="#6E6E6E"/>
<path d="M92.281 31.412C93.2145 30.6022 94.412 30.1616 95.6477 30.1733C96.6507 30.1646 97.634 30.4518 98.4745 30.9991V31.015C99.0582 31.3717 99.542 31.8705 99.8808 32.4648C100.22 33.059 100.402 33.7295 100.412 34.4135V37.5896C100.402 36.9056 100.22 36.2352 99.8808 35.6409C99.542 35.0466 99.0582 34.5479 98.4745 34.1911V34.1753C97.634 33.628 96.6507 33.3407 95.6477 33.3495C94.412 33.3377 93.2145 33.7783 92.281 34.5881C91.8482 34.9604 91.4997 35.4207 91.2588 35.9382C91.0178 36.4558 90.8899 37.0187 90.8835 37.5896V34.4135C90.8899 33.8426 91.0178 33.2796 91.2588 32.7621C91.4997 32.2446 91.8482 31.7843 92.281 31.412Z" fill="#7BED00"/>
<path d="M73.4148 34.9375H64.2358C68.8253 36.8114 71.8267 40.6545 71.8267 47.7691V49.2301H76.5909L73.4148 34.9375Z" fill="#595959"/>
<path d="M54.358 33.3494C57.5837 33.251 60.8008 33.7351 63.8546 34.7787L63.8864 34.9375H64.2358C68.8253 36.8114 71.8267 40.6545 71.8267 47.769V54.1213C71.8267 47.0068 68.8253 43.1636 64.2358 41.2897H63.8864L63.8546 41.1309C60.8008 40.0874 57.5837 39.6032 54.358 39.7017C44.7343 39.7017 36.9528 42.6237 36.8893 53.9943V47.642C36.9528 36.2714 44.7343 33.3494 54.358 33.3494Z" fill="#85FF00"/>
<path d="M33.7132 6.35229H57.5341L58.9459 12.7046H38.4774C38.0562 12.7046 37.6522 12.8719 37.3544 13.1697C37.0566 13.4675 36.8893 13.8714 36.8893 14.2926V47.642H32.1251V7.94036C32.1251 7.51918 32.2924 7.11525 32.5902 6.81743C32.888 6.51961 33.292 6.35229 33.7132 6.35229Z" fill="#00C8C8"/>
<path d="M58.9459 12.7046L63.8546 34.7787C61.7159 34.0126 59.476 33.5658 57.207 33.4527L52.5937 12.7046H58.9459Z" fill="#B4F5F0"/>
<path d="M14.6564 60.3467C14.6564 59.7185 14.8426 59.1045 15.1916 58.5822C15.5406 58.0598 16.0367 57.6527 16.617 57.4124C17.1974 57.172 17.836 57.1091 18.4521 57.2316C19.0682 57.3542 19.6342 57.6567 20.0784 58.1009C20.5225 58.545 20.825 59.111 20.9476 59.7271C21.0701 60.3432 21.0072 60.9818 20.7669 61.5622C20.5265 62.1425 20.1194 62.6386 19.5971 62.9876C19.0747 63.3366 18.4607 63.5229 17.8325 63.5229C16.9909 63.5203 16.1845 63.1849 15.5894 62.5898C14.9943 61.9947 14.6589 61.1883 14.6564 60.3467ZM17.8325 68.2871C19.9384 68.2871 21.958 67.4505 23.4471 65.9614C24.9362 64.4723 25.7728 62.4526 25.7728 60.3467C25.7766 59.8185 25.7234 59.2913 25.614 58.7745C25.2495 56.9796 24.2757 55.3658 22.8575 54.2067C21.4394 53.0475 19.6641 52.4143 17.8325 52.4143C16.0009 52.4143 14.2256 53.0475 12.8074 54.2067C11.3893 55.3658 10.4154 56.9796 10.051 58.7745C9.94157 59.2913 9.88833 59.8185 9.89216 60.3467C9.89216 62.4526 10.7287 64.4723 12.2178 65.9614C13.7069 67.4505 15.7266 68.2871 17.8325 68.2871Z" fill="#383838"/>
<path d="M94.0597 50.8184V38.2234C94.394 38.1535 94.7345 38.1168 95.076 38.1138C96.3938 38.1077 97.6668 38.5921 98.6472 39.4727C99.6276 40.3533 100.245 41.5671 100.38 42.878C100.396 43.0686 100.412 43.2592 100.412 43.4497V57.1706C100.409 58.0122 100.074 58.8186 99.4789 59.4137C98.8838 60.0088 98.0774 60.3442 97.2358 60.3468H78.179V53.9945H90.8835C91.7251 53.992 92.5315 53.6565 93.1266 53.0614C93.7217 52.4663 94.0572 51.6599 94.0597 50.8184Z" fill="#7BED00"/>
<path d="M14.6564 26.9973H9.89216V31.7615H14.6564V26.9973Z" fill="#383838"/>
<path d="M6.71603 44.466V58.7586L5.12797 61.9348H1.95184V38.1138L6.71603 44.466Z" fill="#5CB100"/>
<path d="M11.4802 41.2898H28.949V7.94041C28.949 7.09805 29.2836 6.29019 29.8792 5.69455C30.4749 5.09891 31.2827 4.76428 32.1251 4.76428H60.5658C60.4032 5.22816 60.1007 5.6301 59.6998 5.91458C59.299 6.19906 58.8197 6.35203 58.3282 6.35235H33.7132C33.292 6.35235 32.888 6.51966 32.5902 6.81748C32.2924 7.1153 32.1251 7.51923 32.1251 7.94041V47.6421H36.8893V60.3466H30.537L28.949 58.7585C28.949 55.8103 27.7778 52.9827 25.693 50.898C23.6083 48.8133 20.7808 47.6421 17.8325 47.6421C14.8842 47.6421 12.0567 48.8133 9.97197 50.898C7.88722 52.9827 6.71603 55.8103 6.71603 58.7585V44.4659L11.4802 41.2898Z" fill="#85FF00"/>
<path d="M17.8325 63.5227C16.0784 63.5227 14.6564 62.1007 14.6564 60.3465C14.6564 58.5924 16.0784 57.1704 17.8325 57.1704C19.5866 57.1704 21.0086 58.5924 21.0086 60.3465C21.0086 62.1007 19.5866 63.5227 17.8325 63.5227Z" fill="#6E6E6E"/>
<path d="M27.3609 31.7615V33.3495C27.3609 33.7707 27.1936 34.1747 26.8958 34.4725C26.5979 34.7703 26.194 34.9376 25.7728 34.9376H12.009C10.6346 34.9376 9.29724 35.3834 8.19769 36.2081L3.53989 39.7018L1.95183 38.1137L9.89216 31.7615H27.3609Z" fill="#5CB100"/>
<path d="M54.358 61.9348C50.8498 61.9348 48.0058 59.0907 48.0058 55.5825C48.0058 52.0742 50.8498 49.2302 54.358 49.2302C57.8663 49.2302 60.7103 52.0742 60.7103 55.5825C60.7103 59.0907 57.8663 61.9348 54.358 61.9348Z" fill="#6E6E6E"/>
<path d="M32.1251 47.642V55.5823C32.1251 56.4247 31.7905 57.2325 31.1948 57.8282C30.5992 58.4238 29.7913 58.7584 28.949 58.7584L30.537 60.3465H36.8893V47.642H32.1251Z" fill="#5CB100"/>
<path d="M80.3261 15.4042L78.7507 12.2519L79.7671 7.94031L84.5313 17.4687L76.5909 49.23L75.2744 43.3081L80.8327 19.7079C81.1744 18.2583 80.9951 16.7348 80.3261 15.4042Z" fill="#6E6E6E"/>
<path d="M6.71603 35.2027V44.4659H1.95184V38.1136L6.71603 34.3022V35.2027Z" fill="#5CB100"/>
<path d="M44.3641 41.8105C43.3458 40.7921 43.6696 38.8173 45.0873 37.3996C46.505 35.9818 48.4798 35.6581 49.4982 36.6764C50.5165 37.6947 50.1927 39.6696 48.775 41.0873C47.3573 42.505 45.3825 42.8288 44.3641 41.8105Z" fill="#F6FAFD"/>
<path d="M52.7429 18.5368C51.5678 16.9122 51.5612 14.9111 52.7281 14.067C53.8949 13.223 55.7935 13.8557 56.9685 15.4802C58.1436 17.1047 58.1503 19.1059 56.9834 19.9499C55.8166 20.794 53.918 20.1613 52.7429 18.5368Z" fill="#F6FAFD"/>
<path d="M52.3417 39.1787C51.8579 38.788 51.9731 37.8429 52.599 37.0677C53.225 36.2926 54.1246 35.9808 54.6084 36.3715C55.0922 36.7622 54.977 37.7073 54.3511 38.4824C53.7251 39.2576 52.8255 39.5693 52.3417 39.1787Z" fill="#F6FAFD"/>
<path d="M50.8782 22.4202C50.3831 21.5556 50.4191 20.6042 50.9587 20.2952C51.4983 19.9861 52.3372 20.4365 52.8323 21.3011C53.3275 22.1657 53.2915 23.1171 52.7519 23.4261C52.2122 23.7352 51.3734 23.2848 50.8782 22.4202Z" fill="#F6FAFD"/>
<path d="M54.358 47.6421C55.9285 47.6421 57.4637 48.1078 58.7694 48.9803C60.0752 49.8528 61.0929 51.0929 61.6939 52.5438C62.2949 53.9947 62.4522 55.5913 62.1458 57.1316C61.8394 58.6718 61.0832 60.0867 59.9727 61.1971C58.8622 62.3076 57.4474 63.0639 55.9071 63.3702C54.3668 63.6766 52.7703 63.5194 51.3194 62.9184C49.8685 62.3174 48.6284 61.2997 47.7559 59.9939C46.8834 58.6881 46.4177 57.1529 46.4177 55.5825C46.4202 53.4773 47.2576 51.4592 48.7461 49.9706C50.2347 48.482 52.2529 47.6447 54.358 47.6421ZM54.358 60.3467C55.3003 60.3467 56.2214 60.0673 57.0049 59.5438C57.7883 59.0203 58.399 58.2762 58.7596 57.4057C59.1202 56.5351 59.2145 55.5772 59.0307 54.653C58.8468 53.7289 58.3931 52.88 57.7268 52.2137C57.0605 51.5474 56.2116 51.0936 55.2875 50.9098C54.3633 50.726 53.4054 50.8203 52.5348 51.1809C51.6643 51.5415 50.9202 52.1522 50.3967 52.9356C49.8732 53.7191 49.5938 54.6402 49.5938 55.5825C49.5938 56.846 50.0958 58.0578 50.9892 58.9513C51.8827 59.8447 53.0945 60.3467 54.358 60.3467ZM17.8325 55.5825C18.7748 55.5825 19.6959 55.8619 20.4793 56.3854C21.2628 56.9089 21.8735 57.653 22.234 58.5235C22.5946 59.394 22.689 60.352 22.5052 61.2761C22.3213 62.2003 21.8676 63.0492 21.2013 63.7155C20.535 64.3818 19.6861 64.8355 18.7619 65.0193C17.8378 65.2032 16.8799 65.1088 16.0093 64.7482C15.1388 64.3876 14.3947 63.777 13.8712 62.9935C13.3477 62.21 13.0683 61.2889 13.0683 60.3467C13.0683 59.0831 13.5702 57.8713 14.4637 56.9779C15.3572 56.0844 16.569 55.5825 17.8325 55.5825ZM17.8325 61.9347C18.1466 61.9347 18.4536 61.8416 18.7148 61.6671C18.9759 61.4926 19.1795 61.2446 19.2997 60.9544C19.4199 60.6642 19.4513 60.3449 19.3901 60.0369C19.3288 59.7288 19.1775 59.4458 18.9554 59.2237C18.7333 59.0016 18.4504 58.8504 18.1423 58.7891C17.8343 58.7278 17.515 58.7593 17.2248 58.8795C16.9346 58.9997 16.6866 59.2032 16.5121 59.4644C16.3376 59.7255 16.2444 60.0326 16.2444 60.3467C16.2444 60.7679 16.4117 61.1718 16.7096 61.4696C17.0074 61.7674 17.4113 61.9347 17.8325 61.9347ZM28.949 20.645H25.7728V23.8212H28.949V20.645Z" fill="black"/>
<path d="M0.959287 36.8733L8.30409 30.9975V15.8807C8.30405 15.5932 8.38206 15.311 8.5298 15.0644C8.67753 14.8178 8.88946 14.6158 9.14297 14.4802C9.39647 14.3446 9.68204 14.2803 9.9692 14.2943C10.2564 14.3082 10.5344 14.3998 10.7735 14.5594L15.5377 17.7355C15.7552 17.8806 15.9334 18.0771 16.0567 18.3076C16.18 18.5381 16.2445 18.7954 16.2444 19.0568V30.1733H25.7728V26.9971H28.949V31.7613C28.949 32.1825 28.7816 32.5865 28.4838 32.8843C28.186 33.1821 27.7821 33.3494 27.3609 33.3494H10.4496L8.30409 35.0645V44.4659C8.30409 44.8871 8.13678 45.291 7.83896 45.5888C7.54114 45.8866 7.13721 46.0539 6.71603 46.0539H3.53989V60.3465H4.14654L5.12796 58.3726C5.22731 55.0965 6.58897 51.9855 8.92835 49.6899C11.2677 47.3942 14.4038 46.0915 17.6812 46.054C20.9586 46.0165 24.1237 47.247 26.515 49.4885C28.9064 51.73 30.3389 54.809 30.5132 58.082L31.1945 58.7585H35.3012V49.2301H32.1251C31.7039 49.2301 31.3 49.0628 31.0022 48.7649C30.7043 48.4671 30.537 48.0632 30.537 47.642V7.94035C30.537 7.09799 30.8716 6.29013 31.4673 5.69449C32.0629 5.09885 32.8708 4.76422 33.7132 4.76422H58.3282C58.5388 4.76422 58.7407 4.68057 58.8896 4.53166C59.0386 4.38275 59.1222 4.18078 59.1222 3.97019C59.1222 3.7596 59.0386 3.55763 58.8896 3.40872C58.7407 3.25981 58.5388 3.17616 58.3282 3.17616H30.537C30.1158 3.17616 29.7119 3.34347 29.4141 3.64129C29.1163 3.93911 28.949 4.34304 28.949 4.76422V17.4688H25.7728V4.76422C25.7728 3.50068 26.2748 2.28888 27.1682 1.39542C28.0617 0.501963 29.2735 2.30247e-05 30.537 2.30247e-05H58.3282C59.2803 -0.00322254 60.2017 0.336752 60.9235 0.95764C61.6453 1.57853 62.1191 2.43874 62.2582 3.38063C62.3973 4.32252 62.1924 5.28299 61.6808 6.08602C61.1693 6.88905 60.3856 7.48085 59.4732 7.75296L65.1569 33.3494H72.1571L78.179 7.74979C78.2314 4.25604 79.7321 2.7712 80.9915 2.13438C81.5884 1.83043 82.24 1.64859 82.9081 1.59951C83.5761 1.55043 84.2473 1.63509 84.8822 1.84853C85.5292 2.06373 86.1266 2.40632 86.6391 2.85608C87.1516 3.30584 87.5688 3.85366 87.8662 4.46725L95.0856 19.9747L92.2064 21.315L84.9998 5.84411C84.888 5.61411 84.7314 5.4088 84.5391 5.24025C84.3469 5.0717 84.1228 4.94333 83.8802 4.86268C83.6431 4.78277 83.3924 4.75101 83.1429 4.76928C82.8934 4.78755 82.65 4.85548 82.4271 4.96908C81.6331 5.36927 81.4028 6.54286 81.3631 7.58145L85.9526 16.7589H85.9351C85.9676 16.8099 85.9968 16.8629 86.0225 16.9177L90.9629 30.51C92.1918 29.2811 93.8574 28.589 95.5953 28.5852L93.6896 24.4864L96.5672 23.1461L99.7577 30.0049C100.443 30.5188 101.002 31.183 101.39 31.9464C101.779 32.7098 101.988 33.5521 102 34.4087V42.8778H101.943C101.959 43.0684 102 43.251 102 43.4447V57.1704C102 58.434 101.498 59.6457 100.605 60.5392C99.7111 61.4327 98.4993 61.9346 97.2358 61.9346H78.179C77.7578 61.9346 77.3539 61.7673 77.0561 61.4695C76.7583 61.1717 76.5909 60.7677 76.5909 60.3465V53.9943C76.5909 53.596 76.7406 53.2123 77.0102 52.9192L79.9306 49.743L82.2683 51.8933L79.7671 54.6136V58.7585H97.2358C97.657 58.7585 98.0609 58.5912 98.3587 58.2933C98.6566 57.9955 98.8239 57.5916 98.8239 57.1704V43.4447C98.8222 42.4525 98.4273 41.5015 97.7257 40.7999C97.0241 40.0983 96.073 39.7034 95.0808 39.7017C94.4896 39.7088 93.9079 39.8519 93.3808 40.1199C92.8538 40.3878 92.3954 40.7734 92.0412 41.2469L85.176 48.7235L82.8384 46.5732L89.2955 39.5429V35.2154L84.8139 22.8904L78.1441 49.5874V49.6096C78.09 49.8099 77.9972 49.9977 77.8709 50.1623C77.8582 50.1797 77.8566 50.202 77.8423 50.2194C77.828 50.2369 77.7772 50.2639 77.7502 50.2925C77.6419 50.409 77.5166 50.5086 77.3786 50.5879C77.3276 50.6194 77.2746 50.6475 77.2198 50.672C77.023 50.7649 76.8086 50.8147 76.5909 50.8181H73.4148V60.3465C73.4148 60.7677 73.2475 61.1717 72.9497 61.4695C72.6519 61.7673 72.2479 61.9346 71.8267 61.9346H67.1419C66.2247 63.7779 64.9222 65.4026 63.3226 66.6988H100.412V69.8749H8.30409V66.6988H10.7497C9.17617 64.9572 8.30473 62.6937 8.30409 60.3465H7.69745L6.54928 62.6445C6.41737 62.9085 6.2145 63.1305 5.96344 63.2856C5.71239 63.4407 5.42307 63.5228 5.12796 63.5227H1.95183C1.53065 63.5227 1.12671 63.3554 0.828895 63.0575C0.531074 62.7597 0.363762 62.3558 0.363762 61.9346V38.1136C0.363673 37.8755 0.417148 37.6403 0.520234 37.4256C0.623319 37.2109 0.773374 37.0222 0.959287 36.8733ZM95.0808 36.5255C96.4097 36.5266 97.7098 36.9127 98.8239 37.6372V34.4087C98.7465 33.6394 98.3705 32.9311 97.7766 32.4361C97.1827 31.9411 96.4184 31.6988 95.6477 31.7613C94.8771 31.6988 94.1127 31.9411 93.5188 32.4361C92.9249 32.9311 92.5489 33.6394 92.4716 34.4087V37.0528C93.2988 36.7091 94.1851 36.53 95.0808 36.5255ZM75.0442 34.9454L76.5004 41.4994L76.683 42.3172L82.8479 17.6546L80.307 12.5727L75.0442 34.9454ZM74.3025 46.2525L72.1444 36.5255H69.5383C72.1047 39.1379 73.391 42.8286 73.4132 47.642H74.6138L74.3025 46.2525ZM70.2387 58.7585V47.7643C70.2387 42.0838 68.2171 38.4312 63.8864 36.5255C60.8516 35.3528 57.6092 34.8124 54.358 34.9375C47.0037 34.9375 42.3522 36.759 40.1416 40.51L37.4054 38.8965C40.2369 34.0958 45.7825 31.7613 54.358 31.7613C56.8323 31.7364 59.3016 31.9873 61.7203 32.5093L56.2637 7.94035H33.7132V46.0539H35.3997C35.4658 44.8436 35.6444 43.6421 35.9333 42.4649L39.0046 43.2812C38.6363 44.7466 38.4591 46.2534 38.4774 47.7643V58.7585H40.4338C39.9486 56.6629 39.9426 54.4849 40.4163 52.3867C40.89 50.2885 41.8311 48.3243 43.1696 46.6405C44.5081 44.9567 46.2093 43.5967 48.1465 42.6619C50.0838 41.7271 52.207 41.2416 54.358 41.2416C56.509 41.2416 58.6322 41.7271 60.5695 42.6619C62.5067 43.5967 64.208 44.9567 65.5464 46.6405C66.8849 48.3243 67.8261 50.2885 68.2997 52.3867C68.7734 54.4849 68.7674 56.6629 68.2822 58.7585H70.2387ZM65.4745 55.5823C65.4745 53.3837 64.8225 51.2345 63.601 49.4064C62.3795 47.5783 60.6434 46.1534 58.6121 45.3121C56.5808 44.4707 54.3457 44.2505 52.1893 44.6795C50.0329 45.1084 48.0521 46.1671 46.4975 47.7218C44.9428 49.2765 43.8841 51.2572 43.4551 53.4136C43.0262 55.57 43.2464 57.8052 44.0877 59.8364C44.9291 61.8677 46.3539 63.6038 48.182 64.8253C50.0101 66.0468 52.1594 66.6988 54.358 66.6988C57.3051 66.695 60.1304 65.5226 62.2144 63.4387C64.2983 61.3548 65.4707 58.5295 65.4745 55.5823ZM41.5741 61.9346H30.537C30.1159 61.9345 29.712 61.7671 29.4143 61.4693L28.2915 60.3465H27.3609C27.3603 62.6937 26.4888 64.9572 24.9153 66.6988H45.3934C43.7938 65.4026 42.4913 63.7779 41.5741 61.9346ZM24.1848 60.3465C24.1848 59.0902 23.8122 57.862 23.1142 56.8174C22.4162 55.7728 21.4241 54.9586 20.2634 54.4778C19.1027 53.997 17.8254 53.8712 16.5932 54.1163C15.361 54.3614 14.2291 54.9664 13.3408 55.8548C12.4524 56.7432 11.8474 57.8751 11.6023 59.1073C11.3572 60.3395 11.483 61.6167 11.9638 62.7774C12.4446 63.9382 13.2587 64.9303 14.3034 65.6283C15.348 66.3263 16.5761 66.6988 17.8325 66.6988C19.5172 66.6988 21.1329 66.0295 22.3242 64.8383C23.5155 63.647 24.1848 62.0313 24.1848 60.3465ZM17.8325 50.8181C19.8011 50.8204 21.7206 51.4323 23.3273 52.5698C24.9339 53.7072 26.1489 55.3144 26.8051 57.1704H27.218C26.8447 54.9511 25.6971 52.9359 23.9789 51.4825C22.2606 50.0291 20.083 49.2316 17.8325 49.2316C15.582 49.2316 13.4043 50.0291 11.6861 51.4825C9.96788 52.9359 8.82027 54.9511 8.44702 57.1704H8.85991C9.5161 55.3144 10.731 53.7072 12.3377 52.5698C13.9444 51.4323 15.8639 50.8204 17.8325 50.8181ZM13.0683 19.9064L11.4802 18.8472V30.1733H13.0683V19.9064ZM5.12796 42.8778V37.6054L3.53989 38.8759V42.8778H5.12796Z" fill="black"/>
<path d="M5.12798 66.699H1.95184V69.8751H5.12798V66.699Z" fill="black"/>
</svg>
